<?xml version="1.0" encoding="UTF-8" standalone="no"?><!DOCTYPE svg PUBLIC "-//W3C//DTD SVG 1.1//EN" "http://www.w3.org/Graphics/SVG/1.1/DTD/svg11.dtd"><svg width="100%" height="100%" viewBox="0 0 300 345" version="1.1" xmlns="http://www.w3.org/2000/svg" xmlns:xlink="http://www.w3.org/1999/xlink" xml:space="preserve" xmlns:serif="http://www.serif.com/" style="fill-rule:evenodd;clip-rule:evenodd;stroke-linejoin:round;stroke-miterlimit:2;"><g id="LaserTag"><path d="M300,308.62c0,19.957 -16.423,36.38 -36.38,36.38l-227.24,0c-19.957,0 -36.38,-16.423 -36.38,-36.38l89.97,-10.24l23.314,0c0.473,13.468 16.744,24.304 36.716,24.304c19.972,-0 36.243,-10.836 36.716,-24.304l23.78,0l89.504,10.24Z" style="fill:#d5e7ff;fill-rule:nonzero;"/><path d="M-0,262.01c-0,19.952 16.418,36.37 36.37,36.37l59.994,0c-31.273,5.363 -52.471,18.635 -59.897,46.294l-0.087,0.326c-19.957,0 -36.38,-16.423 -36.38,-36.38l0,-46.62l-0,0.01Zm203.636,36.37l59.984,0c19.957,0 36.38,-16.423 36.38,-36.38l0,46.62c0,19.957 -16.423,36.38 -36.38,36.38c-7.347,-27.881 -28.588,-41.236 -59.984,-46.62Z" style="fill:url(#_Linear1);fill-rule:nonzero;"/><path d="M189.716,298.458c-0.204,6.048 -3.114,11.668 -8.042,16.226c-7.152,6.615 -18.664,11 -31.674,11c-13.01,-0 -24.522,-4.385 -31.674,-11c-4.928,-4.558 -7.838,-10.178 -8.042,-16.226l6.005,0c0.214,4.424 2.495,8.477 6.111,11.821c6.219,5.753 16.286,9.405 27.6,9.405c11.314,-0 21.381,-3.652 27.6,-9.405c3.616,-3.344 5.897,-7.397 6.111,-11.821l6.005,0Z" style="fill:#156ee1;"/><path d="M147.408,319.619c0.864,3.404 1.728,6.869 2.592,10.386c0.864,-3.517 1.728,-6.982 2.592,-10.386c10.251,-0.511 19.268,-4.03 25.008,-9.34c3.616,-3.344 5.897,-7.397 6.111,-11.821l3.003,0c0.001,-0.026 0.002,-0.052 0.002,-0.078l76.904,-0c19.957,-0 36.38,-16.423 36.38,-36.38l-0,35.158c-1.378,1.402 -2.794,2.768 -4.249,4.095c-0.104,5.765 -3.259,10.8 -8.028,12.427c-1.305,0.445 -2.687,0.64 -4.083,0.82c-0.25,0.032 -0.691,0.105 -0.892,0.139c-0.371,0.398 -0.464,0.851 -0.61,1.286c-0.393,1.18 -0.752,2.408 -1.328,3.711c-2.616,5.918 -10.46,9.227 -17.31,4.974c-1.075,-0.667 -2.108,-1.388 -3.1,-2.163c-1.413,0.509 -2.851,0.994 -4.312,1.456l-0.771,1.639l-1.687,1.722l-7.67,5.539l-1.356,0.769c-2.8,1.203 -5.604,1.427 -8.245,0.932c-0.608,-0.114 -1.208,-0.267 -1.788,-0.454c-0,0 -1.85,-0.48 -1.855,-0.482c-0.581,-0.095 -1.154,-0.225 -1.717,-0.388c-0.016,0.035 -0.031,0.071 -0.046,0.107c-1.468,3.439 -3.064,7.606 -5.136,11.713l-151.634,-0c-2.072,-4.107 -3.668,-8.274 -5.136,-11.713c-0.015,-0.036 -0.03,-0.072 -0.046,-0.107c-0.562,0.163 -1.133,0.293 -1.711,0.387c0,0 -1.842,0.479 -1.852,0.48c-0.589,0.19 -1.189,0.343 -1.797,0.457c-2.641,0.495 -5.445,0.271 -8.245,-0.932l-1.356,-0.769l-7.67,-5.539l-1.687,-1.722l-0.771,-1.639c-1.461,-0.462 -2.898,-0.947 -4.311,-1.456c-0.993,0.775 -2.026,1.495 -3.101,2.163c-6.85,4.253 -14.694,0.944 -17.31,-4.974c-0.576,-1.303 -0.935,-2.531 -1.328,-3.711c-0.146,-0.435 -0.239,-0.888 -0.61,-1.286c-0.201,-0.034 -0.642,-0.107 -0.892,-0.139c-1.396,-0.18 -2.778,-0.375 -4.083,-0.82c-4.77,-1.627 -7.924,-6.662 -8.028,-12.426c-1.455,-1.328 -2.871,-2.694 -4.249,-4.096l-0,-35.148c-0,19.952 16.418,36.37 36.37,36.37l76.914,0c0,0.026 0.001,0.052 0.002,0.078l3.003,0c0.214,4.424 2.495,8.477 6.111,11.821c5.74,5.31 14.757,8.829 25.008,9.34Z" style="fill:#001834;fill-opacity:0.25;"/><g><g><path d="M0,245.945l0,40.919c15.353,17.951 36.191,30.561 65.6,34.826c3.869,0.561 6.935,2.041 9.848,8.866c1.791,4.198 3.759,9.55 6.658,14.444l64.359,0c-3.097,-13.006 -6.195,-25.527 -9.293,-37.053c-3.389,-12.607 -15.498,-19.639 -26.888,-20.251c-32.349,-1.739 -61.587,-9.086 -80.887,-19.419c-12.607,-6.749 -22.291,-14.789 -29.397,-22.332Z" style="fill:#5c5c5c;"/><path d="M146.465,345c-3.097,-13.006 -6.195,-25.527 -9.293,-37.053c-3.389,-12.607 -15.498,-19.639 -26.888,-20.251c-32.349,-1.739 -61.587,-9.086 -80.887,-19.419c-12.607,-6.749 -22.291,-14.789 -29.397,-22.332l0,-2.49c0.673,-0 1.333,0.273 1.813,0.783c6.951,7.378 16.427,15.241 28.76,21.844c19.049,10.198 47.916,17.411 79.845,19.127c12.379,0.666 25.476,8.39 29.159,22.092c3.104,11.547 6.207,24.092 9.311,37.122c0.045,0.191 0.068,0.385 0.068,0.577l-2.491,0Zm-67.229,0c-2.57,-4.635 -4.405,-9.542 -6.079,-13.466c-2.378,-5.574 -4.755,-6.921 -7.915,-7.379c-28.911,-4.193 -49.718,-16.288 -65.242,-33.516l0,-3.775c15.353,17.951 36.191,30.561 65.6,34.826c3.869,0.561 6.935,2.041 9.848,8.866c1.791,4.198 3.759,9.55 6.658,14.444l-2.87,0Z" style="fill:#2d2d2d;"/><path d="M88.312,345c-1.169,-1.835 -2.173,-3.525 -3.082,-5.293c-2.015,-3.918 -3.513,-7.946 -4.914,-11.228c-4.049,-9.489 -8.576,-11.247 -13.957,-12.027c-12.478,-1.81 -23.336,-5.191 -32.833,-9.898l11.481,-25.736c18.133,6.431 40.704,10.858 64.993,12.163c9.29,0.5 19.297,6.058 22.06,16.34c2.565,9.541 5.129,19.767 7.693,30.386l1.236,5.293l-52.677,0Z" style="fill:#2d2d2d;"/><path d="M43.412,274.6c18.22,6.955 41.596,11.737 66.872,13.096c11.39,0.612 23.499,7.644 26.888,20.251c3.098,11.526 6.196,24.047 9.293,37.053l-5.476,0l-1.236,-5.293c-2.564,-10.619 -5.128,-20.845 -7.693,-30.386c-2.763,-10.282 -12.77,-15.84 -22.06,-16.34c-24.289,-1.305 -46.86,-5.732 -64.993,-12.163l-11.481,25.736c9.497,4.707 20.355,8.088 32.833,9.898c5.381,0.78 9.908,2.538 13.957,12.027c1.401,3.282 2.899,7.31 4.914,11.228c0.909,1.768 1.913,3.458 3.082,5.293l-6.206,0c-2.899,-4.894 -4.867,-10.246 -6.658,-14.444c-2.913,-6.825 -5.979,-8.305 -9.848,-8.866c-14.365,-2.083 -26.684,-6.157 -37.319,-11.872l15.131,-35.218Z" style="fill:#777;"/><path d="M30.803,303.948l2.522,-5.87l3.342,1.436l-2.603,5.835l-3.261,-1.401Zm7.565,-17.609l2.522,-5.87l3.585,1.541l-2.602,5.834l-3.505,-1.505Zm10.632,-9.729c1.843,0.624 3.73,1.227 5.658,1.808l-1.524,5.058c-1.986,-0.598 -3.93,-1.219 -5.829,-1.862l1.695,-5.004Zm17.131,4.883c1.903,0.451 3.836,0.882 5.798,1.291l-1.08,5.173c-2.008,-0.42 -3.987,-0.861 -5.936,-1.323l1.218,-5.141Zm17.484,3.422c1.939,0.304 3.899,0.588 5.878,0.852l-0.697,5.243c-2.021,-0.27 -4.022,-0.56 -6.002,-0.872l0.821,-5.223Zm17.686,2.149c1.96,0.17 3.935,0.321 5.922,0.45l-0.344,5.282c-2.026,-0.132 -4.039,-0.286 -6.038,-0.46l0.46,-5.272Zm17.606,2.313c1.866,0.637 3.685,1.447 5.413,2.426l-2.6,4.586c-1.441,-0.816 -2.959,-1.488 -4.517,-2.015l1.704,-4.997Zm14.266,10.214c1.148,1.572 2.131,3.294 2.91,5.162l-4.884,2.038c-0.615,-1.478 -1.39,-2.84 -2.294,-4.085l4.268,-3.115Zm6.167,16.578c0.491,1.896 0.982,3.815 1.473,5.754l-5.131,1.3c-0.488,-1.93 -0.977,-3.84 -1.466,-5.727l5.124,-1.327Zm4.34,17.282c0.467,1.911 0.934,3.835 1.401,5.773l-0.842,0.203l-4.554,-0c-0.382,-1.582 -0.764,-3.155 -1.146,-4.718l5.141,-1.258Zm-108.001,-25.864c1.636,0.761 3.312,1.483 5.027,2.165l-1.957,4.929c-1.811,-0.719 -3.578,-1.48 -5.304,-2.281l2.234,-4.813Zm15.437,5.671c1.745,0.489 3.527,0.942 5.348,1.358l-1.178,5.163c-1.905,-0.435 -3.77,-0.908 -5.596,-1.418l1.426,-5.103Zm16.592,3.417c2.815,0.534 5.393,1.516 7.791,3.993l-3.814,3.826c-1.553,-1.548 -3.208,-2.246 -5.044,-2.624l1.067,-5.195Zm14.3,15.895c0.675,1.635 1.399,3.351 2.209,5.074l-4.787,2.242c-0.844,-1.801 -1.601,-3.591 -2.306,-5.293l4.884,-2.023Z" style="fill:#626262;"/></g><g><path d="M6.692,286.334l1.471,-25.006l29.492,20.52l-9.374,20.667l-21.589,-16.181Z" style="fill:#8e8e8e;"/><path d="M7.01,280.921l1.153,-19.593l29.492,20.52l-7.39,16.293l-23.255,-17.22Z" style="fill:#acacac;"/><path d="M54.373,293.886l-6.121,13.723l-7.183,-3.204l6.12,-13.723l7.184,3.204Z" style="fill:#8e8e8e;"/><path d="M54.373,293.886l-3.775,8.463l-7.183,-3.203l3.774,-8.464l7.184,3.204Z" style="fill:#acacac;"/><path d="M43.263,303.884c0.41,-0.992 1.549,-1.465 2.541,-1.055c0.993,0.41 1.465,1.549 1.055,2.542c-2.869,6.943 -7.177,12.003 -12.716,15.443c-4.286,2.661 -9.23,0.718 -10.867,-2.985c-0.514,-1.163 -0.824,-2.263 -1.175,-3.316c-0.397,-1.189 -0.841,-2.313 -2.037,-3.364c-0.944,-0.83 -2.054,-0.941 -3.133,-1.08c-1.096,-0.142 -2.187,-0.269 -3.212,-0.618c-4.088,-1.395 -5.951,-6.778 -4.541,-11.833c0.542,-1.943 2.125,-4.904 3.905,-7.924c0.545,-0.925 1.739,-1.233 2.664,-0.688c0.925,0.545 1.234,1.739 0.689,2.664c-1.576,2.675 -3.029,5.273 -3.509,6.993c-0.451,1.615 -0.458,3.303 -0.007,4.699c0.361,1.116 1.013,2.05 2.056,2.405c1.025,0.35 2.139,0.379 3.233,0.552c1.553,0.247 3.064,0.711 4.425,1.907c1.535,1.35 2.307,2.751 2.872,4.244c0.449,1.187 0.736,2.443 1.33,3.786c0.784,1.774 3.2,2.527 5.254,1.252c4.878,-3.029 8.646,-7.509 11.173,-13.624Z" style="fill:#76093e;"/><path d="M43.263,303.884c0.41,-0.992 1.549,-1.465 2.541,-1.055c0.993,0.41 1.465,1.549 1.055,2.542c-2.869,6.943 -7.177,12.003 -12.716,15.443c-4.286,2.661 -9.23,0.718 -10.867,-2.985c-0.514,-1.163 -0.824,-2.263 -1.175,-3.316c-0.397,-1.189 -0.841,-2.313 -2.037,-3.364c-0.944,-0.83 -2.054,-0.941 -3.133,-1.08c-1.096,-0.142 -2.187,-0.269 -3.212,-0.618c-4.088,-1.395 -5.951,-6.778 -4.541,-11.833c0.542,-1.943 2.125,-4.904 3.905,-7.924c0.545,-0.925 1.739,-1.233 2.664,-0.688c0.925,0.545 1.234,1.739 0.689,2.664c-1.576,2.675 -3.029,5.273 -3.509,6.993c-0.451,1.615 -0.458,3.303 -0.007,4.699c0.361,1.116 1.013,2.05 2.056,2.405c1.025,0.35 2.139,0.379 3.233,0.552c1.553,0.247 3.064,0.711 4.425,1.907c1.535,1.35 2.307,2.751 2.872,4.244c0.449,1.187 0.736,2.443 1.33,3.786c0.784,1.774 3.2,2.527 5.254,1.252c4.878,-3.029 8.646,-7.509 11.173,-13.624Zm0.924,0.382c-2.615,6.328 -6.522,10.957 -11.569,14.091c-2.628,1.632 -5.693,0.573 -6.697,-1.697c-0.601,-1.36 -0.895,-2.633 -1.351,-3.836c-0.511,-1.352 -1.206,-2.624 -2.596,-3.847c-1.204,-1.058 -2.548,-1.452 -3.922,-1.67c-1.151,-0.183 -2.321,-0.225 -3.399,-0.593c-1.338,-0.456 -2.222,-1.613 -2.684,-3.044c-0.507,-1.568 -0.511,-3.463 -0.005,-5.275c0.495,-1.778 1.982,-4.469 3.61,-7.233c0.265,-0.449 0.115,-1.03 -0.334,-1.295c-0.45,-0.265 -1.031,-0.115 -1.296,0.335c-1.727,2.931 -3.277,5.799 -3.803,7.684c-1.258,4.512 0.252,9.374 3.901,10.618c0.963,0.329 1.987,0.44 3.017,0.573c1.269,0.163 2.556,0.345 3.666,1.321c1.354,1.191 1.876,2.452 2.324,3.799c0.342,1.025 0.642,2.096 1.142,3.228c1.418,3.207 5.712,4.844 9.425,2.539c5.369,-3.334 9.538,-8.245 12.319,-14.975c0.2,-0.483 -0.03,-1.036 -0.513,-1.236c-0.482,-0.199 -1.036,0.031 -1.235,0.513Z" style="fill:#38001b;"/><path d="M16.972,271.721l-1.925,10.795l-4.432,-3.281l0.675,-11.467l5.682,3.953Zm8.069,18.196l4.145,-9.698l4.078,2.837l-4.397,9.694l-3.826,-2.833Zm-6.854,-5.075l1.948,-10.92l6.117,4.256l-4.103,9.598l-3.962,-2.934Z" style="fill:#8e8e8e;"/><path d="M16.664,273.452l-1.617,9.064l-4.432,-3.281l0.555,-9.432l5.494,3.649Zm8.377,16.465l3.507,-8.3l4.078,2.837l-3.759,8.296l-3.826,-2.833Zm-6.854,-5.075l1.661,-9.312l5.674,3.976l-3.373,8.27l-3.962,-2.934Z" style="fill:#ff007b;"/><path d="M15.882,284.534c-0.027,-0.028 -0.083,-0.053 -0.08,-0.085c0.018,-0.192 1.782,-11.634 1.908,-12.079c0.007,-0.025 0.04,-0.142 0.247,-0.256c0.277,-0.152 0.376,-0.134 0.579,0.11c0.151,0.18 0.138,0.301 0.136,0.327c-0.05,0.484 -2.13,9.532 -2.32,10.36c-0.364,1.581 -0.358,1.742 -0.47,1.623Zm6.807,4.917c-0.019,-0.034 -0.067,-0.072 -0.056,-0.102c0.065,-0.181 4.633,-10.819 4.866,-11.219c0.013,-0.022 0.074,-0.127 0.303,-0.185c0.307,-0.079 0.399,-0.037 0.534,0.25c0.101,0.213 0.058,0.326 0.049,0.351c-0.168,0.456 -4.444,8.697 -4.836,9.451c-0.747,1.44 -0.781,1.598 -0.86,1.454Zm12.553,-7.032l-25.253,-18.372c-0.008,-0.012 -0.118,-0.378 0.142,-0.201c8.857,6.033 17.645,12.167 26.502,18.2c-3.037,6.825 -3.013,6.832 -6.564,14.687c-0.547,-0.387 -1.792,-1.036 -5.381,-3.977c-0.028,-0.023 -2.148,-1.785 -2.148,-1.785c-0.025,-0.084 -0.145,-0.386 0.164,-0.245c0.115,0.052 4.356,2.235 4.912,2.585c0.625,0.392 1.213,0.84 1.838,1.233c2.883,-6.116 2.899,-6.102 5.788,-12.125Z" style="fill:#b1889c;"/><path d="M18.859,271.104l0.022,-0.125l9.986,6.996l7.163,4.983l-5.661,12.494l-21.435,-15.872l0.853,-14.502l9.072,6.026Z" style="fill:#ff6fb5;fill-opacity:0.25;"/></g><g><path d="M89.463,333.6l-12.26,-28.249l46.477,-0.079l7.101,28.565l0,4.261l-39.87,-0l-1.448,-4.498Z" style="fill:#8e8e8e;"/><path d="M89.463,333.6l-12.26,-28.249l46.477,-0.079l7.101,28.565l-41.318,-0.237Z" style="fill:#acacac;"/><path d="M89.878,325.765l35.29,-0l1.13,4.546c0,0 -34.533,-0.198 -34.533,-0.198l-1.887,-4.348Zm32.202,-12.421l-37.593,0l-1.954,-4.502l38.411,-0.065l1.136,4.567Zm2.218,8.921l-35.855,-0c-0.028,-0 -0.056,0 -0.083,0.002l-2.354,-5.423l36.944,0l1.348,5.421Z" style="fill:#8e8e8e;"/><path d="M90.461,327.107l35.041,0l0.796,3.204c0,0 -34.533,-0.198 -34.533,-0.198l-1.304,-3.006Zm31.619,-13.763l-37.593,0l-1.508,-3.474l38.237,-0l0.864,3.474Zm2.218,8.921l-35.855,-0c-0.028,-0 -0.056,0 -0.083,0.002l-1.775,-4.089l36.697,0l1.016,4.087Z" style="fill:#ff007b;"/><path d="M122.941,306.381c1.587,6.462 2.264,8.903 6.036,25.849c0.006,0.03 0.025,0.059 0.019,0.088c-0.003,0.018 -0.086,0.198 -0.136,0.035c-0.123,-0.409 -2.679,-9.336 -4.035,-14.259c-1.675,-6.078 -2.802,-10.507 -2.807,-10.527c-2.878,-0.029 -7.503,0.011 -30.069,-0.534c-0.048,-0.001 -0.2,0.021 -0.2,-0.087c-0,-0.041 0.047,-0.083 0.087,-0.085c0.212,-0.009 11.174,-0.24 16.971,-0.333c9.437,-0.152 13.4,-0.141 14.134,-0.147Z" style="fill:#b1889c;"/><path d="M95.672,314.601c0.048,-0.047 0.077,-0.136 0.144,-0.141c0.402,-0.024 24.595,-0.542 25.559,-0.478c0.054,0.004 0.306,0.021 0.619,0.292c0.42,0.365 0.421,0.515 -0.004,0.878c-0.314,0.269 -0.567,0.284 -0.621,0.287c-1.014,0.059 -20.407,-0.536 -22.182,-0.59c-3.389,-0.104 -3.717,-0.051 -3.515,-0.248Z" style="fill:#b1889c;"/><path d="M97.705,323.638c0.048,-0.046 0.078,-0.136 0.145,-0.14c0.401,-0.025 24.595,-0.542 25.558,-0.478c0.055,0.003 0.307,0.02 0.62,0.292c0.42,0.365 0.42,0.515 -0.004,0.878c-0.315,0.269 -0.567,0.283 -0.622,0.286c-1.013,0.059 -20.407,-0.535 -22.181,-0.59c-3.39,-0.104 -3.718,-0.051 -3.516,-0.248Z" style="fill:#b1889c;"/><path d="M128.928,331.43l-37.797,-0.204l-2.748,-6.331l38.882,0l1.663,6.535Zm-45.072,-16.967l-2.954,-6.805l42.078,-0l1.692,6.805l-40.816,0Zm5.048,8.921c-0.002,-0 -0.004,-0 -0.005,-0l-1.148,0.054l-3.243,-7.472l40.537,0l1.844,7.418l-37.985,-0Z" style="fill:#ff6fb5;fill-opacity:0.25;"/></g><g><path d="M65.332,286.732c6.025,1.048 9.186,4.328 6.935,8.741l-13.561,24.262c-2.566,2.307 -7.205,-1.431 -7.901,-6.564l14.527,-26.439Z"/><path d="M63.204,329.112c-0.686,-0.132 -1.376,-0.343 -2.066,-0.64c-0.178,-0.076 -0.348,-0.172 -0.505,-0.285l-7.67,-5.54c-1.105,-0.798 -1.423,-2.306 -0.734,-3.482l18.876,-32.243l-0.189,0.066l-1.308,-2.131l3.864,-0.949c0.28,-0.119 0.582,-0.191 0.895,-0.208c0.887,-0.049 1.739,0.351 2.269,1.065c2.763,3.722 5.591,7.575 8.735,12.06c2.277,3.248 4.413,8.363 0.635,14.308c-2.605,4.097 -9.901,12.893 -15.207,16.345c-1.347,0.877 -2.843,1.481 -4.415,1.708l-3.566,0.926l0.368,-0.99l0.018,-0.01Zm-5.193,-9.348c0,-0 5.458,3.942 5.461,3.943c1.583,0.578 3.148,0.175 4.44,-0.665c4.772,-3.105 11.284,-11.063 13.627,-14.748c2.228,-3.506 0.841,-6.515 -0.502,-8.431c-2.219,-3.165 -4.279,-6.012 -6.27,-8.721l-16.756,28.622Z" style="fill:#8e8e8e;"/><path d="M48.252,320.159l19.998,-34.16c0.449,-0.766 1.253,-1.257 2.14,-1.305c0.887,-0.048 1.739,0.352 2.269,1.065c2.763,3.722 5.591,7.575 8.735,12.06c2.277,3.249 4.413,8.363 0.635,14.308c-2.605,4.097 -9.901,12.893 -15.207,16.345c-2.797,1.82 -6.233,2.468 -9.661,0.995c-0.178,-0.077 -0.348,-0.173 -0.505,-0.286l-7.67,-5.54c-1.105,-0.798 -1.423,-2.305 -0.734,-3.482Zm5.782,0.599c0,0 5.458,3.942 5.461,3.943c1.583,0.578 3.148,0.175 4.44,-0.665c4.772,-3.105 11.284,-11.063 13.627,-14.748c2.228,-3.506 0.841,-6.515 -0.502,-8.43c-2.219,-3.165 -4.279,-6.013 -6.27,-8.721l-16.756,28.621Z" style="fill:#acacac;"/><path d="M78.567,299.887c-0.228,-0.394 -0.092,-0.899 0.302,-1.126c0.394,-0.228 0.899,-0.092 1.127,0.302c1.985,3.44 3.149,5.618 1.682,9.659c-0.663,1.823 -2.881,4.914 -5.615,8.102c-4.053,4.728 -9.224,9.686 -11.875,11.099c-3.262,1.738 -5.851,0.864 -8.006,-1.114c-0.336,-0.308 -0.358,-0.831 -0.05,-1.166c0.308,-0.335 0.83,-0.358 1.165,-0.05c1.647,1.512 3.622,2.202 6.115,0.874c2.552,-1.36 7.498,-6.166 11.399,-10.717c2.57,-2.997 4.693,-5.877 5.316,-7.592c1.26,-3.468 0.144,-5.317 -1.56,-8.271Z" style="fill:#787878;"/><path d="M61.466,328.818c-2.033,0.23 -3.766,-0.616 -5.284,-2.009c-0.336,-0.308 -0.358,-0.831 -0.05,-1.166c0.308,-0.335 0.83,-0.358 1.165,-0.05c0.035,0.032 0.07,0.063 0.105,0.094c-0.268,0.336 -0.234,0.827 0.087,1.122c1.182,1.084 2.495,1.837 3.977,2.009Zm0.045,-1.695c0.598,-0.088 1.231,-0.299 1.901,-0.656c2.552,-1.36 7.498,-6.166 11.399,-10.717c2.57,-2.997 4.693,-5.877 5.316,-7.592c1.26,-3.468 0.144,-5.317 -1.56,-8.271c-0.228,-0.394 -0.092,-0.899 0.302,-1.126c0.362,-0.209 0.818,-0.112 1.066,0.211c-0.197,0.257 -0.233,0.618 -0.061,0.915c1.705,2.954 2.821,4.803 1.561,8.271c-0.623,1.715 -2.747,4.595 -5.317,7.592c-3.901,4.551 -8.846,9.357 -11.398,10.717c-1.179,0.628 -2.242,0.804 -3.209,0.656Z" style="fill:#8e8e8e;"/><path d="M65.332,286.732c-0.831,4.283 3.99,11.703 6.935,8.741l-13.561,24.262c-2.566,2.307 -7.205,-1.431 -7.901,-6.564l14.527,-26.439Z" style="fill:#5b5b5b;"/><path d="M64.784,287.712c-0.831,4.283 3.99,11.703 6.936,8.74l-13.014,23.283c-2.566,2.307 -7.205,-1.431 -7.901,-6.564l13.979,-25.459Z" style="fill:#777;"/></g></g><g><g><path d="M300,245.945l0,40.919c-15.353,17.951 -36.191,30.561 -65.6,34.826c-3.869,0.561 -6.935,2.041 -9.848,8.866c-1.791,4.198 -3.759,9.55 -6.658,14.444l-64.359,0c3.097,-13.006 6.195,-25.527 9.293,-37.053c3.389,-12.607 15.498,-19.639 26.888,-20.251c32.349,-1.739 61.587,-9.086 80.887,-19.419c12.607,-6.749 22.291,-14.789 29.397,-22.332Z" style="fill:#5c5c5c;"/><path d="M153.535,345c3.097,-13.006 6.195,-25.527 9.293,-37.053c3.389,-12.607 15.498,-19.639 26.888,-20.251c32.349,-1.739 61.587,-9.086 80.887,-19.419c12.607,-6.749 22.291,-14.789 29.397,-22.332l0,-2.49c-0.673,-0 -1.333,0.273 -1.813,0.783c-6.951,7.378 -16.427,15.241 -28.76,21.844c-19.049,10.198 -47.916,17.411 -79.845,19.127c-12.379,0.666 -25.476,8.39 -29.159,22.092c-3.104,11.547 -6.207,24.092 -9.311,37.122c-0.045,0.191 -0.068,0.385 -0.068,0.577l2.491,0Zm67.229,0c2.57,-4.635 4.405,-9.542 6.079,-13.466c2.378,-5.574 4.755,-6.921 7.915,-7.379c28.911,-4.193 49.718,-16.288 65.242,-33.516l0,-3.775c-15.353,17.951 -36.191,30.561 -65.6,34.826c-3.869,0.561 -6.935,2.041 -9.848,8.866c-1.791,4.198 -3.759,9.55 -6.658,14.444l2.87,0Z" style="fill:#2d2d2d;"/><path d="M211.688,345c1.169,-1.835 2.173,-3.525 3.082,-5.293c2.015,-3.918 3.513,-7.946 4.914,-11.228c4.049,-9.489 8.576,-11.247 13.957,-12.027c12.478,-1.81 23.336,-5.191 32.833,-9.898l-11.481,-25.736c-18.133,6.431 -40.704,10.858 -64.993,12.163c-9.29,0.5 -19.297,6.058 -22.06,16.34c-2.565,9.541 -5.129,19.767 -7.693,30.386l-1.236,5.293l52.677,0Z" style="fill:#2d2d2d;"/><path d="M256.588,274.6c-18.22,6.955 -41.596,11.737 -66.872,13.096c-11.39,0.612 -23.499,7.644 -26.888,20.251c-3.098,11.526 -6.196,24.047 -9.293,37.053l5.476,0l1.236,-5.293c2.564,-10.619 5.128,-20.845 7.693,-30.386c2.763,-10.282 12.77,-15.84 22.06,-16.34c24.289,-1.305 46.86,-5.732 64.993,-12.163l11.481,25.736c-9.497,4.707 -20.355,8.088 -32.833,9.898c-5.381,0.78 -9.908,2.538 -13.957,12.027c-1.401,3.282 -2.899,7.31 -4.914,11.228c-0.909,1.768 -1.913,3.458 -3.082,5.293l6.206,0c2.899,-4.894 4.867,-10.246 6.658,-14.444c2.913,-6.825 5.979,-8.305 9.848,-8.866c14.365,-2.083 26.684,-6.157 37.319,-11.872l-15.131,-35.218Z" style="fill:#777;"/><path d="M269.197,303.948l-2.522,-5.87l-3.342,1.436l2.603,5.835l3.261,-1.401Zm-7.565,-17.609l-2.522,-5.87l-3.585,1.541l2.602,5.834l3.505,-1.505Zm-10.632,-9.729c-1.843,0.624 -3.73,1.227 -5.658,1.808l1.524,5.058c1.986,-0.598 3.93,-1.219 5.829,-1.862l-1.695,-5.004Zm-17.131,4.883c-1.903,0.451 -3.836,0.882 -5.798,1.291l1.08,5.173c2.008,-0.42 3.987,-0.861 5.936,-1.323l-1.218,-5.141Zm-17.484,3.422c-1.939,0.304 -3.899,0.588 -5.878,0.852l0.697,5.243c2.021,-0.27 4.022,-0.56 6.002,-0.872l-0.821,-5.223Zm-17.686,2.149c-1.96,0.17 -3.935,0.321 -5.922,0.45l0.344,5.282c2.026,-0.132 4.039,-0.286 6.038,-0.46l-0.46,-5.272Zm-17.606,2.313c-1.866,0.637 -3.685,1.447 -5.413,2.426l2.6,4.586c1.441,-0.816 2.959,-1.488 4.517,-2.015l-1.704,-4.997Zm-14.266,10.214c-1.148,1.572 -2.131,3.294 -2.91,5.162l4.884,2.038c0.615,-1.478 1.39,-2.84 2.294,-4.085l-4.268,-3.115Zm-6.167,16.578c-0.491,1.896 -0.982,3.815 -1.473,5.754l5.131,1.3c0.488,-1.93 0.977,-3.84 1.466,-5.727l-5.124,-1.327Zm-4.34,17.282c-0.467,1.911 -0.934,3.835 -1.401,5.773l0.842,0.203l4.554,-0c0.382,-1.582 0.764,-3.155 1.146,-4.718l-5.141,-1.258Zm108.001,-25.864c-1.636,0.761 -3.312,1.483 -5.027,2.165l1.957,4.929c1.811,-0.719 3.578,-1.48 5.304,-2.281l-2.234,-4.813Zm-15.437,5.671c-1.745,0.489 -3.527,0.942 -5.348,1.358l1.178,5.163c1.905,-0.435 3.77,-0.908 5.596,-1.418l-1.426,-5.103Zm-16.592,3.417c-2.815,0.534 -5.393,1.516 -7.791,3.993l3.814,3.826c1.553,-1.548 3.208,-2.246 5.044,-2.624l-1.067,-5.195Zm-14.3,15.895c-0.675,1.635 -1.399,3.351 -2.209,5.074l4.787,2.242c0.844,-1.801 1.601,-3.591 2.306,-5.293l-4.884,-2.023Z" style="fill:#626262;"/></g><g><path d="M293.308,286.334l-1.471,-25.006l-29.492,20.52l9.374,20.667l21.589,-16.181Z" style="fill:#8e8e8e;"/><path d="M292.99,280.921l-1.153,-19.593l-29.492,20.52l7.39,16.293l23.255,-17.22Z" style="fill:#acacac;"/><path d="M245.627,293.886l6.121,13.723l7.183,-3.204l-6.12,-13.723l-7.184,3.204Z" style="fill:#8e8e8e;"/><path d="M245.627,293.886l3.775,8.463l7.183,-3.203l-3.774,-8.464l-7.184,3.204Z" style="fill:#acacac;"/><path d="M256.737,303.884c-0.41,-0.992 -1.549,-1.465 -2.541,-1.055c-0.993,0.41 -1.465,1.549 -1.055,2.542c2.869,6.943 7.177,12.003 12.716,15.443c4.286,2.661 9.23,0.718 10.867,-2.985c0.514,-1.163 0.824,-2.263 1.175,-3.316c0.397,-1.189 0.841,-2.313 2.037,-3.364c0.944,-0.83 2.054,-0.941 3.133,-1.08c1.096,-0.142 2.187,-0.269 3.212,-0.618c4.088,-1.395 5.951,-6.778 4.541,-11.833c-0.542,-1.943 -2.125,-4.904 -3.905,-7.924c-0.545,-0.925 -1.739,-1.233 -2.664,-0.688c-0.925,0.545 -1.234,1.739 -0.689,2.664c1.576,2.675 3.029,5.273 3.509,6.993c0.451,1.615 0.458,3.303 0.007,4.699c-0.361,1.116 -1.013,2.05 -2.056,2.405c-1.025,0.35 -2.139,0.379 -3.233,0.552c-1.553,0.247 -3.064,0.711 -4.425,1.907c-1.535,1.35 -2.307,2.751 -2.872,4.244c-0.449,1.187 -0.736,2.443 -1.33,3.786c-0.784,1.774 -3.2,2.527 -5.254,1.252c-4.878,-3.029 -8.646,-7.509 -11.173,-13.624Z" style="fill:#76093e;"/><path d="M256.737,303.884c-0.41,-0.992 -1.549,-1.465 -2.541,-1.055c-0.993,0.41 -1.465,1.549 -1.055,2.542c2.869,6.943 7.177,12.003 12.716,15.443c4.286,2.661 9.23,0.718 10.867,-2.985c0.514,-1.163 0.824,-2.263 1.175,-3.316c0.397,-1.189 0.841,-2.313 2.037,-3.364c0.944,-0.83 2.054,-0.941 3.133,-1.08c1.096,-0.142 2.187,-0.269 3.212,-0.618c4.088,-1.395 5.951,-6.778 4.541,-11.833c-0.542,-1.943 -2.125,-4.904 -3.905,-7.924c-0.545,-0.925 -1.739,-1.233 -2.664,-0.688c-0.925,0.545 -1.234,1.739 -0.689,2.664c1.576,2.675 3.029,5.273 3.509,6.993c0.451,1.615 0.458,3.303 0.007,4.699c-0.361,1.116 -1.013,2.05 -2.056,2.405c-1.025,0.35 -2.139,0.379 -3.233,0.552c-1.553,0.247 -3.064,0.711 -4.425,1.907c-1.535,1.35 -2.307,2.751 -2.872,4.244c-0.449,1.187 -0.736,2.443 -1.33,3.786c-0.784,1.774 -3.2,2.527 -5.254,1.252c-4.878,-3.029 -8.646,-7.509 -11.173,-13.624Zm-0.924,0.382c2.615,6.328 6.522,10.957 11.569,14.091c2.628,1.632 5.693,0.573 6.697,-1.697c0.601,-1.36 0.895,-2.633 1.351,-3.836c0.511,-1.352 1.206,-2.624 2.596,-3.847c1.204,-1.058 2.548,-1.452 3.922,-1.67c1.151,-0.183 2.321,-0.225 3.399,-0.593c1.338,-0.456 2.222,-1.613 2.684,-3.044c0.507,-1.568 0.511,-3.463 0.005,-5.275c-0.495,-1.778 -1.982,-4.469 -3.61,-7.233c-0.265,-0.449 -0.115,-1.03 0.334,-1.295c0.45,-0.265 1.031,-0.115 1.296,0.335c1.727,2.931 3.277,5.799 3.803,7.684c1.258,4.512 -0.252,9.374 -3.901,10.618c-0.963,0.329 -1.987,0.44 -3.017,0.573c-1.269,0.163 -2.556,0.345 -3.666,1.321c-1.354,1.191 -1.876,2.452 -2.324,3.799c-0.342,1.025 -0.642,2.096 -1.142,3.228c-1.418,3.207 -5.712,4.844 -9.425,2.539c-5.369,-3.334 -9.538,-8.245 -12.319,-14.975c-0.2,-0.483 0.03,-1.036 0.513,-1.236c0.482,-0.199 1.036,0.031 1.235,0.513Z" style="fill:#38001b;"/><path d="M283.028,271.721l1.925,10.795l4.432,-3.281l-0.675,-11.467l-5.682,3.953Zm-8.069,18.196l-4.145,-9.698l-4.078,2.837l4.397,9.694l3.826,-2.833Zm6.854,-5.075l-1.948,-10.92l-6.117,4.256l4.103,9.598l3.962,-2.934Z" style="fill:#8e8e8e;"/><path d="M283.336,273.452l1.617,9.064l4.432,-3.281l-0.555,-9.432l-5.494,3.649Zm-8.377,16.465l-3.507,-8.3l-4.078,2.837l3.759,8.296l3.826,-2.833Zm6.854,-5.075l-1.661,-9.312l-5.674,3.976l3.373,8.27l3.962,-2.934Z" style="fill:#ff007b;"/><path d="M284.118,284.534c0.027,-0.028 0.083,-0.053 0.08,-0.085c-0.018,-0.192 -1.782,-11.634 -1.908,-12.079c-0.007,-0.025 -0.04,-0.142 -0.247,-0.256c-0.277,-0.152 -0.376,-0.134 -0.579,0.11c-0.151,0.18 -0.138,0.301 -0.136,0.327c0.05,0.484 2.13,9.532 2.32,10.36c0.364,1.581 0.358,1.742 0.47,1.623Zm-6.807,4.917c0.019,-0.034 0.067,-0.072 0.056,-0.102c-0.065,-0.181 -4.633,-10.819 -4.866,-11.219c-0.013,-0.022 -0.074,-0.127 -0.303,-0.185c-0.307,-0.079 -0.399,-0.037 -0.534,0.25c-0.101,0.213 -0.058,0.326 -0.049,0.351c0.168,0.456 4.444,8.697 4.836,9.451c0.747,1.44 0.781,1.598 0.86,1.454Zm-12.553,-7.032l25.253,-18.372c0.008,-0.012 0.118,-0.378 -0.142,-0.201c-8.857,6.033 -17.645,12.167 -26.502,18.2c3.037,6.825 3.013,6.832 6.564,14.687c0.547,-0.387 1.792,-1.036 5.381,-3.977c0.028,-0.023 2.148,-1.785 2.148,-1.785c0.025,-0.084 0.145,-0.386 -0.164,-0.245c-0.115,0.052 -4.356,2.235 -4.912,2.585c-0.625,0.392 -1.213,0.84 -1.838,1.233c-2.883,-6.116 -2.899,-6.102 -5.788,-12.125Z" style="fill:#b1889c;"/><path d="M281.141,271.104l-0.022,-0.125l-9.986,6.996l-7.163,4.983l5.661,12.494l21.435,-15.872l-0.853,-14.502l-9.072,6.026Z" style="fill:#ff6fb5;fill-opacity:0.25;"/></g><g><path d="M210.537,333.6l12.26,-28.249l-46.477,-0.079l-7.101,28.565l-0,4.261l39.87,-0l1.448,-4.498Z" style="fill:#8e8e8e;"/><path d="M210.537,333.6l12.26,-28.249l-46.477,-0.079l-7.101,28.565l41.318,-0.237Z" style="fill:#acacac;"/><path d="M210.122,325.765l-35.29,-0l-1.13,4.546c-0,0 34.533,-0.198 34.533,-0.198l1.887,-4.348Zm-32.202,-12.421l37.593,0l1.954,-4.502l-38.411,-0.065l-1.136,4.567Zm-2.218,8.921l35.855,-0c0.028,-0 0.056,0 0.083,0.002l2.354,-5.423l-36.944,0l-1.348,5.421Z" style="fill:#8e8e8e;"/><path d="M209.539,327.107l-35.041,0l-0.796,3.204c-0,0 34.533,-0.198 34.533,-0.198l1.304,-3.006Zm-31.619,-13.763l37.593,0l1.508,-3.474l-38.237,-0l-0.864,3.474Zm-2.218,8.921l35.855,-0c0.028,-0 0.056,0 0.083,0.002l1.775,-4.089l-36.697,0l-1.016,4.087Z" style="fill:#ff007b;"/><path d="M177.059,306.381c-1.587,6.462 -2.264,8.903 -6.036,25.849c-0.006,0.03 -0.025,0.059 -0.019,0.088c0.003,0.018 0.086,0.198 0.136,0.035c0.123,-0.409 2.679,-9.336 4.035,-14.259c1.675,-6.078 2.802,-10.507 2.807,-10.527c2.878,-0.029 7.503,0.011 30.069,-0.534c0.048,-0.001 0.2,0.021 0.2,-0.087c0,-0.041 -0.047,-0.083 -0.087,-0.085c-0.212,-0.009 -11.174,-0.24 -16.971,-0.333c-9.437,-0.152 -13.4,-0.141 -14.134,-0.147Z" style="fill:#b1889c;"/><path d="M204.328,314.601c-0.048,-0.047 -0.077,-0.136 -0.144,-0.141c-0.402,-0.024 -24.595,-0.542 -25.559,-0.478c-0.054,0.004 -0.306,0.021 -0.619,0.292c-0.42,0.365 -0.421,0.515 0.004,0.878c0.314,0.269 0.567,0.284 0.621,0.287c1.014,0.059 20.407,-0.536 22.182,-0.59c3.389,-0.104 3.717,-0.051 3.515,-0.248Z" style="fill:#b1889c;"/><path d="M202.295,323.638c-0.048,-0.046 -0.078,-0.136 -0.145,-0.14c-0.401,-0.025 -24.595,-0.542 -25.558,-0.478c-0.055,0.003 -0.307,0.02 -0.62,0.292c-0.42,0.365 -0.42,0.515 0.004,0.878c0.315,0.269 0.567,0.283 0.622,0.286c1.013,0.059 20.407,-0.535 22.181,-0.59c3.39,-0.104 3.718,-0.051 3.516,-0.248Z" style="fill:#b1889c;"/><path d="M171.072,331.43l37.797,-0.204l2.748,-6.331l-38.882,0l-1.663,6.535Zm45.072,-16.967l2.954,-6.805l-42.078,-0l-1.692,6.805l40.816,0Zm-5.048,8.921c0.002,-0 0.004,-0 0.005,-0l1.148,0.054l3.243,-7.472l-40.537,0l-1.844,7.418l37.985,-0Z" style="fill:#ff6fb5;fill-opacity:0.25;"/></g><g><path d="M234.668,286.732c-6.025,1.048 -9.186,4.328 -6.935,8.741l13.561,24.262c2.566,2.307 7.205,-1.431 7.901,-6.564l-14.527,-26.439Z"/><path d="M236.796,329.112c0.686,-0.132 1.376,-0.343 2.066,-0.64c0.178,-0.076 0.348,-0.172 0.505,-0.285l7.67,-5.54c1.105,-0.798 1.423,-2.306 0.734,-3.482l-18.876,-32.243l0.189,0.066l1.308,-2.131l-3.864,-0.949c-0.28,-0.119 -0.582,-0.191 -0.895,-0.208c-0.887,-0.049 -1.739,0.351 -2.269,1.065c-2.763,3.722 -5.591,7.575 -8.735,12.06c-2.277,3.248 -4.413,8.363 -0.635,14.308c2.605,4.097 9.901,12.893 15.207,16.345c1.347,0.877 2.843,1.481 4.415,1.708l3.566,0.926l-0.368,-0.99l-0.018,-0.01Zm5.193,-9.348c-0,-0 -5.458,3.942 -5.461,3.943c-1.583,0.578 -3.148,0.175 -4.44,-0.665c-4.772,-3.105 -11.284,-11.063 -13.627,-14.748c-2.228,-3.506 -0.841,-6.515 0.502,-8.431c2.219,-3.165 4.279,-6.012 6.27,-8.721l16.756,28.622Z" style="fill:#8e8e8e;"/><path d="M251.748,320.159l-19.998,-34.16c-0.449,-0.766 -1.253,-1.257 -2.14,-1.305c-0.887,-0.048 -1.739,0.352 -2.269,1.065c-2.763,3.722 -5.591,7.575 -8.735,12.06c-2.277,3.249 -4.413,8.363 -0.635,14.308c2.605,4.097 9.901,12.893 15.207,16.345c2.797,1.82 6.233,2.468 9.661,0.995c0.178,-0.077 0.348,-0.173 0.505,-0.286l7.67,-5.54c1.105,-0.798 1.423,-2.305 0.734,-3.482Zm-5.782,0.599c-0,0 -5.458,3.942 -5.461,3.943c-1.583,0.578 -3.148,0.175 -4.44,-0.665c-4.772,-3.105 -11.284,-11.063 -13.627,-14.748c-2.228,-3.506 -0.841,-6.515 0.502,-8.43c2.219,-3.165 4.279,-6.013 6.27,-8.721l16.756,28.621Z" style="fill:#acacac;"/><path d="M221.433,299.887c0.228,-0.394 0.092,-0.899 -0.302,-1.126c-0.394,-0.228 -0.899,-0.092 -1.127,0.302c-1.985,3.44 -3.149,5.618 -1.682,9.659c0.663,1.823 2.881,4.914 5.615,8.102c4.053,4.728 9.224,9.686 11.875,11.099c3.262,1.738 5.851,0.864 8.006,-1.114c0.336,-0.308 0.358,-0.831 0.05,-1.166c-0.308,-0.335 -0.83,-0.358 -1.165,-0.05c-1.647,1.512 -3.622,2.202 -6.115,0.874c-2.552,-1.36 -7.498,-6.166 -11.399,-10.717c-2.57,-2.997 -4.693,-5.877 -5.316,-7.592c-1.26,-3.468 -0.144,-5.317 1.56,-8.271Z" style="fill:#787878;"/><path d="M238.534,328.818c2.033,0.23 3.766,-0.616 5.284,-2.009c0.336,-0.308 0.358,-0.831 0.05,-1.166c-0.308,-0.335 -0.83,-0.358 -1.165,-0.05c-0.035,0.032 -0.07,0.063 -0.105,0.094c0.268,0.336 0.234,0.827 -0.087,1.122c-1.182,1.084 -2.495,1.837 -3.977,2.009Zm-0.045,-1.695c-0.598,-0.088 -1.231,-0.299 -1.901,-0.656c-2.552,-1.36 -7.498,-6.166 -11.399,-10.717c-2.57,-2.997 -4.693,-5.877 -5.316,-7.592c-1.26,-3.468 -0.144,-5.317 1.56,-8.271c0.228,-0.394 0.092,-0.899 -0.302,-1.126c-0.362,-0.209 -0.818,-0.112 -1.066,0.211c0.197,0.257 0.233,0.618 0.061,0.915c-1.705,2.954 -2.821,4.803 -1.561,8.271c0.623,1.715 2.747,4.595 5.317,7.592c3.901,4.551 8.846,9.357 11.398,10.717c1.179,0.628 2.242,0.804 3.209,0.656Z" style="fill:#8e8e8e;"/><path d="M234.668,286.732c0.831,4.283 -3.99,11.703 -6.935,8.741l13.561,24.262c2.566,2.307 7.205,-1.431 7.901,-6.564l-14.527,-26.439Z" style="fill:#5b5b5b;"/><path d="M235.216,287.712c0.831,4.283 -3.99,11.703 -6.936,8.74l13.014,23.283c2.566,2.307 7.205,-1.431 7.901,-6.564l-13.979,-25.459Z" style="fill:#777;"/></g></g></g><defs><linearGradient id="_Linear1" x1="0" y1="0" x2="1" y2="0" gradientUnits="userSpaceOnUse" gradientTransform="matrix(4.28838e-15,-70.0345,19.3762,1.18645e-15,150,351.818)"><stop offset="0" style="stop-color:#156ee1;stop-opacity:1"/><stop offset="1" style="stop-color:#155ebb;stop-opacity:1"/></linearGradient></defs></svg>