<?xml version="1.0" encoding="UTF-8" standalone="no"?><!DOCTYPE svg PUBLIC "-//W3C//DTD SVG 1.1//EN" "http://www.w3.org/Graphics/SVG/1.1/DTD/svg11.dtd"><svg width="100%" height="100%" viewBox="0 0 300 345" version="1.1" xmlns="http://www.w3.org/2000/svg" xmlns:xlink="http://www.w3.org/1999/xlink" xml:space="preserve" xmlns:serif="http://www.serif.com/" style="fill-rule:evenodd;clip-rule:evenodd;stroke-linejoin:round;stroke-miterlimit:2;"><g id="Dragon"><g id="Dragon-body" serif:id="Dragon body"><path id="base_body_2" d="M263.62,345l-227.24,0c-19.957,0 -36.38,-16.423 -36.38,-36.38l0,-46.61c0,20.079 16.301,36.38 36.38,36.38l64.607,-0c1.028,-0 2.028,0.335 2.849,0.955c3.702,2.798 7.272,5.684 10.269,8.951c2.8,-2.497 5.661,-4.813 8.604,-6.883c1.785,-1.237 4.183,-1.097 5.812,0.339c2.669,2.368 5.192,4.883 7.556,7.557c3.144,-3.458 7.023,-6.455 11.792,-8.896c1.339,-0.68 2.923,-0.68 4.262,-0.001c4.769,2.442 8.648,5.439 11.792,8.897c2.364,-2.674 4.887,-5.189 7.556,-7.557c1.629,-1.437 4.028,-1.578 5.813,-0.34c2.942,2.071 5.803,4.387 8.603,6.884c2.997,-3.267 6.567,-6.153 10.27,-8.95c0.82,-0.62 1.82,-0.955 2.848,-0.955c10.033,-0.001 64.607,-0.001 64.607,-0.001c20.079,-0 36.38,-16.301 36.38,-36.38l-0,46.61c-0,19.957 -16.423,36.38 -36.38,36.38Z" style="fill:#3fa87a;"/><path d="M34.352,310.801c-6.304,-2.591 -12.83,-5.097 -18.454,-9c-1.23,2.018 -2.868,3.295 -4.617,4.39c-0.779,0.487 -1.761,0.508 -2.56,0.054c-0.798,-0.453 -1.284,-1.307 -1.265,-2.225c0.129,-6.288 -3.301,-9.983 -5.947,-13.853c-0.535,-0.782 -1.044,-1.569 -1.509,-2.374l-0,-8.584c-0,9.53 10.193,13.328 9.955,24.862c2.066,-1.292 3.972,-2.873 4.923,-6.174c6.373,5.265 14.349,8.103 21.889,11.217c0.566,-0.418 0.946,-0.707 1.008,-0.72c0.359,-0.074 0.738,0.012 1.097,-0.063c0.006,0.533 0.03,0.528 0.036,1.06c0,0.016 -0.016,0.026 -0.024,0.039c-0.095,0.15 -0.19,0.3 -0.287,0.451c1.7,0.725 3.368,1.475 4.981,2.283c0.294,-4.094 1.096,-7.476 2.503,-10.012c1.993,3.266 4.203,6.252 7.759,7.509c1.23,-4.863 5.136,-2.549 7.926,-8.524c8.622,13.563 19.372,6.97 29.535,15.115c-0.266,-3.368 -1.013,-6.616 -2.169,-9.761c5.211,2.197 10.243,4.573 15.065,7.16c0.251,-0.137 0.507,-0.267 0.767,-0.39c-1.548,-7.162 -4.22,-11.264 -6.999,-14.871l3.022,0c0.034,-0 0.068,0 0.102,0.001c2.495,3.446 4.799,7.537 6.243,13.996c1.244,-0.342 2.554,-0.524 3.907,-0.524l77.522,0c1.353,0 2.663,0.182 3.907,0.524c1.444,-6.459 3.748,-10.549 6.242,-13.995c0.035,-0.001 0.069,-0.001 0.103,-0.001c0.764,-0 1.786,-0 3.022,-0c-2.78,3.606 -5.451,7.708 -6.999,14.87c0.26,0.123 0.516,0.253 0.767,0.39c4.822,-2.587 9.854,-4.963 15.065,-7.16c-1.156,3.145 -1.903,6.393 -2.169,9.761c10.163,-8.145 20.913,-1.552 29.535,-15.115c2.79,5.975 6.696,3.661 7.926,8.524c3.556,-1.257 5.766,-4.243 7.759,-7.509c1.407,2.536 2.209,5.918 2.503,10.012c1.985,-0.995 4.055,-1.902 6.163,-2.781c-0.775,-1.037 -1.309,-1.882 -1.835,-2.711c-0.008,-0.013 -0.024,-0.024 -0.024,-0.039c0.005,-0.533 0.03,-0.528 0.036,-1.06c0.358,0.074 0.738,-0.012 1.097,0.063c0.137,0.028 1.832,1.408 3.648,2.549c6.846,-2.777 13.88,-5.549 19.615,-10.288c0.951,3.301 2.857,4.882 4.923,6.174c-0.238,-11.534 9.955,-15.332 9.955,-24.862l0,8.584c-0.465,0.805 -0.974,1.592 -1.509,2.374c-2.646,3.87 -6.076,7.565 -5.947,13.853c0.019,0.918 -0.467,1.772 -1.265,2.225c-0.799,0.454 -1.781,0.433 -2.56,-0.054c-1.749,-1.095 -3.387,-2.372 -4.617,-4.39c-2.85,1.977 -5.931,3.597 -9.098,5.05c-0.197,0.746 -0.544,1.916 -1.011,2.916c-1.928,4.13 -5.712,5.609 -9.724,1.604c-2.302,0.959 -4.563,1.944 -6.727,3.028c-0.747,0.374 -1.631,0.351 -2.356,-0.062c-0.726,-0.413 -1.198,-1.161 -1.258,-1.994c-0.127,-1.779 -0.352,-3.411 -0.693,-4.878c-1.695,2.015 -3.687,3.65 -6.242,4.553c-0.663,0.234 -1.394,0.179 -2.013,-0.153c-0.62,-0.332 -1.071,-0.909 -1.244,-1.591c-0.283,-1.12 -0.829,-1.544 -1.477,-1.904c-0.523,-0.291 -1.083,-0.561 -1.656,-0.9c-0.81,-0.479 -1.648,-1.067 -2.464,-1.947c-4.218,5.076 -8.816,6.642 -13.577,7.649c-4.68,0.99 -9.577,1.246 -14.299,5.031c-0.778,0.623 -1.853,0.725 -2.734,0.258c-0.881,-0.466 -1.401,-1.412 -1.322,-2.406c0.137,-1.739 0.394,-3.448 0.763,-5.129c-3.01,1.367 -5.952,2.802 -8.822,4.31c1.867,1.54 3.348,3.53 4.279,5.803l0.099,0c5.091,0 9.224,4.133 9.224,9.224c-0,0.799 -0.102,1.575 -0.294,2.314c2.947,1.54 4.961,4.626 4.961,8.179c-0,1.53 -0.373,2.973 -1.034,4.244l-2.976,0c0.944,-1.158 1.51,-2.635 1.51,-4.244c-0,-3.419 -2.557,-6.245 -5.861,-6.669c0.752,-1.086 1.194,-2.404 1.194,-3.824c-0,-3.711 -3.013,-6.724 -6.724,-6.724l-1.895,0c-0.751,-2.893 -2.533,-5.372 -4.93,-7.022c-0.776,0.281 -1.651,0.163 -2.329,-0.334c-0.433,-0.317 -0.743,-0.757 -0.901,-1.248c-1.171,-0.371 -2.417,-0.572 -3.71,-0.572l-77.522,0c-1.293,0 -2.539,0.201 -3.71,0.572c-0.158,0.491 -0.468,0.931 -0.901,1.248c-0.678,0.497 -1.553,0.615 -2.329,0.334c-2.397,1.65 -4.179,4.129 -4.93,7.022l-1.895,0c-3.711,0 -6.724,3.013 -6.724,6.724c0,1.42 0.442,2.738 1.194,3.824c-3.304,0.424 -5.861,3.25 -5.861,6.669c0,1.609 0.566,3.086 1.51,4.244l-2.976,0c-0.661,-1.271 -1.034,-2.714 -1.034,-4.244c0,-3.553 2.014,-6.639 4.961,-8.179c-0.192,-0.739 -0.294,-1.515 -0.294,-2.314c0,-5.091 4.133,-9.224 9.224,-9.224c0,0 0.099,0 0.099,0.001c0.931,-2.274 2.412,-4.264 4.279,-5.804c-2.869,-1.508 -5.812,-2.943 -8.821,-4.31c0.368,1.682 0.625,3.39 0.762,5.129c0.079,0.994 -0.441,1.94 -1.322,2.406c-0.881,0.467 -1.956,0.365 -2.734,-0.258c-4.722,-3.785 -9.619,-4.041 -14.299,-5.031c-4.761,-1.007 -9.359,-2.573 -13.577,-7.649c-0.816,0.88 -1.654,1.468 -2.464,1.947c-0.573,0.339 -1.133,0.609 -1.656,0.9c-0.648,0.36 -1.194,0.784 -1.477,1.904c-0.173,0.682 -0.624,1.259 -1.244,1.591c-0.619,0.332 -1.35,0.387 -2.013,0.153c-2.555,-0.903 -4.547,-2.538 -6.243,-4.554c-0.34,1.468 -0.565,3.1 -0.692,4.879c-0.06,0.833 -0.532,1.581 -1.258,1.994c-0.725,0.413 -1.609,0.436 -2.356,0.062c-1.711,-0.857 -3.483,-1.653 -5.287,-2.422c-0.17,0.229 -0.351,0.468 -0.546,0.718c-4.464,5.719 -8.855,4.391 -10.984,-0.17c-0.754,-1.613 -1.196,-3.67 -1.195,-3.672c0.046,-0.77 0.334,-0.604 1.054,-0.881l-0.351,0.506c2.251,2.329 4.009,4.09 5.594,3.962c0.949,-0.076 2.325,-0.814 3.609,-1.639Zm237.604,-2.606c-1.142,0.487 -2.288,0.961 -3.433,1.43c0.128,0.028 0.251,0.047 0.368,0.057c0.939,0.076 1.938,-0.511 3.065,-1.487Zm-246.039,16.921c-0.029,0.236 0.08,0.475 0.052,0.711c-0.001,0.005 -1.115,2.159 -2.118,3.606c-0.205,0.296 -3.163,5.084 -7.028,3.178c-2.649,-1.306 -3.914,-5.138 -4.475,-6.807c-0.02,-0.06 0.013,-0.055 0.179,-0.774l0.676,-0.214c0.061,0.122 0,0.284 0.062,0.406c0.006,0.012 2.482,2.693 3.89,3.66c1.916,1.313 2.841,0.776 7.764,-3.407c0.098,-0.083 0.172,-0.208 0.294,-0.251c0.223,-0.08 0.48,-0.027 0.704,-0.108Zm42.254,-0.01c-1.671,3.631 -4.161,8.736 -8.723,8.112c-2.595,-0.355 -4.608,-2.954 -5.604,-6.41c-0.056,-0.196 -0.34,-1.153 -0.618,-2.573c-0.03,-0.149 -0.116,-0.299 -0.085,-0.447c0.114,-0.532 0.281,-0.473 0.394,-1.006c0.296,0.204 0.677,0.263 0.973,0.467c0.014,0.01 1.075,1.778 2.768,3.628c2.407,2.629 3.969,1.975 5.502,0.88c1.198,-0.855 3.409,-2.975 4.685,-5.299c0.008,-0.014 0.278,-0.764 0.97,-0.725c0.72,0.04 0.835,0.819 1.234,1.515c0.344,0.599 2.611,4.052 4.723,4.4c0.237,0.039 0.463,0.641 2.101,-0.124c1.88,-0.878 3.377,-2.304 3.42,-2.314c0.237,-0.055 0.478,-0.091 0.715,-0.146c0.021,0.255 0.114,0.501 0.134,0.757c0.003,0.035 -0.84,2.685 -1.853,4.115c-2.666,3.765 -6.794,3.748 -9.023,-0.063c-0.902,-1.541 -1.27,-3.037 -1.713,-4.767Zm218.591,-0.305c0.721,0.276 1.009,0.111 1.055,0.881c0,0.002 -0.442,2.059 -1.195,3.672c-2.13,4.561 -6.52,5.889 -10.985,0.17c-1.014,-1.3 -1.642,-2.293 -2.258,-3.265c-0.008,-0.013 -0.025,-0.023 -0.024,-0.039c0.005,-0.532 0.03,-0.527 0.036,-1.06c0.358,0.075 0.738,-0.011 1.097,0.063c0.228,0.048 4.806,3.866 7.032,4.046c1.584,0.128 3.343,-1.633 5.593,-3.962l-0.351,-0.506Zm-54.972,0.267c-1.272,2.753 -2.758,6.467 -6.374,6.854c-0.284,0.03 -1.683,0.039 -3.019,-0.929c-1.496,-1.084 -2.492,-2.743 -3.277,-5.084c-0.04,-0.119 -0.13,-0.233 -0.116,-0.358c0.059,-0.529 0.211,-0.491 0.271,-1.025c0.327,0.134 0.698,0.135 1.025,0.269c0.024,0.01 0.64,0.72 1.634,1.509c1.725,1.369 2.674,1.3 2.93,1.281c0.794,-0.058 2.028,0.291 4.775,-2.37c1.288,-1.247 1.51,-2.202 1.92,-2.376c0.142,-0.06 0.594,-0.158 0.873,0.303c0.423,0.701 1.041,1.784 2.952,3.442c1.492,1.295 3.192,2.228 4.051,1.754c0.239,-0.132 1.467,-0.278 3.283,-2.085c0.745,-0.742 1.253,-1.18 2.505,-2.712c0.048,-0.059 0.075,-0.143 0.142,-0.178c0.494,-0.261 0.528,-0.176 1.022,-0.438c0.07,0.364 0.308,0.682 0.379,1.046c0.003,0.018 -0.398,2.7 -0.95,4.189c-0.561,1.515 -2.272,5.908 -6.706,5.516c-2.136,-0.19 -3.659,-1.868 -3.898,-2.131c-1.685,-1.857 -2.416,-4.054 -3.422,-6.477Z" style="fill:#388a66;"/><path d="M25.917,323.408c-0.029,0.236 0.08,0.475 0.052,0.71c-0.001,0.005 -1.115,2.159 -2.118,3.606c-0.205,0.297 -3.163,5.085 -7.028,3.178c-2.649,-1.306 -3.914,-5.138 -4.475,-6.807c-0.02,-0.06 0.013,-0.054 0.179,-0.774l0.676,-0.213c0.061,0.122 0,0.283 0.062,0.405c0.006,0.013 2.482,2.694 3.89,3.66c1.916,1.314 2.841,0.776 7.764,-3.407c0.098,-0.083 0.172,-0.207 0.294,-0.251c0.223,-0.08 0.48,-0.027 0.704,-0.107Zm42.254,-0.011c-1.671,3.631 -4.161,8.736 -8.723,8.113c-2.595,-0.355 -4.608,-2.954 -5.604,-6.411c-0.056,-0.196 -0.34,-1.153 -0.618,-2.573c-0.03,-0.149 -0.116,-0.299 -0.085,-0.447c0.114,-0.532 0.281,-0.473 0.394,-1.006c0.296,0.205 0.677,0.263 0.973,0.467c0.014,0.01 1.075,1.778 2.768,3.628c2.407,2.629 3.969,1.975 5.502,0.881c1.198,-0.855 3.409,-2.975 4.685,-5.3c0.008,-0.014 0.278,-0.763 0.97,-0.725c0.72,0.04 0.835,0.819 1.234,1.515c0.344,0.599 2.611,4.052 4.723,4.401c0.237,0.039 0.463,0.64 2.101,-0.125c1.88,-0.878 3.377,-2.303 3.42,-2.313c0.237,-0.055 0.478,-0.092 0.715,-0.147c0.021,0.255 0.114,0.501 0.134,0.757c0.003,0.036 -0.84,2.685 -1.853,4.116c-2.666,3.765 -6.794,3.747 -9.023,-0.063c-0.902,-1.542 -1.27,-3.037 -1.713,-4.768Zm218.591,-0.305c0.721,0.277 1.009,0.111 1.055,0.881c0,0.002 -0.442,2.059 -1.195,3.673c-2.13,4.56 -6.52,5.889 -10.985,0.17c-1.014,-1.3 -1.642,-2.293 -2.258,-3.265c-0.008,-0.013 -0.025,-0.024 -0.024,-0.039c0.005,-0.533 0.03,-0.528 0.036,-1.061c0.358,0.075 0.738,-0.011 1.097,0.063c0.228,0.048 4.806,3.867 7.032,4.047c1.584,0.128 3.343,-1.633 5.593,-3.962l-0.351,-0.507Zm-54.972,0.267c-1.272,2.753 -2.758,6.467 -6.374,6.854c-0.284,0.03 -1.683,0.039 -3.019,-0.929c-1.496,-1.083 -2.492,-2.742 -3.277,-5.084c-0.04,-0.119 -0.13,-0.233 -0.116,-0.357c0.059,-0.53 0.211,-0.491 0.271,-1.026c0.327,0.135 0.698,0.135 1.025,0.27c0.024,0.01 0.64,0.72 1.634,1.509c1.725,1.368 2.674,1.299 2.93,1.28c0.794,-0.058 2.028,0.292 4.775,-2.369c1.288,-1.248 1.51,-2.202 1.92,-2.377c0.142,-0.06 0.594,-0.157 0.873,0.304c0.423,0.7 1.041,1.783 2.952,3.442c1.492,1.295 3.192,2.228 4.051,1.753c0.239,-0.132 1.467,-0.277 3.283,-2.085c0.745,-0.742 1.253,-1.179 2.505,-2.712c0.048,-0.059 0.075,-0.142 0.142,-0.178c0.494,-0.261 0.528,-0.176 1.022,-0.437c0.07,0.364 0.308,0.681 0.379,1.045c0.003,0.018 -0.398,2.7 -0.95,4.189c-0.561,1.516 -2.272,5.909 -6.706,5.516c-2.136,-0.189 -3.659,-1.868 -3.898,-2.131c-1.685,-1.857 -2.416,-4.054 -3.422,-6.477Zm42.343,-19.854c0.721,0.276 1.009,0.111 1.055,0.881c0,0.002 -0.442,2.059 -1.195,3.672c-2.129,4.561 -6.52,5.889 -10.984,0.17c-1.015,-1.3 -1.642,-2.293 -2.259,-3.265c-0.008,-0.013 -0.024,-0.024 -0.024,-0.039c0.005,-0.532 0.03,-0.528 0.036,-1.06c0.358,0.074 0.738,-0.011 1.097,0.063c0.229,0.047 4.806,3.866 7.032,4.046c1.584,0.128 3.343,-1.633 5.594,-3.962l-0.352,-0.506Zm-248.633,2.759l-0.351,0.506c2.251,2.329 4.009,4.09 5.594,3.962c2.226,-0.18 6.803,-3.999 7.032,-4.047c0.359,-0.074 0.738,0.012 1.097,-0.062c0.006,0.532 0.03,0.527 0.036,1.06c0,0.015 -0.016,0.026 -0.024,0.039c-0.617,0.972 -1.244,1.965 -2.259,3.265c-4.464,5.719 -8.855,4.39 -10.984,-0.17c-0.754,-1.614 -1.196,-3.671 -1.195,-3.673c0.046,-0.769 0.334,-0.604 1.054,-0.88Z" style="fill:#69b772;"/><path d="M0,262.01c0,20.079 16.301,36.38 36.38,36.38l64.607,-0c1.028,-0 2.028,0.335 2.849,0.955c3.702,2.798 7.272,5.684 10.269,8.951c2.8,-2.497 5.661,-4.813 8.604,-6.883c1.785,-1.237 4.183,-1.097 5.812,0.339c2.669,2.368 5.192,4.883 7.556,7.557c3.144,-3.458 7.023,-6.455 11.792,-8.896c1.339,-0.68 2.923,-0.68 4.262,-0.001c4.769,2.442 8.648,5.439 11.792,8.897c2.364,-2.674 4.887,-5.189 7.556,-7.557c1.629,-1.437 4.028,-1.578 5.813,-0.34c2.942,2.071 5.803,4.387 8.603,6.884c2.997,-3.267 6.567,-6.153 10.27,-8.95c0.82,-0.62 1.82,-0.955 2.848,-0.955c10.033,-0.001 64.607,-0.001 64.607,-0.001c20.079,-0 36.38,-16.301 36.38,-36.38l-0,46.61c-0,19.957 -16.423,36.38 -36.38,36.38l-227.24,-0c-19.957,-0 -36.38,-16.423 -36.38,-36.38l-0,-46.61Zm298.5,14.789c-5.766,13.567 -19.219,23.091 -34.88,23.091c-0,-0 -54.574,-0 -64.607,0.001c-0.702,-0 -1.384,0.229 -1.944,0.652c-3.628,2.741 -7.131,5.565 -10.068,8.767c-0.555,0.605 -1.492,0.652 -2.104,0.106c-2.755,-2.457 -5.569,-4.736 -8.463,-6.773c-1.217,-0.842 -2.852,-0.746 -3.962,0.233c-2.623,2.327 -5.102,4.799 -7.425,7.426c-0.282,0.32 -0.687,0.504 -1.113,0.507c-0.427,0.003 -0.834,-0.176 -1.121,-0.491c-3.028,-3.331 -6.768,-6.216 -11.362,-8.569c-0.912,-0.462 -1.99,-0.461 -2.902,0c-4.594,2.353 -8.334,5.238 -11.362,8.569c-0.287,0.315 -0.694,0.494 -1.121,0.491c-0.426,-0.003 -0.831,-0.187 -1.113,-0.507c-2.323,-2.627 -4.802,-5.098 -7.425,-7.426c-1.11,-0.978 -2.745,-1.074 -3.961,-0.232c-2.896,2.036 -5.709,4.315 -8.464,6.772c-0.612,0.546 -1.549,0.499 -2.104,-0.106c-2.937,-3.202 -6.44,-6.026 -10.067,-8.768c-0.56,-0.423 -1.243,-0.652 -1.945,-0.652l-64.607,-0c-15.661,-0 -29.114,-9.524 -34.88,-23.091l-0,31.821c-0,19.135 15.745,34.88 34.88,34.88l227.24,-0c19.135,-0 34.88,-15.745 34.88,-34.88l-0,-31.821Z" style="fill:#204a31;"/><path d="M212.407,345l-124.814,0c-0.944,-1.158 -1.51,-2.635 -1.51,-4.244c0,-3.419 2.557,-6.245 5.861,-6.669c-0.752,-1.086 -1.194,-2.404 -1.194,-3.824c0,-3.711 3.013,-6.724 6.724,-6.724l1.895,0c1.37,-5.276 6.168,-9.176 11.87,-9.176l77.522,0c5.702,0 10.5,3.9 11.87,9.176l1.895,0c3.711,0 6.724,3.013 6.724,6.724c-0,1.42 -0.442,2.738 -1.194,3.824c3.304,0.424 5.861,3.25 5.861,6.669c-0,1.609 -0.566,3.086 -1.51,4.244Z" style="fill:#f5e8a2;"/><path d="M204.206,334.032c-11.066,0 -97.346,0 -108.412,-0.009c-0.968,-0 -1.866,-0.504 -2.371,-1.33c-0.427,-0.71 -0.673,-1.542 -0.673,-2.43c0,-0.343 0.037,-0.677 0.107,-1c0.11,0.512 0.304,0.994 0.566,1.43c0.505,0.826 1.403,1.33 2.371,1.33c11.066,0.009 97.346,0.009 108.412,0.009c0.971,0.001 1.873,-0.505 2.38,-1.334c0.256,-0.439 0.448,-0.921 0.558,-1.433c0.069,0.322 0.106,0.656 0.106,0.998c-0,0.888 -0.246,1.72 -0.664,2.435c-0.506,0.829 -1.407,1.334 -2.378,1.334c-0.001,0 -0.001,0 -0.002,0Zm-8.207,-10.493c-13.687,0 -78.311,0 -91.998,-0.013c-0.598,0 -1.147,-0.329 -1.429,-0.856c-0.282,-0.527 -0.251,-1.166 0.08,-1.664c0.024,-0.035 0.047,-0.07 0.07,-0.105c0.304,0.391 0.774,0.625 1.279,0.625c13.687,0.013 78.311,0.013 91.998,0.013c0.512,0.001 0.989,-0.239 1.296,-0.637c0.022,0.032 0.043,0.064 0.064,0.097c0.335,0.501 0.366,1.146 0.082,1.678c-0.284,0.53 -0.837,0.862 -1.439,0.862c-0.001,0 -0.002,0 -0.003,0Zm15.812,16.217c0.069,0.322 0.106,0.657 0.106,1c-0,1.863 -1.081,3.475 -2.648,4.244l-118.538,0c-1.567,-0.769 -2.648,-2.381 -2.648,-4.244c0,-0.343 0.037,-0.678 0.106,-1c0.309,1.428 1.263,2.617 2.542,3.244l118.538,0c1.279,-0.627 2.233,-1.816 2.542,-3.244Z" style="fill:#dbcc7d;"/><path d="M208.056,334.087c3.304,0.424 5.861,3.25 5.861,6.669c-0,1.609 -0.566,3.086 -1.51,4.244l-3.138,0c1.567,-0.769 2.648,-2.381 2.648,-4.244c-0,-2.607 -2.117,-4.724 -4.724,-4.724l-114.386,0c-2.607,0 -4.724,2.117 -4.724,4.724c0,1.863 1.081,3.475 2.648,4.244l-3.138,0c-0.944,-1.158 -1.51,-2.635 -1.51,-4.244c0,-3.419 2.557,-6.245 5.861,-6.669c-0.752,-1.086 -1.194,-2.404 -1.194,-3.824c0,-3.711 3.013,-6.724 6.724,-6.724l1.895,0c1.37,-5.276 6.168,-9.176 11.87,-9.176l77.522,0c5.702,0 10.5,3.9 11.87,9.176l1.895,0c3.711,0 6.724,3.013 6.724,6.724c-0,1.42 -0.442,2.738 -1.194,3.824Zm-114.633,-1.394c0.505,0.826 1.403,1.33 2.371,1.33c11.066,0.009 97.346,0.009 108.412,0.009c0.971,0.001 1.873,-0.505 2.38,-1.334c0.418,-0.715 0.664,-1.547 0.664,-2.435c-0,-2.607 -2.117,-4.724 -4.724,-4.724l-105.052,0c-2.607,0 -4.724,2.117 -4.724,4.724c0,0.888 0.246,1.72 0.673,2.43Zm9.229,-11.687c-0.331,0.498 -0.362,1.137 -0.08,1.664c0.282,0.527 0.831,0.856 1.429,0.856c13.687,0.013 78.311,0.013 91.998,0.013c0.603,0.001 1.157,-0.331 1.442,-0.862c0.284,-0.532 0.253,-1.177 -0.082,-1.678c-1.845,-2.788 -5.007,-4.636 -8.598,-4.636l-77.522,0c-3.591,0 -6.753,1.848 -8.587,4.643Z" style="fill:#9d7327;"/><path d="M105.15,314.166c-5.111,-2.787 -10.463,-5.333 -16.018,-7.675c1.156,3.145 1.903,6.393 2.169,9.761c-10.163,-8.145 -20.913,-1.552 -29.535,-15.115c-2.79,5.975 -6.696,3.661 -7.926,8.524c-3.556,-1.257 -5.766,-4.243 -7.759,-7.509c-1.407,2.536 -2.209,5.918 -2.503,10.012c-9.263,-4.641 -20.355,-7.373 -28.7,-14.267c-0.951,3.301 -2.857,4.882 -4.923,6.174c0.238,-11.534 -9.955,-15.332 -9.955,-24.862l-0,-41.8c2.307,18.661 12.954,19.157 18.465,31.621c0.25,-4.939 1.919,-8.3 4.172,-11.013c1.501,8.696 5.94,12.126 8.76,18.855c7.732,-9.429 15.656,-11.761 23.611,-12.931c-2.375,6.707 -1.185,11.619 -2.419,17.52c3.707,0.34 6.695,-2.197 9.511,-5.423c6.228,8.345 14.196,10.535 22.693,19.023c1.811,-3.326 3.918,-5.464 6.174,-7.009c4.183,9.25 11.368,11.743 14.183,26.114Zm89.7,0c2.815,-14.371 10,-16.864 14.183,-26.114c2.256,1.545 4.363,3.683 6.174,7.009c8.497,-8.488 16.465,-10.678 22.693,-19.023c2.816,3.226 5.804,5.763 9.511,5.423c-1.234,-5.901 -0.044,-10.813 -2.419,-17.52c7.955,1.17 15.879,3.502 23.611,12.931c2.82,-6.729 7.259,-10.159 8.76,-18.855c2.253,2.713 3.922,6.074 4.172,11.013c5.511,-12.464 16.158,-12.96 18.465,-31.621l0,41.8c0,9.53 -10.193,13.328 -9.955,24.862c-2.066,-1.292 -3.972,-2.873 -4.923,-6.174c-8.345,6.894 -19.437,9.626 -28.7,14.267c-0.294,-4.094 -1.096,-7.476 -2.503,-10.012c-1.993,3.266 -4.203,6.252 -7.759,7.509c-1.23,-4.863 -5.136,-2.549 -7.926,-8.524c-8.622,13.563 -19.372,6.97 -29.535,15.115c0.266,-3.368 1.013,-6.616 2.169,-9.761c-5.555,2.342 -10.907,4.888 -16.018,7.675Z" style="fill:#c76934;"/><path d="M105.15,314.166c-5.111,-2.787 -10.463,-5.333 -16.018,-7.675c1.156,3.145 1.903,6.393 2.169,9.761c-10.163,-8.145 -20.913,-1.552 -29.535,-15.115c-2.79,5.975 -6.696,3.661 -7.926,8.524c-3.556,-1.257 -5.766,-4.243 -7.759,-7.509c-1.407,2.536 -2.209,5.918 -2.503,10.012c-9.263,-4.641 -20.355,-7.373 -28.7,-14.267c-0.951,3.301 -2.857,4.882 -4.923,6.174c0.238,-11.534 -9.955,-15.332 -9.955,-24.862l-0,-41.8c2.307,18.661 12.954,19.157 18.465,31.621c0.25,-4.939 1.919,-8.3 4.172,-11.013c1.501,8.696 5.94,12.126 8.76,18.855c7.732,-9.429 15.656,-11.761 23.611,-12.931c-2.375,6.707 -1.185,11.619 -2.419,17.52c3.707,0.34 6.695,-2.197 9.511,-5.423c6.228,8.345 14.196,10.535 22.693,19.023c1.811,-3.326 3.918,-5.464 6.174,-7.009c4.183,9.25 11.368,11.743 14.183,26.114Zm-2.215,-2.877c-1.739,-6.266 -4.458,-9.85 -7.155,-13.256c-1.894,-2.392 -3.773,-4.706 -5.355,-7.684c-1.56,1.321 -3.018,3.048 -4.315,5.429l-0.958,1.761l-1.419,-1.417c-4.175,-4.17 -8.225,-6.787 -11.991,-9.393c-3.512,-2.43 -6.786,-4.855 -9.727,-8.379c-2.833,2.93 -5.925,4.939 -9.563,4.605l-1.676,-0.154l0.344,-1.647c1.099,-5.25 0.32,-9.723 1.753,-15.342c-6.845,1.265 -13.658,3.891 -20.316,12.012l-1.58,1.927l-0.963,-2.299c-1.381,-3.295 -3.167,-5.778 -4.782,-8.505c-1.268,-2.14 -2.439,-4.42 -3.285,-7.279c-1.093,1.999 -1.83,4.393 -1.984,7.438l-0.318,6.301l-2.552,-5.77c-2.121,-4.797 -5.05,-7.737 -7.922,-10.704c-2.818,-2.912 -5.595,-5.837 -7.671,-10.27l-0,30.546c-0,4.428 2.453,7.488 4.794,10.817c2.234,3.179 4.411,6.555 5.006,11.143c0.902,-0.889 1.661,-2.036 2.136,-3.687l0.633,-2.198l1.764,1.457c7.678,6.342 17.721,9.094 26.461,13.141c0.421,-3.382 1.237,-6.226 2.475,-8.457l1.25,-2.254l1.342,2.2c1.54,2.522 3.177,4.906 5.62,6.263c0.662,-1.337 1.582,-2.049 2.627,-2.653c1.459,-0.842 3.327,-1.326 4.799,-4.479l1.157,-2.479l1.468,2.309c4.866,7.654 10.49,8.42 16.245,9.513c3.354,0.637 6.75,1.375 10.116,3.298c-0.371,-2.091 -0.934,-4.135 -1.669,-6.135l-1.191,-3.241l3.181,1.341c4.549,1.918 8.963,3.972 13.221,6.181Zm91.915,2.877c2.815,-14.371 10,-16.864 14.183,-26.114c2.256,1.545 4.363,3.683 6.174,7.009c8.497,-8.488 16.465,-10.678 22.693,-19.023c2.816,3.226 5.804,5.763 9.511,5.423c-1.234,-5.901 -0.044,-10.813 -2.419,-17.52c7.955,1.17 15.879,3.502 23.611,12.931c2.82,-6.729 7.259,-10.159 8.76,-18.855c2.253,2.713 3.922,6.074 4.172,11.013c5.511,-12.464 16.158,-12.96 18.465,-31.621l0,41.8c0,9.53 -10.193,13.328 -9.955,24.862c-2.066,-1.292 -3.972,-2.873 -4.923,-6.174c-8.345,6.894 -19.437,9.626 -28.7,14.267c-0.294,-4.094 -1.096,-7.476 -2.503,-10.012c-1.993,3.266 -4.203,6.252 -7.759,7.509c-1.23,-4.863 -5.136,-2.549 -7.926,-8.524c-8.622,13.563 -19.372,6.97 -29.535,15.115c0.266,-3.368 1.013,-6.616 2.169,-9.761c-5.555,2.342 -10.907,4.888 -16.018,7.675Zm2.215,-2.877c4.258,-2.209 8.672,-4.263 13.221,-6.181l3.181,-1.341l-1.191,3.241c-0.735,2 -1.298,4.043 -1.668,6.134c3.365,-1.922 6.761,-2.66 10.115,-3.297c5.755,-1.093 11.379,-1.859 16.245,-9.513l1.468,-2.309l1.157,2.479c1.472,3.153 3.34,3.637 4.799,4.479c1.046,0.604 1.965,1.316 2.627,2.653c2.443,-1.357 4.08,-3.741 5.62,-6.263l1.342,-2.2l1.25,2.254c1.238,2.231 2.054,5.075 2.476,8.457c8.739,-4.047 18.782,-6.799 26.46,-13.141l1.764,-1.457l0.633,2.198c0.475,1.651 1.235,2.798 2.136,3.687c0.595,-4.588 2.772,-7.964 5.006,-11.143c2.341,-3.329 4.794,-6.389 4.794,-10.817c-0,-0 -0,-30.546 -0.001,-30.544c-2.075,4.431 -4.852,7.356 -7.67,10.268c-2.872,2.967 -5.801,5.907 -7.922,10.704l-2.552,5.77l-0.318,-6.301c-0.154,-3.045 -0.891,-5.439 -1.984,-7.437c-0.846,2.858 -2.017,5.138 -3.285,7.278c-1.615,2.727 -3.401,5.21 -4.782,8.505l-0.963,2.299l-1.58,-1.927c-6.658,-8.121 -13.471,-10.747 -20.316,-12.011c1.433,5.618 0.654,10.091 1.753,15.341l0.344,1.647l-1.676,0.154c-3.638,0.334 -6.73,-1.675 -9.563,-4.604c-2.941,3.523 -6.215,5.948 -9.727,8.378c-3.766,2.606 -7.816,5.223 -11.991,9.393l-1.419,1.417l-0.958,-1.761c-1.297,-2.381 -2.755,-4.108 -4.315,-5.429c-1.582,2.978 -3.461,5.292 -5.355,7.684c-2.697,3.406 -5.416,6.99 -7.155,13.256Z" style="fill:#631a36;"/><path d="M31.518,298.834c-6.796,-2.916 -12.193,-3.942 -16.011,-8.247c-4.717,-5.317 -5.493,-12.793 -8.338,-21.912c5.118,4.781 10.018,10.086 14.567,16.233c-0.856,-2.259 -0.854,-4.661 0.341,-7.262c6.066,10.912 15.377,8.816 18.539,22.213c-2.91,-2.581 -6.117,-4.696 -9.824,-6.023c0.67,1.505 0.966,3.151 0.726,4.998Zm21.409,3.546c-3.842,-9.15 -11.785,-12.465 -9.291,-22.96c2.959,8.748 6.94,6.801 9.291,12.441c0.598,-2.07 2.39,-2.453 3.364,-4.378c-0.259,3.942 1.083,6.45 0.425,8.858c-0.613,2.242 -2.411,3.77 -3.789,6.039Zm11.907,-12.281c6.002,5.732 16.403,5.353 18.262,15.859c-6.898,-5.276 -15.871,-6.876 -18.262,-15.859Zm151.728,16.165c6.563,-9.445 15.396,-13.22 22.093,-20.491c-3.805,11.19 -11.169,18.021 -22.093,20.491Zm69.215,-13.616c-1.335,-14.832 4.493,-19.187 9.878,-29.168c-0.445,23.638 -6.09,22.245 -9.878,29.168Zm-38.446,8.076c-1.64,-7.562 1.457,-7.207 3.204,-12.882c0.915,0.954 1.467,2.271 1.135,4.472c2.071,-3.025 2.757,-8.722 2.336,-16.553c6.782,2.288 11.262,7.011 11.814,15.885c2.762,-4.398 6.271,-6.463 8.61,-9.945c1.13,1.737 1.54,3.893 0.534,6.875c1.797,-0.929 3.742,-2.252 6.074,-4.605c-3.373,8.944 -9.042,15.729 -18.288,19.156c1.858,-1.898 3.525,-4.131 4.672,-7.276c-2.363,2.098 -4.802,3.509 -7.342,4.005c0.71,-2.815 0.669,-5.416 0.133,-7.876c-3.556,5.521 -8.704,5.713 -12.882,8.744Z" style="fill:#e3944a;"/></g></g></svg>