<?xml version="1.0" encoding="UTF-8" standalone="no"?><!DOCTYPE svg PUBLIC "-//W3C//DTD SVG 1.1//EN" "http://www.w3.org/Graphics/SVG/1.1/DTD/svg11.dtd"><svg width="100%" height="100%" viewBox="0 0 280 62" version="1.1" xmlns="http://www.w3.org/2000/svg" xmlns:xlink="http://www.w3.org/1999/xlink" xml:space="preserve" xmlns:serif="http://www.serif.com/" style="fill-rule:evenodd;clip-rule:evenodd;stroke-linecap:round;stroke-miterlimit:6;"><g id="banner_73"><path d="M280,51.462c0,2.049 -1.664,3.713 -3.713,3.713l-272.574,-0c-2.049,-0 -3.713,-1.664 -3.713,-3.713l-0,-47.699c-0,-2.049 1.664,-3.713 3.713,-3.713l272.574,-0c2.049,-0 3.713,1.664 3.713,3.713l0,47.699Z" style="fill:url(#_Linear1);"/><g><g><path d="M248.786,35.929c11.303,3.029 18.357,13.411 17.722,15.781c-0.635,2.371 -11.935,7.835 -23.238,4.807c-11.303,-3.029 -18.492,-12.908 -17.721,-15.782c0.77,-2.873 11.934,-7.834 23.237,-4.806Z" style="fill:#54a000;"/><path d="M266.508,51.71c-0.635,2.371 -11.935,7.835 -23.238,4.807c-11.303,-3.029 -18.492,-12.908 -17.721,-15.782l40.959,10.975Z" style="fill:#4d9000;"/><path d="M248.786,35.929c11.303,3.029 18.357,13.411 17.722,15.781c-0.635,2.371 -11.935,7.835 -23.238,4.807c-11.303,-3.029 -18.492,-12.908 -17.721,-15.782c0.77,-2.873 11.934,-7.834 23.237,-4.806Zm11.147,7.164c-2.901,-2.638 -6.771,-5.121 -11.364,-6.352c-3.043,-0.815 -6.076,-1.035 -8.886,-0.866c0.033,0.204 0.039,0.432 0.018,0.681c-0.054,0.642 -0.289,1.439 -0.652,2.264c-0.532,1.208 -1.34,2.481 -2.225,3.418c-0.305,0.321 -0.619,0.603 -0.935,0.833l19.839,5.316c2.797,-1.054 4.424,-2.697 4.205,-5.294Zm-21.09,-7.156c-3.923,0.347 -7.353,1.433 -9.678,2.664c-1.001,0.529 -1.79,1.08 -2.303,1.611c-0.119,0.124 -0.223,0.243 -0.306,0.358c1.509,0.404 6.837,1.832 8.189,2.194c0.49,-0.198 0.989,-0.598 1.468,-1.104c0.823,-0.871 1.571,-2.056 2.066,-3.179c0.321,-0.729 0.536,-1.429 0.584,-1.996c0.018,-0.207 0.016,-0.393 -0.02,-0.548Zm-12.504,5.445c0.014,0.142 0.044,0.297 0.086,0.464c0.178,0.716 0.586,1.587 1.188,2.546c2.483,3.956 8.204,9.257 15.875,11.312c0.478,0.129 0.956,0.241 1.434,0.339c0.012,-0.023 0.027,-0.045 0.044,-0.066c0.72,-0.892 1.082,-2.212 1.086,-3.648c0.005,-2.177 -0.817,-4.627 -2.558,-6.35l-17.155,-4.597Zm19.498,14.831c6.854,1.141 13.416,-0.651 17.117,-2.592c1.006,-0.527 1.794,-1.06 2.298,-1.548c0.075,-0.073 0.145,-0.142 0.205,-0.209l-20.515,-5.497c1.322,1.771 1.956,3.971 1.951,5.964c-0.004,1.496 -0.37,2.875 -1.056,3.882Zm19.838,-5.161c-0.019,-0.088 -0.045,-0.183 -0.073,-0.284c-0.193,-0.674 -0.609,-1.529 -1.216,-2.489c-0.848,-1.34 -2.063,-2.866 -3.599,-4.378c-0.121,2.187 -1.468,3.753 -3.741,4.839l8.629,2.312Z" style="fill:#448200;"/></g><g><path d="M237.544,21.34c10.134,-5.851 22.463,-3.497 23.69,-1.372c1.227,2.125 -2.899,13.98 -13.033,19.83c-10.134,5.851 -22.202,3.949 -23.69,1.372c-1.488,-2.576 2.899,-13.979 13.033,-19.83Z" style="fill:#54a000;"/><path d="M261.234,19.968c1.227,2.125 -2.899,13.98 -13.033,19.83c-10.134,5.851 -22.202,3.949 -23.69,1.372l36.723,-21.202Z" style="fill:#4d9000;"/><path d="M237.544,21.34c10.134,-5.851 22.463,-3.497 23.69,-1.372c1.227,2.125 -2.899,13.98 -13.033,19.83c-10.134,5.851 -22.202,3.949 -23.69,1.372c-1.488,-2.576 2.899,-13.979 13.033,-19.83Zm12.948,-2.816c-3.917,0.186 -8.409,1.167 -12.527,3.544c-2.729,1.576 -5.029,3.565 -6.897,5.671c0.168,0.121 0.334,0.278 0.495,0.469c0.416,0.492 0.813,1.221 1.14,2.062c0.477,1.23 0.807,2.702 0.843,3.99c0.012,0.442 -0.011,0.864 -0.072,1.25l17.787,-10.269c1.232,-2.724 1.222,-5.035 -0.769,-6.717Zm-19.973,9.853c-2.529,3.019 -4.186,6.212 -4.961,8.727c-0.333,1.082 -0.501,2.029 -0.488,2.767c0.003,0.172 0.014,0.329 0.037,0.47c1.352,-0.781 6.129,-3.539 7.341,-4.239c0.207,-0.486 0.277,-1.123 0.257,-1.819c-0.033,-1.197 -0.342,-2.565 -0.786,-3.709c-0.288,-0.742 -0.632,-1.389 -0.999,-1.824c-0.134,-0.159 -0.267,-0.289 -0.401,-0.373Zm-4.992,12.692c0.11,0.09 0.241,0.178 0.388,0.267c0.633,0.38 1.538,0.708 2.641,0.96c4.553,1.042 12.348,0.745 19.225,-3.226c0.428,-0.247 0.846,-0.506 1.253,-0.775c-0.008,-0.025 -0.013,-0.051 -0.016,-0.078c-0.121,-1.14 -0.798,-2.329 -1.811,-3.347c-1.536,-1.543 -3.85,-2.694 -6.299,-2.681l-15.381,8.88Zm24.274,-3.301c5.654,-4.039 9.026,-9.946 10.272,-13.936c0.338,-1.084 0.518,-2.018 0.53,-2.719c0.001,-0.105 0.001,-0.203 -0.003,-0.293l-18.394,10.62c2.187,0.316 4.191,1.424 5.597,2.837c1.055,1.061 1.772,2.294 1.998,3.491Zm10.378,-17.676c-0.075,-0.049 -0.16,-0.098 -0.252,-0.149c-0.613,-0.341 -1.512,-0.652 -2.62,-0.901c-1.547,-0.347 -3.485,-0.568 -5.641,-0.551c1.462,1.633 1.616,3.692 0.777,6.067l7.736,-4.466Z" style="fill:#448200;"/></g><g><path d="M159.864,29.49c-5.85,-10.134 -3.496,-22.463 -1.371,-23.69c2.124,-1.227 13.979,2.899 19.83,13.033c5.851,10.134 3.948,22.203 1.372,23.69c-2.577,1.488 -13.98,-2.899 -19.831,-13.033Z" style="fill:#4d9000;"/><path d="M158.493,5.8c2.124,-1.227 13.979,2.899 19.83,13.033c5.851,10.134 3.948,22.203 1.372,23.69l-21.202,-36.723Z" style="fill:#54a000;"/><path d="M159.864,29.49c-5.85,-10.134 -3.496,-22.463 -1.371,-23.69c2.124,-1.227 13.979,2.899 19.83,13.033c5.851,10.134 3.948,22.203 1.372,23.69c-2.577,1.488 -13.98,-2.899 -19.831,-13.033Zm-2.816,-12.948c0.186,3.917 1.167,8.409 3.545,12.528c1.575,2.728 3.564,5.028 5.67,6.896c0.121,-0.168 0.278,-0.334 0.469,-0.495c0.492,-0.416 1.221,-0.813 2.062,-1.139c1.231,-0.478 2.702,-0.808 3.99,-0.844c0.443,-0.012 0.864,0.011 1.25,0.072l-10.269,-17.787c-2.723,-1.232 -5.035,-1.222 -6.717,0.769Zm9.853,19.974c3.019,2.529 6.212,4.185 8.727,4.96c1.082,0.333 2.029,0.502 2.768,0.488c0.171,-0.003 0.329,-0.013 0.469,-0.036c-0.781,-1.353 -3.539,-6.13 -4.239,-7.342c-0.486,-0.207 -1.122,-0.276 -1.818,-0.257c-1.198,0.034 -2.565,0.342 -3.709,0.787c-0.743,0.288 -1.39,0.631 -1.825,0.998c-0.159,0.134 -0.289,0.267 -0.373,0.402Zm12.693,4.991c0.09,-0.11 0.178,-0.241 0.266,-0.388c0.381,-0.633 0.708,-1.537 0.961,-2.641c1.041,-4.553 0.744,-12.347 -3.227,-19.224c-0.247,-0.429 -0.506,-0.847 -0.774,-1.254c-0.025,0.008 -0.051,0.013 -0.078,0.016c-1.141,0.121 -2.329,0.798 -3.348,1.812c-1.543,1.535 -2.694,3.849 -2.681,6.298l8.881,15.381Zm-3.301,-24.274c-4.04,-5.654 -9.947,-9.026 -13.936,-10.271c-1.085,-0.339 -2.018,-0.519 -2.72,-0.53c-0.105,-0.002 -0.203,-0.002 -0.293,0.002l10.62,18.394c0.316,-2.187 1.424,-4.191 2.837,-5.597c1.061,-1.055 2.294,-1.771 3.492,-1.998Zm-17.677,-10.378c-0.049,0.075 -0.098,0.16 -0.149,0.252c-0.341,0.613 -0.651,1.512 -0.901,2.62c-0.347,1.547 -0.567,3.485 -0.55,5.641c1.632,-1.461 3.691,-1.616 6.066,-0.777l-4.466,-7.736Z" style="fill:#448200;"/></g><g><path d="M39.769,49.42c-11.701,-0.164 -21.085,-8.5 -21.051,-10.954c0.035,-2.453 9.649,-10.522 21.35,-10.358c11.701,0.165 21.092,7.979 21.05,10.954c-0.041,2.975 -9.649,10.522 -21.349,10.358Z" style="fill:#54a000;"/><path d="M18.718,38.466c0.035,-2.453 9.649,-10.522 21.35,-10.358c11.701,0.165 21.092,7.979 21.05,10.954l-42.4,-0.596Z" style="fill:#4d9000;"/><path d="M39.769,49.42c-11.701,-0.164 -21.085,-8.5 -21.051,-10.954c0.035,-2.453 9.649,-10.522 21.35,-10.358c11.701,0.165 21.092,7.979 21.05,10.954c-0.041,2.975 -9.649,10.522 -21.349,10.358Zm-12.564,-4.212c3.46,1.847 7.821,3.304 12.576,3.371c3.15,0.044 6.144,-0.486 8.827,-1.339c-0.082,-0.189 -0.145,-0.409 -0.185,-0.656c-0.105,-0.636 -0.073,-1.465 0.077,-2.355c0.22,-1.301 0.691,-2.734 1.319,-3.858c0.216,-0.387 0.452,-0.737 0.702,-1.037l-20.536,-0.289c-2.454,1.708 -3.628,3.699 -2.78,6.163Zm22.202,1.766c3.718,-1.298 6.776,-3.192 8.729,-4.956c0.841,-0.759 1.47,-1.486 1.837,-2.127c0.086,-0.149 0.157,-0.289 0.209,-0.422c-1.562,-0.022 -7.077,-0.099 -8.477,-0.119c-0.426,0.312 -0.812,0.823 -1.152,1.431c-0.584,1.046 -1.019,2.378 -1.224,3.588c-0.132,0.785 -0.169,1.517 -0.076,2.079c0.034,0.205 0.081,0.385 0.154,0.526Zm10.787,-8.346c-0.049,-0.133 -0.116,-0.276 -0.197,-0.427c-0.349,-0.651 -0.958,-1.396 -1.777,-2.178c-3.377,-3.226 -10.224,-6.962 -18.164,-7.074c-0.495,-0.007 -0.986,0.001 -1.473,0.024c-0.006,0.025 -0.015,0.05 -0.026,0.075c-0.48,1.041 -0.508,2.409 -0.159,3.803c0.529,2.111 1.927,4.285 4.038,5.528l17.758,0.249Zm-22.54,-9.595c-6.925,0.574 -12.846,3.921 -15.959,6.709c-0.846,0.758 -1.479,1.468 -1.848,2.065c-0.055,0.089 -0.105,0.173 -0.148,0.253l21.237,0.298c-1.716,-1.392 -2.87,-3.37 -3.354,-5.303c-0.363,-1.452 -0.347,-2.878 0.072,-4.022Zm-17.967,9.868c0.041,0.08 0.088,0.166 0.141,0.257c0.352,0.606 0.965,1.333 1.789,2.115c1.151,1.09 2.703,2.273 4.563,3.362c-0.419,-2.151 0.502,-3.998 2.44,-5.609l-8.933,-0.125Z" style="fill:#448200;"/></g><g><path d="M39.821,33.571c-6.069,-6.427 -6.491,-15.899 -5.144,-17.171c1.348,-1.273 10.78,-0.31 16.85,6.116c6.069,6.427 6.778,15.628 5.144,17.171c-1.634,1.543 -10.78,0.31 -16.85,-6.116Z" style="fill:#54a000;"/><path d="M34.677,16.4c1.348,-1.273 10.78,-0.31 16.85,6.116c6.069,6.427 6.778,15.628 5.144,17.171l-21.994,-23.287Z" style="fill:#4d9000;"/><path d="M39.821,33.571c-6.069,-6.427 -6.491,-15.899 -5.144,-17.171c1.348,-1.273 10.78,-0.31 16.85,6.116c6.069,6.427 6.778,15.628 5.144,17.171c-1.634,1.543 -10.78,0.31 -16.85,-6.116Zm-4.33,-9.025c0.82,2.847 2.326,5.977 4.792,8.589c1.634,1.73 3.498,3.073 5.371,4.078c0.06,-0.144 0.147,-0.294 0.259,-0.446c0.289,-0.391 0.755,-0.81 1.316,-1.197c0.821,-0.566 1.845,-1.065 2.785,-1.316c0.324,-0.087 0.638,-0.143 0.932,-0.166l-10.653,-11.279c-2.216,-0.431 -3.913,-0.019 -4.802,1.737Zm10.728,12.96c2.661,1.331 5.297,1.991 7.28,2.121c0.854,0.056 1.579,0.015 2.119,-0.124c0.126,-0.032 0.24,-0.067 0.339,-0.109c-0.81,-0.858 -3.671,-3.887 -4.397,-4.655c-0.393,-0.067 -0.873,-0.007 -1.381,0.128c-0.875,0.234 -1.826,0.7 -2.589,1.226c-0.495,0.341 -0.911,0.707 -1.166,1.052c-0.094,0.127 -0.167,0.247 -0.205,0.361Zm10.2,1.452c0.047,-0.097 0.089,-0.208 0.128,-0.332c0.169,-0.531 0.252,-1.253 0.245,-2.108c-0.029,-3.528 -1.609,-9.205 -5.727,-13.566c-0.257,-0.272 -0.52,-0.533 -0.788,-0.786c-0.017,0.01 -0.036,0.019 -0.055,0.026c-0.817,0.288 -1.572,0.993 -2.144,1.915c-0.866,1.398 -1.308,3.3 -0.871,5.098l9.212,9.753Zm-6.664,-17.263c-3.956,-3.45 -8.886,-4.897 -12.035,-5.116c-0.856,-0.06 -1.574,-0.029 -2.091,0.085c-0.078,0.017 -0.15,0.034 -0.215,0.053l11.016,11.664c-0.149,-1.662 0.315,-3.329 1.108,-4.608c0.595,-0.961 1.377,-1.703 2.217,-2.078Zm-14.803,-4.542c-0.022,0.064 -0.044,0.135 -0.065,0.212c-0.144,0.51 -0.215,1.224 -0.205,2.082c0.015,1.198 0.191,2.661 0.58,4.242c0.945,-1.359 2.431,-1.832 4.323,-1.63l-4.633,-4.906Z" style="fill:#448200;"/></g><g><path d="M115.453,18.172c1.208,-8.757 8.328,-15.019 10.164,-14.765c1.836,0.253 6.993,8.209 5.785,16.966c-1.208,8.756 -7.938,15.072 -10.164,14.765c-2.226,-0.308 -6.993,-8.21 -5.785,-16.966Z" style="fill:#54a000;"/><path d="M125.617,3.407c1.836,0.253 6.993,8.209 5.785,16.966c-1.208,8.756 -7.938,15.072 -10.164,14.765l4.379,-31.731Z" style="fill:#4d9000;"/><path d="M115.453,18.172c1.208,-8.757 8.328,-15.019 10.164,-14.765c1.836,0.253 6.993,8.209 5.785,16.966c-1.208,8.756 -7.938,15.072 -10.164,14.765c-2.226,-0.308 -6.993,-8.21 -5.785,-16.966Zm4.323,-9.028c-1.705,2.422 -3.203,5.556 -3.694,9.114c-0.325,2.358 -0.205,4.652 0.185,6.742c0.15,-0.044 0.321,-0.07 0.509,-0.078c0.487,-0.019 1.106,0.082 1.758,0.277c0.956,0.285 1.986,0.771 2.771,1.346c0.27,0.198 0.51,0.408 0.712,0.623l2.121,-15.369c-1.053,-1.998 -2.436,-3.063 -4.362,-2.655Zm-3.383,16.48c0.628,2.907 1.764,5.376 2.905,7.004c0.491,0.7 0.978,1.24 1.424,1.574c0.104,0.078 0.203,0.144 0.297,0.196c0.162,-1.169 0.731,-5.296 0.876,-6.344c-0.194,-0.348 -0.542,-0.685 -0.966,-0.996c-0.73,-0.535 -1.688,-0.985 -2.577,-1.251c-0.576,-0.172 -1.121,-0.267 -1.55,-0.25c-0.157,0.006 -0.297,0.025 -0.409,0.067Zm5.256,8.861c0.105,-0.024 0.218,-0.062 0.339,-0.108c0.52,-0.201 1.135,-0.589 1.797,-1.13c2.732,-2.233 6.168,-7.019 6.988,-12.961c0.051,-0.371 0.09,-0.74 0.119,-1.107c-0.019,-0.007 -0.037,-0.016 -0.054,-0.027c-0.736,-0.456 -1.759,-0.603 -2.836,-0.471c-1.632,0.2 -3.392,1.047 -4.519,2.514l-1.834,13.29Zm9.284,-16.008c0.212,-5.245 -1.748,-9.994 -3.55,-12.586c-0.49,-0.705 -0.963,-1.245 -1.376,-1.577c-0.062,-0.05 -0.121,-0.095 -0.176,-0.134l-2.193,15.893c1.202,-1.158 2.792,-1.839 4.286,-2.023c1.122,-0.137 2.19,0.007 3.009,0.427Zm-5.731,-14.384c-0.064,0.023 -0.133,0.05 -0.206,0.082c-0.488,0.207 -1.089,0.599 -1.752,1.145c-0.924,0.761 -1.954,1.815 -2.943,3.109c1.651,-0.115 2.95,0.747 3.978,2.348l0.923,-6.684Z" style="fill:#448200;"/></g><g><path d="M213.656,20.99c4.678,-5.151 12.088,-6.053 13.168,-5.071c1.08,0.981 0.893,8.443 -3.786,13.594c-4.679,5.151 -11.859,6.261 -13.169,5.071c-1.31,-1.189 -0.892,-8.443 3.787,-13.594Z" style="fill:#54a000;"/><path d="M226.824,15.919c1.08,0.981 0.893,8.443 -3.786,13.594c-4.679,5.151 -11.859,6.261 -13.169,5.071l16.955,-18.665Z" style="fill:#4d9000;"/><path d="M213.656,20.99c4.678,-5.151 12.088,-6.053 13.168,-5.071c1.08,0.981 0.893,8.443 -3.786,13.594c-4.679,5.151 -11.859,6.261 -13.169,5.071c-1.31,-1.189 -0.892,-8.443 3.787,-13.594Zm6.822,-3.942c-2.184,0.815 -4.551,2.185 -6.452,4.279c-1.26,1.386 -2.202,2.93 -2.878,4.461c0.117,0.039 0.239,0.097 0.365,0.176c0.325,0.204 0.682,0.545 1.019,0.962c0.494,0.61 0.947,1.384 1.201,2.107c0.088,0.248 0.151,0.491 0.186,0.721l8.212,-9.041c0.205,-1.766 -0.22,-3.073 -1.653,-3.665Zm-9.526,9.201c-0.885,2.169 -1.244,4.278 -1.227,5.842c0.008,0.674 0.084,1.241 0.225,1.656c0.033,0.097 0.068,0.184 0.106,0.26c0.625,-0.688 2.83,-3.116 3.39,-3.732c0.028,-0.313 -0.047,-0.686 -0.185,-1.077c-0.236,-0.672 -0.658,-1.39 -1.117,-1.958c-0.298,-0.368 -0.61,-0.672 -0.896,-0.852c-0.105,-0.066 -0.204,-0.116 -0.296,-0.139Zm-0.526,8.094c0.079,0.031 0.169,0.057 0.268,0.081c0.428,0.1 0.999,0.122 1.67,0.065c2.768,-0.236 7.128,-1.817 10.303,-5.313c0.198,-0.218 0.388,-0.44 0.57,-0.666c-0.009,-0.012 -0.017,-0.026 -0.023,-0.041c-0.276,-0.624 -0.874,-1.174 -1.633,-1.568c-1.149,-0.595 -2.669,-0.827 -4.053,-0.376l-7.102,7.818Zm13.15,-6.27c2.47,-3.313 3.309,-7.27 3.291,-9.755c-0.005,-0.676 -0.072,-1.237 -0.193,-1.637c-0.018,-0.06 -0.036,-0.115 -0.055,-0.165l-8.492,9.349c1.296,-0.217 2.632,0.047 3.684,0.592c0.79,0.41 1.42,0.979 1.765,1.616Zm2.673,-11.893c-0.051,-0.014 -0.108,-0.027 -0.17,-0.039c-0.409,-0.082 -0.974,-0.095 -1.647,-0.035c-0.939,0.084 -2.077,0.31 -3.295,0.711c1.124,0.659 1.585,1.797 1.54,3.295l3.572,-3.932Z" style="fill:#448200;"/></g><g><path d="M199.942,16.458c2.325,-7.671 9.59,-12.27 11.198,-11.783c1.609,0.488 5.1,8.345 2.775,16.017c-2.324,7.671 -9.247,12.373 -11.198,11.782c-1.95,-0.591 -5.099,-8.345 -2.775,-16.016Z" style="fill:#54a000;"/><path d="M211.14,4.675c1.609,0.488 5.1,8.345 2.775,16.017c-2.324,7.671 -9.247,12.373 -11.198,11.782l8.423,-27.799Z" style="fill:#4d9000;"/><path d="M199.942,16.458c2.325,-7.671 9.59,-12.27 11.198,-11.783c1.609,0.488 5.1,8.345 2.775,16.017c-2.324,7.671 -9.247,12.373 -11.198,11.782c-1.95,-0.591 -5.099,-8.345 -2.775,-16.016Zm5.153,-7.473c-1.871,1.928 -3.657,4.523 -4.601,7.64c-0.626,2.065 -0.844,4.137 -0.791,6.064c0.141,-0.017 0.297,-0.017 0.467,0.003c0.439,0.052 0.979,0.23 1.536,0.497c0.815,0.391 1.669,0.972 2.29,1.599c0.214,0.216 0.4,0.437 0.55,0.659l4.079,-13.465c-0.659,-1.938 -1.747,-3.089 -3.53,-2.997Zm-5.368,14.281c0.15,2.693 0.818,5.066 1.609,6.685c0.341,0.697 0.7,1.25 1.052,1.612c0.082,0.085 0.161,0.158 0.239,0.218c0.31,-1.024 1.405,-4.64 1.683,-5.558c-0.124,-0.34 -0.387,-0.69 -0.723,-1.029c-0.578,-0.583 -1.373,-1.122 -2.131,-1.486c-0.491,-0.236 -0.966,-0.398 -1.353,-0.444c-0.142,-0.016 -0.269,-0.019 -0.376,0.002Zm3.451,8.682c0.097,-0.007 0.204,-0.024 0.319,-0.049c0.494,-0.106 1.1,-0.366 1.77,-0.757c2.763,-1.612 6.52,-5.412 8.097,-10.617c0.098,-0.325 0.186,-0.65 0.263,-0.975c-0.015,-0.009 -0.03,-0.019 -0.044,-0.031c-0.595,-0.513 -1.49,-0.79 -2.473,-0.825c-1.49,-0.052 -3.186,0.457 -4.404,1.611l-3.528,11.643Zm10.586,-13.02c0.934,-4.668 -0.148,-9.2 -1.394,-11.777c-0.339,-0.701 -0.686,-1.252 -1.009,-1.608c-0.049,-0.053 -0.095,-0.102 -0.139,-0.145l-4.219,13.924c1.242,-0.866 2.762,-1.251 4.127,-1.204c1.024,0.036 1.96,0.317 2.634,0.81Zm-3.093,-13.697c-0.061,0.011 -0.126,0.026 -0.196,0.044c-0.466,0.117 -1.061,0.382 -1.731,0.777c-0.936,0.551 -2.008,1.349 -3.078,2.367c1.495,0.131 2.537,1.088 3.231,2.668l1.774,-5.856Z" style="fill:#448200;"/></g><g><path d="M84.159,14.859c4.08,-6.9 12.229,-9.641 13.676,-8.785c1.447,0.855 2.971,9.317 -1.109,16.217c-4.08,6.899 -11.921,9.823 -13.676,8.785c-1.754,-1.037 -2.971,-9.317 1.109,-16.217Z" style="fill:#54a000;"/><path d="M97.835,6.074c1.447,0.855 2.971,9.317 -1.109,16.217c-4.08,6.899 -11.921,9.823 -13.676,8.785l14.785,-25.002Z" style="fill:#4d9000;"/><path d="M84.159,14.859c4.08,-6.9 12.229,-9.641 13.676,-8.785c1.447,0.855 2.971,9.317 -1.109,16.217c-4.08,6.899 -11.921,9.823 -13.676,8.785c-1.754,-1.037 -2.971,-9.317 1.109,-16.217Zm6.78,-6.035c-2.275,1.428 -4.626,3.524 -6.284,6.328c-1.099,1.858 -1.802,3.819 -2.208,5.703c0.14,0.016 0.292,0.054 0.452,0.114c0.414,0.154 0.896,0.455 1.374,0.847c0.699,0.574 1.39,1.341 1.845,2.098c0.156,0.26 0.284,0.519 0.377,0.77l7.162,-12.11c-0.181,-2.04 -0.965,-3.416 -2.718,-3.75Zm-8.606,12.597c-0.494,2.652 -0.409,5.115 -0.025,6.876c0.165,0.758 0.383,1.38 0.639,1.816c0.059,0.102 0.119,0.192 0.18,0.268c0.544,-0.921 2.467,-4.173 2.955,-4.999c-0.04,-0.359 -0.212,-0.763 -0.458,-1.171c-0.422,-0.704 -1.067,-1.416 -1.716,-1.949c-0.422,-0.346 -0.845,-0.617 -1.21,-0.753c-0.133,-0.05 -0.256,-0.083 -0.365,-0.088Zm1.29,9.253c0.096,0.017 0.203,0.025 0.321,0.029c0.506,0.014 1.155,-0.095 1.899,-0.315c3.068,-0.91 7.619,-3.709 10.387,-8.391c0.173,-0.292 0.335,-0.586 0.488,-0.883c-0.013,-0.013 -0.025,-0.027 -0.036,-0.042c-0.456,-0.639 -1.259,-1.121 -2.207,-1.388c-1.435,-0.405 -3.203,-0.313 -4.66,0.518l-6.192,10.472Zm13.375,-10.133c2.016,-4.312 2.042,-8.971 1.443,-11.771c-0.162,-0.761 -0.369,-1.379 -0.598,-1.801c-0.034,-0.063 -0.067,-0.122 -0.1,-0.174l-7.405,12.523c1.411,-0.546 2.98,-0.559 4.294,-0.189c0.987,0.278 1.829,0.774 2.366,1.412Zm0.249,-14.039c-0.061,-0.004 -0.128,-0.004 -0.2,-0.004c-0.481,0.003 -1.122,0.119 -1.867,0.344c-1.04,0.312 -2.271,0.833 -3.551,1.568c1.421,0.482 2.205,1.659 2.504,3.359l3.114,-5.267Z" style="fill:#448200;"/></g><g><path d="M72.555,21.335c-3.013,-9.697 1.338,-19.682 3.372,-20.313c2.033,-0.632 11.277,5.128 14.29,14.825c3.013,9.697 -0.906,19.548 -3.371,20.314c-2.466,0.766 -11.278,-5.129 -14.291,-14.826Z" style="fill:#54a000;"/><path d="M75.927,1.022c2.033,-0.632 11.277,5.128 14.29,14.825c3.013,9.697 -0.906,19.548 -3.371,20.314l-10.919,-35.139Z" style="fill:#4d9000;"/><path d="M72.555,21.335c-3.013,-9.697 1.338,-19.682 3.372,-20.313c2.033,-0.632 11.277,5.128 14.29,14.825c3.013,9.697 -0.906,19.548 -3.371,20.314c-2.466,0.766 -11.278,-5.129 -14.291,-14.826Zm0.094,-11.498c-0.593,3.351 -0.622,7.341 0.603,11.282c0.811,2.611 2.055,4.938 3.48,6.922c0.134,-0.119 0.299,-0.23 0.491,-0.329c0.497,-0.258 1.19,-0.455 1.964,-0.57c1.133,-0.169 2.441,-0.167 3.538,0.049c0.377,0.075 0.73,0.175 1.045,0.301l-5.289,-17.02c-2.069,-1.565 -4.028,-1.998 -5.832,-0.635Zm4.518,18.791c2.071,2.718 4.457,4.731 6.437,5.868c0.853,0.489 1.622,0.813 2.249,0.943c0.146,0.03 0.281,0.052 0.405,0.059c-0.403,-1.295 -1.823,-5.865 -2.183,-7.025c-0.372,-0.268 -0.898,-0.449 -1.491,-0.566c-1.02,-0.2 -2.236,-0.201 -3.289,-0.044c-0.684,0.102 -1.297,0.269 -1.735,0.496c-0.161,0.084 -0.297,0.171 -0.393,0.269Zm9.788,6.653c0.097,-0.076 0.196,-0.17 0.3,-0.277c0.443,-0.463 0.893,-1.166 1.318,-2.052c1.753,-3.654 2.992,-10.308 0.947,-16.888c-0.127,-0.411 -0.266,-0.814 -0.416,-1.209c-0.022,0.001 -0.045,0.001 -0.069,-0.002c-0.988,-0.116 -2.124,0.23 -3.18,0.893c-1.599,1.004 -3.016,2.742 -3.474,4.818l4.574,14.717Zm1.85,-21.177c-2.337,-5.558 -6.692,-9.542 -9.83,-11.36c-0.853,-0.494 -1.609,-0.825 -2.2,-0.969c-0.089,-0.021 -0.172,-0.04 -0.249,-0.054l5.469,17.601c0.687,-1.791 2.008,-3.275 3.472,-4.194c1.1,-0.691 2.281,-1.061 3.338,-1.024Zm-12.976,-12.166c-0.055,0.055 -0.113,0.117 -0.174,0.185c-0.406,0.454 -0.841,1.155 -1.264,2.045c-0.59,1.243 -1.147,2.841 -1.545,4.669c1.661,-0.924 3.433,-0.661 5.283,0.503l-2.3,-7.402Z" style="fill:#448200;"/></g></g><g><path d="M212.378,51.022c-1.453,-1.562 -2.3,-3.684 -2.19,-5.979c0.062,-1.287 0.418,-2.491 1.001,-3.55c-1.805,-1.593 -2.897,-3.96 -2.773,-6.547c0.198,-4.128 3.425,-7.401 7.43,-7.776c0.758,-3.945 4.328,-6.839 8.461,-6.641c0.986,0.047 1.922,0.267 2.783,0.627c-0.052,0.272 -0.111,0.55 -0.178,0.831c1.221,0.543 2.263,1.406 3.024,2.477c1.273,-0.856 2.823,-1.325 4.472,-1.245c0.094,0.004 0.188,0.01 0.282,0.018c0.316,-0.239 0.639,-0.474 0.97,-0.703c3.925,0.778 6.798,4.332 6.601,8.443c-0.055,1.153 -0.347,2.24 -0.827,3.216c2.471,1.516 4.062,4.296 3.914,7.39c-0.21,4.367 -3.807,7.777 -8.131,7.813c-0.074,1.465 -0.531,2.823 -1.268,3.98c-0.239,-0.144 -0.475,-0.291 -0.708,-0.44c-1.377,2.157 -3.842,3.538 -6.582,3.407c-2.958,-0.142 -5.427,-2.007 -6.481,-4.575c-1.206,0.72 -2.63,1.106 -4.137,1.033c-1.973,-0.094 -3.729,-0.956 -4.993,-2.282c-0.217,0.169 -0.44,0.337 -0.67,0.503Z" style="fill-opacity:0.15;"/><path d="M229.345,42.03c3.841,0.184 6.809,3.447 6.625,7.282c-0.184,3.835 -3.451,6.799 -7.291,6.614c-3.84,-0.184 -6.809,-3.447 -6.625,-7.282c0.184,-3.834 3.451,-6.798 7.291,-6.614Z" style="fill:#ea6161;"/><path d="M229.365,41.614c4.07,0.195 7.216,3.654 7.021,7.718c-0.195,4.064 -3.657,7.206 -7.727,7.011c-4.07,-0.196 -7.216,-3.654 -7.021,-7.719c0.195,-4.064 3.657,-7.205 7.727,-7.01Zm-0.04,0.832c-3.61,-0.173 -6.682,2.613 -6.855,6.218c-0.173,3.606 2.618,6.673 6.229,6.846c3.61,0.173 6.682,-2.613 6.855,-6.218c0.173,-3.605 -2.618,-6.672 -6.229,-6.846Z" style="fill:#cc393a;"/><path d="M218.728,38.489c3.84,0.184 6.808,3.447 6.624,7.282c-0.184,3.835 -3.451,6.798 -7.291,6.614c-3.84,-0.184 -6.808,-3.447 -6.624,-7.282c0.184,-3.835 3.451,-6.798 7.291,-6.614Z" style="fill:#ea6161;"/><path d="M218.748,38.073c4.07,0.195 7.215,3.654 7.02,7.718c-0.195,4.064 -3.657,7.206 -7.727,7.01c-4.07,-0.195 -7.216,-3.653 -7.021,-7.718c0.195,-4.064 3.658,-7.206 7.728,-7.01Zm-0.04,0.832c-3.61,-0.173 -6.682,2.613 -6.855,6.218c-0.173,3.605 2.618,6.673 6.228,6.846c3.61,0.173 6.682,-2.613 6.855,-6.218c0.173,-3.605 -2.618,-6.673 -6.228,-6.846Z" style="fill:#cc393a;"/><path d="M237.475,34.241c3.84,0.185 6.808,3.448 6.624,7.282c-0.184,3.835 -3.451,6.799 -7.291,6.615c-3.84,-0.185 -6.808,-3.448 -6.624,-7.282c0.184,-3.835 3.451,-6.799 7.291,-6.615Z" style="fill:#ea6161;"/><path d="M237.495,33.825c4.07,0.196 7.215,3.654 7.02,7.718c-0.195,4.065 -3.657,7.206 -7.727,7.011c-4.07,-0.195 -7.216,-3.654 -7.021,-7.718c0.196,-4.065 3.658,-7.206 7.728,-7.011Zm-0.04,0.833c-3.61,-0.174 -6.682,2.612 -6.855,6.218c-0.173,3.605 2.618,6.672 6.228,6.845c3.61,0.174 6.682,-2.612 6.855,-6.218c0.173,-3.605 -2.618,-6.672 -6.228,-6.845Z" style="fill:#cc393a;"/><path d="M234.388,23.635c3.84,0.184 6.808,3.447 6.624,7.282c-0.184,3.834 -3.451,6.798 -7.291,6.614c-3.84,-0.184 -6.808,-3.447 -6.624,-7.282c0.184,-3.835 3.451,-6.799 7.291,-6.614Z" style="fill:#ea6161;"/><path d="M234.408,23.219c4.07,0.195 7.216,3.653 7.021,7.718c-0.195,4.064 -3.658,7.205 -7.728,7.01c-4.07,-0.195 -7.215,-3.654 -7.02,-7.718c0.195,-4.064 3.657,-7.206 7.727,-7.01Zm-0.04,0.832c-3.61,-0.173 -6.682,2.613 -6.855,6.218c-0.173,3.605 2.618,6.673 6.228,6.846c3.61,0.173 6.682,-2.613 6.855,-6.218c0.173,-3.606 -2.618,-6.673 -6.228,-6.846Z" style="fill:#cc393a;"/><path d="M224.247,21.778c3.84,0.184 6.809,3.447 6.625,7.282c-0.184,3.834 -3.451,6.798 -7.292,6.614c-3.84,-0.184 -6.808,-3.447 -6.624,-7.282c0.184,-3.835 3.451,-6.799 7.291,-6.614Z" style="fill:#ea6161;"/><path d="M224.267,21.362c4.07,0.195 7.216,3.653 7.021,7.718c-0.195,4.064 -3.658,7.205 -7.728,7.01c-4.069,-0.195 -7.215,-3.654 -7.02,-7.718c0.195,-4.064 3.657,-7.206 7.727,-7.01Zm-0.04,0.832c-3.61,-0.173 -6.682,2.613 -6.855,6.218c-0.173,3.605 2.618,6.673 6.228,6.846c3.611,0.173 6.682,-2.613 6.855,-6.218c0.173,-3.606 -2.618,-6.673 -6.228,-6.846Z" style="fill:#cc393a;"/><path d="M216.956,28.392c3.84,0.184 6.808,3.447 6.624,7.282c-0.184,3.835 -3.451,6.798 -7.291,6.614c-3.84,-0.184 -6.808,-3.447 -6.624,-7.282c0.184,-3.835 3.451,-6.798 7.291,-6.614Z" style="fill:#ea6161;"/><path d="M216.976,27.976c4.07,0.195 7.216,3.654 7.021,7.718c-0.195,4.064 -3.658,7.206 -7.728,7.01c-4.07,-0.195 -7.215,-3.653 -7.02,-7.718c0.195,-4.064 3.657,-7.205 7.727,-7.01Zm-0.04,0.832c-3.61,-0.173 -6.682,2.613 -6.855,6.218c-0.173,3.605 2.618,6.673 6.228,6.846c3.61,0.173 6.682,-2.613 6.855,-6.218c0.173,-3.605 -2.618,-6.673 -6.228,-6.846Z" style="fill:#cc393a;"/><path d="M226.948,33.357c3.374,0.162 5.982,3.032 5.82,6.407c-0.162,3.374 -3.033,5.982 -6.407,5.82c-3.374,-0.162 -5.982,-3.033 -5.82,-6.407c0.162,-3.374 3.032,-5.982 6.407,-5.82Z" style="fill:#f9ee7a;"/><path d="M226.968,32.94c3.604,0.173 6.389,3.24 6.216,6.844c-0.173,3.604 -3.239,6.389 -6.843,6.216c-3.604,-0.173 -6.389,-3.239 -6.217,-6.843c0.173,-3.604 3.24,-6.389 6.844,-6.217Zm-0.04,0.833c-3.145,-0.151 -5.82,2.279 -5.971,5.424c-0.151,3.144 2.279,5.82 5.424,5.971c3.144,0.151 5.82,-2.28 5.971,-5.424c0.151,-3.145 -2.28,-5.82 -5.424,-5.971Z" style="fill:#e6d856;"/></g><g><path d="M37.449,49.281c0.031,-0.938 0.191,-1.854 0.466,-2.727c-3.405,-1.092 -6.144,-3.938 -6.923,-7.689c-0.837,-4.027 0.814,-7.997 3.902,-10.308c0.45,-0.083 0.905,-0.156 1.366,-0.218c-0.083,-0.171 -0.162,-0.343 -0.239,-0.514c0.888,-0.498 1.867,-0.87 2.916,-1.088c0.105,-0.021 0.211,-0.042 0.316,-0.06c-0.688,-3.73 0.743,-7.384 3.458,-9.687c0.303,0.102 0.609,0.212 0.917,0.331c1.083,-0.827 2.363,-1.43 3.785,-1.725c3.883,-0.807 7.709,0.912 9.772,4.037c0.227,-0.206 0.464,-0.401 0.71,-0.584c-0.076,-0.32 19.441,15.097 20.059,18.069c1.07,5.152 -12.957,21.518 -15.09,21.961c-3.262,0.677 -24.258,-2.186 -25.316,-7.279c-0.153,-0.735 0.177,-2.49 -0.099,-2.519Z" style="fill-opacity:0.15;"/><g><path d="M76.73,37.372c-1.011,-4.868 -5.779,-8 -10.64,-6.99c-4.861,1.01 -7.987,5.781 -6.975,10.649c1.011,4.868 5.778,8 10.639,6.99c4.861,-1.009 7.987,-5.781 6.976,-10.649Z" style="fill:#ea6161;"/><path d="M77.138,37.287c1.058,5.093 -2.213,10.086 -7.299,11.142c-5.086,1.057 -10.074,-2.22 -11.132,-7.313c-1.058,-5.093 2.212,-10.086 7.298,-11.142c5.086,-1.057 10.075,2.22 11.133,7.313Zm-0.816,0.17c-0.965,-4.643 -5.511,-7.63 -10.147,-6.667c-4.636,0.963 -7.617,5.514 -6.652,10.156c0.964,4.643 5.51,7.631 10.147,6.668c4.636,-0.963 7.616,-5.515 6.652,-10.157Z" style="fill:#cc393a;"/></g><g><path d="M69.754,48.021c-1.011,-4.867 -5.778,-8 -10.639,-6.99c-4.861,1.01 -7.987,5.782 -6.976,10.65c1.011,4.867 5.779,8 10.64,6.99c4.861,-1.01 7.986,-5.782 6.975,-10.65Z" style="fill:#ea6161;"/><path d="M70.162,47.937c1.058,5.093 -2.212,10.085 -7.298,11.142c-5.087,1.056 -10.075,-2.221 -11.133,-7.314c-1.058,-5.093 2.213,-10.085 7.299,-11.142c5.086,-1.056 10.074,2.221 11.132,7.314Zm-0.816,0.169c-0.964,-4.642 -5.511,-7.63 -10.147,-6.667c-4.636,0.963 -7.616,5.514 -6.652,10.157c0.964,4.642 5.511,7.63 10.147,6.667c4.636,-0.963 7.617,-5.514 6.652,-10.157Z" style="fill:#cc393a;"/></g><g><path d="M56.499,47.798c-1.011,-4.868 -5.778,-8 -10.639,-6.99c-4.861,1.01 -7.987,5.781 -6.976,10.649c1.011,4.868 5.779,8 10.64,6.991c4.861,-1.01 7.986,-5.782 6.975,-10.65Z" style="fill:#ea6161;"/><path d="M56.907,47.714c1.058,5.093 -2.212,10.085 -7.298,11.142c-5.086,1.056 -10.075,-2.221 -11.133,-7.314c-1.058,-5.093 2.213,-10.086 7.299,-11.142c5.086,-1.057 10.074,2.22 11.132,7.314Zm-0.816,0.169c-0.964,-4.643 -5.511,-7.63 -10.147,-6.667c-4.636,0.963 -7.616,5.514 -6.652,10.157c0.964,4.642 5.511,7.63 10.147,6.667c4.636,-0.963 7.617,-5.515 6.652,-10.157Z" style="fill:#cc393a;"/></g><g><path d="M49.831,34.952c-1.011,-4.868 -5.779,-8 -10.64,-6.991c-4.861,1.01 -7.986,5.782 -6.975,10.65c1.011,4.867 5.778,8 10.639,6.99c4.862,-1.01 7.987,-5.782 6.976,-10.649Z" style="fill:#ea6161;"/><path d="M50.239,34.867c1.058,5.093 -2.213,10.085 -7.299,11.142c-5.086,1.056 -10.074,-2.22 -11.132,-7.314c-1.058,-5.093 2.213,-10.085 7.299,-11.142c5.086,-1.056 10.074,2.221 11.132,7.314Zm-0.816,0.169c-0.964,-4.642 -5.511,-7.63 -10.147,-6.667c-4.636,0.963 -7.617,5.514 -6.652,10.157c0.964,4.642 5.511,7.63 10.147,6.667c4.636,-0.963 7.616,-5.514 6.652,-10.157Z" style="fill:#cc393a;"/></g><g><path d="M58.137,22.994c-1.011,-4.868 -5.778,-8 -10.639,-6.99c-4.861,1.01 -7.987,5.781 -6.976,10.649c1.011,4.868 5.779,8 10.64,6.991c4.861,-1.01 7.986,-5.782 6.975,-10.65Z" style="fill:#ea6161;"/><path d="M58.545,22.909c1.058,5.094 -2.212,10.086 -7.298,11.143c-5.087,1.056 -10.075,-2.221 -11.133,-7.314c-1.058,-5.093 2.213,-10.086 7.299,-11.142c5.086,-1.057 10.074,2.22 11.132,7.313Zm-0.816,0.17c-0.964,-4.643 -5.511,-7.63 -10.147,-6.667c-4.636,0.963 -7.616,5.514 -6.652,10.157c0.964,4.642 5.511,7.63 10.147,6.667c4.636,-0.963 7.617,-5.515 6.652,-10.157Z" style="fill:#cc393a;"/></g><g><path d="M72.309,24.794c-1.011,-4.867 -5.779,-8 -10.64,-6.99c-4.861,1.01 -7.986,5.782 -6.975,10.649c1.011,4.868 5.779,8 10.64,6.991c4.861,-1.01 7.986,-5.782 6.975,-10.65Z" style="fill:#ea6161;"/><path d="M72.717,24.71c1.058,5.093 -2.213,10.085 -7.299,11.142c-5.086,1.056 -10.074,-2.221 -11.132,-7.314c-1.058,-5.093 2.213,-10.085 7.299,-11.142c5.086,-1.056 10.074,2.22 11.132,7.314Zm-0.816,0.169c-0.964,-4.642 -5.511,-7.63 -10.147,-6.667c-4.636,0.963 -7.616,5.514 -6.652,10.157c0.964,4.642 5.511,7.63 10.147,6.667c4.636,-0.963 7.616,-5.514 6.652,-10.157Z" style="fill:#cc393a;"/></g><path d="M61.394,36.262c-0.888,-4.277 -5.082,-7.028 -9.359,-6.14c-4.278,0.888 -7.029,5.082 -6.14,9.36c0.888,4.277 5.082,7.028 9.359,6.14c4.277,-0.889 7.029,-5.083 6.14,-9.36Z" style="fill:#f9ee7a;"/><path d="M61.802,36.177c0.935,4.503 -1.961,8.917 -6.463,9.853c-4.502,0.935 -8.917,-1.961 -9.852,-6.464c-0.936,-4.502 1.96,-8.917 6.463,-9.852c4.502,-0.935 8.917,1.961 9.852,6.463Zm-0.816,0.17c-0.841,-4.052 -4.815,-6.659 -8.867,-5.817c-4.052,0.842 -6.658,4.815 -5.816,8.867c0.841,4.052 4.814,6.658 8.866,5.817c4.053,-0.842 6.659,-4.815 5.817,-8.867Z" style="fill:#e6d856;"/></g><g><path d="M90.05,8.718c0.052,0.198 0.097,0.404 0.136,0.618c0.42,2.346 0.018,5.704 -1.321,9.155c0,0 -0.002,0.005 -0.001,0.006c2.181,-0.889 4.252,-1.321 5.904,-1.287c2.002,0.042 -1.883,32.781 -3.019,33.583c-1.135,0.802 -16.27,2.499 -17.639,2.258c-1.369,-0.241 -13.757,-5.021 -14.674,-6.065c-0.918,-1.044 -1.154,-2.661 -0.557,-4.572c0.56,-1.797 1.867,-3.918 3.762,-5.934c-2.684,-0.194 -5.016,-0.842 -6.617,-1.751c-1.74,-0.989 -2.673,-2.33 -2.716,-3.72c-0.043,-1.389 0.805,-2.786 2.481,-3.881c1.234,-0.805 2.944,-1.473 4.944,-1.892c-1.665,-1.763 -2.842,-3.594 -3.408,-5.189c-0.05,-0.141 -0.095,-0.28 -0.136,-0.417c0.225,-0.205 0.461,-0.399 0.706,-0.581c-0.298,-1.248 -0.152,-2.319 0.456,-3.067c0.722,-0.889 2.022,-1.234 3.656,-1.012c1.847,0.25 4.145,1.216 6.423,2.786c-0.046,-0.172 -0.09,-0.345 -0.133,-0.52c-0.834,-3.421 -0.817,-6.638 -0.128,-8.798c0.5,-1.572 1.369,-2.599 2.482,-2.87c0.709,-0.173 1.471,-0.027 2.232,0.402c0.093,-0.272 0.188,-0.536 0.285,-0.79c0.538,0.284 1.075,0.685 1.595,1.204c1.414,1.411 2.76,3.735 3.675,6.567c1.298,-2.846 3.006,-5.101 4.658,-6.365c0.348,-0.267 0.696,-0.491 1.042,-0.673c0.201,0.204 0.401,0.414 0.599,0.629c0.912,-0.433 1.786,-0.521 2.542,-0.228c1.013,0.393 1.719,1.431 2.038,2.921c0.244,-0.179 0.488,-0.352 0.733,-0.517Z" style="fill-opacity:0.15;"/><g><path d="M97.847,19.819c1.285,2.21 -1.685,6.338 -6.629,9.214c-4.944,2.875 -10.001,3.415 -11.287,1.205c-1.285,-2.21 1.685,-6.338 6.629,-9.214c4.944,-2.875 10.001,-3.416 11.287,-1.205Z" style="fill:#ceedff;"/><path d="M98.207,19.609c0.575,0.99 0.437,2.328 -0.348,3.778c-1.08,1.994 -3.387,4.235 -6.432,6.006c-3.044,1.77 -6.133,2.667 -8.4,2.62c-1.649,-0.034 -2.88,-0.575 -3.456,-1.565c-0.576,-0.99 -0.437,-2.328 0.348,-3.778c1.08,-1.994 3.387,-4.236 6.431,-6.006c3.045,-1.771 6.134,-2.667 8.401,-2.621c1.649,0.035 2.88,0.576 3.456,1.566Zm-0.721,0.419c-0.452,-0.778 -1.456,-1.125 -2.752,-1.151c-2.151,-0.045 -5.076,0.827 -7.965,2.507c-2.888,1.68 -5.092,3.791 -6.117,5.683c-0.618,1.14 -0.813,2.183 -0.361,2.962c0.453,0.778 1.457,1.124 2.753,1.151c2.151,0.045 5.076,-0.827 7.964,-2.507c2.889,-1.68 5.093,-3.791 6.118,-5.683c0.618,-1.14 0.813,-2.184 0.36,-2.962Z" style="fill:#accee2;"/></g><g><path d="M99.931,34.61c-0.24,2.545 -5.057,4.176 -10.751,3.64c-5.694,-0.537 -10.123,-3.039 -9.883,-5.585c0.24,-2.545 5.058,-4.176 10.752,-3.639c5.694,0.536 10.122,3.038 9.882,5.584Z" style="fill:#ceedff;"/><path d="M100.346,34.649c-0.108,1.14 -0.998,2.148 -2.481,2.871c-2.038,0.993 -5.218,1.475 -8.724,1.144c-3.507,-0.33 -6.541,-1.397 -8.358,-2.754c-1.321,-0.987 -2.008,-2.144 -1.9,-3.284c0.107,-1.14 0.998,-2.148 2.48,-2.87c2.038,-0.994 5.219,-1.476 8.725,-1.145c3.506,0.33 6.541,1.398 8.357,2.754c1.322,0.987 2.008,2.144 1.901,3.284Zm-0.83,-0.078c0.085,-0.897 -0.53,-1.762 -1.569,-2.538c-1.724,-1.287 -4.61,-2.279 -7.937,-2.592c-3.327,-0.314 -6.348,0.121 -8.282,1.064c-1.166,0.568 -1.931,1.303 -2.016,2.2c-0.084,0.896 0.531,1.761 1.57,2.537c1.723,1.288 4.61,2.279 7.937,2.593c3.326,0.313 6.347,-0.122 8.281,-1.064c1.166,-0.569 1.932,-1.304 2.016,-2.2Z" style="fill:#accee2;"/></g><g><path d="M91.028,49.772c-2.088,1.475 -6.462,-1.121 -9.761,-5.793c-3.298,-4.672 -4.281,-9.663 -2.192,-11.137c2.088,-1.475 6.462,1.121 9.761,5.793c3.299,4.672 4.281,9.662 2.192,11.137Z" style="fill:#ceedff;"/><path d="M91.269,50.112c-0.936,0.661 -2.281,0.641 -3.794,-0.014c-2.081,-0.901 -4.517,-3.002 -6.548,-5.879c-2.031,-2.877 -3.196,-5.876 -3.348,-8.138c-0.111,-1.645 0.32,-2.919 1.255,-3.58c0.936,-0.66 2.281,-0.64 3.794,0.015c2.081,0.901 4.517,3.002 6.548,5.879c2.031,2.877 3.196,5.875 3.349,8.137c0.11,1.646 -0.321,2.92 -1.256,3.58Zm-0.481,-0.68c0.736,-0.52 0.992,-1.55 0.905,-2.844c-0.144,-2.146 -1.27,-4.983 -3.198,-7.713c-1.927,-2.729 -4.223,-4.74 -6.198,-5.594c-1.19,-0.516 -2.246,-0.618 -2.982,-0.099c-0.736,0.519 -0.992,1.549 -0.905,2.843c0.145,2.147 1.27,4.984 3.198,7.713c1.927,2.73 4.224,4.74 6.198,5.595c1.19,0.515 2.246,0.618 2.982,0.099Z" style="fill:#accee2;"/></g><g><path d="M77.918,31.408c2.518,0.443 3.758,5.376 2.767,11.009c-0.991,5.632 -3.84,9.846 -6.358,9.403c-2.518,-0.443 -3.758,-5.376 -2.767,-11.009c0.992,-5.633 3.84,-9.846 6.358,-9.403Z" style="fill:#ceedff;"/><path d="M77.991,30.998c1.127,0.198 2.061,1.167 2.662,2.702c0.827,2.111 1.053,5.321 0.442,8.789c-0.61,3.468 -1.917,6.408 -3.415,8.11c-1.089,1.238 -2.298,1.829 -3.425,1.631c-1.128,-0.198 -2.062,-1.167 -2.663,-2.703c-0.827,-2.111 -1.052,-5.32 -0.442,-8.788c0.61,-3.468 1.917,-6.408 3.415,-8.11c1.09,-1.238 2.298,-1.83 3.426,-1.631Zm-0.145,0.82c-0.887,-0.156 -1.798,0.388 -2.655,1.362c-1.421,1.615 -2.641,4.412 -3.22,7.703c-0.579,3.291 -0.388,6.337 0.397,8.341c0.473,1.207 1.144,2.029 2.031,2.185c0.887,0.156 1.799,-0.387 2.656,-1.361c1.421,-1.615 2.641,-4.413 3.22,-7.704c0.579,-3.291 0.387,-6.337 -0.397,-8.34c-0.473,-1.207 -1.145,-2.029 -2.032,-2.186Z" style="fill:#accee2;"/></g><g><path d="M75.942,32.48c1.688,1.92 -0.429,6.545 -4.725,10.32c-4.297,3.776 -9.155,5.282 -10.842,3.361c-1.688,-1.92 0.43,-6.545 4.726,-10.32c4.296,-3.776 9.154,-5.282 10.841,-3.361Z" style="fill:#ceedff;"/><path d="M76.255,32.205c0.756,0.86 0.879,2.2 0.388,3.774c-0.675,2.164 -2.506,4.809 -5.151,7.134c-2.646,2.325 -5.504,3.801 -7.737,4.192c-1.625,0.285 -2.937,-0.009 -3.693,-0.869c-0.756,-0.86 -0.879,-2.2 -0.388,-3.774c0.675,-2.164 2.506,-4.809 5.152,-7.134c2.645,-2.325 5.503,-3.801 7.736,-4.192c1.625,-0.285 2.938,0.009 3.693,0.869Zm-0.626,0.55c-0.594,-0.677 -1.645,-0.822 -2.923,-0.599c-2.119,0.372 -4.82,1.792 -7.33,3.998c-2.51,2.206 -4.266,4.702 -4.906,6.756c-0.387,1.238 -0.377,2.3 0.218,2.976c0.594,0.676 1.645,0.822 2.923,0.599c2.119,-0.372 4.82,-1.792 7.33,-3.998c2.51,-2.206 4.266,-4.702 4.906,-6.756c0.387,-1.238 0.377,-2.3 -0.218,-2.976Z" style="fill:#accee2;"/></g><g><path d="M75.273,30.33c0.079,2.555 -4.498,4.773 -10.214,4.95c-5.717,0.177 -10.422,-1.754 -10.501,-4.31c-0.079,-2.555 4.498,-4.773 10.214,-4.95c5.717,-0.177 10.422,1.754 10.501,4.31Z" style="fill:#ceedff;"/><path d="M75.689,30.317c0.036,1.144 -0.722,2.256 -2.103,3.157c-1.899,1.24 -4.995,2.114 -8.515,2.223c-3.519,0.109 -6.664,-0.573 -8.635,-1.692c-1.434,-0.815 -2.259,-1.877 -2.295,-3.022c-0.035,-1.144 0.723,-2.256 2.104,-3.157c1.898,-1.24 4.994,-2.114 8.514,-2.223c3.52,-0.109 6.664,0.573 8.636,1.692c1.433,0.815 2.259,1.877 2.294,3.022Zm-0.833,0.025c-0.027,-0.9 -0.745,-1.682 -1.873,-2.322c-1.871,-1.063 -4.858,-1.687 -8.198,-1.584c-3.34,0.104 -6.283,0.912 -8.085,2.088c-1.086,0.709 -1.754,1.533 -1.726,2.434c0.028,0.9 0.746,1.682 1.874,2.322c1.87,1.063 4.858,1.687 8.198,1.584c3.34,-0.104 6.283,-0.912 8.084,-2.088c1.086,-0.709 1.754,-1.533 1.726,-2.434Z" style="fill:#accee2;"/></g><g><path d="M74.762,29.31c-1.612,1.985 -6.525,0.669 -10.964,-2.937c-4.44,-3.605 -6.736,-8.144 -5.124,-10.128c1.612,-1.985 6.525,-0.669 10.964,2.936c4.44,3.606 6.736,8.144 5.124,10.129Z" style="fill:#ceedff;"/><path d="M75.086,29.573c-0.722,0.889 -2.023,1.233 -3.657,1.012c-2.247,-0.304 -5.16,-1.668 -7.894,-3.888c-2.734,-2.22 -4.666,-4.792 -5.425,-6.929c-0.552,-1.554 -0.481,-2.897 0.241,-3.786c0.722,-0.889 2.022,-1.234 3.656,-1.012c2.247,0.304 5.16,1.668 7.894,3.888c2.734,2.22 4.666,4.792 5.425,6.928c0.552,1.554 0.481,2.898 -0.24,3.787Zm-0.647,-0.526c0.567,-0.699 0.536,-1.76 0.102,-2.982c-0.72,-2.027 -2.571,-4.454 -5.165,-6.56c-2.594,-2.107 -5.349,-3.421 -7.481,-3.71c-1.285,-0.174 -2.33,0.013 -2.897,0.712c-0.568,0.699 -0.537,1.76 -0.103,2.982c0.72,2.028 2.572,4.454 5.165,6.561c2.594,2.106 5.349,3.42 7.481,3.709c1.285,0.174 2.33,-0.013 2.898,-0.712Z" style="fill:#accee2;"/></g><g><path d="M75.656,26.109c-2.484,0.605 -5.6,-3.415 -6.954,-8.971c-1.354,-5.557 -0.436,-10.56 2.048,-11.165c2.484,-0.605 5.599,3.415 6.953,8.971c1.354,5.557 0.437,10.56 -2.047,11.165Z" style="fill:#ceedff;"/><path d="M75.754,26.514c-1.112,0.271 -2.356,-0.241 -3.523,-1.406c-1.605,-1.602 -3.1,-4.45 -3.934,-7.872c-0.834,-3.421 -0.817,-6.638 -0.128,-8.798c0.5,-1.572 1.369,-2.599 2.482,-2.87c1.112,-0.271 2.356,0.241 3.524,1.406c1.605,1.602 3.1,4.45 3.933,7.872c0.834,3.421 0.817,6.638 0.129,8.798c-0.501,1.572 -1.37,2.599 -2.483,2.87Zm-0.197,-0.81c0.875,-0.213 1.492,-1.077 1.886,-2.313c0.653,-2.049 0.647,-5.101 -0.144,-8.348c-0.791,-3.247 -2.19,-5.959 -3.713,-7.479c-0.918,-0.916 -1.863,-1.399 -2.738,-1.186c-0.875,0.213 -1.491,1.077 -1.885,2.313c-0.653,2.049 -0.647,5.101 0.144,8.348c0.791,3.246 2.189,5.959 3.712,7.479c0.918,0.916 1.863,1.399 2.738,1.186Z" style="fill:#accee2;"/></g><g><path d="M87.129,6.703c2.383,0.924 2.639,6.004 0.571,11.336c-2.068,5.332 -5.683,8.911 -8.066,7.986c-2.384,-0.925 -2.64,-6.004 -0.572,-11.337c2.069,-5.332 5.683,-8.91 8.067,-7.985Z" style="fill:url(#_Linear2);"/><path d="M87.279,6.314c1.068,0.414 1.795,1.546 2.086,3.169c0.401,2.232 -0.003,5.423 -1.277,8.707c-1.273,3.283 -3.127,5.912 -4.928,7.29c-1.309,1.002 -2.61,1.347 -3.677,0.933c-1.068,-0.414 -1.795,-1.546 -2.086,-3.169c-0.4,-2.231 0.003,-5.423 1.277,-8.706c1.273,-3.283 3.128,-5.912 4.928,-7.29c1.31,-1.003 2.61,-1.348 3.677,-0.934Zm-0.301,0.777c-0.84,-0.326 -1.84,0.03 -2.869,0.818c-1.709,1.308 -3.45,3.815 -4.658,6.93c-1.209,3.115 -1.614,6.141 -1.234,8.258c0.229,1.277 0.728,2.214 1.567,2.539c0.84,0.326 1.84,-0.03 2.87,-0.818c1.708,-1.307 3.449,-3.814 4.658,-6.93c1.208,-3.115 1.613,-6.14 1.233,-8.258c-0.229,-1.276 -0.727,-2.213 -1.567,-2.539Z" style="fill:#accee2;"/></g><path d="M79.897,20.88c4.522,1.23 7.084,6.312 5.716,11.341c-1.368,5.03 -6.149,8.115 -10.672,6.885c-4.522,-1.23 -7.083,-6.311 -5.715,-11.341c1.367,-5.029 6.149,-8.114 10.671,-6.885Z" style="fill:#f9ed79;"/><path d="M80.007,20.478c4.731,1.287 7.439,6.59 6.008,11.853c-1.431,5.262 -6.451,8.464 -11.183,7.177c-4.732,-1.287 -7.439,-6.59 -6.008,-11.852c1.431,-5.263 6.451,-8.464 11.183,-7.178Zm-0.219,0.804c-4.313,-1.172 -8.856,1.796 -10.16,6.593c-1.305,4.796 1.11,9.656 5.423,10.829c4.312,1.173 8.856,-1.796 10.16,-6.592c1.304,-4.797 -1.11,-9.657 -5.423,-10.83Z" style="fill:#e6d856;"/></g><g><path d="M186.262,39.633c1.01,-1.458 10.564,-25.522 12.071,-24.468c1.203,0.84 2.463,2.228 3.566,3.999c0.391,-2.013 1.056,-3.731 1.863,-4.932c1.024,-1.527 2.324,-2.279 3.599,-2.224c1.276,0.056 2.504,0.918 3.392,2.528c1.011,1.832 1.634,4.714 1.525,7.945c1.598,-1.326 3.224,-2.241 4.625,-2.659c1.763,-0.526 3.243,-0.279 4.192,0.576c0.948,0.855 1.347,2.302 1.007,4.109c-0.333,1.767 -1.38,3.951 -3.027,6.068c2.02,0.13 3.785,0.565 5.068,1.202c1.647,0.818 2.562,2.008 2.672,3.28c0.111,1.272 -0.584,2.602 -2.065,3.692c-1.387,1.02 -3.511,1.872 -6.013,2.316c1.903,1.836 3.234,3.816 3.814,5.496c0.601,1.738 0.418,3.228 -0.395,4.212c-0.813,0.984 -2.242,1.445 -4.062,1.183c-1.833,-0.264 -4.139,-1.266 -6.388,-2.904c-0.303,1.895 -26.492,-7.908 -25.444,-9.419Z" style="fill-opacity:0.15;"/><g><path d="M203.495,35.823c0.921,2.078 -2.106,5.438 -6.755,7.498c-4.648,2.061 -9.171,2.046 -10.092,-0.032c-0.921,-2.078 2.106,-5.438 6.755,-7.499c4.649,-2.06 9.171,-2.046 10.092,0.033Z" style="fill:#ceedff;"/><path d="M203.876,35.654c0.418,0.943 0.167,2.129 -0.679,3.35c-1.152,1.662 -3.416,3.425 -6.288,4.698c-2.871,1.273 -5.698,1.765 -7.703,1.503c-1.473,-0.193 -2.521,-0.804 -2.939,-1.747c-0.418,-0.943 -0.167,-2.129 0.68,-3.35c1.152,-1.662 3.415,-3.426 6.287,-4.699c2.872,-1.272 5.698,-1.765 7.704,-1.502c1.473,0.193 2.52,0.804 2.938,1.747Zm-0.762,0.337c-0.319,-0.719 -1.161,-1.111 -2.285,-1.258c-1.89,-0.248 -4.55,0.239 -7.257,1.438c-2.707,1.2 -4.854,2.845 -5.94,4.411c-0.646,0.932 -0.922,1.819 -0.603,2.538c0.319,0.72 1.161,1.111 2.285,1.258c1.89,0.248 4.551,-0.238 7.258,-1.438c2.707,-1.199 4.854,-2.844 5.94,-4.411c0.645,-0.932 0.921,-1.818 0.602,-2.538Z" style="fill:#accee2;"/></g><g><path d="M204.37,36.878c1.969,1.137 1.503,5.635 -1.039,10.039c-2.543,4.403 -6.205,7.056 -8.174,5.919c-1.969,-1.136 -1.503,-5.634 1.04,-10.038c2.542,-4.404 6.205,-7.057 8.173,-5.92Z" style="fill:#ceedff;"/><path d="M204.579,36.517c0.893,0.516 1.389,1.622 1.425,3.107c0.048,2.022 -0.742,4.781 -2.313,7.501c-1.57,2.72 -3.564,4.784 -5.339,5.753c-1.304,0.711 -2.51,0.835 -3.403,0.319c-0.894,-0.516 -1.39,-1.622 -1.425,-3.107c-0.049,-2.022 0.741,-4.78 2.312,-7.501c1.571,-2.72 3.565,-4.783 5.34,-5.752c1.304,-0.712 2.509,-0.836 3.403,-0.32Zm-0.417,0.722c-0.682,-0.394 -1.592,-0.214 -2.587,0.329c-1.673,0.914 -3.537,2.874 -5.017,5.438c-1.481,2.564 -2.247,5.158 -2.201,7.064c0.027,1.133 0.327,2.012 1.008,2.405c0.682,0.394 1.593,0.214 2.588,-0.329c1.673,-0.913 3.536,-2.874 5.017,-5.438c1.48,-2.564 2.246,-5.158 2.201,-7.064c-0.028,-1.133 -0.327,-2.011 -1.009,-2.405Z" style="fill:#accee2;"/></g><g><path d="M206.532,36.476c2.273,-0.014 4.144,4.103 4.175,9.188c0.032,5.085 -1.788,9.225 -4.061,9.239c-2.273,0.014 -4.144,-4.103 -4.176,-9.188c-0.031,-5.085 1.789,-9.224 4.062,-9.239Z" style="fill:#ceedff;"/><path d="M206.529,36.06c1.032,-0.007 2.019,0.697 2.8,1.961c1.063,1.72 1.776,4.5 1.795,7.641c0.02,3.141 -0.658,5.929 -1.7,7.662c-0.766,1.273 -1.744,1.989 -2.775,1.996c-1.032,0.006 -2.019,-0.698 -2.8,-1.961c-1.064,-1.721 -1.776,-4.5 -1.795,-7.641c-0.02,-3.141 0.658,-5.929 1.7,-7.663c0.765,-1.273 1.743,-1.989 2.775,-1.995Zm0.005,0.833c-0.787,0.005 -1.482,0.62 -2.066,1.592c-0.982,1.634 -1.599,4.267 -1.581,7.228c0.018,2.961 0.668,5.586 1.671,7.207c0.596,0.965 1.298,1.571 2.085,1.566c0.788,-0.005 1.483,-0.62 2.067,-1.591c0.982,-1.634 1.599,-4.267 1.581,-7.228c-0.019,-2.961 -0.669,-5.587 -1.671,-7.208c-0.596,-0.964 -1.299,-1.571 -2.086,-1.566Z" style="fill:#accee2;"/></g><g><path d="M202.806,35.782c-1.137,1.968 -5.635,1.503 -10.038,-1.04c-4.404,-2.542 -7.057,-6.205 -5.92,-8.174c1.136,-1.968 5.635,-1.502 10.038,1.04c4.404,2.543 7.057,6.205 5.92,8.174Z" style="fill:#ceedff;"/><path d="M203.167,35.99c-0.516,0.894 -1.622,1.39 -3.107,1.425c-2.022,0.048 -4.78,-0.742 -7.501,-2.312c-2.72,-1.571 -4.783,-3.565 -5.752,-5.34c-0.712,-1.304 -0.836,-2.51 -0.32,-3.403c0.516,-0.893 1.622,-1.389 3.107,-1.425c2.022,-0.048 4.78,0.742 7.501,2.312c2.72,1.571 4.783,3.565 5.752,5.34c0.712,1.304 0.836,2.51 0.32,3.403Zm-0.722,-0.416c0.394,-0.682 0.214,-1.593 -0.329,-2.588c-0.914,-1.673 -2.874,-3.536 -5.438,-5.017c-2.564,-1.48 -5.158,-2.246 -7.064,-2.201c-1.133,0.027 -2.012,0.327 -2.405,1.009c-0.394,0.681 -0.214,1.592 0.329,2.587c0.913,1.673 2.874,3.537 5.438,5.017c2.564,1.481 5.158,2.247 7.064,2.201c1.133,-0.027 2.012,-0.327 2.405,-1.008Z" style="fill:#accee2;"/></g><g><path d="M221.192,49.977c-1.448,1.752 -5.806,0.545 -9.726,-2.693c-3.92,-3.239 -5.927,-7.292 -4.479,-9.044c1.448,-1.752 5.806,-0.546 9.726,2.693c3.92,3.239 5.927,7.291 4.479,9.044Z" style="fill:#ceedff;"/><path d="M221.514,50.242c-0.658,0.796 -1.831,1.101 -3.301,0.889c-2.002,-0.288 -4.591,-1.526 -7.012,-3.526c-2.422,-2.001 -4.125,-4.31 -4.786,-6.221c-0.485,-1.405 -0.407,-2.614 0.251,-3.409c0.657,-0.796 1.83,-1.101 3.3,-0.889c2.002,0.288 4.591,1.525 7.012,3.526c2.422,2.001 4.125,4.31 4.786,6.221c0.485,1.404 0.407,2.614 -0.25,3.409Zm-0.643,-0.531c0.501,-0.606 0.476,-1.534 0.105,-2.606c-0.622,-1.801 -2.246,-3.965 -4.528,-5.851c-2.283,-1.885 -4.714,-3.072 -6.601,-3.343c-1.122,-0.162 -2.038,-0.012 -2.539,0.594c-0.501,0.607 -0.475,1.535 -0.105,2.606c0.623,1.802 2.246,3.965 4.529,5.851c2.282,1.886 4.713,3.073 6.6,3.344c1.122,0.162 2.038,0.012 2.539,-0.595Z" style="fill:#accee2;"/></g><g><path d="M225.57,35.165c0.197,2.265 -3.756,4.461 -8.822,4.902c-5.066,0.441 -9.338,-1.04 -9.535,-3.304c-0.198,-2.265 3.755,-4.461 8.821,-4.902c5.066,-0.441 9.339,1.04 9.536,3.304Z" style="fill:#ceedff;"/><path d="M225.985,35.129c0.09,1.028 -0.532,2.068 -1.729,2.949c-1.629,1.198 -4.342,2.132 -7.472,2.404c-3.129,0.273 -5.963,-0.179 -7.774,-1.078c-1.331,-0.66 -2.123,-1.577 -2.213,-2.605c-0.089,-1.028 0.533,-2.068 1.73,-2.949c1.629,-1.198 4.342,-2.132 7.471,-2.404c3.129,-0.273 5.963,0.179 7.774,1.078c1.331,0.66 2.124,1.577 2.213,2.605Zm-0.83,0.072c-0.068,-0.784 -0.738,-1.427 -1.753,-1.931c-1.708,-0.847 -4.382,-1.251 -7.332,-0.994c-2.95,0.257 -5.514,1.116 -7.049,2.246c-0.914,0.671 -1.462,1.421 -1.393,2.205c0.068,0.784 0.737,1.427 1.753,1.931c1.707,0.847 4.381,1.251 7.331,0.994c2.95,-0.257 5.515,-1.116 7.05,-2.246c0.913,-0.671 1.461,-1.421 1.393,-2.205Z" style="fill:#accee2;"/></g><g><path d="M220.258,21.327c1.688,1.521 0.295,5.824 -3.109,9.601c-3.404,3.777 -7.539,5.608 -9.228,4.087c-1.688,-1.522 -0.295,-5.824 3.109,-9.602c3.404,-3.777 7.539,-5.608 9.228,-4.086Z" style="fill:#ceedff;"/><path d="M220.537,21.017c0.766,0.691 1.021,1.876 0.746,3.336c-0.374,1.987 -1.722,4.521 -3.824,6.854c-2.103,2.333 -4.483,3.936 -6.421,4.514c-1.424,0.424 -2.629,0.294 -3.396,-0.397c-0.766,-0.69 -1.021,-1.876 -0.746,-3.336c0.374,-1.987 1.722,-4.52 3.825,-6.854c2.102,-2.333 4.483,-3.936 6.421,-4.514c1.423,-0.424 2.628,-0.294 3.395,0.397Zm-0.558,0.619c-0.585,-0.527 -1.513,-0.541 -2.599,-0.217c-1.827,0.545 -4.058,2.074 -6.04,4.273c-1.983,2.2 -3.272,4.577 -3.625,6.45c-0.209,1.115 -0.099,2.036 0.485,2.563c0.585,0.527 1.513,0.541 2.599,0.217c1.827,-0.545 4.058,-2.073 6.041,-4.273c1.982,-2.199 3.271,-4.577 3.624,-6.45c0.21,-1.114 0.1,-2.036 -0.485,-2.563Z" style="fill:#accee2;"/></g><g><path d="M207.307,13.257c2.271,0.099 3.935,4.304 3.714,9.384c-0.222,5.08 -2.245,9.124 -4.516,9.025c-2.271,-0.099 -3.935,-4.303 -3.714,-9.384c0.221,-5.08 2.245,-9.124 4.516,-9.025Z" style="fill:#ceedff;"/><path d="M207.325,12.841c1.03,0.044 1.981,0.796 2.699,2.097c0.976,1.771 1.55,4.583 1.413,7.721c-0.137,3.138 -0.952,5.889 -2.079,7.568c-0.828,1.234 -1.841,1.9 -2.871,1.856c-1.031,-0.045 -1.982,-0.797 -2.699,-2.098c-0.977,-1.771 -1.55,-4.583 -1.413,-7.721c0.136,-3.138 0.952,-5.889 2.079,-7.568c0.828,-1.234 1.84,-1.9 2.871,-1.855Zm-0.036,0.832c-0.787,-0.034 -1.512,0.546 -2.143,1.487c-1.062,1.583 -1.81,4.182 -1.939,7.141c-0.129,2.958 0.39,5.612 1.311,7.281c0.547,0.993 1.219,1.634 2.005,1.668c0.786,0.034 1.511,-0.546 2.143,-1.487c1.062,-1.583 1.81,-4.182 1.938,-7.14c0.129,-2.958 -0.389,-5.613 -1.31,-7.282c-0.548,-0.993 -1.219,-1.634 -2.005,-1.668Z" style="fill:#accee2;"/></g><g><path d="M202.078,32.412c-2.082,0.913 -5.431,-2.126 -7.473,-6.783c-2.043,-4.657 -2.011,-9.179 0.07,-10.092c2.082,-0.913 5.431,2.126 7.473,6.783c2.043,4.657 2.011,9.179 -0.07,10.092Z" style="fill:#ceedff;"/><path d="M202.245,32.794c-0.945,0.414 -2.13,0.159 -3.347,-0.692c-1.658,-1.159 -3.413,-3.429 -4.675,-6.305c-1.262,-2.877 -1.743,-5.706 -1.473,-7.71c0.199,-1.472 0.813,-2.517 1.758,-2.931c0.945,-0.415 2.13,-0.159 3.348,0.692c1.657,1.158 3.412,3.428 4.674,6.305c1.262,2.876 1.743,5.705 1.473,7.709c-0.199,1.472 -0.813,2.517 -1.758,2.932Zm-0.335,-0.764c0.721,-0.316 1.116,-1.156 1.267,-2.279c0.255,-1.89 -0.221,-4.552 -1.41,-7.263c-1.19,-2.712 -2.826,-4.865 -4.389,-5.957c-0.929,-0.65 -1.814,-0.928 -2.535,-0.612c-0.721,0.316 -1.116,1.156 -1.267,2.28c-0.255,1.889 0.221,4.551 1.41,7.263c1.19,2.711 2.826,4.865 4.389,5.957c0.929,0.649 1.814,0.928 2.535,0.611Z" style="fill:#accee2;"/></g><ellipse cx="205.589" cy="35.556" rx="7.55" ry="8.397" style="fill:#f9ed79;"/><path d="M205.589,26.743c4.384,-0 7.966,3.937 7.966,8.813c0,4.876 -3.582,8.813 -7.966,8.813c-4.384,0 -7.966,-3.937 -7.966,-8.813c-0,-4.876 3.582,-8.813 7.966,-8.813Zm0,0.833c-3.949,0 -7.133,3.587 -7.133,7.98c0,4.393 3.184,7.98 7.133,7.98c3.95,-0 7.133,-3.587 7.133,-7.98c0,-4.393 -3.183,-7.98 -7.133,-7.98Z" style="fill:#e6d856;"/></g><g><g><path d="M200.665,38.988c8.746,-1.392 16.822,3.61 17.114,5.444c0.291,1.834 -5.834,9.095 -14.58,10.486c-8.746,1.392 -16.76,-3.22 -17.114,-5.444c-0.354,-2.224 5.834,-9.095 14.58,-10.486Z" style="fill:#54a000;"/><path d="M217.779,44.432c0.291,1.834 -5.834,9.095 -14.58,10.486c-8.746,1.392 -16.76,-3.22 -17.114,-5.444l31.694,-5.042Z" style="fill:#4d9000;"/><path d="M200.665,38.988c8.746,-1.392 16.822,3.61 17.114,5.444c0.291,1.834 -5.834,9.095 -14.58,10.486c-8.746,1.392 -16.76,-3.22 -17.114,-5.444c-0.354,-2.224 5.834,-9.095 14.58,-10.486Zm9.913,1.515c-2.819,-0.929 -6.259,-1.452 -9.813,-0.887c-2.355,0.375 -4.519,1.158 -6.409,2.141c0.085,0.131 0.16,0.287 0.222,0.465c0.161,0.461 0.244,1.084 0.248,1.766c0.004,0.999 -0.162,2.128 -0.485,3.048c-0.111,0.316 -0.241,0.608 -0.389,0.864l15.351,-2.442c1.608,-1.591 2.227,-3.228 1.275,-4.955Zm-16.783,1.556c-2.605,1.449 -4.641,3.257 -5.869,4.825c-0.528,0.675 -0.904,1.298 -1.094,1.823c-0.045,0.123 -0.08,0.237 -0.101,0.342c1.167,-0.185 5.29,-0.841 6.336,-1.008c0.277,-0.288 0.499,-0.718 0.674,-1.216c0.3,-0.855 0.452,-1.905 0.448,-2.834c-0.003,-0.602 -0.07,-1.153 -0.212,-1.559c-0.051,-0.149 -0.11,-0.277 -0.182,-0.373Zm-6.964,7.619c0.053,0.093 0.122,0.191 0.202,0.293c0.344,0.441 0.895,0.917 1.606,1.394c2.936,1.969 8.525,3.869 14.46,2.925c0.37,-0.059 0.736,-0.129 1.096,-0.209c0.001,-0.019 0.004,-0.039 0.01,-0.059c0.223,-0.839 0.066,-1.862 -0.374,-2.856c-0.668,-1.506 -1.991,-2.946 -3.726,-3.6l-13.274,2.112Zm18.049,4.239c5.089,-1.325 9.071,-4.587 11.032,-7.069c0.532,-0.675 0.913,-1.286 1.11,-1.778c0.03,-0.074 0.057,-0.143 0.078,-0.208l-15.875,2.526c1.46,0.815 2.577,2.141 3.188,3.52c0.458,1.036 0.631,2.101 0.467,3.009Zm12.12,-9.684c-0.04,-0.054 -0.087,-0.112 -0.138,-0.173c-0.341,-0.407 -0.892,-0.87 -1.608,-1.346c-0.999,-0.664 -2.309,-1.345 -3.838,-1.916c0.591,1.549 0.143,3.046 -1.093,4.498l6.677,-1.063Z" style="fill:#448200;"/></g><g><path d="M86.318,43.191c-9.521,-1.37 -18.211,4.193 -18.498,6.189c-0.287,1.996 6.482,9.783 16.003,11.152c9.521,1.37 18.15,-3.768 18.498,-6.189c0.348,-2.421 -6.482,-9.783 -16.003,-11.152Z" style="fill:#54a000;"/><path d="M67.82,49.38c-0.287,1.996 6.482,9.783 16.003,11.152c9.521,1.37 18.15,-3.768 18.498,-6.189l-34.501,-4.963Z" style="fill:#4d9000;"/><path d="M86.318,43.191c-9.521,-1.37 -18.211,4.193 -18.498,6.189c-0.287,1.996 6.482,9.783 16.003,11.152c9.521,1.37 18.15,-3.768 18.498,-6.189c0.348,-2.421 -6.482,-9.783 -16.003,-11.152Zm-10.741,1.806c3.045,-1.055 6.773,-1.679 10.642,-1.122c2.564,0.369 4.927,1.184 6.995,2.221c-0.091,0.143 -0.17,0.314 -0.234,0.509c-0.167,0.502 -0.248,1.18 -0.24,1.921c0.011,1.085 0.21,2.309 0.575,3.303c0.126,0.341 0.273,0.656 0.437,0.932l-16.711,-2.404c-1.772,-1.702 -2.47,-3.469 -1.464,-5.36Zm18.252,1.417c2.852,1.532 5.092,3.463 6.451,5.146c0.584,0.724 1.002,1.395 1.218,1.962c0.05,0.132 0.09,0.256 0.115,0.37c-1.271,-0.183 -5.758,-0.829 -6.897,-0.993c-0.306,-0.307 -0.554,-0.772 -0.752,-1.309c-0.34,-0.924 -0.522,-2.062 -0.533,-3.071c-0.006,-0.654 0.058,-1.253 0.205,-1.697c0.054,-0.162 0.115,-0.302 0.193,-0.408Zm7.686,8.162c-0.057,0.102 -0.13,0.21 -0.215,0.322c-0.367,0.484 -0.957,1.01 -1.722,1.54c-3.157,2.185 -9.195,4.339 -15.656,3.41c-0.403,-0.058 -0.801,-0.128 -1.193,-0.209c-0.002,-0.021 -0.006,-0.042 -0.012,-0.064c-0.256,-0.907 -0.103,-2.021 0.36,-3.108c0.7,-1.646 2.114,-3.231 3.988,-3.97l14.45,2.079Zm-19.533,4.896c-5.549,-1.356 -9.926,-4.834 -12.095,-7.498c-0.59,-0.724 -1.013,-1.382 -1.235,-1.913c-0.034,-0.08 -0.064,-0.155 -0.088,-0.225l17.281,2.486c-1.572,0.91 -2.763,2.367 -3.404,3.875c-0.482,1.132 -0.652,2.292 -0.459,3.275Zm-13.32,-10.32c0.043,-0.06 0.093,-0.124 0.148,-0.191c0.363,-0.447 0.954,-0.959 1.724,-1.487c1.074,-0.738 2.486,-1.498 4.137,-2.144c-0.617,1.692 -0.106,3.311 1.26,4.867l-7.269,-1.045Z" style="fill:#448200;"/></g><g><path d="M96.578,33.732c-8.014,-6.517 -19.088,-6.19 -20.454,-4.51c-1.366,1.68 0.571,12.589 8.584,19.105c8.013,6.517 18.797,6.547 20.454,4.509c1.657,-2.037 -0.571,-12.588 -8.584,-19.104Z" style="fill:#54a000;"/><path d="M76.124,29.222c-1.366,1.68 0.571,12.589 8.584,19.105c8.013,6.517 18.797,6.547 20.454,4.509l-29.038,-23.614Z" style="fill:#4d9000;"/><path d="M96.578,33.732c-8.014,-6.517 -19.088,-6.19 -20.454,-4.51c-1.366,1.68 0.571,12.589 8.584,19.105c8.013,6.517 18.797,6.547 20.454,4.509c1.657,-2.037 -0.571,-12.588 -8.584,-19.104Zm-10.89,-4.266c3.387,0.71 7.165,2.193 10.421,4.841c2.158,1.755 3.884,3.81 5.217,5.907c-0.163,0.082 -0.33,0.195 -0.497,0.339c-0.431,0.371 -0.879,0.951 -1.281,1.638c-0.589,1.005 -1.082,2.242 -1.293,3.359c-0.073,0.384 -0.112,0.755 -0.112,1.1l-14.065,-11.438c-0.693,-2.546 -0.361,-4.559 1.61,-5.746Zm16.028,11.38c1.781,2.985 2.779,6 3.102,8.3c0.139,0.99 0.153,1.839 0.038,2.48c-0.026,0.149 -0.058,0.285 -0.097,0.404c-1.07,-0.87 -4.847,-3.941 -5.805,-4.721c-0.112,-0.452 -0.084,-1.017 0.03,-1.621c0.197,-1.039 0.657,-2.187 1.204,-3.122c0.355,-0.607 0.745,-1.123 1.125,-1.45c0.14,-0.12 0.274,-0.215 0.403,-0.27Zm2.574,11.76c-0.108,0.063 -0.235,0.122 -0.375,0.178c-0.605,0.243 -1.439,0.402 -2.436,0.468c-4.114,0.271 -10.865,-1.079 -16.302,-5.501c-0.34,-0.276 -0.667,-0.559 -0.984,-0.85c0.01,-0.021 0.018,-0.043 0.024,-0.066c0.266,-0.977 1.022,-1.918 2.047,-2.664c1.554,-1.13 3.732,-1.809 5.865,-1.455l12.161,9.89Zm-20.692,-6.272c-4.362,-4.311 -6.475,-9.931 -7.002,-13.582c-0.144,-0.992 -0.17,-1.831 -0.082,-2.444c0.013,-0.092 0.027,-0.177 0.043,-0.255l14.545,11.828c-1.95,-0.03 -3.852,0.655 -5.274,1.69c-1.069,0.777 -1.865,1.751 -2.23,2.763Zm-6.572,-16.857c0.072,-0.031 0.153,-0.062 0.241,-0.094c0.581,-0.212 1.408,-0.357 2.409,-0.419c1.396,-0.086 3.117,-0.007 4.993,0.31c-1.502,1.218 -1.925,2.99 -1.526,5.178l-6.117,-4.975Z" style="fill:#448200;"/></g></g><g><g><path d="M159.516,52.957c-4.129,-7.388 -5.069,-17.619 -0.822,-27.402c2.778,-6.399 6.729,-11.806 11.118,-15.78c0.515,0.355 1.03,0.733 1.541,1.135c1.789,-1.529 3.647,-2.8 5.518,-3.781c4.407,-2.31 8.894,-3.012 12.766,-1.751c0.003,0.001 0.006,0.002 0.009,0.003c3.858,1.302 7.037,4.546 9.19,9.032c0.366,0.761 0.702,1.558 1.007,2.387c0.032,-0.114 0.065,-0.228 0.099,-0.342c0.268,-0.883 0.601,-1.725 0.983,-2.524c3.006,6.998 3.841,16.475 1.57,26.145c-1.528,6.502 -4.792,11.928 -8.915,15.926c-0.987,0.217 -2.064,0.256 -3.205,0.082c-0.459,0.361 -0.927,0.705 -1.402,1.031l-23.285,0c-1.888,-1.635 -3.503,-3.691 -4.771,-6.048c-0.445,0.655 -0.913,1.284 -1.401,1.887Z" style="fill-opacity:0.15;"/><path d="M189.379,6.17c9.162,3.094 14.143,17.862 10.547,33.165c-3.548,15.103 -17.536,23.805 -28.273,20.293c-10.709,-3.6 -16.726,-18.935 -10.548,-33.166c6.261,-14.419 19.079,-23.285 28.274,-20.292Z" style="fill:#ffb5d9;"/><path d="M161.996,24.537c1.08,-2.198 2.313,-4.249 3.658,-6.131c0.31,17.247 21.553,29.753 33.368,24.036c-0.588,1.68 -1.309,3.265 -2.141,4.744c-17.173,6.266 -29.949,-9.407 -32.472,-13.617c-1.335,-2.227 -2.172,-6.908 -2.413,-9.032Zm9.814,-12.923c1.661,-1.429 3.385,-2.63 5.124,-3.574c-3.667,12.274 9.551,25.017 24.008,24.953c-0.09,1.05 -0.22,2.111 -0.391,3.178c-19.511,3.553 -33.303,-14.983 -28.741,-24.557Zm28.815,11.566c-8.914,0.649 -14.987,-5.542 -16.802,-10.316c-0.906,-2.384 -0.871,-4.774 -0.218,-7.131c1.321,-0.185 2.616,-0.193 3.861,-0.009c-1.296,6.587 8.588,13.861 12.232,13.299c0.386,1.322 0.697,2.713 0.927,4.157Zm-8.811,30.569c-1.402,1.345 -2.913,2.506 -4.49,3.464c-16.753,1.428 -25.68,-7.893 -28.259,-13.964c-0.536,-2.947 -0.605,-6.099 -0.119,-9.309c3.386,14.509 19.766,24.057 32.868,19.809Z" style="fill:#ff8ec5;"/><path d="M189.646,5.381c3.858,1.302 7.037,4.546 9.19,9.032c3.138,6.534 4.107,15.725 1.902,25.113c-3.673,15.632 -18.23,24.529 -29.344,20.894l-0.007,-0.003c-11.084,-3.725 -17.441,-19.557 -11.046,-34.286c3.841,-8.847 10.11,-15.637 16.53,-19.002c4.407,-2.31 8.894,-3.012 12.766,-1.751c0.003,0.001 0.006,0.002 0.009,0.003Zm-0.267,0.789c-9.195,-2.993 -22.013,5.873 -28.274,20.292c-6.178,14.231 -0.161,29.566 10.548,33.166c10.737,3.512 24.725,-5.19 28.273,-20.293c3.596,-15.303 -1.385,-30.071 -10.547,-33.165Z" style="fill:#ff70b6;"/></g><g><path d="M122.478,57.118l-25.364,0c-5.485,-4.645 -9.64,-11.818 -10.523,-20.5c-1.019,-10.016 1.258,-19.393 5.386,-25.735c1.242,-1.908 2.653,-3.547 4.195,-4.874c0.777,-0.136 1.364,-0.113 1.663,0.065c0.133,0.078 0.266,0.22 0.395,0.419c1.678,-1.242 3.501,-2.09 5.423,-2.472c0.003,-0.001 0.006,-0.001 0.009,-0.002c4.002,-0.751 8.362,0.524 12.434,3.383c0.901,0.633 1.789,1.344 2.656,2.127c0.312,-0.482 0.635,-0.941 0.962,-1.374c5.105,4.557 9.544,11.494 11.924,19.761c2.715,9.433 0.878,18.635 -3.487,25.234c-0.365,-0.442 -0.719,-0.898 -1.06,-1.369c-1.299,2.066 -2.858,3.872 -4.613,5.337Z" style="fill-opacity:0.15;"/><path d="M103.816,4.838c-9.485,1.886 -16.329,15.889 -14.738,31.527c1.571,15.434 14.319,25.868 25.42,23.77c11.084,-2.188 19.029,-16.619 14.737,-31.527c-4.348,-15.106 -15.915,-25.552 -25.419,-23.77Z" style="fill:#d0ffe8;"/><path d="M103.662,4.019c4.002,-0.751 8.362,0.524 12.434,3.383c5.932,4.166 11.273,11.708 13.94,20.975c4.442,15.432 -3.904,30.311 -15.377,32.576l-0.006,0.001c-11.49,2.171 -24.778,-8.529 -26.404,-24.504c-0.976,-9.595 1.171,-18.583 5.125,-24.658c2.714,-4.17 6.285,-6.977 10.279,-7.771c0.003,-0.001 0.006,-0.001 0.009,-0.002Zm0.154,0.819c-9.485,1.886 -16.329,15.889 -14.738,31.527c1.571,15.434 14.319,25.868 25.42,23.77c11.084,-2.188 19.029,-16.619 14.737,-31.527c-4.348,-15.106 -15.915,-25.552 -25.419,-23.77Z" style="fill:#4fe88c;"/><path d="M113.094,6.543c-0.129,0.085 -0.255,0.175 -0.378,0.269c-2.417,1.839 -3.564,5.462 -6.739,6.264c-3.149,0.795 -6.012,-1.874 -9.116,-2.136c-0.626,-0.052 -1.268,-0.035 -1.91,0.047c2.446,-3.27 5.488,-5.478 8.865,-6.149c2.985,-0.56 6.174,0.087 9.278,1.705Zm17.288,28.912c-3.444,0.115 -6.779,1.664 -9.076,4.326c-2.832,3.285 -4.708,7.722 -9.421,8.592c-5.724,1.056 -10.567,-6.092 -16.256,-3.074c-1.422,0.754 -2.251,1.88 -2.615,3.153c-2.056,-3.473 -3.476,-7.565 -3.936,-12.087c-0.516,-5.078 -0.144,-9.983 0.92,-14.357c0.535,-0.849 1.179,-1.642 1.882,-2.351c0.531,-0.535 1.154,-1.023 1.834,-1.357c6.239,-3.067 10.119,6.275 16.328,4.036c4.671,-1.686 3.156,-8.201 7.063,-10.661c0.58,-0.365 1.26,-0.602 1.962,-0.707c4.363,4.265 8.09,10.42 10.168,17.64c0.665,2.308 1.036,4.605 1.147,6.847Zm-29.9,21.175c0.68,-0.212 1.397,-0.276 2.14,-0.154c2.868,0.47 5.049,2.846 7.973,3.116c5.342,0.492 6.622,-6.66 11.386,-7.706c1.163,-0.256 2.374,-0.051 3.523,0.186c0.123,0.025 0.246,0.051 0.369,0.079c-2.859,4.165 -6.856,7.092 -11.375,7.984c-4.701,0.889 -9.698,-0.471 -14.016,-3.505Z" style="fill:#9afcc1;"/></g><g><path d="M126.118,53.214c-4.443,-5.854 -7.075,-13.87 -6.282,-22.713c0.845,-9.424 4.265,-17.811 8.91,-23.623c0.283,0.506 0.562,1.057 0.827,1.648c0.279,-0.366 0.562,-0.723 0.85,-1.068c0.687,-0.826 1.402,-1.593 2.138,-2.297c0.616,-0.588 1.247,-1.132 1.891,-1.628l-0,5.311l17.973,-0l-0,-5.779c0.889,0.634 1.755,1.357 2.592,2.163c0.74,0.712 1.457,1.489 2.147,2.324c0.039,0.048 0.079,0.096 0.118,0.144c0.263,-0.704 0.554,-1.244 0.849,-1.583c4.964,5.827 8.659,14.542 9.541,24.388c0.767,8.548 -1.666,16.323 -5.843,22.12c-0.321,-0.501 -0.626,-1.018 -0.912,-1.551c-1.447,2.13 -3.138,3.994 -4.999,5.526c-0.693,0.571 -1.409,1.096 -2.145,1.572l-20.037,0c-0.754,-0.487 -1.487,-1.026 -2.195,-1.613c-1.631,-1.35 -3.131,-2.957 -4.45,-4.774c-0.31,0.493 -0.634,0.971 -0.973,1.433Z" style="fill-opacity:0.15;"/><path d="M143.754,0c10.525,0.057 20.73,13.609 22.258,30.65c1.508,16.818 -9.961,30.6 -22.258,30.65c-12.296,-0.05 -23.766,-13.832 -22.258,-30.65c1.528,-17.041 11.734,-30.593 22.258,-30.65Z" style="fill:#d3b1f5;"/><path d="M122.169,40.827c-0.729,-3.188 -0.992,-6.615 -0.673,-10.177c0.614,-6.848 2.63,-13.133 5.504,-18.205c11.194,-3.021 22.388,-3.046 33.582,0.13c2.835,5.049 4.822,11.285 5.43,18.075c0.321,3.575 0.055,7.012 -0.68,10.21c-14.388,3.803 -28.775,3.713 -43.163,-0.033Zm8.254,-33.369c0.687,-0.826 1.402,-1.593 2.138,-2.297c7.486,-1.353 14.971,-1.351 22.456,0.067c0.74,0.712 1.457,1.489 2.147,2.324c-8.914,-2.01 -17.827,-2.013 -26.741,-0.094Zm32.793,39.561c-0.471,1.008 -0.992,1.976 -1.557,2.901c-11.946,2.609 -23.892,2.548 -35.838,-0.048c-0.561,-0.921 -1.078,-1.885 -1.545,-2.889c12.98,3.061 25.96,3.121 38.94,0.036Zm-7.298,9.577c-3.597,2.962 -7.829,4.686 -12.164,4.704c-4.354,-0.018 -8.605,-1.758 -12.213,-4.745c8.126,1.212 16.251,1.238 24.377,0.041Z" style="fill:#9463c5;"/><path d="M143.754,0c10.525,0.057 20.73,13.609 22.258,30.65c1.508,16.818 -9.961,30.6 -22.258,30.65c-12.296,-0.05 -23.766,-13.832 -22.258,-30.65c1.528,-17.041 11.734,-30.593 22.258,-30.65Zm0,0.841c-4.002,0.024 -7.94,2.131 -11.336,5.649c-5.247,5.435 -9.186,14.224 -10.084,24.235c-1.459,16.27 9.525,29.683 21.42,29.734c11.896,-0.051 22.88,-13.464 21.421,-29.734c-0.898,-10.011 -4.837,-18.8 -10.084,-24.235c-3.397,-3.518 -7.334,-5.625 -11.337,-5.649Z" style="fill:#7d51a9;"/></g></g><g><path d="M201.673,31.764c0.397,-0.095 0.797,0.011 1.076,0.282l0.003,0.003c2.383,2.253 3.072,5.435 2.438,8.338c0.166,-0.034 0.333,-0.062 0.501,-0.086c2.881,-0.405 6.001,0.699 8.392,3.697l0.003,0.004c0.257,0.357 0.355,0.734 0.169,1.15l-0.002,0.004c-1.383,3.459 -4.324,5.178 -7.404,5.389c1.221,2.519 1.096,5.756 -1.121,9.154l-0.003,0.004l-1.043,0.521l-0.006,0c-3.626,-0.24 -6.137,-2.402 -7.328,-5.167c-2.158,1.82 -5.278,2.565 -8.825,1.449l-0.788,-0.86l-0.001,-0.005c-0.741,-3.439 0.537,-6.367 2.733,-8.279c-2.512,-1.29 -4.404,-3.883 -4.741,-7.587l-0,-0.005c-0.003,-0.41 0.175,-0.756 0.49,-1.053l0.004,-0.003c3.077,-2.141 6.503,-1.944 9.198,-0.4c0.594,-3.034 2.752,-5.671 6.251,-6.549l0.004,-0.001Z" style="fill-opacity:0.15;"/><path d="M199.029,46.061c-4.464,-4.3 -3.023,-11.675 2.923,-13.167c4.226,3.996 2.274,11.349 -2.923,13.167Z" style="fill:#ff9546;"/><path d="M198.8,46.299c-4.655,-4.484 -3.13,-12.17 3.072,-13.725l0.176,-0.045l0.131,0.125c4.403,4.163 2.374,11.825 -3.04,13.719l-0.192,0.068l-0.147,-0.142Zm3.056,-13.037c-2.484,0.744 -4.454,2.663 -4.992,5.503c-0.448,2.368 0.535,5.012 2.249,6.914c4.78,-1.834 6.568,-8.612 2.743,-12.417Z" style="fill:#ec5f32;"/><path d="M199.686,46.321c2.643,-5.607 9.306,-6.84 13.486,-1.597c-2.381,5.955 -10.098,5.937 -13.486,1.597Z" style="fill:#ff9546;"/><path d="M199.387,46.18c1.374,-2.915 3.8,-4.686 6.42,-5.054c2.621,-0.368 5.448,0.663 7.624,3.392l0.12,0.15l-0.072,0.179c-2.482,6.206 -10.523,6.2 -14.054,1.678l-0.125,-0.161l0.087,-0.184Zm0.688,0.097c3.272,3.954 10.385,3.954 12.716,-1.498c-1.987,-2.402 -4.525,-3.33 -6.892,-2.998c-2.362,0.332 -4.542,1.914 -5.824,4.496Z" style="fill:#ec5f32;"/><path d="M199.063,46.732c6.274,0.826 9.644,6.272 5.69,12.331c-6.399,-0.423 -8.769,-7.768 -5.69,-12.331Z" style="fill:#ff9546;"/><path d="M199.106,46.404c3.259,0.429 5.755,2.072 6.932,4.381c1.178,2.312 1.049,5.307 -1.008,8.458l-0.106,0.162l-0.193,-0.013c-6.669,-0.44 -9.151,-8.089 -5.943,-12.845l0.115,-0.17l0.203,0.027Zm0.118,0.684c-2.747,4.335 -0.547,11.098 5.358,11.629c1.797,-2.846 1.933,-5.54 0.867,-7.632c-1.064,-2.087 -3.309,-3.56 -6.225,-3.997Z" style="fill:#ec5f32;"/><path d="M199.164,46.536c0.941,6.126 -3.896,10.872 -10.292,8.86c-1.352,-6.27 5.058,-10.567 10.292,-8.86Z" style="fill:#ff9546;"/><path d="M199.491,46.485c0.489,3.186 -0.533,6.01 -2.5,7.779c-1.969,1.77 -4.889,2.494 -8.218,1.447l-0.184,-0.058l-0.04,-0.188c-1.409,-6.534 5.263,-11.022 10.718,-9.244l0.193,0.063l0.031,0.201Zm-0.624,0.305c-4.923,-1.452 -10.822,2.522 -9.71,8.347c2.991,0.882 5.614,0.233 7.392,-1.365c1.773,-1.595 2.697,-4.125 2.318,-6.982Z" style="fill:#ec5f32;"/><path d="M199.027,45.752c-5.29,3.229 -11.534,0.595 -12.142,-6.083c5.264,-3.664 11.7,0.596 12.142,6.083Z" style="fill:#ff9546;"/><path d="M199.2,46.034c-2.752,1.679 -5.751,1.824 -8.141,0.69c-2.393,-1.134 -4.187,-3.55 -4.503,-7.025l-0.018,-0.191l0.158,-0.11c5.487,-3.819 12.2,0.609 12.661,6.328l0.016,0.202l-0.173,0.106Zm-0.522,-0.459c-0.558,-5.101 -6.498,-9.014 -11.444,-5.742c0.338,3.099 1.948,5.27 4.108,6.294c2.155,1.022 4.846,0.899 7.336,-0.552Z" style="fill:#ec5f32;"/><path d="M199.744,43.842c1.374,0.225 2.306,1.522 2.082,2.895c-0.225,1.374 -1.522,2.307 -2.896,2.082c-1.373,-0.224 -2.306,-1.522 -2.081,-2.895c0.224,-1.374 1.522,-2.307 2.895,-2.082Z" style="fill:#f9ed79;stroke:#e6d856;stroke-width:0.66px;"/></g><g><path d="M71.3,27.007c0.458,-0.09 0.822,0.075 1.117,0.428l0.003,0.004c2.586,3.21 3.051,6.735 2.003,9.682c3.217,-0.209 6.503,1.111 8.559,4.417l0.003,0.005c0.195,0.405 0.224,0.804 0.035,1.194l-0.002,0.005c-1.963,3.617 -5.03,5.404 -8.148,5.578c1.213,3.098 0.908,6.752 -1.788,9.729l-0.004,0.004l-1.144,0.361l-0.005,-0.001c-4.384,-0.998 -6.957,-3.497 -7.88,-6.457c-2.584,2.233 -6.243,3.16 -10.002,1.475l-0.004,-0.002l-0.697,-0.971l-0.001,-0.006c-0.401,-4.172 1.209,-7.411 3.78,-9.282c0.185,-0.135 0.375,-0.263 0.57,-0.383c-2.762,-1.789 -4.693,-4.842 -4.531,-8.471l0,-0.005c-0.016,-0.444 0.211,-0.754 0.593,-0.977l0.005,-0.003c3.453,-1.991 7.196,-1.526 9.977,0.463c0.917,-3.31 3.468,-6.123 7.557,-6.786l0.004,-0.001Z" style="fill-opacity:0.15;"/><path d="M66.766,42.56c0.241,-6.828 -6.552,-11.566 -12.405,-8.191c-0.286,6.403 6.895,10.732 12.405,8.191Z" style="fill:#ff9546;"/><path d="M66.918,42.891c-5.74,2.647 -13.219,-1.867 -12.922,-8.538l0.009,-0.2l0.173,-0.1c6.105,-3.52 13.203,1.4 12.952,8.519l-0.008,0.225l-0.204,0.094Zm-12.2,-8.305c0.34,5.881 6.287,9.776 11.689,7.734c0.074,-6.345 -6.192,-10.735 -11.689,-7.734Z" style="fill:#ec5f32;"/><path d="M66.445,43.269c-6.39,-2.417 -12.614,1.712 -11.908,9.069c6.45,2.892 12.55,-3.036 11.908,-9.069Z" style="fill:#ff9546;"/><path d="M66.807,43.23c0.669,6.288 -5.697,12.455 -12.419,9.44l-0.193,-0.086l-0.021,-0.211c-0.367,-3.829 1.082,-6.812 3.441,-8.529c2.357,-1.716 5.636,-2.173 8.958,-0.916l0.21,0.079l0.024,0.223Zm-0.704,0.302c-2.994,-1.063 -5.933,-0.646 -8.059,0.901c-2.129,1.55 -3.429,4.231 -3.162,7.657c6.025,2.532 11.659,-2.919 11.221,-8.558Z" style="fill:#ec5f32;"/><path d="M67.253,43.116c-4.337,5.462 -2.834,12.359 4.941,14.129c4.746,-5.239 0.995,-12.873 -4.941,-14.129Z" style="fill:#ff9546;"/><path d="M67.329,42.76c6.186,1.308 10.081,9.269 5.136,14.729l-0.144,0.158l-0.207,-0.047c-4.045,-0.92 -6.443,-3.194 -7.281,-5.928c-0.837,-2.731 -0.118,-5.945 2.135,-8.783l0.14,-0.176l0.221,0.047Zm0.069,0.763c-1.974,2.579 -2.624,5.467 -1.868,7.935c0.759,2.475 2.931,4.504 6.536,5.382c4.27,-4.946 0.83,-11.989 -4.668,-13.317Z" style="fill:#ec5f32;"/><path d="M67.022,43.039c3.95,5.574 11.418,5.627 14.943,-0.869c-3.733,-6.002 -12.104,-4.494 -14.943,0.869Z" style="fill:#ff9546;"/><path d="M66.7,42.868c2.959,-5.589 11.683,-7.146 15.574,-0.89l0.112,0.18l-0.101,0.186c-1.834,3.381 -4.703,5.045 -7.619,5.151c-2.913,0.106 -5.887,-1.347 -7.941,-4.246l-0.13,-0.183l0.105,-0.198Zm0.753,0.144c1.889,2.554 4.56,3.85 7.187,3.755c2.632,-0.096 5.208,-1.593 6.901,-4.584c-3.583,-5.465 -11.301,-4.093 -14.088,0.829Z" style="fill:#ec5f32;"/><path d="M66.53,42.313c6.666,-1.496 9.593,-8.367 4.957,-14.123c-6.977,1.132 -8.811,9.437 -4.957,14.123Z" style="fill:#ff9546;"/><path d="M66.249,42.544c-4.017,-4.883 -2.092,-13.534 5.18,-14.714l0.209,-0.034l0.133,0.165c2.413,2.996 2.843,6.284 1.817,9.016c-1.025,2.729 -3.512,4.913 -6.978,5.692l-0.219,0.049l-0.142,-0.174Zm0.422,-0.639c3.085,-0.759 5.311,-2.724 6.235,-5.184c0.926,-2.467 0.537,-5.42 -1.57,-8.135c-6.424,1.199 -8.132,8.85 -4.665,13.319Z" style="fill:#ec5f32;"/><path d="M64.499,41.349c-0.916,1.231 -0.661,2.973 0.57,3.889c1.23,0.916 2.973,0.661 3.889,-0.57c0.915,-1.23 0.66,-2.973 -0.57,-3.889c-1.231,-0.916 -2.973,-0.66 -3.889,0.57Z" style="fill:#f9ed79;stroke:#e6d856;stroke-width:0.73px;"/></g><path d="M280,51.462c0,2.049 -1.664,3.713 -3.713,3.713l-272.574,-0c-2.049,-0 -3.713,-1.664 -3.713,-3.713c-0,-2.03 1.17,-4.621 1.474,-4.399c1.659,1.212 3.025,2.715 4.211,4.399c0.344,-0.572 0.721,-1.443 0.927,-1.406c0.866,0.156 1.4,0.699 1.793,1.406c0.384,-0.438 0.821,-1.187 1.082,-0.973c0.367,0.301 0.672,0.633 0.961,0.973c0.509,-1.766 2.515,-4.916 2.769,-4.651c1.293,1.341 2.043,2.917 2.43,4.651c0.324,-1.031 1.402,-2.768 1.561,-2.452c0.422,0.841 0.875,1.651 1.336,2.452c0.663,-1.466 1.716,-3.812 2.289,-3.894c0.614,-0.088 3.296,2.789 4.336,5.076c0.616,-1.658 2.184,-3.825 2.473,-3.778c0.528,0.087 0.884,1.976 1.238,3.084c1.063,-1.207 2.571,-1.645 3.753,-2.182c0.334,-0.153 0.618,0.963 0.729,1.694c1.361,-1.398 3.674,-2.569 5.073,-3.894c0.681,-0.644 0.593,2.403 0.827,3.894c0.575,-0.588 1.481,-1.412 1.84,-1.478c0.328,-0.061 0.577,0.751 0.66,1.478c0.367,-1.285 0.836,-2.301 1.439,-2.956c0.297,-0.323 2.563,1.62 3.456,2.956c0.64,-1.06 1.753,-1.679 2.235,-1.73c0.353,-0.038 0.9,1.669 1.173,2.853c1.723,-1.246 3.411,-2.395 4.858,-2.89c0.275,-0.093 0.348,1.421 0.398,2.299c1.213,-1.394 2.825,-2.943 3.595,-3.2c0.414,-0.138 1.708,2.723 2.414,3.865c1.164,-3.594 0.586,-6.326 1.035,-6.346c0.976,-0.044 2.496,2.254 3.949,5.425c0.834,-1.528 1.77,-2.7 2.92,-3.124c0.32,-0.118 0.604,2.453 0.748,3.661c1.201,-1.176 2.385,-2.326 3.429,-3.265c0.37,-0.333 1.341,1.429 1.77,2.452c0.393,-1.342 0.952,-2.484 1.739,-3.353c0.383,-0.423 2.798,1.877 4.451,3.353c0.001,-2.632 0.642,-4.577 2.219,-5.517c0.443,-0.264 2.43,4.347 3.596,6.802c2.359,-2.092 5.319,-3.549 8.389,-4.89c0.575,-0.252 -0.178,4.79 -1.429,6.53c1.229,-1.713 2.527,-3.248 4.151,-3.934c0.274,-0.116 1.727,1.735 1.858,3.579c0.147,-2.013 0.728,-3.672 2.135,-4.661c0.254,-0.178 3.066,3.561 4.329,4.499c1.832,-3.306 4.4,-5.509 7.571,-6.807c0.461,-0.324 1.578,4.17 1.474,6.644c0.967,-1.635 2.264,-2.801 4.058,-3.254c0.355,-0.09 0.901,2.193 0.757,3.668c2.449,-2.72 5.615,-3.778 8.818,-4.75c0.422,-0.128 0.548,1.959 0.097,3.539c0.8,-0.915 1.665,-1.712 2.86,-1.916c0.479,-0.082 1.308,1.424 1.646,2.61c0.325,-2.129 1.149,-3.869 2.538,-5.171c0.366,-0.342 3.795,2.72 4.782,4.565c0.196,-1.765 1.972,-3.061 2.279,-2.942c0.742,0.289 1.486,1.979 1.717,2.662c1.33,-2.535 4.393,-3.58 7.805,-4.934c0.494,-0.195 0.02,3.409 -0.59,5.451c2.054,-1.443 5.029,-1.609 7.358,-1.789c0.244,0.483 -0.106,1.365 -0.138,1.789c1.795,-2.038 4.256,-3.245 7.66,-5.595c0.509,-0.351 1.171,2.921 1.064,5.048c1.604,-1.054 3.167,-1.916 4.337,-2.38c0.407,-0.161 0.846,1.583 0.851,2.484c0.708,-1.811 1.756,-3.021 2.977,-3.926c0.398,-0.295 2.971,2.408 3.917,4.177c-0.11,-2.002 0.529,-3.857 1.837,-5.583c0.343,-0.453 3.186,2.287 3.936,4.918c0.895,-0.965 2.322,-1.186 3.453,-1.954c0.236,-0.16 0.598,1.587 0.479,2.633c0.624,-0.846 0.924,-0.901 1.823,-1.984c0.164,-0.196 1.611,1.24 2.545,1.97c1.405,-2.306 3.165,-3.751 5.122,-4.718c0.428,-0.211 2.919,2.169 4.041,3.905c1.107,-1.43 2.448,-2.478 4.107,-3.003c0.412,-0.131 1.148,1.892 0.959,3.254c2.521,-2.544 5.512,-4.026 8.782,-4.877c0.41,-0.107 0.925,2.97 0.439,4.804c0.478,-1.176 1.202,-1.935 2.192,-2.244c0.189,-0.059 1.406,1.277 2.279,1.83c0.666,-2.208 1.654,-3.623 2.833,-4.57c0.306,-0.246 3.075,2.642 3.998,4.437c0.728,-1.461 1.654,-2.427 2.854,-2.706c0.377,-0.088 1.16,1.34 1.114,2.307c2.704,-3.296 5.977,-4.728 9.391,-5.697c0.478,-0.135 0.997,3.817 0.534,5.697c0.842,-0.724 1.799,-1.256 2.877,-1.586c0.34,-0.105 0.586,1.126 0.495,1.985c1.658,-2.339 3.571,-3.929 5.78,-4.654c0.346,-0.113 2.156,2.583 2.929,4.255c-0.066,-1.569 0.285,-4.468 0.684,-4.363c2.388,0.633 4.14,2.461 5.853,4.363c0.841,-1.189 1.924,-1.867 3.12,-2.307c0.297,-0.11 1.408,1.576 2.343,2.307c0.228,-0.74 0.585,-1.279 1.088,-1.586c0.217,-0.132 0.646,1.039 0.969,1.586c0.619,-1.6 1.896,-3.594 2.17,-3.353c0.942,0.827 1.42,2.052 1.81,3.353c0.573,-2.161 2.905,-5.579 3.275,-5.372c2.477,1.384 3.279,3.279 3.432,5.372Z" style="fill:#8cc300;"/><path d="M279.354,53.604c0.408,-0.596 0.646,-1.316 0.646,-2.092l0,5.123c0,2.602 -2.112,4.715 -4.714,4.715l-270.572,-0c-2.602,-0 -4.714,-2.113 -4.714,-4.715l-0,-5.123c-0,0.993 0.39,1.895 1.026,2.561c0.676,-0.744 1.745,-1.456 2.225,-1.548c0.42,-0.081 1.648,1.658 2.533,2.7c0.171,-0.712 0.677,-2.228 0.878,-1.915c0.316,0.49 0.476,1.277 0.78,1.915c0.549,-0.535 1.373,-1.316 1.648,-1.2c0.638,0.269 1.179,0.732 1.717,1.2c0.74,-0.886 1.49,-1.771 2.529,-2.608c0.267,-0.215 1.95,1.569 2.699,2.608c0.492,-0.537 1.18,-1.616 1.477,-1.546c1.081,0.253 1.781,0.849 2.368,1.546c0.354,-0.838 1.22,-2.547 1.487,-2.331c0.871,0.706 1.798,1.524 2.72,2.331c0.332,-0.415 0.711,-0.792 1.29,-1.01c0.218,-0.082 0.538,0.574 0.716,1.01c0.494,-0.783 1.249,-2.425 1.55,-2.215c0.348,0.241 1.489,1.234 1.688,2.215c0.633,-1.149 1.984,-1.782 3.249,-2.377c0.295,-0.139 0.75,1.406 0.791,2.377c0.866,-1.522 2.21,-1.97 3.775,-2.815c0.407,-0.221 1.009,1.674 1.21,2.815c0.608,-0.726 1.445,-1.264 2.017,-1.615c0.27,-0.166 0.918,0.914 1.295,1.615c0.652,-0.811 1.983,-2.487 3.374,-2.608c0.319,-0.028 0.719,1.62 0.989,2.608c0.599,-0.68 1.187,-1.296 1.736,-1.68c0.383,-0.268 0.96,1.031 0.938,1.68c1.244,-1.225 2.584,-2.296 4.321,-2.732c0.318,-0.08 0.619,1.917 0.535,2.732c0.464,-0.566 0.962,-1.053 1.574,-1.274c0.268,-0.096 0.746,0.76 1.052,1.274c0.696,-1.096 1.434,-2.021 2.228,-2.723c0.286,-0.253 2.232,1.432 2.869,2.723c1.07,-1.041 1.966,-2.239 2.543,-3.724c0.254,-0.652 1.639,2.304 2.102,3.724c0.581,-1.587 1.902,-2.724 2.183,-2.4c0.669,0.769 1.512,1.582 2.379,2.4c0.614,-0.327 1.601,-1.329 2.117,-1.606c0.299,-0.161 2.117,0.521 2.58,1.606c0.444,-1.634 1.431,-2.655 3.008,-3.009c0.275,-0.062 1.029,2.085 1.752,3.009c0.212,-0.761 1.189,-1.454 1.783,-1.555c0.272,-0.047 0.857,0.882 1.012,1.555c0.204,-0.639 0.57,-1.24 1.415,-1.731c0.292,-0.169 1.669,1.293 3.161,1.731c1.06,-1.452 2.567,-2.299 4.317,-2.815c0.374,-0.111 0.863,1.785 0.679,2.815c0.348,-0.318 0.762,-1.01 1.107,-0.955c0.235,0.037 0.864,0.529 1.135,0.955c1.438,-0.927 3.193,-1.839 3.536,-1.694c0.344,0.145 1.801,1.026 2.452,1.694c0.268,-1.369 0.896,-1.884 1.964,-2.539c0.395,-0.242 2.346,1.879 4.679,2.539c1.096,-1.59 3.839,-3.523 5.207,-3.586c0.422,-0.02 2.275,2.371 2.499,3.586c1.109,-0.882 2.262,-1.721 3.717,-2.257c0.351,-0.129 0.827,1.505 0.529,2.257c0.561,-0.613 1.875,-1.024 2.212,-0.978c0.22,0.029 0.638,0.471 1.013,0.978c1.615,-1.23 3.404,-1.26 5.068,-2.077c0.344,-0.169 0.847,1.285 0.897,2.077c1.051,-0.577 2.103,-1.017 3.155,-1.2c0.373,-0.065 1.043,0.728 1.348,1.2c0.528,-0.355 1.075,-0.712 1.344,-0.665c0.627,0.111 1.187,0.357 1.717,0.665c0.441,-0.682 1.159,-1.853 1.458,-1.846c1.83,0.04 2.955,0.868 3.946,1.846c0.495,-1.021 2.268,-2.178 2.554,-2.257c0.319,-0.088 2.093,1.318 2.287,2.257c1.164,-0.71 3.076,-2.062 3.443,-1.938c1.102,0.37 1.654,1.123 2.114,1.938c1.85,-0.595 4.417,-1.578 6.317,-1.62c0.37,-0.008 0.798,0.968 0.861,1.62c2.626,-2.218 5.342,-2.095 6.599,-2.885c0.332,-0.209 1.628,1.752 1.961,2.885c0.536,-0.494 1.153,-0.905 1.985,-1.103c0.277,-0.066 0.998,0.735 1.667,1.103c0.567,-0.732 1.339,-1.298 1.85,-1.606c0.273,-0.164 1.695,0.815 1.882,1.606c0.583,-1.331 2.462,-2.9 2.728,-2.769c1.317,0.649 2.088,1.676 2.764,2.769c0.153,-0.318 0.661,-1.143 0.79,-0.954c0.218,0.318 0.469,0.636 0.736,0.954c0.026,-1.092 1.003,-2.868 1.223,-2.631c0.526,0.569 2.374,1.502 3.424,2.631c0.49,-0.539 1.217,-0.842 1.882,-1.315c0.239,-0.17 1.211,0.763 1.339,1.315c0.828,-0.816 1.693,-1.52 2.669,-1.892c0.38,-0.145 1.191,1.221 1.906,1.892c0.591,-0.837 2.152,-1.514 2.59,-1.643c0.262,-0.077 0.869,0.777 1.129,1.643c0.423,-0.865 0.88,-1.663 1.402,-2.331c0.21,-0.269 3.704,1.115 5.312,2.331c1.133,-0.926 2.666,-2.263 2.824,-2.234c0.313,0.058 1.579,1.571 1.886,2.234c1.5,-2.353 5.359,-3.543 6.226,-3.64c0.248,-0.028 1.157,2.253 1.033,3.64c1.12,-0.935 3.427,-2.723 3.716,-2.539c0.451,0.289 1.039,1.524 1.022,2.539c0.727,-0.651 2.462,-1.494 2.621,-1.292c0.256,0.324 0.451,0.771 0.608,1.292c0.359,-1.188 0.803,-2.206 1.36,-3c0.215,-0.306 3.437,1.48 4.404,3c0.619,-0.318 1.216,-0.594 1.736,-0.715c0.252,-0.059 0.678,0.425 0.992,0.715c0.346,-0.548 0.769,-1.295 1.038,-1.246c0.82,0.149 1.72,0.653 2.638,1.246c0.487,-1.621 1.896,-4.033 2.295,-3.808c1.454,0.82 2.417,2.2 3.182,3.808c0.378,-0.653 0.976,-1.937 1.203,-1.754c0.615,0.495 1.149,1.111 1.665,1.754c0.71,-1.047 2.294,-1.883 2.491,-1.592c0.294,0.436 0.556,0.971 0.789,1.592c0.717,-1.435 1.538,-2.679 2.625,-3.437c0.365,-0.255 3.28,1.928 4.823,3.437c0.614,-0.832 1.592,-2.453 1.913,-2.354c1.184,0.364 1.977,1.19 2.484,2.354c0.489,-0.494 0.979,-0.898 1.469,-1.085c0.356,-0.135 0.863,0.644 1.175,1.085c0.407,-1.661 1.576,-3.683 1.873,-3.437c1.158,0.958 1.861,2.17 2.464,3.437c1.247,-1.345 3.527,-4.095 3.911,-3.808c0.63,0.471 1.569,2.148 1.734,3.808c1.148,-1.646 2.148,-3.398 3.768,-4.707c0.515,-0.416 2.075,1.872 2.674,3.086Z" style="fill:url(#_Linear3);"/></g><defs><linearGradient id="_Linear1" x1="0" y1="0" x2="1" y2="0" gradientUnits="userSpaceOnUse" gradientTransform="matrix(-1.06574e-13,71.3786,14.0527,2.09818e-14,140,-16.2036)"><stop offset="0" style="stop-color:#00bcf6;stop-opacity:1"/><stop offset="0.44" style="stop-color:#75defd;stop-opacity:1"/><stop offset="1" style="stop-color:#93e7ff;stop-opacity:1"/></linearGradient><linearGradient id="_Linear2" x1="0" y1="0" x2="1" y2="0" gradientUnits="userSpaceOnUse" gradientTransform="matrix(7.23803,-19.644,43.9432,16.1913,79.8695,25.8943)"><stop offset="0" style="stop-color:#ace0ff;stop-opacity:1"/><stop offset="0.45" style="stop-color:#c7eaff;stop-opacity:1"/><stop offset="1" style="stop-color:#ceedff;stop-opacity:1"/></linearGradient><linearGradient id="_Linear3" x1="0" y1="0" x2="1" y2="0" gradientUnits="userSpaceOnUse" gradientTransform="matrix(6.89021e-16,11.2526,-0.437306,2.67773e-17,143.739,53.9004)"><stop offset="0" style="stop-color:#80b200;stop-opacity:1"/><stop offset="1" style="stop-color:#719b05;stop-opacity:1"/></linearGradient></defs></svg>