<?xml version="1.0" encoding="UTF-8" standalone="no"?>
<!-- Created with Inkscape (http://www.inkscape.org/) -->

<svg
   width="50"
   height="50"
   viewBox="0 0 13.229167 13.229167"
   version="1.1"
   id="svg5"
   inkscape:version="1.2 (dc2aedaf03, 2022-05-15)"
   sodipodi:docname="Fish Weight.svg"
   xml:space="preserve"
   xmlns:inkscape="http://www.inkscape.org/namespaces/inkscape"
   xmlns:sodipodi="http://sodipodi.sourceforge.net/DTD/sodipodi-0.dtd"
   xmlns:xlink="http://www.w3.org/1999/xlink"
   xmlns="http://www.w3.org/2000/svg"
   xmlns:svg="http://www.w3.org/2000/svg"><sodipodi:namedview
     id="namedview7"
     pagecolor="#505050"
     bordercolor="#ffffff"
     borderopacity="1"
     inkscape:showpageshadow="0"
     inkscape:pageopacity="0"
     inkscape:pagecheckerboard="1"
     inkscape:deskcolor="#505050"
     inkscape:document-units="mm"
     showgrid="false"
     inkscape:zoom="7.3336393"
     inkscape:cx="23.794462"
     inkscape:cy="18.135607"
     inkscape:window-width="1366"
     inkscape:window-height="705"
     inkscape:window-x="-8"
     inkscape:window-y="-8"
     inkscape:window-maximized="1"
     inkscape:current-layer="g22323" /><defs
     id="defs2"><linearGradient
       inkscape:collect="always"
       id="linearGradient20744"><stop
         style="stop-color:#000b99;stop-opacity:1;"
         offset="0"
         id="stop20740" /><stop
         style="stop-color:#000b99;stop-opacity:0.52238804;"
         offset="1"
         id="stop20742" /></linearGradient><linearGradient
       inkscape:collect="always"
       id="linearGradient20680"><stop
         style="stop-color:#fbfbfb;stop-opacity:1;"
         offset="0"
         id="stop20678" /><stop
         style="stop-color:#b2b9b7;stop-opacity:1;"
         offset="1"
         id="stop20676" /></linearGradient><linearGradient
       inkscape:collect="always"
       id="linearGradient12557"><stop
         style="stop-color:#a8c5bb;stop-opacity:1;"
         offset="0"
         id="stop12553" /><stop
         style="stop-color:#abd4cb;stop-opacity:1;"
         offset="1"
         id="stop12555" /></linearGradient><linearGradient
       inkscape:collect="always"
       id="linearGradient12549"><stop
         style="stop-color:#79929d;stop-opacity:1;"
         offset="0"
         id="stop12545" /><stop
         style="stop-color:#a8c5bb;stop-opacity:1;"
         offset="1"
         id="stop12547" /></linearGradient><linearGradient
       inkscape:collect="always"
       id="linearGradient12188"><stop
         style="stop-color:#79969b;stop-opacity:1;"
         offset="0"
         id="stop12184" /><stop
         style="stop-color:#6b898e;stop-opacity:1;"
         offset="1"
         id="stop12186" /></linearGradient><linearGradient
       inkscape:collect="always"
       id="linearGradient1860"><stop
         style="stop-color:#fff900;stop-opacity:1;"
         offset="0"
         id="stop1856" /><stop
         style="stop-color:#fbc500;stop-opacity:1;"
         offset="1"
         id="stop1858" /></linearGradient><linearGradient
       inkscape:collect="always"
       xlink:href="#linearGradient1860"
       id="linearGradient2777"
       gradientUnits="userSpaceOnUse"
       x1="92.905212"
       y1="44.110912"
       x2="154.17389"
       y2="102.69566" /><clipPath
       clipPathUnits="userSpaceOnUse"
       id="clipPath9932"><rect
         style="opacity:1;fill:#7f8a86;fill-opacity:1;stroke:none;stroke-width:6.46499;stroke-linecap:round;stroke-linejoin:round;stroke-miterlimit:9.4;stroke-dasharray:none;stroke-opacity:1;paint-order:stroke fill markers"
         id="rect9934"
         width="8.0692787"
         height="0.94690514"
         x="3.0879233"
         y="5.4755816"
         ry="0.37033436" /></clipPath><clipPath
       clipPathUnits="userSpaceOnUse"
       id="clipPath10860"><path
         id="path10862"
         style="opacity:1;fill:#a8c5bb;fill-opacity:1;stroke:none;stroke-width:5.10955;stroke-linecap:round;stroke-linejoin:round;stroke-miterlimit:9.4;stroke-dasharray:none;stroke-opacity:1;paint-order:stroke fill markers"
         d="m 6.5871947,6.792867 c -1.8725943,0 -3.4327253,1.2894328 -3.8452433,3.0323732 V 13.229167 H 11.503174 V 9.8273071 C 11.091401,8.0833174 9.5307491,6.792867 7.6574137,6.792867 Z" /></clipPath><clipPath
       clipPathUnits="userSpaceOnUse"
       id="clipPath11026"><circle
         style="fill:#ffffff;fill-opacity:1;fill-rule:evenodd;stroke-width:0.134781"
         id="circle11028"
         cx="7.122304"
         cy="10.011017"
         r="2.2859762" /></clipPath><filter
       style="color-interpolation-filters:sRGB;"
       inkscape:label="Drop Shadow"
       id="filter11620"
       x="0"
       y="0"
       width="1"
       height="1.0806321"><feFlood
         flood-opacity="0.6"
         flood-color="rgb(0,0,0)"
         result="flood"
         id="feFlood11610" /><feComposite
         in="flood"
         in2="SourceGraphic"
         operator="in"
         result="composite1"
         id="feComposite11612" /><feGaussianBlur
         in="composite1"
         stdDeviation="0"
         result="blur"
         id="feGaussianBlur11614" /><feOffset
         dx="-2.77556e-17"
         dy="0.1"
         result="offset"
         id="feOffset11616" /><feComposite
         in="SourceGraphic"
         in2="offset"
         operator="over"
         result="composite2"
         id="feComposite11618" /></filter><clipPath
       clipPathUnits="userSpaceOnUse"
       id="clipPath12180"><path
         id="path12182"
         style="opacity:1;fill:#a8c5bb;fill-opacity:1;stroke:none;stroke-width:5.10955;stroke-linecap:round;stroke-linejoin:round;stroke-miterlimit:9.4;stroke-dasharray:none;stroke-opacity:1;paint-order:stroke fill markers"
         d="m 6.5871947,6.792867 c -1.8725943,0 -3.4327253,1.2894328 -3.8452433,3.0323732 V 13.229167 H 11.503174 V 9.8273071 C 11.091401,8.0833174 9.5307491,6.792867 7.6574137,6.792867 Z" /></clipPath><linearGradient
       inkscape:collect="always"
       xlink:href="#linearGradient12188"
       id="linearGradient12190"
       x1="7.1728277"
       y1="7.4523649"
       x2="7.1743245"
       y2="6.4893317"
       gradientUnits="userSpaceOnUse" /><linearGradient
       inkscape:collect="always"
       xlink:href="#linearGradient12549"
       id="linearGradient12551"
       x1="7.531774"
       y1="11.808957"
       x2="7.6510415"
       y2="14.571342"
       gradientUnits="userSpaceOnUse" /><linearGradient
       inkscape:collect="always"
       xlink:href="#linearGradient12557"
       id="linearGradient12559"
       x1="7.2023153"
       y1="6.7671156"
       x2="4.3564544"
       y2="8.3890667"
       gradientUnits="userSpaceOnUse" /><clipPath
       clipPathUnits="userSpaceOnUse"
       id="clipPath13026"><path
         id="path13028"
         style="opacity:1;fill:url(#linearGradient13030);fill-opacity:1;stroke:none;stroke-width:5.10955;stroke-linecap:round;stroke-linejoin:round;stroke-miterlimit:9.4;stroke-dasharray:none;stroke-opacity:1;paint-order:stroke fill markers"
         d="M -1.7545932,9.2981492 C -2.8338676,7.7678628 -4.786779,7.2360897 -6.4488677,7.9035275 l -2.7816931,1.9618616 5.0495523,7.1596819 2.780004,-1.960671 c 1.18786414,-1.341654 1.3429362,-3.360775 0.2632347,-4.891667 z" /></clipPath><linearGradient
       inkscape:collect="always"
       xlink:href="#linearGradient12557"
       id="linearGradient13030"
       gradientUnits="userSpaceOnUse"
       x1="7.2023153"
       y1="6.7671156"
       x2="4.3564544"
       y2="8.3890667"
       gradientTransform="rotate(54.805598)" /><clipPath
       clipPathUnits="userSpaceOnUse"
       id="clipPath13034"><path
         id="path13036"
         style="opacity:1;fill:url(#linearGradient13038);fill-opacity:1;stroke:none;stroke-width:5.10955;stroke-linecap:round;stroke-linejoin:round;stroke-miterlimit:9.4;stroke-dasharray:none;stroke-opacity:1;paint-order:stroke fill markers"
         d="M -1.8929553,9.2709706 C -2.9493062,7.7247713 -4.8940765,7.1639558 -6.5659265,7.8065518 l -2.810619,1.9201922 4.9423012,7.234133 2.8089123,-1.919026 c 1.207725,-1.323804 1.39286789,-3.34039 0.3360989,-4.887202 z" /></clipPath><linearGradient
       inkscape:collect="always"
       xlink:href="#linearGradient12557"
       id="linearGradient13038"
       gradientUnits="userSpaceOnUse"
       x1="7.2023153"
       y1="6.7671156"
       x2="4.3564544"
       y2="8.3890667"
       gradientTransform="rotate(55.659426)" /><linearGradient
       inkscape:collect="always"
       xlink:href="#linearGradient20680"
       id="linearGradient20682"
       x1="10.049969"
       y1="5.209075"
       x2="10.581785"
       y2="4.0636239"
       gradientUnits="userSpaceOnUse" /><radialGradient
       inkscape:collect="always"
       xlink:href="#linearGradient20744"
       id="radialGradient20752"
       cx="-11.52626"
       cy="-3.944716"
       fx="-11.52626"
       fy="-3.944716"
       r="6.0071115"
       gradientTransform="matrix(0.88611774,0.46346019,-0.33381898,0.63824882,-2.6294576,3.9149573)"
       gradientUnits="userSpaceOnUse" /><filter
       style="color-interpolation-filters:sRGB;"
       inkscape:label="Drop Shadow"
       id="filter21612"
       x="-0.029991898"
       y="0"
       width="1.0299919"
       height="1.0185991"><feFlood
         flood-opacity="0.313725"
         flood-color="rgb(0,0,0)"
         result="flood"
         id="feFlood21602" /><feComposite
         in="flood"
         in2="SourceGraphic"
         operator="in"
         result="composite1"
         id="feComposite21604" /><feGaussianBlur
         in="composite1"
         stdDeviation="0"
         result="blur"
         id="feGaussianBlur21606" /><feOffset
         dx="-0.2"
         dy="0.1"
         result="offset"
         id="feOffset21608" /><feComposite
         in="SourceGraphic"
         in2="offset"
         operator="over"
         result="composite2"
         id="feComposite21610" /></filter><clipPath
       clipPathUnits="userSpaceOnUse"
       id="clipPath22004"><g
         id="g22028"
         transform="rotate(47.743766,-17.469624,16.465692)"
         style="display:inline;fill:#1fecaf;fill-opacity:1"><path
           id="path22006"
           style="opacity:1;fill:#1fecaf;fill-opacity:1;stroke-width:4.4434;stroke-linecap:round;stroke-linejoin:round;stroke-miterlimit:9.4;paint-order:stroke fill markers"
           inkscape:transform-center-x="-0.018439462"
           inkscape:transform-center-y="0.080644416"
           d="m -10.631387,-3.8690675 c 0.09763,0.039497 1.1923523,-0.7333718 1.2753752,-0.7981728 0.083023,-0.064802 1.0986046,-0.9390659 1.0839968,-1.0433659 -0.014607,-0.1043013 -0.8440816,-0.5771847 -1.3289256,-0.7054211 -0.6725134,-0.1778688 -2.0030024,-0.1256047 -2.0860264,-0.060804 -0.08302,0.064803 0.679389,1.0430111 0.693997,1.1473113 0.0146,0.1043022 0.263955,1.4209519 0.361551,1.4604602 z"
           sodipodi:nodetypes="sssasss" /><path
           id="path22008"
           style="opacity:1;fill:#cc1f41;fill-opacity:1;stroke-width:6.46499;stroke-linecap:round;stroke-linejoin:round;stroke-miterlimit:9.4;paint-order:stroke fill markers"
           d="m -17.247009,-6.7024333 0.03824,1.585433 c 2.47704,3.5735296 8.0655171,6.0087552 11.5925743,0.874882 0.1753492,-0.2552327 0.1058856,-0.623284 -0.1503784,-0.7968506 -6.1340659,-4.1545799 -7.4934889,4.8346715 -11.4804359,-1.6634644 z m 9.0092689,2.4298259 c 0.2216124,1.464e-4 0.4011481,0.1799135 0.4010091,0.4015259 -1.463e-4,0.2214106 -0.1795985,0.4008628 -0.4010091,0.4010091 -0.2216124,1.39e-4 -0.4013795,-0.1793967 -0.4015259,-0.4010091 -1.391e-4,-0.2218142 0.1797117,-0.401665 0.4015259,-0.4015259 z"
           sodipodi:nodetypes="ccsscccccc" /><path
           id="path22010"
           style="display:none;opacity:1;fill:#1fecaf;fill-opacity:1;stroke-width:6.46499;stroke-linecap:round;stroke-linejoin:round;stroke-miterlimit:9.4;paint-order:stroke fill markers"
           inkscape:transform-center-x="-0.21299527"
           inkscape:transform-center-y="0.17577549"
           transform="matrix(-0.62877231,-0.2775428,0.2775428,-0.62877231,-21.193785,-9.0970997)"
           d="m -16.588137,-2.4015921 c -0.07662,0.1327047 -2.024101,0.2262752 -2.177335,0.2262752 -0.153235,0 -2.100718,-0.093571 -2.177335,-0.2262752 -0.07662,-0.1327048 0.451414,-1.4176422 0.892707,-1.9987651 0.612104,-0.8060582 2.184905,-1.9371914 2.33814,-1.9371914 0.153234,0 0.154498,1.8044866 0.231115,1.9371914 0.07662,0.1327048 0.969325,1.8660603 0.892708,1.9987651 z"
           sodipodi:nodetypes="sssasss" /><path
           id="path22012"
           style="opacity:1;fill:#1fecaf;fill-opacity:1;stroke-width:5.43909;stroke-linecap:round;stroke-linejoin:round;stroke-miterlimit:9.4;paint-order:stroke fill markers"
           inkscape:transform-center-x="0.5270122"
           inkscape:transform-center-y="0.31081448"
           d="m -14.995006,-7.4894512 c 0.09837,0.083339 -0.116349,1.709562 -0.139336,1.8364134 -0.02299,0.1268544 -0.392621,1.7250038 -0.513972,1.7685199 -0.121356,0.043525 -1.194676,-0.5187111 -1.520712,-1.0388746 -0.419607,-0.6694491 -0.373229,-2.2173808 -0.350243,-2.3442315 0.02299,-0.1268546 0.903275,1.3588022 1.024627,1.3152861 0.121356,-0.043525 1.401269,-1.6204408 1.499622,-1.5371485 z"
           sodipodi:nodetypes="sssassss" /><ellipse
           style="fill:#ffffff;fill-opacity:1;fill-rule:evenodd;stroke-width:0.264583"
           id="ellipse22014"
           cx="-8.3501587"
           cy="-3.9118292"
           rx="0.90621078"
           ry="0.8769781" /><g
           id="g22020"
           transform="rotate(6.1344487,-13.053407,-3.4715317)"><path
             style="fill:none;fill-rule:evenodd;stroke:#1fecaf;stroke-width:0.228;stroke-dasharray:none;stroke-opacity:1"
             id="path22016"
             sodipodi:type="arc"
             sodipodi:cx="-10.437599"
             sodipodi:cy="-4.6137857"
             sodipodi:rx="0.78002316"
             sodipodi:ry="0.58745313"
             sodipodi:start="1.8390349"
             sodipodi:end="4.2338898"
             sodipodi:arc-type="arc"
             d="m -10.644331,-4.0473404 a 0.78002316,0.58745313 0 0 1 -0.568985,-0.5047999 0.78002316,0.58745313 0 0 1 0.416557,-0.5831199"
             sodipodi:open="true" /><path
             style="fill:none;fill-rule:evenodd;stroke:#1fecaf;stroke-width:0.228;stroke-dasharray:none;stroke-opacity:1"
             id="path22018"
             sodipodi:type="arc"
             sodipodi:cx="-10.252806"
             sodipodi:cy="-3.5554254"
             sodipodi:rx="0.78002316"
             sodipodi:ry="0.58745313"
             sodipodi:start="1.8390349"
             sodipodi:end="4.2338898"
             sodipodi:arc-type="arc"
             d="m -10.459538,-2.9889801 a 0.78002316,0.58745313 0 0 1 -0.568984,-0.5047999 0.78002316,0.58745313 0 0 1 0.416557,-0.5831199"
             sodipodi:open="true" /></g><g
           id="g22026"
           transform="matrix(0.88238608,0.09483649,-0.09483649,0.88238608,-2.8528951,0.84303844)"><path
             style="fill:none;fill-rule:evenodd;stroke:#1fecaf;stroke-width:0.228;stroke-dasharray:none;stroke-opacity:1"
             id="path22022"
             sodipodi:type="arc"
             sodipodi:cx="-10.437599"
             sodipodi:cy="-4.6137857"
             sodipodi:rx="0.78002316"
             sodipodi:ry="0.58745313"
             sodipodi:start="1.8390349"
             sodipodi:end="4.2338898"
             sodipodi:arc-type="arc"
             d="m -10.644331,-4.0473404 a 0.78002316,0.58745313 0 0 1 -0.568985,-0.5047999 0.78002316,0.58745313 0 0 1 0.416557,-0.5831199"
             sodipodi:open="true" /><path
             style="fill:none;fill-rule:evenodd;stroke:#1fecaf;stroke-width:0.228;stroke-dasharray:none;stroke-opacity:1"
             id="path22024"
             sodipodi:type="arc"
             sodipodi:cx="-10.252806"
             sodipodi:cy="-3.5554254"
             sodipodi:rx="0.78002316"
             sodipodi:ry="0.58745313"
             sodipodi:start="1.8390349"
             sodipodi:end="4.2338898"
             sodipodi:arc-type="arc"
             d="m -10.459538,-2.9889801 a 0.78002316,0.58745313 0 0 1 -0.568984,-0.5047999 0.78002316,0.58745313 0 0 1 0.416557,-0.5831199"
             sodipodi:open="true" /></g></g></clipPath><clipPath
       clipPathUnits="userSpaceOnUse"
       id="clipPath22057"><g
         id="g22081"
         transform="translate(17.909221,7.5366729)"
         style="display:inline;fill:#1fecaf;fill-opacity:1"><path
           id="path22059"
           style="opacity:1;fill:#1fecaf;fill-opacity:1;stroke-width:4.4434;stroke-linecap:round;stroke-linejoin:round;stroke-miterlimit:9.4;paint-order:stroke fill markers"
           inkscape:transform-center-x="-0.018439462"
           inkscape:transform-center-y="0.080644416"
           d="m -10.631387,-3.8690675 c 0.09763,0.039497 1.1923523,-0.7333718 1.2753752,-0.7981728 0.083023,-0.064802 1.0986046,-0.9390659 1.0839968,-1.0433659 -0.014607,-0.1043013 -0.8440816,-0.5771847 -1.3289256,-0.7054211 -0.6725134,-0.1778688 -2.0030024,-0.1256047 -2.0860264,-0.060804 -0.08302,0.064803 0.679389,1.0430111 0.693997,1.1473113 0.0146,0.1043022 0.263955,1.4209519 0.361551,1.4604602 z"
           sodipodi:nodetypes="sssasss" /><path
           id="path22061"
           style="opacity:1;fill:#cc1f41;fill-opacity:1;stroke-width:6.46499;stroke-linecap:round;stroke-linejoin:round;stroke-miterlimit:9.4;paint-order:stroke fill markers"
           d="m -17.247009,-6.7024333 0.03824,1.585433 c 2.47704,3.5735296 8.0655171,6.0087552 11.5925743,0.874882 0.1753492,-0.2552327 0.1058856,-0.623284 -0.1503784,-0.7968506 -6.1340659,-4.1545799 -7.4934889,4.8346715 -11.4804359,-1.6634644 z m 9.0092689,2.4298259 c 0.2216124,1.464e-4 0.4011481,0.1799135 0.4010091,0.4015259 -1.463e-4,0.2214106 -0.1795985,0.4008628 -0.4010091,0.4010091 -0.2216124,1.39e-4 -0.4013795,-0.1793967 -0.4015259,-0.4010091 -1.391e-4,-0.2218142 0.1797117,-0.401665 0.4015259,-0.4015259 z"
           sodipodi:nodetypes="ccsscccccc" /><path
           id="path22063"
           style="display:none;opacity:1;fill:#1fecaf;fill-opacity:1;stroke-width:6.46499;stroke-linecap:round;stroke-linejoin:round;stroke-miterlimit:9.4;paint-order:stroke fill markers"
           inkscape:transform-center-x="-0.21299527"
           inkscape:transform-center-y="0.17577549"
           transform="matrix(-0.62877231,-0.2775428,0.2775428,-0.62877231,-21.193785,-9.0970997)"
           d="m -16.588137,-2.4015921 c -0.07662,0.1327047 -2.024101,0.2262752 -2.177335,0.2262752 -0.153235,0 -2.100718,-0.093571 -2.177335,-0.2262752 -0.07662,-0.1327048 0.451414,-1.4176422 0.892707,-1.9987651 0.612104,-0.8060582 2.184905,-1.9371914 2.33814,-1.9371914 0.153234,0 0.154498,1.8044866 0.231115,1.9371914 0.07662,0.1327048 0.969325,1.8660603 0.892708,1.9987651 z"
           sodipodi:nodetypes="sssasss" /><path
           id="path22065"
           style="opacity:1;fill:#1fecaf;fill-opacity:1;stroke-width:5.43909;stroke-linecap:round;stroke-linejoin:round;stroke-miterlimit:9.4;paint-order:stroke fill markers"
           inkscape:transform-center-x="0.5270122"
           inkscape:transform-center-y="0.31081448"
           d="m -14.995006,-7.4894512 c 0.09837,0.083339 -0.116349,1.709562 -0.139336,1.8364134 -0.02299,0.1268544 -0.392621,1.7250038 -0.513972,1.7685199 -0.121356,0.043525 -1.194676,-0.5187111 -1.520712,-1.0388746 -0.419607,-0.6694491 -0.373229,-2.2173808 -0.350243,-2.3442315 0.02299,-0.1268546 0.903275,1.3588022 1.024627,1.3152861 0.121356,-0.043525 1.401269,-1.6204408 1.499622,-1.5371485 z"
           sodipodi:nodetypes="sssassss" /><ellipse
           style="fill:#ffffff;fill-opacity:1;fill-rule:evenodd;stroke-width:0.264583"
           id="ellipse22067"
           cx="-8.3501587"
           cy="-3.9118292"
           rx="0.90621078"
           ry="0.8769781" /><g
           id="g22073"
           transform="rotate(6.1344487,-13.053407,-3.4715317)"><path
             style="fill:none;fill-rule:evenodd;stroke:#1fecaf;stroke-width:0.228;stroke-dasharray:none;stroke-opacity:1"
             id="path22069"
             sodipodi:type="arc"
             sodipodi:cx="-10.437599"
             sodipodi:cy="-4.6137857"
             sodipodi:rx="0.78002316"
             sodipodi:ry="0.58745313"
             sodipodi:start="1.8390349"
             sodipodi:end="4.2338898"
             sodipodi:arc-type="arc"
             d="m -10.644331,-4.0473404 a 0.78002316,0.58745313 0 0 1 -0.568985,-0.5047999 0.78002316,0.58745313 0 0 1 0.416557,-0.5831199"
             sodipodi:open="true" /><path
             style="fill:none;fill-rule:evenodd;stroke:#1fecaf;stroke-width:0.228;stroke-dasharray:none;stroke-opacity:1"
             id="path22071"
             sodipodi:type="arc"
             sodipodi:cx="-10.252806"
             sodipodi:cy="-3.5554254"
             sodipodi:rx="0.78002316"
             sodipodi:ry="0.58745313"
             sodipodi:start="1.8390349"
             sodipodi:end="4.2338898"
             sodipodi:arc-type="arc"
             d="m -10.459538,-2.9889801 a 0.78002316,0.58745313 0 0 1 -0.568984,-0.5047999 0.78002316,0.58745313 0 0 1 0.416557,-0.5831199"
             sodipodi:open="true" /></g><g
           id="g22079"
           transform="matrix(0.88238608,0.09483649,-0.09483649,0.88238608,-2.8528951,0.84303844)"><path
             style="fill:none;fill-rule:evenodd;stroke:#1fecaf;stroke-width:0.228;stroke-dasharray:none;stroke-opacity:1"
             id="path22075"
             sodipodi:type="arc"
             sodipodi:cx="-10.437599"
             sodipodi:cy="-4.6137857"
             sodipodi:rx="0.78002316"
             sodipodi:ry="0.58745313"
             sodipodi:start="1.8390349"
             sodipodi:end="4.2338898"
             sodipodi:arc-type="arc"
             d="m -10.644331,-4.0473404 a 0.78002316,0.58745313 0 0 1 -0.568985,-0.5047999 0.78002316,0.58745313 0 0 1 0.416557,-0.5831199"
             sodipodi:open="true" /><path
             style="fill:none;fill-rule:evenodd;stroke:#1fecaf;stroke-width:0.228;stroke-dasharray:none;stroke-opacity:1"
             id="path22077"
             sodipodi:type="arc"
             sodipodi:cx="-10.252806"
             sodipodi:cy="-3.5554254"
             sodipodi:rx="0.78002316"
             sodipodi:ry="0.58745313"
             sodipodi:start="1.8390349"
             sodipodi:end="4.2338898"
             sodipodi:arc-type="arc"
             d="m -10.459538,-2.9889801 a 0.78002316,0.58745313 0 0 1 -0.568984,-0.5047999 0.78002316,0.58745313 0 0 1 0.416557,-0.5831199"
             sodipodi:open="true" /></g></g></clipPath><clipPath
       clipPathUnits="userSpaceOnUse"
       id="clipPath609"><path
         id="path611"
         style="display:inline;opacity:1;fill:#1fecaf;fill-opacity:1;stroke-width:6.46499;stroke-linecap:round;stroke-linejoin:round;stroke-miterlimit:9.4;paint-order:stroke fill markers"
         d="M 0.662212,0.83423961 0.700452,2.4196726 C 3.1774921,5.9932022 8.7659692,8.4284278 12.293026,3.2945546 12.468376,3.0393219 12.398912,2.6712706 12.142648,2.497704 6.0085819,-1.6568759 4.6491591,7.3323754 0.662212,0.83423961 Z M 9.671481,3.2640656 C 9.8930934,3.2642119 10.072629,3.4439791 10.07249,3.6655915 10.072344,3.887002 9.8928915,4.0664543 9.671481,4.0666006 9.4498684,4.0667395 9.2701015,3.8872038 9.2699549,3.6655915 9.269816,3.4437772 9.4496668,3.2639265 9.671481,3.2640656 Z"
         sodipodi:nodetypes="ccsscccccc"
         inkscape:label="clipto" /></clipPath><clipPath
       clipPathUnits="userSpaceOnUse"
       id="clipPath944"><path
         id="path946"
         style="display:inline;opacity:1;fill:#cc1f41;fill-opacity:1;stroke-width:6.46499;stroke-linecap:round;stroke-linejoin:round;stroke-miterlimit:9.4;paint-order:stroke fill markers"
         d="m -17.247009,-6.7024333 0.03824,1.585433 c 2.47704,3.5735296 8.0655172,6.00875516 11.5925744,0.874882 0.1753491,-0.2552327 0.1058854,-0.623284 -0.1503786,-0.7968506 -6.1340658,-4.1545799 -7.4934888,4.83467143 -11.4804358,-1.6634644 z m 9.009269,2.429826 c 0.2216124,1.463e-4 0.401148,0.1799135 0.4010091,0.4015259 -1.463e-4,0.2214105 -0.1795986,0.4008628 -0.4010091,0.4010091 -0.2216126,1.389e-4 -0.4013795,-0.1793968 -0.4015261,-0.4010091 -1.389e-4,-0.2218143 0.1797119,-0.401665 0.4015261,-0.4015259 z"
         sodipodi:nodetypes="ccsscccccc" /></clipPath><clipPath
       clipPathUnits="userSpaceOnUse"
       id="clipPath1106"><path
         id="path1108"
         style="display:inline;opacity:1;fill:#cc1f41;fill-opacity:1;stroke-width:6.46499;stroke-linecap:round;stroke-linejoin:round;stroke-miterlimit:9.4;paint-order:stroke fill markers"
         d="M 0.662212,0.83423961 0.700452,2.4196726 C 3.1774921,5.9932022 8.7659692,8.4284278 12.293026,3.2945546 12.468376,3.0393219 12.398912,2.6712706 12.142648,2.497704 6.0085819,-1.6568759 4.6491591,7.3323754 0.662212,0.83423961 Z M 9.671481,3.2640656 C 9.8930934,3.2642119 10.072629,3.4439791 10.07249,3.6655915 10.072344,3.887002 9.8928915,4.0664543 9.671481,4.0666006 9.4498684,4.0667395 9.2701015,3.8872038 9.2699549,3.6655915 9.269816,3.4437772 9.4496668,3.2639265 9.671481,3.2640656 Z"
         sodipodi:nodetypes="ccsscccccc" /></clipPath><clipPath
       clipPathUnits="userSpaceOnUse"
       id="clipPath1257"><path
         id="path1259"
         style="display:inline;opacity:1;fill:#cc1f41;fill-opacity:1;stroke-width:6.46499;stroke-linecap:round;stroke-linejoin:round;stroke-miterlimit:9.4;paint-order:stroke fill markers"
         d="M 0.662212,0.83423961 0.700452,2.4196726 C 3.1774921,5.9932022 8.7659692,8.4284278 12.293026,3.2945546 12.468376,3.0393219 12.398912,2.6712706 12.142648,2.497704 6.0085819,-1.6568759 4.6491591,7.3323754 0.662212,0.83423961 Z M 9.671481,3.2640656 C 9.8930934,3.2642119 10.072629,3.4439791 10.07249,3.6655915 10.072344,3.887002 9.8928915,4.0664543 9.671481,4.0666006 9.4498684,4.0667395 9.2701015,3.8872038 9.2699549,3.6655915 9.269816,3.4437772 9.4496668,3.2639265 9.671481,3.2640656 Z"
         sodipodi:nodetypes="ccsscccccc" /></clipPath></defs><g
     inkscape:label="Layer 1"
     inkscape:groupmode="layer"
     id="layer1"><g
       id="g22323"
       style="display:inline"><g
         id="g13943"
         transform="translate(17.909221,7.5366728)"
         style="display:inline;fill:#1fecaf;fill-opacity:1"><path
           id="path13937"
           style="opacity:1;fill:#1fecaf;fill-opacity:1;stroke-width:4.4434;stroke-linecap:round;stroke-linejoin:round;stroke-miterlimit:9.4;paint-order:stroke fill markers"
           inkscape:transform-center-x="-0.018439462"
           inkscape:transform-center-y="0.080644416"
           d="m -10.631387,-3.8690675 c 0.09763,0.039497 1.1923523,-0.7333718 1.2753752,-0.7981728 0.083023,-0.064802 1.0986046,-0.9390659 1.0839968,-1.0433659 -0.014607,-0.1043013 -0.8440816,-0.5771847 -1.3289256,-0.7054211 -0.6725134,-0.1778688 -2.0030024,-0.1256047 -2.0860264,-0.060804 -0.08302,0.064803 0.679389,1.0430111 0.693997,1.1473113 0.0146,0.1043022 0.263955,1.4209519 0.361551,1.4604602 z"
           sodipodi:nodetypes="sssasss" /><path
           id="rect13868"
           style="opacity:1;fill:#cc1f41;fill-opacity:1;stroke-width:6.46499;stroke-linecap:round;stroke-linejoin:round;stroke-miterlimit:9.4;paint-order:stroke fill markers"
           d="m -17.247009,-6.7024333 0.03824,1.585433 c 2.47704,3.5735296 8.0655171,6.0087552 11.5925743,0.874882 0.1753492,-0.2552327 0.1058856,-0.623284 -0.1503784,-0.7968506 -6.1340659,-4.1545799 -7.4934889,4.8346715 -11.4804359,-1.6634644 z m 9.0092689,2.4298259 c 0.2216124,1.464e-4 0.4011481,0.1799135 0.4010091,0.4015259 -1.463e-4,0.2214106 -0.1795985,0.4008628 -0.4010091,0.4010091 -0.2216124,1.39e-4 -0.4013795,-0.1793967 -0.4015259,-0.4010091 -1.391e-4,-0.2218142 0.1797117,-0.401665 0.4015259,-0.4015259 z"
           sodipodi:nodetypes="ccsscccccc" /><path
           id="path13925"
           style="display:none;opacity:1;fill:#1fecaf;fill-opacity:1;stroke-width:6.46499;stroke-linecap:round;stroke-linejoin:round;stroke-miterlimit:9.4;paint-order:stroke fill markers"
           inkscape:transform-center-x="-0.21299527"
           inkscape:transform-center-y="0.17577549"
           transform="matrix(-0.62877231,-0.2775428,0.2775428,-0.62877231,-21.193785,-9.0970997)"
           d="m -16.588137,-2.4015921 c -0.07662,0.1327047 -2.024101,0.2262752 -2.177335,0.2262752 -0.153235,0 -2.100718,-0.093571 -2.177335,-0.2262752 -0.07662,-0.1327048 0.451414,-1.4176422 0.892707,-1.9987651 0.612104,-0.8060582 2.184905,-1.9371914 2.33814,-1.9371914 0.153234,0 0.154498,1.8044866 0.231115,1.9371914 0.07662,0.1327048 0.969325,1.8660603 0.892708,1.9987651 z"
           sodipodi:nodetypes="sssasss" /><path
           id="path13930"
           style="opacity:1;fill:#1fecaf;fill-opacity:1;stroke-width:5.43909;stroke-linecap:round;stroke-linejoin:round;stroke-miterlimit:9.4;paint-order:stroke fill markers"
           inkscape:transform-center-x="0.5270122"
           inkscape:transform-center-y="0.31081448"
           d="m -14.995006,-7.4894512 c 0.09837,0.083339 -0.116349,1.709562 -0.139336,1.8364134 -0.02299,0.1268544 -0.392621,1.7250038 -0.513972,1.7685199 -0.121356,0.043525 -1.194676,-0.5187111 -1.520712,-1.0388746 -0.419607,-0.6694491 -0.373229,-2.2173808 -0.350243,-2.3442315 0.02299,-0.1268546 0.903275,1.3588022 1.024627,1.3152861 0.121356,-0.043525 1.401269,-1.6204408 1.499622,-1.5371485 z"
           sodipodi:nodetypes="sssassss" /><ellipse
           style="fill:#ffffff;fill-opacity:1;fill-rule:evenodd;stroke-width:0.264583"
           id="path20237"
           cx="-8.3501587"
           cy="-3.9118292"
           rx="0.90621078"
           ry="0.8769781" /><g
           id="g20245"
           transform="rotate(6.1344487,-13.053407,-3.4715317)"><path
             style="fill:none;fill-rule:evenodd;stroke:#1fecaf;stroke-width:0.228;stroke-dasharray:none;stroke-opacity:1"
             id="path20239"
             sodipodi:type="arc"
             sodipodi:cx="-10.437599"
             sodipodi:cy="-4.6137857"
             sodipodi:rx="0.78002316"
             sodipodi:ry="0.58745313"
             sodipodi:start="1.8390349"
             sodipodi:end="4.2338898"
             sodipodi:arc-type="arc"
             d="m -10.644331,-4.0473404 a 0.78002316,0.58745313 0 0 1 -0.568985,-0.5047999 0.78002316,0.58745313 0 0 1 0.416557,-0.5831199"
             sodipodi:open="true" /><path
             style="fill:none;fill-rule:evenodd;stroke:#1fecaf;stroke-width:0.228;stroke-dasharray:none;stroke-opacity:1"
             id="path20241"
             sodipodi:type="arc"
             sodipodi:cx="-10.252806"
             sodipodi:cy="-3.5554254"
             sodipodi:rx="0.78002316"
             sodipodi:ry="0.58745313"
             sodipodi:start="1.8390349"
             sodipodi:end="4.2338898"
             sodipodi:arc-type="arc"
             d="m -10.459538,-2.9889801 a 0.78002316,0.58745313 0 0 1 -0.568984,-0.5047999 0.78002316,0.58745313 0 0 1 0.416557,-0.5831199"
             sodipodi:open="true" /></g><g
           id="g20251"
           transform="matrix(0.88238608,0.09483649,-0.09483649,0.88238608,-2.8528951,0.84303844)"><path
             style="fill:none;fill-rule:evenodd;stroke:#1fecaf;stroke-width:0.228;stroke-dasharray:none;stroke-opacity:1"
             id="path20247"
             sodipodi:type="arc"
             sodipodi:cx="-10.437599"
             sodipodi:cy="-4.6137857"
             sodipodi:rx="0.78002316"
             sodipodi:ry="0.58745313"
             sodipodi:start="1.8390349"
             sodipodi:end="4.2338898"
             sodipodi:arc-type="arc"
             d="m -10.644331,-4.0473404 a 0.78002316,0.58745313 0 0 1 -0.568985,-0.5047999 0.78002316,0.58745313 0 0 1 0.416557,-0.5831199"
             sodipodi:open="true" /><path
             style="fill:none;fill-rule:evenodd;stroke:#1fecaf;stroke-width:0.228;stroke-dasharray:none;stroke-opacity:1"
             id="path20249"
             sodipodi:type="arc"
             sodipodi:cx="-10.252806"
             sodipodi:cy="-3.5554254"
             sodipodi:rx="0.78002316"
             sodipodi:ry="0.58745313"
             sodipodi:start="1.8390349"
             sodipodi:end="4.2338898"
             sodipodi:arc-type="arc"
             d="m -10.459538,-2.9889801 a 0.78002316,0.58745313 0 0 1 -0.568984,-0.5047999 0.78002316,0.58745313 0 0 1 0.416557,-0.5831199"
             sodipodi:open="true" /></g></g><rect
         style="display:inline;opacity:1;fill:#7f8a86;fill-opacity:1;stroke:none;stroke-width:4.69244;stroke-linecap:round;stroke-linejoin:round;stroke-miterlimit:9.4;stroke-dasharray:none;stroke-opacity:1;paint-order:stroke fill markers"
         id="rect8834"
         width="0.82339573"
         height="2.2643385"
         x="6.710865"
         y="6.2413206" /><path
         id="rect8769"
         style="display:inline;opacity:1;fill:url(#linearGradient12559);fill-opacity:1;stroke:none;stroke-width:5.10956;stroke-linecap:round;stroke-linejoin:round;stroke-miterlimit:9.4;stroke-dasharray:none;stroke-opacity:1;paint-order:stroke fill markers"
         d="m 6.5871948,6.792867 c -1.8725945,0 -3.4327254,1.2894329 -3.8452433,3.0323731 V 13.229167 H 11.503174 V 9.8273071 C 11.091401,8.0833175 9.5307491,6.792867 7.6574137,6.792867 Z" /><rect
         style="display:inline;opacity:1;fill:#656f6e;fill-opacity:1;stroke:none;stroke-width:5.8427;stroke-linecap:round;stroke-linejoin:round;stroke-miterlimit:9.4;stroke-dasharray:none;stroke-opacity:1;paint-order:stroke fill markers"
         id="rect9936"
         width="0.82339573"
         height="0.35287094"
         x="6.710865"
         y="6.1945152" /><path
         id="rect10630"
         style="display:inline;opacity:1;fill:url(#linearGradient12551);fill-opacity:1;stroke-width:6.46499;stroke-linecap:round;stroke-linejoin:round;stroke-miterlimit:9.4;paint-order:stroke fill markers"
         d="m 1.8439519,9.5270853 c 3.9895262,2.3334587 7.7066279,1.3978217 11.3852141,0 V 14.207887 H 1.8439519 Z"
         sodipodi:nodetypes="ccccc"
         clip-path="url(#clipPath10860)" /><rect
         style="display:inline;opacity:1;fill:#79929d;fill-opacity:0.822674;stroke:none;stroke-width:5.036;stroke-linecap:round;stroke-linejoin:round;stroke-miterlimit:9.4;stroke-dasharray:none;stroke-opacity:1;paint-order:stroke fill markers"
         id="rect10916"
         width="8.7612219"
         height="0.36480412"
         x="2.7419515"
         y="12.864363" /><rect
         style="display:inline;opacity:0.387268;fill:#ffffff;fill-opacity:1;stroke:none;stroke-width:6.65428;stroke-linecap:round;stroke-linejoin:round;stroke-miterlimit:9.4;stroke-dasharray:none;stroke-opacity:1;paint-order:stroke fill markers"
         id="rect12708"
         width="1.3712209"
         height="12.995436"
         x="-4.7797451"
         y="5.3515439"
         transform="rotate(-54.805598)"
         clip-path="url(#clipPath13026)" /><circle
         style="display:inline;fill:#ffffff;fill-opacity:1;fill-rule:evenodd;stroke:#87a1a6;stroke-width:0.134781;stroke-opacity:1"
         id="path8774"
         cx="7.122304"
         cy="10.011017"
         r="2.2859762" /><rect
         style="display:inline;opacity:0.538462;fill:#ffffff;fill-opacity:1;stroke:none;stroke-width:3.63395;stroke-linecap:round;stroke-linejoin:round;stroke-miterlimit:9.4;stroke-dasharray:none;stroke-opacity:1;paint-order:stroke fill markers"
         id="rect13022"
         width="0.59211808"
         height="8.9752645"
         x="-6.243259"
         y="6.9164028"
         transform="rotate(-55.659426)"
         clip-path="url(#clipPath13034)" /><rect
         style="display:inline;opacity:1;fill:#94a8b1;fill-opacity:0.375;stroke:none;stroke-width:5.02553;stroke-linecap:round;stroke-linejoin:round;stroke-miterlimit:9.4;stroke-dasharray:none;stroke-opacity:1;paint-order:stroke fill markers"
         id="rect11022"
         width="6.0283051"
         height="3.8533869"
         x="4.0188699"
         y="9.9998932"
         clip-path="url(#clipPath11026)" /><g
         id="g11089"
         style="display:inline;filter:url(#filter11620)"><circle
           style="fill:#f82b2b;fill-opacity:1;fill-rule:evenodd;stroke-width:0.0163049"
           id="circle11030"
           cx="7.122304"
           cy="10.011017"
           r="0.27654135" /><path
           id="rect11084"
           style="opacity:1;fill:#f82b2b;stroke-width:3.85698;stroke-linecap:round;stroke-linejoin:round;stroke-miterlimit:9.4;paint-order:stroke fill markers"
           d="M 7.1772278,9.7792569 8.5113516,10.974677 6.9207896,10.150645 Z"
           sodipodi:nodetypes="cccc"
           inkscape:transform-center-x="-0.6713209"
           inkscape:transform-center-y="0.41495645" /></g><path
         id="rect12175"
         style="display:inline;opacity:1;fill:url(#linearGradient12190);fill-opacity:1;stroke-width:10.367;stroke-linecap:round;stroke-linejoin:round;stroke-miterlimit:9.4;paint-order:stroke fill markers"
         d="M 3.6248107,6.7933512 H 10.722342 V 7.705891 c -2.3289707,-0.497786 -4.6855541,-0.622801 -7.0975313,0 z"
         sodipodi:nodetypes="ccccc"
         clip-path="url(#clipPath12180)" /><path
         id="path13945"
         style="display:inline;opacity:1;fill:#e92f4a;fill-opacity:1;stroke-width:6.46499;stroke-linecap:round;stroke-linejoin:round;stroke-miterlimit:9.4;paint-order:stroke fill markers;filter:url(#filter21612)"
         inkscape:transform-center-x="-0.15104142"
         inkscape:transform-center-y="0.65835069"
         d="M 11.492649,6.2086722 C 11.288684,6.189886 8.2803862,4.4503464 8.1946732,4.2643149 8.1089602,4.0782834 8.9385752,1.0892032 9.0568268,0.92195787 c 0.1182516,-0.1672453 2.7219462,-0.053036 2.9259102,-0.03425 0.203965,0.018786 2.784717,0.38209203 2.87043,0.56812353 0.08571,0.1860315 -1.315043,2.3837925 -1.433295,2.5510378 -0.118251,0.1672453 -1.723259,2.220589 -1.927223,2.201803 z"
         sodipodi:nodetypes="sssssss"
         clip-path="url(#clipPath609)" /><circle
         style="fill:#181818;fill-opacity:1;fill-rule:evenodd;stroke-width:0.176414"
         id="path20754"
         cx="9.6724243"
         cy="3.6652107"
         r="0.26242247" /><path
         id="rect20305"
         style="display:inline;opacity:0.286472;mix-blend-mode:normal;fill:url(#radialGradient20752);fill-opacity:1;stroke-width:0.268382;stroke-linecap:round;stroke-linejoin:round;stroke-miterlimit:9.4;paint-order:stroke fill markers"
         d="m -18.425526,-6.5881081 c 5.87235,6.08120538 10.8698935,2.5800576 17.0357097,0.033599 l 0.40318491,5.72286725 H -19.601482 Z"
         sodipodi:nodetypes="ccccc"
         transform="translate(17.909221,7.5366729)"
         clip-path="url(#clipPath944)"
         inkscape:label="SHADINGforclip" /><path
         id="rect20673"
         style="display:inline;opacity:0.286472;fill:url(#linearGradient20682);fill-opacity:1;stroke-width:0.291937;stroke-linecap:round;stroke-linejoin:round;stroke-miterlimit:9.4;paint-order:stroke fill markers"
         d="M 5.7681637,5.4954377 C 7.7086718,5.8371791 10.196006,5.3341576 12.463598,3.3136261 L 13.227232,6.0954359 7.5408857,5.9181637 Z"
         sodipodi:nodetypes="ccccc"
         clip-path="url(#clipPath1106)" /><rect
         style="opacity:1;fill:#7f8a86;fill-opacity:1;stroke:none;stroke-width:6.46499;stroke-linecap:round;stroke-linejoin:round;stroke-miterlimit:9.4;stroke-dasharray:none;stroke-opacity:1;paint-order:stroke fill markers"
         id="rect9614"
         width="8.0692787"
         height="0.94690514"
         x="3.0879233"
         y="5.4755816"
         ry="0.37033436" /><path
         id="rect20808"
         style="opacity:0.466843;mix-blend-mode:overlay;fill:#ffffff;stroke-width:0.228;stroke-linecap:round;stroke-linejoin:round;stroke-miterlimit:9.4;paint-order:stroke fill markers"
         d="M -1.0562175,1.7603627 0.41420298,0.5798842 C 0.74130897,3.2762665 2.934457,4.4439594 4.5976531,5.6124503 L 2.0088845,7.1657115 Z"
         sodipodi:nodetypes="ccccc"
         clip-path="url(#clipPath1257)" /><path
         id="rect21977"
         style="opacity:0.803714;mix-blend-mode:overlay;fill:#ffffff;stroke-width:0.234187;stroke-linecap:round;stroke-linejoin:round;stroke-miterlimit:9.4;paint-order:stroke fill markers"
         transform="rotate(-47.743766)"
         d="M -0.08172058,1.6074452 1.9355586,1.5809873 2.097954,2.279183 -0.28248757,2.3303272 Z"
         sodipodi:nodetypes="ccccc"
         clip-path="url(#clipPath22004)" /><path
         id="rect22030"
         style="opacity:0.803714;mix-blend-mode:overlay;fill:#ffffff;stroke-width:0.259873;stroke-linecap:round;stroke-linejoin:round;stroke-miterlimit:9.4;paint-order:stroke fill markers"
         d="M 5.8515635,1.2275526 6.2701339,0.95134788 6.8244569,1.8642053 6.1561676,2.1285187 Z"
         clip-path="url(#clipPath22057)"
         sodipodi:nodetypes="ccccc" /><rect
         style="display:inline;opacity:1;fill:#b2b9b7;fill-opacity:1;stroke:none;stroke-width:6.46499;stroke-linecap:round;stroke-linejoin:round;stroke-miterlimit:9.4;stroke-dasharray:none;stroke-opacity:1;paint-order:stroke fill markers"
         id="rect9616"
         width="9.052618"
         height="0.84353942"
         x="2.5923405"
         y="5.105495"
         clip-path="url(#clipPath9932)" /></g></g></svg>
