<?xml version="1.0" encoding="UTF-8" standalone="no"?><!DOCTYPE svg PUBLIC "-//W3C//DTD SVG 1.1//EN" "http://www.w3.org/Graphics/SVG/1.1/DTD/svg11.dtd"><svg width="100%" height="100%" viewBox="0 0 300 345" version="1.1" xmlns="http://www.w3.org/2000/svg" xmlns:xlink="http://www.w3.org/1999/xlink" xml:space="preserve" xmlns:serif="http://www.serif.com/" style="fill-rule:evenodd;clip-rule:evenodd;stroke-linejoin:round;stroke-miterlimit:2;"><g id="Fish-2" serif:id="Fish 2"><path d="M300,123.765c-8.945,0.916 -16.698,4.775 -22.878,12.512c-25.154,-25.642 -48.209,-30.004 -68.017,-1.452c-20.956,-18.895 -40.73,-19.998 -59.105,0c-19.629,-21.085 -39.259,-18.73 -58.888,0.553c-17.033,-28.337 -47.39,-24.152 -68.225,0.76c-6.058,-7.058 -13.695,-11.143 -22.887,-12.303l0,-43.045l300,0l0,42.975Z" style="fill:#3a2573;"/><path d="M300,119.591c-8.945,0.916 -16.698,4.775 -22.878,12.512c-25.154,-25.642 -48.209,-30.004 -68.017,-1.452c-20.956,-18.895 -40.73,-19.998 -59.105,0c-19.629,-21.085 -39.259,-18.731 -58.888,0.553c-17.033,-28.337 -47.39,-24.152 -68.225,0.76c-6.058,-7.058 -13.695,-11.143 -22.887,-12.304l0,-43.044c0,-20.079 16.301,-36.38 36.38,-36.38l227.24,0c20.079,0 36.38,16.301 36.38,36.38l0,42.975Z" style="fill:#6245ba;"/><path d="M73.469,103.953c-3.14,3.498 -6.787,3.709 -8.502,3.529c-3.766,-0.397 -6.28,-2.946 -7.53,-5.577c-0.552,-1.159 -1.547,-3.678 -1.547,-3.678c0,0 -1.343,3.032 -1.858,4.018c-1.122,2.152 -3.712,5.128 -6.554,5.696c-3.683,0.737 -5.742,0.179 -8.068,-1.276c-3.025,1.412 -6.013,3.126 -8.931,5.134c-1.395,0.959 -2.774,1.986 -4.134,3.08c-1.32,1.061 -2.621,2.185 -3.901,3.371c-3.853,-2.839 -8.077,-4.982 -12.667,-6.434c0,-0 0,-40.736 0,-40.736c0,-14.682 11.92,-26.603 26.603,-26.603l227.24,0c14.683,0 26.603,11.921 26.603,26.603l0,40.527c-4.762,1.451 -9.194,3.717 -13.252,6.904c-15.498,-13.52 -30.597,-19.216 -44.378,-16.685c-8.594,1.579 -17.062,6.3 -25.029,15.046c-9.837,-6.989 -19.525,-10.452 -28.843,-10.582c-9.769,-0.137 -19.43,3.257 -28.736,10.903c-9.917,-8.182 -19.942,-11.539 -29.791,-11.174c-9.093,0.337 -18.329,3.97 -27.489,10.882c-5.763,-6.426 -12.327,-10.64 -19.236,-12.948Z" style="fill:#6949cc;"/><path d="M35.023,76.52c3.852,7.105 15.288,5.154 17.715,-4.811c0.663,12.994 16.203,15.004 23.416,3.971c2.366,14.449 19.253,17.485 24.333,7.126c3.113,12.592 21.805,8.247 23.934,-6.923c7.74,7.247 17.393,9.767 29.747,5.611c-2.096,3.225 -2.893,7.092 -3.764,9.254c-5.858,14.547 -12.6,14.061 -20.087,0.916c-2.429,2.392 -4.188,5.007 -4.988,7.941c-14.708,-1.176 -23.849,2.021 -30.951,6.822c-8.934,1.585 -13.162,-5.653 -15.577,-16.29c-5.574,11.213 -18.071,10.082 -22.525,-3.818c-3.618,15.223 -20.435,16.254 -21.126,0.636l-0.127,-10.435Zm62.41,-27.164l13.133,0c-0.233,5.968 1.59,10.854 6.516,14.106c-3.447,9.085 -12.673,8.258 -16.188,-0.101c-4.02,10.539 -15.595,10.908 -21.787,2.036c10.005,1.505 16.194,-3.7 18.326,-16.041Zm86.64,48.824c1.897,-1.858 3.5,-3.911 4.582,-6.312c3.521,5.355 7.233,10.1 12.115,11.097c-6.324,-0.383 -10.559,-4.334 -16.697,-4.785Zm18.734,-33.801c4.854,3.201 9.026,1.9 12.522,-3.858c5.196,4.442 10.076,5.728 14.457,2.025c9.265,12.999 19.922,16.503 32.173,9.14c3.975,5.305 8.785,8.463 14.66,8.881l0,5.294c-0.496,8.32 -10.126,9.564 -13.541,1.629c-7.549,11.216 -13.661,10.673 -18.224,-2.546c-7.504,9.813 -13.74,9.6 -18.529,-2.036c-6.259,7.592 -10.71,3.44 -14.254,-6.617c-6.524,12.104 -11.937,12.262 -16.289,1.018c2.091,-4.945 5.256,-7.092 7.025,-12.93Z" style="fill:#6e50cc;"/><path d="M299.578,71.063c-0.734,1.116 -1.791,2.105 -3.311,2.719c-3.358,1.356 -7.66,-0.684 -10.011,-5.336c-0.615,2.422 -2.068,6 -5.637,6.988c-3.397,0.94 -8.151,-1.545 -9.306,-9.323c-0.014,-0.092 -0.071,-0.189 -0.039,-0.276c0.12,-0.338 0.236,-0.275 0.357,-0.613c0.18,0.152 0.432,0.204 0.613,0.356c0.004,0.004 1.195,3.243 3.462,5.22c3.282,2.864 7.398,1.405 9.19,-3.732c0.392,-1.127 0.244,-1.816 0.946,-1.95c0.793,-0.15 0.95,0.815 1.354,1.445c1.578,2.457 4.15,3.73 6.097,3.822c1.222,0.057 3.542,0.348 5.638,-2.549c0.263,1.059 0.479,2.136 0.647,3.229Zm-272.032,12.417c-0.011,0.297 0.189,0.578 0.177,0.875c-0,0.015 -0.734,1.736 -1.57,3.247c-0.268,0.484 -4.688,9.39 -11.571,7.284c-4.891,-1.496 -7.341,-7.809 -7.903,-9.167c-0.041,-0.101 0.025,-0.099 0.328,-1.323c0.389,0.197 0.871,0.156 1.26,0.353c0.219,0.112 4.006,5.964 8.015,6.461c4.783,0.591 10.143,-7.305 10.411,-7.464c0.257,-0.152 0.597,-0.115 0.853,-0.266Zm72.528,-8.465c-1.707,3.383 -4.328,7.63 -8.844,7.832c-1.964,0.088 -5.02,-0.876 -7.771,-4.647c-0.155,-0.213 -0.96,-1.317 -1.77,-2.77c-0.043,-0.077 -0.13,-0.145 -0.128,-0.234c0.016,-0.649 0.15,-0.634 0.167,-1.285c0.432,0.135 0.908,0.084 1.341,0.219c0.065,0.021 1.57,1.647 4.026,3.076c3.977,2.313 7.081,0.79 10.116,-3.055c1.479,-1.874 1.696,-3.019 2.247,-3.387c0.36,-0.241 1.344,-0.495 1.905,0.535c0.643,1.183 0.626,1.193 1.418,2.285c0.387,0.533 2.345,2.898 4.145,3.56c1.004,0.37 1.034,0.237 2.074,0.49c2.372,0.576 5.746,-1.511 5.798,-1.519c0.355,-0.053 0.72,0.011 1.074,-0.042c-0.049,0.355 0.03,0.72 -0.019,1.075c-0.003,0.017 -0.543,0.973 -1.004,1.63c-4.265,6.087 -10.763,5.716 -14.479,-3.051c-0.097,-0.228 -0.145,-0.344 -0.296,-0.712Zm-44.174,24.597c-1.023,3.367 -3.28,9.273 -8.439,10.766c-3.668,1.062 -9.36,-0.59 -13.001,-10.408c-0.044,-0.117 -0.146,-0.228 -0.128,-0.352c0.071,-0.481 0.243,-0.427 0.314,-0.907c0.279,0.156 0.628,0.157 0.907,0.313c0.119,0.066 6.115,10.842 13.3,6.87c2.561,-1.415 5.079,-4.828 6.268,-8.421c0.007,-0.023 0.111,-0.721 0.67,-0.776c0.677,-0.067 0.818,0.821 0.957,1.171c0.667,1.689 3.616,7.624 9.144,7.814c0.332,0.011 5.419,0.85 10.791,-7.39c0.061,-0.093 0.084,-0.226 0.181,-0.281c0.354,-0.202 0.409,-0.055 0.763,-0.256c0.033,0.267 0.223,0.498 0.256,0.765c-0,0.001 -0.327,0.889 -0.777,1.874c-5.198,11.374 -15.24,11.896 -19.972,2.258c-0.487,-0.992 -0.9,-2.08 -1.234,-3.04Zm207.213,-0.254c-0.661,2.67 -2.068,6.076 -5.408,7.905c-5.205,2.85 -12.416,-0.638 -13.802,-11.002c-0.016,-0.116 -0.087,-0.24 -0.044,-0.349c0.21,-0.524 0.361,-0.441 0.571,-0.967c0.293,0.234 0.675,0.336 0.967,0.57c0.005,0.003 1.369,3.671 4.09,6.089c2.322,2.063 5.59,2.706 8.1,1.267c2.19,-1.255 4.056,-4.094 4.595,-6.978c0.002,-0.012 0.018,-0.784 0.64,-0.924c0.255,-0.057 0.738,0.014 0.907,0.545c0.007,0.024 0.566,2.368 2.633,4.599c2.053,2.217 3.843,2.414 5.873,2.116c3.107,-0.456 5.802,-3.635 7.324,-7.449c0.035,-0.087 0.034,-0.199 0.103,-0.263c0.289,-0.267 0.36,-0.164 0.651,-0.433c0.106,0.239 0.327,0.415 0.433,0.654c0.001,0.001 -0.022,0.806 -0.138,1.742c-0.982,7.924 -6.627,12.288 -11.749,10.238c-3.359,-1.344 -4.927,-4.684 -5.746,-7.36Zm-50.293,-49.269c-1.137,2.325 -3.618,6.252 -7.798,6.579c-2.83,0.222 -6.838,-1.737 -8.026,-8.26c-0.015,-0.081 -0.068,-0.166 -0.043,-0.245c0.116,-0.362 0.221,-0.311 0.339,-0.676c0.193,0.161 0.482,0.176 0.676,0.337c0.005,0.004 2.394,5.031 6.196,5.108c0.218,0.005 3.882,0.537 6.828,-4.279c0.6,-0.98 0.609,-1.746 1.409,-1.913c0.899,-0.187 1.274,0.726 1.995,1.453c3.706,3.732 6.229,4.064 7.496,4.296c0.086,0.016 1.955,0.622 5.145,-2.879c0.353,-0.388 0.338,-0.403 0.377,-0.427c0.166,-0.102 0.38,-0.106 0.546,-0.209c0.012,0.195 0.138,0.371 0.151,0.565c0.001,0.02 -0.257,1.042 -0.501,1.736c-0.558,1.586 -1.861,4.738 -5.358,5.502c-1.797,0.393 -4.686,-0.133 -7.855,-4.379c-0.69,-0.924 -0.81,-1.144 -1.577,-2.309Zm-1.9,37.582c0.026,0.265 0.212,0.498 0.238,0.763c0.001,0.006 -0.83,3.6 -2.497,5.981c-3.612,5.16 -9.885,4.879 -13.966,-4.028c-0.309,-0.674 -0.648,-1.5 -0.648,-1.503c0.062,-0.314 0.152,-0.622 0.214,-0.936c0.302,0.143 0.668,0.11 0.97,0.252c0.178,0.084 4.371,5.231 7.675,5.438c3.445,0.215 6.995,-5.485 7.273,-5.668c0.223,-0.146 0.518,-0.153 0.741,-0.299Zm-60.043,13.212c0.053,0.256 0.224,0.478 0.277,0.735c0.002,0.007 -0.24,0.874 -0.476,1.52c-3.729,10.181 -14.196,11.385 -18.9,1.695c-0.588,-1.211 -1.07,-2.846 -1.068,-2.858c0.065,-0.311 0.262,-0.585 0.327,-0.897c0.282,0.148 0.615,0.178 0.897,0.326c0.008,0.005 2.608,4.135 6.194,5.455c7.084,2.609 11.997,-5.69 12.017,-5.698c0.241,-0.102 0.492,-0.177 0.732,-0.278Zm-59.25,-51.24c0.02,0.199 0.145,0.378 0.164,0.577c0,0.001 -0.362,1.067 -0.851,2.039c-4.919,9.793 -14.784,8.068 -16.849,-1.585c-0.002,-0.009 -0.096,-0.459 -0.094,-0.468c0.073,-0.248 0.248,-0.458 0.321,-0.706c0.219,0.137 0.486,0.183 0.705,0.32c0.154,0.095 3.303,6.48 9.25,4.966c3.608,-0.919 6.434,-4.562 6.75,-4.943c0.033,-0.039 0.043,-0.014 0.604,-0.2Zm-89.478,14.635c3.696,1.834 6.64,0.276 9.522,-3.376c1.479,-1.874 1.697,-3.018 2.248,-3.387c0.359,-0.24 1.344,-0.495 1.904,0.536c0.644,1.183 0.626,1.192 1.418,2.284c0.387,0.533 2.345,2.898 4.145,3.561c1.004,0.37 1.034,0.236 2.075,0.489c2.371,0.577 5.746,-1.511 5.798,-1.519c0.354,-0.053 0.719,0.011 1.074,-0.042c-0.05,0.355 0.029,0.721 -0.02,1.076c-0.002,0.017 -0.543,0.972 -1.003,1.629c-4.265,6.088 -10.763,5.717 -14.48,-3.05c-0.096,-0.228 -0.145,-0.344 -0.296,-0.712c-1.706,3.383 -4.328,7.63 -8.844,7.832c-1.24,0.055 -2.917,-0.309 -4.677,-1.536c0.311,-1.29 0.691,-2.553 1.136,-3.785Z" style="fill:#5c3ac4;"/><path d="M207.518,114.882c4.36,-4.957 14.387,-14.497 31.118,-14.519c0.13,0 0.272,-0.052 0.39,0.002c0.251,0.116 0.419,0.372 0.67,0.487c-0.242,0.133 -0.395,0.396 -0.636,0.528c-0.316,0.174 -9.82,-0.033 -19.975,7.011c-6.194,4.297 -10.039,9.267 -10.687,9.628c-0.447,0.249 -1.097,0.247 -1.58,-0.154c-2.12,-1.759 -6.529,-5.947 -17.189,-9.897c-0.029,-0.011 -0.069,-0.008 -0.087,-0.033c-0.091,-0.129 -0.138,-0.286 -0.23,-0.416c0.158,-0.013 0.259,-0.215 0.417,-0.229c0.004,-0 5.478,1.065 10.467,3.312c3.648,1.643 6.022,3.3 7.322,4.28Zm-57.406,0.376c2.017,-1.253 6.224,-3.819 12.195,-6.017c0.034,-0.012 0.118,-0.059 0.149,0.006c0.067,0.143 -1.426,0.712 -5.719,3.832c-3.031,2.203 -5.89,4.687 -6.178,4.834c-0.873,0.447 -1.594,-0.336 -2.109,-0.736c-2.875,-2.225 -11.543,-8.911 -23.102,-10.25c-10.805,-1.251 -20.415,2.528 -26.869,5.911c-0.144,0.075 -0.27,0.208 -0.432,0.228c-0.147,0.019 -0.282,-0.137 -0.429,-0.118c0.092,-0.117 0.027,-0.313 0.12,-0.43c0.101,-0.128 2.332,-1.347 2.537,-1.459c16.792,-9.175 29.41,-6.495 36.92,-3.635c0.086,0.033 3.661,1.418 7.694,4.008c2.321,1.49 4.406,3.157 5.223,3.826Z" style="fill:#deeb00;fill-opacity:0.25;"/><g><path d="M150,72.972c-4.887,-0 -8.835,-1.623 -12.157,-3.86c-10.375,-6.99 -14.438,-17.583 -13.209,-23.211c1.228,-5.628 4.772,-7.772 12.728,-9.02c4.184,-0.656 8.396,-0.562 12.638,-0.562c4.242,0 8.454,-0.094 12.638,0.562c7.956,1.248 11.5,3.392 12.728,9.02c1.229,5.628 -2.834,16.221 -13.209,23.211c-3.322,2.237 -7.27,3.86 -12.157,3.86Z" style="fill:#5734b5;"/><path d="M133.73,37.594c1.094,-0.271 2.302,-0.504 3.632,-0.713c4.184,-0.656 8.396,-0.562 12.638,-0.562c4.242,0 8.454,-0.094 12.638,0.562c1.653,0.259 3.115,0.557 4.406,0.917l0.625,7.691c-0.01,11.981 -7.578,16.573 -17.669,16.909c-12.342,-0.801 -17.341,-6.522 -16.825,-16.184l0.555,-8.62Z" style="fill:#3e208f;"/><path d="M175.271,45.489c0.033,0.135 0.065,0.273 0.095,0.412c1.229,5.628 -2.834,16.221 -13.209,23.211c-3.322,2.237 -7.27,3.86 -12.157,3.86c-4.887,-0 -8.835,-1.623 -12.157,-3.86c-10.375,-6.99 -14.438,-17.583 -13.209,-23.211c0.03,-0.139 0.062,-0.277 0.095,-0.412c1.124,5.675 5.353,12.921 13.114,18.149c3.322,2.238 7.27,3.86 12.157,3.86c4.887,0 8.835,-1.622 12.157,-3.86c7.761,-5.228 11.99,-12.474 13.114,-18.149Z" style="fill:#3e208f;"/><circle cx="169.21" cy="153.066" r="41.247" style="fill:#fff1c2;fill-opacity:0.5;"/><path d="M167.381,109.957c1.271,-16.234 5.59,-30.822 11.174,-45.71c4.055,-10.811 4.69,-17.887 2.597,-27.958c-0.901,-4.332 -3.312,-9.732 -5.872,-10.229l-0.007,0.013c-3.401,-0.378 -9.008,1.955 -10.464,4.056l0.007,0.008c-0.136,0.371 -0.036,0.383 -0.085,0.798c-0.416,3.536 -0.144,4.704 0.014,7.312c0.044,0.719 0.062,4.409 0.521,8.592c0.766,6.985 -6.543,14.198 -14.935,14.198c-4.625,-0 -15.65,-1.794 -14.927,-13.788c0.172,-2.857 0.378,-6.377 0.626,-10.736c0.559,-9.845 3.23,-27.426 25.599,-33.237c21.251,-5.52 38.394,5.898 39.842,32.193c0.893,16.222 -3.219,25.957 -8.835,36.636c-9.775,18.591 -15.267,34.787 -16.863,52.566c-0.307,7.389 0.012,14.392 2.089,20.314c2.314,6.599 2.889,10.794 -0.069,22.472c-3.089,12.196 -10.292,13.22 -19.998,2.955c-5.235,-5.536 -7.111,-11.952 -5.498,-19.449c0.788,-3.663 3.952,-5.381 8.796,-2.405c2.783,1.71 6.776,1.103 6.804,-2.955c0.08,-11.942 -1.483,-23.299 -0.516,-35.646Z" style="fill:#3d2979;"/><path d="M172.967,26.156c-3.213,0.483 -7,2.301 -8.158,3.973l0.007,0.008c-0.136,0.371 -0.036,0.383 -0.085,0.798c-0.416,3.536 -0.144,4.704 0.014,7.312c0.044,0.719 0.062,4.409 0.521,8.592c0.766,6.985 -6.543,14.198 -14.935,14.198c-4.625,-0 -15.65,-1.794 -14.927,-13.788c0.172,-2.857 0.378,-6.377 0.626,-10.736c0.559,-9.845 3.23,-27.426 25.599,-33.237c2.741,-0.712 5.414,-1.142 7.994,-1.295c-10.986,0.858 -21.103,5.378 -25.198,17.464c-2.589,7.641 -4.548,17.186 -4.066,25.881c0.31,5.6 2.299,8.637 5.473,9.227c3.206,0.596 6.8,0.62 9.617,-0.078c3.565,-0.884 4.805,-3.538 5.005,-7.741c0.264,-5.561 0.154,-10.187 -0,-14.7l-2.268,0.391c3.358,-5.013 9.457,-6.001 14.781,-6.269Z" style="fill:#2b1c5a;"/><path d="M182.311,19.911c-6.128,-2.384 -13.407,-3.348 -24.858,2.209c-0.143,0.069 -0.27,0.195 -0.429,0.21c-0.207,0.019 -0.406,-0.132 -0.613,-0.113c0.093,-0.186 0.021,-0.428 0.114,-0.614c0.001,-0.001 0.996,-0.927 2.174,-1.909c4.152,-3.459 11.991,-9.072 22.479,-8.102c1.077,0.1 3.286,0.458 4.267,0.862c3.954,1.627 6.479,6.552 7.577,14.026c0.843,5.731 0.822,16.251 -1.57,25.863c-3.829,15.385 -16.726,38.369 -18.144,60.41c-0.011,0.164 0.05,0.348 -0.03,0.491c-0.175,0.315 -0.336,0.167 -0.514,0.486c-0.102,-0.213 -0.382,-0.303 -0.485,-0.516c-0.06,-0.123 0.056,-2.762 0.067,-3.002c0.997,-22.664 12.669,-45.591 14.868,-61.293c1.076,-7.69 0.542,-13.897 -0.769,-19.49c-1.021,-4.358 -2.612,-8.142 -4.134,-9.518Z" style="fill:#5734b5;"/><path d="M175.817,133.982c0.253,3.931 0.866,7.641 2.045,11.003c2.314,6.599 2.889,10.794 -0.069,22.472c-3.089,12.196 -10.292,13.22 -19.998,2.955c-5.235,-5.536 -7.111,-11.952 -5.498,-19.449c0.788,-3.663 3.952,-5.381 8.796,-2.405c2.783,1.71 6.776,1.103 6.804,-2.955c0.058,-8.618 -0.74,-16.931 -0.826,-25.532c1.995,-0.461 3.864,0.801 5.492,5.364c1.102,3.09 2.165,5.974 3.254,8.547Z" style="fill:#694fcc;"/><path d="M177.656,144.376c0.066,0.204 0.135,0.407 0.206,0.609c2.314,6.599 2.889,10.794 -0.069,22.472c-3.089,12.196 -10.292,13.22 -19.998,2.955c-5.235,-5.536 -7.111,-11.952 -5.498,-19.449c0.788,-3.663 3.952,-5.381 8.796,-2.405c2.783,1.71 6.776,1.103 6.804,-2.955c0.038,-5.702 -0.298,-11.271 -0.555,-16.879c0.981,-0.16 2.251,0.84 4.536,5.899c1.525,3.374 3.739,6.287 5.778,9.753Z" style="fill:#fdc942;"/><path d="M179.347,160.138c-0.327,2.093 -0.837,4.486 -1.554,7.319c-3.089,12.196 -10.292,13.22 -19.998,2.955c-5.235,-5.536 -7.111,-11.952 -5.498,-19.449c0.788,-3.663 3.952,-5.381 8.796,-2.405c-3.664,0.261 -1.066,6.163 2.869,10.89c3.086,3.707 7.413,5.413 12.217,2.784c1.17,-0.641 2.213,-1.346 3.168,-2.094Z" style="fill:#ffe295;"/><path d="M178.903,162.615c-0.292,1.464 -0.66,3.066 -1.11,4.842c-3.089,12.196 -10.292,13.22 -19.998,2.955c-5.235,-5.536 -7.111,-11.952 -5.498,-19.449c0.788,-3.663 3.952,-5.381 8.796,-2.405c-5.068,-2.037 -6.774,0.307 -5.848,4.9c1.518,7.535 5.044,12.3 10.409,16.713c2.084,1.715 4.297,1.785 6.744,0c2.661,-1.941 4.845,-4.335 6.505,-7.556Z" style="fill:#fdfefc;"/><circle cx="169.21" cy="153.066" r="31.844" style="fill:#fff1c2;fill-opacity:0.5;"/></g><path d="M199.86,132.103c-4.373,-0 -7.922,4.291 -7.922,9.576c-0,-5.285 -3.55,-9.576 -7.923,-9.576c4.373,-0 7.923,-4.292 7.923,-9.577c-0,5.285 3.549,9.577 7.922,9.577Zm-48.36,52.633c-4.373,-0 -7.922,4.291 -7.922,9.576c-0,-5.285 -3.55,-9.576 -7.923,-9.576c4.373,-0 7.923,-4.291 7.923,-9.577c-0,5.286 3.549,9.577 7.922,9.577Zm41.665,-12.236c-3.017,0 -5.466,2.96 -5.466,6.607c0,-3.647 -2.449,-6.607 -5.465,-6.607c3.016,0 5.465,-2.96 5.465,-6.607c0,3.647 2.449,6.607 5.466,6.607Zm-44.122,-38.306c-3.016,-0 -5.465,2.96 -5.465,6.607c-0,-3.647 -2.449,-6.607 -5.466,-6.607c3.017,-0 5.466,-2.961 5.466,-6.607c-0,3.646 2.449,6.607 5.465,6.607Zm31.342,-20.68c-1.745,0 -3.161,1.713 -3.161,3.822c-0,-2.109 -1.417,-3.822 -3.162,-3.822c1.745,0 3.162,-1.712 3.162,-3.821c-0,2.109 1.416,3.821 3.161,3.821Zm1.849,81.044c-1.745,-0 -3.162,1.712 -3.162,3.821c0,-2.109 -1.416,-3.821 -3.161,-3.821c1.745,-0 3.161,-1.713 3.161,-3.822c0,2.109 1.417,3.822 3.162,3.822Z" style="fill:#fff;"/><g><path d="M6.941,55.248c6.616,-9.095 17.342,-15.012 29.439,-15.012l32.291,0l0,8.188c-0.145,21.962 -22.344,22.135 -31.71,14.798c-6.643,-5.204 -14.387,-8.137 -22.046,-8.758c-2.879,-0.234 -5.495,0.101 -7.974,0.784Z" style="fill:#13004e;fill-opacity:0.5;"/><path d="M34.754,0c21.764,10.602 35.862,31.171 27.381,55.249c-1.273,3.614 -6.941,8.329 -14.979,7.087c-7.222,-1.116 -29.225,-17.461 -47.156,-17.637c9.271,-3.945 12.901,-11.89 2.862,-21.341c17.765,5.362 26.073,-1.47 14.013,-14.335c13.72,4.359 19.541,0.899 17.879,-9.023Z" style="fill:url(#_Linear1);"/><path d="M34.754,0c21.764,10.602 35.862,31.171 27.381,55.249c-1.273,3.614 -6.941,8.329 -14.979,7.087c-7.222,-1.116 -29.225,-17.461 -47.156,-17.637c9.271,-3.945 12.901,-11.89 2.862,-21.341c17.765,5.362 26.073,-1.47 14.013,-14.335c13.72,4.359 19.541,0.899 17.879,-9.023Zm17.16,43.873c-2.789,-12.825 -7.692,-20.032 -7.682,-20.203c0.015,-0.249 0.1,-0.491 0.115,-0.74c0.227,0.106 0.514,0.011 0.741,0.117c0.019,0.009 6.332,6.648 10.606,16.318c-0,0 -0,0 -0,0c0.212,0.486 0.742,0.751 1.258,0.629c0.517,-0.122 0.872,-0.595 0.846,-1.125c-0.927,-15.822 -7.961,-28.606 -22.286,-37.771c0.424,3.145 0.672,10.132 -8.031,10.762c-2.359,0.17 -4.873,-0.177 -6.915,-0.595c2.498,3.256 5.509,8.675 1.841,12.676c-0.101,0.11 -2.011,2.502 -7.202,2.798c-2.946,0.168 -5.969,-0.313 -8.316,-0.847c2.489,3.461 5.079,9.127 0.791,14.464c-1.325,1.649 -3.006,2.857 -4.421,3.685c14.805,0.636 28.526,4.524 41.207,11.531c0.241,0.137 0.545,0.076 0.715,-0.142c0.17,-0.218 0.154,-0.528 -0.036,-0.728c-0.001,-0.002 -0.003,-0.004 -0.004,-0.005c-2.464,-2.582 -6.525,-7.792 -19.809,-15.797c-0.036,-0.022 -0.09,-0.028 -0.108,-0.066c-0.188,-0.412 -0.121,-0.434 -0.309,-0.846c0.299,-0.027 0.548,-0.281 0.847,-0.308c0.116,-0.011 7.171,2.532 10.907,4.37c0.25,0.124 5.909,2.807 10.128,6.226c0.097,0.08 0.194,0.159 0.292,0.237c3.434,2.69 5.998,0.978 4.825,-4.64Z" style="fill:#7953eb;"/><path d="M44.232,23.67c-0.123,-0.21 -0.156,-0.577 0.115,-0.74c0.276,-0.165 0.6,-0.094 0.741,0.117c6.445,9.613 10.769,19.691 10.167,30.851c-0.134,2.486 -5.237,6.562 -11.121,7.507c-9.17,-3.706 -28.25,-16.55 -44.134,-16.706c0.073,-0.031 0.145,-0.062 0.217,-0.093c12.556,0.524 28.343,5.478 44.249,10.966c0.241,0.137 0.545,0.076 0.715,-0.142c0.17,-0.218 0.154,-0.528 -0.036,-0.728c-0.001,-0.002 -0.003,-0.004 -0.004,-0.005c-2.464,-2.582 -6.525,-7.792 -19.809,-15.797c-0.036,-0.022 -0.073,-0.042 -0.108,-0.066c-0.35,-0.239 -0.433,-0.568 -0.309,-0.846c0.147,-0.33 0.501,-0.48 0.847,-0.308c6.463,3.199 12.465,7.243 17.897,12.333c5.004,4.689 8.603,3.995 8.426,-2.357c0.193,-0.949 0.157,-2.214 -0.171,-3.783c-2.789,-12.825 -7.692,-20.032 -7.682,-20.203Z" style="fill:#663ed3;"/><path d="M53.525,29.963c-1.84,-7.08 -4.148,-13.959 -10.824,-18.967c0.482,1.948 0.773,4.048 0.567,6.546c3.852,3.131 7.23,7.366 10.257,12.421Z" style="fill:#e66592;"/><path d="M35.692,49.498l-15.772,-11.391c-2.372,1.764 -5.033,2.892 -8.092,3.144c8.389,1.952 16.299,4.783 23.864,8.247Z" style="fill:#e66592;"/><path d="M41.877,27.489c3.841,4.341 9.389,16.946 6.649,17.576c-3.903,0.897 -9.796,-7.15 -14.999,-10.566c2.738,0.134 5.422,0.432 7.886,1.392c0.536,-2.953 0.615,-5.724 0.464,-8.402Z" style="fill:#e66592;"/></g><g><path d="M293.059,55.248c-6.616,-9.095 -17.342,-15.012 -29.439,-15.012l-32.291,0l-0,8.188c0.145,21.962 22.344,22.135 31.71,14.798c6.643,-5.204 14.387,-8.137 22.046,-8.758c2.879,-0.234 5.495,0.101 7.974,0.784Z" style="fill:#13004e;fill-opacity:0.5;"/><path d="M265.246,0c-21.764,10.602 -35.862,31.171 -27.381,55.249c1.273,3.614 6.941,8.329 14.979,7.087c7.222,-1.116 29.225,-17.461 47.156,-17.637c-9.271,-3.945 -12.901,-11.89 -2.862,-21.341c-17.765,5.362 -26.073,-1.47 -14.013,-14.335c-13.72,4.359 -19.541,0.899 -17.879,-9.023Z" style="fill:url(#_Linear2);"/><path d="M265.246,0c-21.764,10.602 -35.862,31.171 -27.381,55.249c1.273,3.614 6.941,8.329 14.979,7.087c7.222,-1.116 29.225,-17.461 47.156,-17.637c-9.271,-3.945 -12.901,-11.89 -2.862,-21.341c-17.765,5.362 -26.073,-1.47 -14.013,-14.335c-13.72,4.359 -19.541,0.899 -17.879,-9.023Zm-17.16,43.873c2.789,-12.825 7.692,-20.032 7.682,-20.203c-0.015,-0.249 -0.1,-0.491 -0.115,-0.74c-0.227,0.106 -0.514,0.011 -0.741,0.117c-0.019,0.009 -6.332,6.648 -10.606,16.318c0,0 0,0 0,0c-0.212,0.486 -0.742,0.751 -1.258,0.629c-0.517,-0.122 -0.872,-0.595 -0.846,-1.125c0.927,-15.822 7.961,-28.606 22.286,-37.771c-0.424,3.145 -0.672,10.132 8.031,10.762c2.359,0.17 4.873,-0.177 6.915,-0.595c-2.498,3.256 -5.509,8.675 -1.841,12.676c0.101,0.11 2.011,2.502 7.202,2.798c2.946,0.168 5.969,-0.313 8.316,-0.847c-2.489,3.461 -5.079,9.127 -0.791,14.464c1.325,1.649 3.006,2.857 4.421,3.685c-14.805,0.636 -28.526,4.524 -41.207,11.531c-0.241,0.137 -0.545,0.076 -0.715,-0.142c-0.17,-0.218 -0.154,-0.528 0.036,-0.728c0.001,-0.002 0.003,-0.004 0.004,-0.005c2.464,-2.582 6.525,-7.792 19.809,-15.797c0.036,-0.022 0.09,-0.028 0.108,-0.066c0.188,-0.412 0.121,-0.434 0.309,-0.846c-0.299,-0.027 -0.548,-0.281 -0.847,-0.308c-0.116,-0.011 -7.171,2.532 -10.907,4.37c-0.25,0.124 -5.909,2.807 -10.128,6.226c-0.097,0.08 -0.194,0.159 -0.292,0.237c-3.434,2.69 -5.998,0.978 -4.825,-4.64Z" style="fill:#7953eb;"/><path d="M255.768,23.67c0.123,-0.21 0.156,-0.577 -0.115,-0.74c-0.276,-0.165 -0.6,-0.094 -0.741,0.117c-6.445,9.613 -10.769,19.691 -10.167,30.851c0.134,2.486 5.237,6.562 11.121,7.507c9.17,-3.706 28.25,-16.55 44.134,-16.706c-0.073,-0.031 -0.145,-0.062 -0.217,-0.093c-12.556,0.524 -28.343,5.478 -44.249,10.966c-0.241,0.137 -0.545,0.076 -0.715,-0.142c-0.17,-0.218 -0.154,-0.528 0.036,-0.728c0.001,-0.002 0.003,-0.004 0.004,-0.005c2.464,-2.582 6.525,-7.792 19.809,-15.797c0.036,-0.022 0.073,-0.042 0.108,-0.066c0.35,-0.239 0.433,-0.568 0.309,-0.846c-0.147,-0.33 -0.501,-0.48 -0.847,-0.308c-6.463,3.199 -12.465,7.243 -17.897,12.333c-5.004,4.689 -8.603,3.995 -8.426,-2.357c-0.193,-0.949 -0.157,-2.214 0.171,-3.783c2.789,-12.825 7.692,-20.032 7.682,-20.203Z" style="fill:#663ed3;"/><path d="M246.475,29.963c1.84,-7.08 4.148,-13.959 10.824,-18.967c-0.482,1.948 -0.773,4.048 -0.567,6.546c-3.852,3.131 -7.23,7.366 -10.257,12.421Z" style="fill:#e66592;"/><path d="M264.308,49.498l15.772,-11.391c2.372,1.764 5.033,2.892 8.092,3.144c-8.389,1.952 -16.299,4.783 -23.864,8.247Z" style="fill:#e66592;"/><path d="M258.123,27.489c-3.841,4.341 -9.389,16.946 -6.649,17.576c3.903,0.897 9.796,-7.15 14.999,-10.566c-2.738,0.134 -5.422,0.432 -7.886,1.392c-0.536,-2.953 -0.615,-5.724 -0.464,-8.402Z" style="fill:#e66592;"/></g></g><defs><linearGradient id="_Linear1" x1="0" y1="0" x2="1" y2="0" gradientUnits="userSpaceOnUse" gradientTransform="matrix(37.4454,38.8496,-37.5907,36.232,20.359,20.3814)"><stop offset="0" style="stop-color:#8d5b96;stop-opacity:1"/><stop offset="0.56" style="stop-color:#c05b8f;stop-opacity:1"/><stop offset="1" style="stop-color:#d65b8c;stop-opacity:1"/></linearGradient><linearGradient id="_Linear2" x1="0" y1="0" x2="1" y2="0" gradientUnits="userSpaceOnUse" gradientTransform="matrix(-37.4454,38.8496,37.5907,36.232,279.641,20.3814)"><stop offset="0" style="stop-color:#8d5b96;stop-opacity:1"/><stop offset="0.56" style="stop-color:#c05b8f;stop-opacity:1"/><stop offset="1" style="stop-color:#d65b8c;stop-opacity:1"/></linearGradient></defs></svg>