<?xml version="1.0" encoding="UTF-8" standalone="no"?><!DOCTYPE svg PUBLIC "-//W3C//DTD SVG 1.1//EN" "http://www.w3.org/Graphics/SVG/1.1/DTD/svg11.dtd"><svg width="100%" height="100%" viewBox="0 0 300 345" version="1.1" xmlns="http://www.w3.org/2000/svg" xmlns:xlink="http://www.w3.org/1999/xlink" xml:space="preserve" xmlns:serif="http://www.serif.com/" style="fill-rule:evenodd;clip-rule:evenodd;stroke-linejoin:round;stroke-miterlimit:2;"><g id="Dragon"><g id="Dragon-head" serif:id="Dragon head"><path id="base_body_1" d="M0,81.38c0,-43.199 21.879,-46.489 24.271,-72.491c12.199,2.906 22.897,9.192 31.537,20.107c2.303,-29.805 40.96,-15.572 57.567,-28.996c5.423,4.608 8.874,9.759 7.843,16.148c6.3,-4.447 12.691,-13.061 22.109,-16.148c3.954,1.339 7.337,3.935 10.179,7.721c0.37,-3.163 1.659,-5.67 3.587,-7.721c7.428,2.77 12.938,10.624 20.358,16.314c-1.008,-6.85 2.922,-11.561 8.593,-15.518c15.897,11.43 50.798,0.999 58.569,25.03c9.031,-8.704 19.503,-14.045 31.203,-16.52c-5.699,13.94 21.146,26.878 23.949,67.921c0.155,1.363 0.235,2.749 0.235,4.153l0,53.366c-0.966,-5.938 -4.187,-9.621 -8.491,-12.221c0.219,2.44 0.196,4.88 -0.475,7.321c-17.329,-8.086 -35.372,-4.903 -53.813,4.588c3.371,2.067 5.863,5.08 6.341,10.263c-19.709,-5.955 -34.078,-0.61 -44.219,13.682c-2.463,11.217 -6.431,17.184 -18.772,17.354c-10.016,10.466 -9.514,13.896 -30.571,13.516c-21.057,0.38 -20.555,-3.05 -30.571,-13.516c-12.341,-0.17 -16.309,-6.137 -18.772,-17.354c-10.141,-14.292 -24.51,-19.637 -44.219,-13.682c0.478,-5.183 2.97,-8.196 6.341,-10.263c-18.441,-9.491 -36.484,-12.674 -53.813,-4.588c-0.671,-2.441 -0.694,-4.881 -0.475,-7.321c-4.304,2.6 -7.525,6.283 -8.491,12.221l-0,-53.366Z" style="fill:#c86934;"/><path id="base_body_11" serif:id="base_body_1" d="M281.219,126.455c-14.29,-3.281 -29.012,0.267 -43.998,7.979c3.371,2.067 5.863,5.08 6.341,10.263c-19.709,-5.955 -34.078,-0.61 -44.219,13.682c-2.463,11.217 -6.431,17.184 -18.772,17.354c-10.016,10.466 -9.514,13.896 -30.571,13.516c-21.057,0.38 -20.555,-3.05 -30.571,-13.516c-12.341,-0.17 -16.309,-6.137 -18.772,-17.354c-10.141,-14.292 -24.51,-19.637 -44.219,-13.682c0.478,-5.183 2.97,-8.196 6.341,-10.263c-13.86,-7.133 -27.495,-10.703 -40.77,-8.604c-5.722,-3.227 -8.49,-9.141 -8.312,-15.263c3.814,3.092 7.925,5.234 13.005,4.272c-5.492,-5.4 -9.221,-12.269 -11.676,-20.2c13.428,9.301 29.873,2.64 41.958,15.738c-2.043,-9.05 -2.293,-17.307 -1.329,-28.003c2.192,4.258 4.611,6.468 8.638,8.638l85.707,24.586l82.312,-1.139c3.676,-2.206 7.21,-5.546 10.632,-9.777c1.063,3.645 0.456,8.125 -1.519,13.289c11.824,-12.323 21.909,-9.898 30.756,-23.332c1.811,6.46 1.164,13.581 -3.607,21.813c5.377,-1.408 10.634,-1.85 15.758,-1.234c-2.012,2.853 -2.958,6.682 -3.113,11.237Z" style="fill:#b64f33;"/><path d="M0,81.38c0,-43.199 21.879,-46.489 24.271,-72.491c12.199,2.906 22.897,9.192 31.537,20.107c2.303,-29.805 40.96,-15.572 57.567,-28.996c5.423,4.608 8.874,9.759 7.843,16.148c6.3,-4.447 12.691,-13.061 22.109,-16.148c3.954,1.339 7.337,3.935 10.179,7.721c0.37,-3.163 1.659,-5.67 3.587,-7.721c7.428,2.77 12.938,10.624 20.358,16.314c-1.008,-6.85 2.922,-11.561 8.593,-15.518c15.897,11.43 50.798,0.999 58.569,25.03c9.031,-8.704 19.503,-14.045 31.203,-16.52c-5.699,13.94 21.146,26.878 23.949,67.921c0.155,1.363 0.235,2.749 0.235,4.153l0,53.366c-0.966,-5.938 -4.187,-9.621 -8.491,-12.221c0.219,2.44 0.196,4.88 -0.475,7.321c-17.329,-8.086 -35.372,-4.903 -53.813,4.588c3.371,2.067 5.863,5.08 6.341,10.263c-19.709,-5.955 -34.078,-0.61 -44.219,13.682c-2.463,11.217 -6.431,17.184 -18.772,17.354c-10.016,10.466 -9.514,13.896 -30.571,13.516c-21.057,0.38 -20.555,-3.05 -30.571,-13.516c-12.341,-0.17 -16.309,-6.137 -18.772,-17.354c-10.141,-14.292 -24.51,-19.637 -44.219,-13.682c0.478,-5.183 2.97,-8.196 6.341,-10.263c-18.441,-9.491 -36.484,-12.674 -53.813,-4.588c-0.671,-2.441 -0.694,-4.881 -0.475,-7.321c-4.304,2.6 -7.525,6.283 -8.491,12.221l-0,-53.366Zm1.5,0c-0,0 -0,45.5 0.001,45.499c1.619,-2.332 3.751,-4.15 6.215,-5.638l2.535,-1.532l-0.266,2.95c-0.151,1.687 -0.185,3.375 0.065,5.062c17.226,-7.307 35.133,-4.03 53.416,5.38l2.369,1.219l-2.272,1.393c-2.476,1.519 -4.417,3.613 -5.254,6.895c19.273,-5.089 33.446,0.633 43.571,14.903l0.177,0.249l0.065,0.298c1.379,6.281 3.162,10.851 6.937,13.495c2.493,1.744 5.829,2.617 10.391,2.68l0.628,0.009l0.435,0.454c4.867,5.086 7.145,8.497 10.798,10.556c3.608,2.033 8.554,2.68 18.689,2.497l0.027,0c10.108,0.183 15.054,-0.464 18.662,-2.497c3.653,-2.059 5.931,-5.47 10.798,-10.556l0.435,-0.454l0.628,-0.009c4.562,-0.063 7.898,-0.936 10.391,-2.68c3.775,-2.644 5.558,-7.214 6.937,-13.495l0.065,-0.298l0.177,-0.249c10.125,-14.27 24.298,-19.992 43.572,-14.902c-0.838,-3.283 -2.779,-5.377 -5.255,-6.896l-2.272,-1.393l2.369,-1.219c18.283,-9.41 36.19,-12.687 53.416,-5.38c0.25,-1.687 0.216,-3.375 0.065,-5.062l-0.266,-2.95l2.535,1.532c2.464,1.488 4.596,3.306 6.216,5.639l-0,-45.5c-0,-1.347 -0.076,-2.676 -0.229,-4.017l-0.002,-0.033c-1.659,-24.285 -11.883,-38.581 -18.559,-49.111c-2.328,-3.673 -4.236,-6.914 -5.279,-9.949c-0.822,-2.391 -1.127,-4.668 -0.748,-6.932c-10.445,2.618 -19.843,7.678 -28.029,15.568l-1.729,1.666l-0.739,-2.285c-3.693,-11.418 -13.938,-14.485 -25.042,-16.219c-7.044,-1.101 -14.456,-1.635 -20.984,-3.124c-4.14,-0.944 -7.932,-2.274 -11.095,-4.318c-4.726,3.476 -7.998,7.568 -7.13,13.47l0.538,3.66l-2.935,-2.251c-3.749,-2.876 -7.019,-6.294 -10.287,-9.347c-2.801,-2.617 -5.588,-4.967 -8.732,-6.364c-1.344,1.674 -2.239,3.67 -2.523,6.102l-0.437,3.727l-2.253,-3.002c-2.531,-3.371 -5.511,-5.743 -8.99,-7.033c-4.304,1.518 -7.935,4.246 -11.229,7.108c-3.603,3.131 -6.818,6.428 -10.004,8.677l-2.915,2.057l0.569,-3.522c0.889,-5.503 -1.961,-9.951 -6.429,-13.974c-3.315,2.367 -7.346,3.842 -11.744,4.838c-6.961,1.576 -14.858,1.953 -22.109,3.066c-6.865,1.053 -13.149,2.73 -17.29,7.027c-2.694,2.796 -4.434,6.711 -4.862,12.247l-0.295,3.817l-2.376,-3.002c-8.022,-10.134 -17.864,-16.17 -29.059,-19.162c-1.252,9.714 -5.203,16.31 -9.613,23.238c-6.704,10.533 -14.46,21.889 -14.46,47.377Z" style="fill:#631a36;"/><g><path d="M242.059,56.907l-11.367,-1.355l-13.871,-15.644c7.473,-9.167 12.548,-23.93 15.985,-38.318c0.176,-0.747 0.766,-1.326 1.515,-1.488c0.75,-0.163 1.527,0.121 1.996,0.727c13.13,17.214 18.766,39.564 5.742,56.078Zm-184.118,0c-13.024,-16.514 -7.388,-38.864 5.742,-56.078c0.469,-0.606 1.246,-0.89 1.996,-0.727c0.749,0.162 1.339,0.741 1.515,1.488c3.437,14.388 8.512,29.151 15.985,38.318l-13.871,15.644l-11.367,1.355Z" style="fill:#8fa18a;"/><path d="M242.059,56.907l-11.367,-1.355l-13.871,-15.644c7.473,-9.167 12.548,-23.93 15.985,-38.318c0.176,-0.747 0.766,-1.326 1.515,-1.488c0.75,-0.163 1.527,0.121 1.996,0.727c13.13,17.214 18.766,39.564 5.742,56.078Zm-7.312,-54.839c-3.346,14.008 -8.261,28.341 -15.325,37.759l12.262,13.829l9.478,1.13c11.569,-15.698 5.901,-36.556 -6.415,-52.718Zm-176.806,54.839c-13.024,-16.514 -7.388,-38.864 5.742,-56.078c0.469,-0.606 1.246,-0.89 1.996,-0.727c0.749,0.162 1.339,0.741 1.515,1.488c3.437,14.388 8.512,29.151 15.985,38.318l-13.871,15.644l-11.367,1.355Zm7.312,-54.839c-12.316,16.162 -17.984,37.02 -6.415,52.718l9.478,-1.13l12.262,-13.829c-7.064,-9.418 -11.979,-23.751 -15.325,-37.759Z" style="fill:#295139;"/></g><g><path id="base_body_12" serif:id="base_body_1" d="M199.343,158.379c-2.463,11.217 -6.431,17.184 -18.772,17.354c-10.016,10.466 -9.514,13.896 -30.571,13.516c-21.057,0.38 -20.555,-3.05 -30.571,-13.516c-12.341,-0.17 -16.309,-6.137 -18.772,-17.354c-2.127,-2.997 -4.439,-5.6 -6.948,-7.789c-7.543,-7.955 -14.96,-14.591 -21.22,-23.201c-11.723,-16.122 -13.748,-36.121 -11.993,-56.707c0.805,-9.449 7.33,-18.625 16.163,-25.682l27.329,-8.187l46.012,-1.101l44.496,1.398l28.845,7.89c8.833,7.057 15.358,16.233 16.163,25.682c1.755,20.586 -0.27,40.585 -11.993,56.707c-6.26,8.61 -13.677,15.246 -21.22,23.201c-2.509,2.189 -4.821,4.792 -6.948,7.789Z" style="fill:#3fa87a;"/><path d="M199.343,158.379c-2.463,11.217 -6.431,17.184 -18.772,17.354c-10.016,10.466 -9.514,13.896 -30.571,13.516c-21.057,0.38 -20.555,-3.05 -30.571,-13.516c-12.341,-0.17 -16.309,-6.137 -18.772,-17.354c-2.127,-2.997 -4.439,-5.6 -6.948,-7.789c-7.543,-7.955 -14.96,-14.591 -21.22,-23.201c-11.723,-16.122 -13.748,-36.121 -11.993,-56.707c0.805,-9.449 7.33,-18.625 16.163,-25.682l27.329,-8.187l46.012,-1.101l44.496,1.398l28.845,7.89c8.833,7.057 15.358,16.233 16.163,25.682c1.755,20.586 -0.27,40.585 -11.993,56.707c-6.26,8.61 -13.677,15.246 -21.22,23.201c-2.509,2.189 -4.821,4.792 -6.948,7.789Zm-1.223,-0.868c2.183,-3.077 4.558,-5.751 7.129,-8.002c7.481,-7.885 14.84,-14.464 21.049,-23.002c11.511,-15.831 13.435,-35.483 11.712,-55.698c-0.767,-8.994 -6.996,-17.689 -15.366,-24.444l-28.373,-7.761l-44.277,-1.392l-45.769,1.096c0,0 -26.855,8.045 -26.856,8.046c-8.376,6.756 -14.611,15.456 -15.379,24.455c-1.723,20.215 0.201,39.867 11.712,55.698c6.208,8.538 13.567,15.116 21.042,22.996c2.575,2.253 4.952,4.929 7.136,8.008c0.117,0.164 0.199,0.35 0.242,0.547c1.379,6.281 3.162,10.851 6.937,13.495c2.493,1.744 5.829,2.617 10.391,2.68c0.402,0.006 0.785,0.172 1.063,0.463c4.867,5.086 7.145,8.497 10.798,10.556c3.608,2.033 8.554,2.68 18.662,2.497c0.018,-0 0.036,-0 0.054,0c10.108,0.183 15.054,-0.464 18.662,-2.497c3.653,-2.059 5.931,-5.47 10.798,-10.556c0.278,-0.291 0.661,-0.457 1.063,-0.463c4.562,-0.063 7.898,-0.936 10.391,-2.68c3.775,-2.644 5.558,-7.214 6.937,-13.495c0.043,-0.197 0.125,-0.383 0.242,-0.547Z" style="fill:#204a31;"/><path id="base_body_13" serif:id="base_body_1" d="M150,189.249c-21.057,0.38 -20.555,-3.05 -30.571,-13.516c-12.341,-0.17 -16.309,-6.137 -18.772,-17.354c-2.127,-2.997 -4.439,-5.6 -6.948,-7.789c-3.901,-4.114 -7.768,-7.876 -11.459,-11.74c16.71,13.39 40.706,19.037 67.75,15.446c27.044,3.591 51.04,-2.056 67.75,-15.446c-3.691,3.864 -7.558,7.626 -11.459,11.74c-2.509,2.189 -4.821,4.792 -6.948,7.789c-2.463,11.217 -6.431,17.184 -18.772,17.354c-10.016,10.466 -9.514,13.896 -30.571,13.516Z" style="fill:#e0d17e;"/><g><circle cx="201.986" cy="87.066" r="24.866" style="fill:#307454;"/><circle cx="201.986" cy="98.012" r="24.866" style="fill:#69b772;"/><circle cx="201.986" cy="91.871" r="24.866" style="fill:#fffefe;"/><path d="M215.852,88.853c0.187,0.978 0.284,1.987 0.284,3.018c0,8.832 -7.17,16.002 -16.001,16.002c-8.832,0 -16.002,-7.17 -16.002,-16.002c-0,-8.831 7.17,-16.001 16.002,-16.001c0.94,-0 1.861,0.081 2.757,0.237c-2.579,1.658 -4.289,4.553 -4.289,7.845c-0,5.144 4.176,9.321 9.321,9.321c3.346,-0 6.284,-1.768 7.928,-4.42Zm-20.036,2.234c-2.383,0 -4.318,1.935 -4.318,4.318c0,2.384 1.935,4.319 4.318,4.319c2.384,-0 4.319,-1.935 4.319,-4.319c-0,-2.383 -1.935,-4.318 -4.319,-4.318Z" style="fill:#ffc100;"/></g><g><circle cx="98.014" cy="87.066" r="24.866" style="fill:#307454;"/><circle cx="98.014" cy="98.012" r="24.866" style="fill:#69b772;"/><circle cx="98.014" cy="91.871" r="24.866" style="fill:#fffefe;"/><path d="M84.148,88.853c-0.187,0.978 -0.284,1.987 -0.284,3.018c-0,8.832 7.17,16.002 16.001,16.002c8.832,0 16.002,-7.17 16.002,-16.002c0,-8.831 -7.17,-16.001 -16.002,-16.001c-0.94,-0 -1.861,0.081 -2.757,0.237c2.579,1.658 4.289,4.553 4.289,7.845c0,5.144 -4.176,9.321 -9.321,9.321c-3.346,-0 -6.284,-1.768 -7.928,-4.42Zm20.036,2.234c2.383,0 4.318,1.935 4.318,4.318c-0,2.384 -1.935,4.319 -4.318,4.319c-2.384,-0 -4.319,-1.935 -4.319,-4.319c0,-2.383 1.935,-4.318 4.319,-4.318Z" style="fill:#ffc100;"/></g><path id="base_body_14" serif:id="base_body_1" d="M150,189.249c-21.057,0.38 -20.555,-3.05 -30.571,-13.516c-12.341,-0.17 -16.309,-6.137 -18.772,-17.354c-1.166,-1.642 -2.387,-3.167 -3.666,-4.57c-1.494,-7.526 -1.628,-14.663 -1.17,-21.633c0.361,-5.498 3.949,-11.692 9.852,-14.235c2.679,-1.154 7.025,-2.493 11.27,-4.253c21.202,-8.79 19.688,-14.182 19.688,-14.182c-0,-0 9.961,-0.725 13.369,-0.687c3.408,-0.038 13.369,0.687 13.369,0.687c0,-0 -1.514,5.392 19.688,14.182c4.245,1.76 8.591,3.099 11.27,4.253c5.903,2.543 9.491,8.737 9.852,14.235c0.458,6.97 0.324,14.107 -1.17,21.633c-1.279,1.403 -2.5,2.928 -3.666,4.57c-2.463,11.217 -6.431,17.184 -18.772,17.354c-10.016,10.466 -9.514,13.896 -30.571,13.516Z" style="fill:#316c52;fill-opacity:0.5;"/><path id="base_body_15" serif:id="base_body_1" d="M180.571,175.733c-10.016,10.466 -9.514,13.896 -30.571,13.516c-21.057,0.38 -20.555,-3.05 -30.571,-13.516l61.142,0Z" style="fill:#e0d17e;"/><path d="M178.631,175.733l1.94,0c-10.016,10.466 -9.514,13.896 -30.571,13.516c-21.057,0.38 -20.555,-3.05 -30.571,-13.516c0,0 1.94,-0 1.94,0c3.357,3.71 6.933,7.823 9.942,9.519c3.608,2.033 8.554,2.68 18.662,2.497c0.018,-0 0.036,-0 0.054,0c10.108,0.183 15.054,-0.464 18.662,-2.497c3.009,-1.696 6.584,-5.809 9.942,-9.519Z" style="fill:#204a31;"/><path d="M150,125.159l-31.76,-9.344c5.742,-3.865 11.345,-8.754 16.66,-15.752c1.304,-1.717 3.752,-2.816 6.995,-2.189c1.814,0.351 4.482,0.387 8.105,0.427c3.623,-0.04 6.291,-0.076 8.105,-0.427c3.243,-0.627 5.691,0.472 6.995,2.189c5.315,6.998 10.918,11.887 16.66,15.752l-31.76,9.344Z" style="fill:#4b9675;"/><path d="M150,125.159l-31.76,-9.344c5.742,-3.865 11.345,-8.754 16.66,-15.752c1.304,-1.717 3.752,-2.816 6.995,-2.189c1.814,0.351 4.482,0.387 8.105,0.427c3.623,-0.04 6.291,-0.076 8.105,-0.427c3.243,-0.627 5.691,0.472 6.995,2.189c5.315,6.998 10.918,11.887 16.66,15.752l-31.76,9.344Zm-0,-1.563c-0,-0 28.354,-8.343 28.354,-8.343c-4.968,-3.651 -9.815,-8.182 -14.448,-14.283c-1.023,-1.346 -2.972,-2.115 -5.516,-1.623c-1.874,0.362 -4.631,0.413 -8.373,0.454c-0.011,0 -0.023,0 -0.034,0c-3.742,-0.041 -6.499,-0.092 -8.373,-0.454c-2.544,-0.492 -4.493,0.277 -5.516,1.623c-4.633,6.101 -9.48,10.632 -14.448,14.283l28.354,8.343Z" style="fill:#204a31;"/><path id="base_body_16" serif:id="base_body_1" d="M150,189.249c-0.108,0.002 -0.215,0.004 -0.322,0.005c-4.788,-0.405 -9.157,-3.885 -13.311,-8.94c-2.137,-2.6 -5.361,-4.37 -9.595,-4.434c-1.987,-0.03 -5.583,-0.123 -7.343,-0.147c-12.341,-0.17 -16.309,-6.137 -18.772,-17.354c-2.571,-9.191 -2.881,-17.737 -2.335,-26.038c0.306,-4.667 3.332,-9.939 8.343,-12.098c6.717,-2.893 16.321,-8.574 24.195,-11.513c2.215,-0.827 5.044,-2.233 8.343,-2.336l21.594,-0c3.299,0.103 6.128,1.509 8.343,2.336c7.874,2.939 17.478,8.62 24.195,11.513c5.011,2.159 8.037,7.431 8.343,12.098c0.546,8.301 0.236,16.847 -2.335,26.038c-2.463,11.217 -6.431,17.184 -18.772,17.354c-1.76,0.024 -5.356,0.117 -7.343,0.147c-4.234,0.064 -7.458,1.834 -9.595,4.434c-4.154,5.055 -8.523,8.535 -13.311,8.94c-0.107,-0.001 -0.214,-0.003 -0.322,-0.005Z" style="fill:#f4e7a1;"/><path id="base_body_17" serif:id="base_body_1" d="M100.657,158.379c-2.571,-9.191 -2.881,-17.737 -2.335,-26.038c0.306,-4.667 3.332,-9.939 8.343,-12.098c6.717,-2.893 16.321,-8.574 24.195,-11.513c2.215,-0.827 5.044,-2.233 8.343,-2.336l21.594,-0c3.299,0.103 6.128,1.509 8.343,2.336c7.874,2.939 17.478,8.62 24.195,11.513c5.011,2.159 8.037,7.431 8.343,12.098c0.546,8.301 0.236,16.847 -2.335,26.038c-3.899,9.078 -22.221,12.044 -29.944,3.478c-3.22,4.592 -6.776,7.692 -19.399,7.692c-12.623,-0 -16.179,-3.1 -19.399,-7.692c-7.723,8.566 -26.045,5.6 -29.944,-3.478Z" style="fill:#3fa87a;"/><path id="base_body_18" serif:id="base_body_1" d="M115.948,115.719c4.935,-2.524 10.23,-5.241 14.912,-6.989c2.215,-0.827 5.044,-2.233 8.343,-2.336l21.594,-0c3.299,0.103 6.128,1.509 8.343,2.336c4.682,1.748 9.977,4.465 14.912,6.989c-13.891,2.843 -22.054,9.92 -21.301,23.586c-8.064,3.4 -12.336,10.765 -12.751,22.161c-0.415,-11.396 -4.687,-18.761 -12.751,-22.161c0.753,-13.666 -7.41,-20.743 -21.301,-23.586Z" style="fill:#6ab873;"/><g><path d="M114.815,128.228c-0.225,0.389 5.525,4.862 8.63,10.622c3.232,5.995 3.838,13.281 4.344,13.378c1.102,0.213 2.483,-2.203 2.934,-4.067c0.598,-2.472 1.09,-5.673 0.974,-8.281c-0.452,-10.143 -3.9,-11.138 -10.973,-13.207c-1.675,-0.49 -4.728,-0.485 -5.909,1.555Z" style="fill:#6ab873;"/><path d="M114.418,131.411c0.399,1.751 2.04,3.32 3.569,4.936c3.354,3.548 5.518,5.317 6.834,12.075c0.989,5.076 4.582,4.706 4.709,1.063c0.092,-2.666 0.04,-5.518 -0.076,-8.126c-0.452,-10.142 -3.938,-12.435 -11.012,-14.504c-2.747,-0.804 -4.808,1.122 -4.024,4.556Z" style="fill:#348a60;"/><path d="M114.418,131.411c-0.784,-3.434 1.277,-5.36 4.024,-4.556c7.074,2.069 10.56,4.362 11.012,14.504c0.116,2.608 0.168,5.46 0.076,8.126c-0.127,3.643 -3.72,4.013 -4.709,-1.063c-1.316,-6.758 -3.48,-8.527 -6.834,-12.075c-1.529,-1.616 -3.17,-3.185 -3.569,-4.936Zm0.956,-0.218c0.366,1.604 1.925,3 3.326,4.48c3.486,3.688 5.716,5.537 7.084,12.561c0.211,1.082 0.543,1.88 0.95,2.41c0.272,0.353 0.552,0.577 0.846,0.601c0.205,0.017 0.385,-0.1 0.531,-0.284c0.266,-0.337 0.416,-0.854 0.439,-1.51c0.091,-2.641 0.039,-5.465 -0.076,-8.048c-0.212,-4.768 -1.081,-7.708 -2.785,-9.683c-1.702,-1.971 -4.202,-2.953 -7.522,-3.924c-0.961,-0.281 -1.814,-0.148 -2.346,0.419c-0.583,0.621 -0.747,1.662 -0.447,2.978Z" style="fill:#2d7b53;"/></g><g><path d="M184.904,128.228c0.225,0.389 -5.525,4.862 -8.63,10.622c-3.232,5.995 -3.838,13.281 -4.344,13.378c-1.102,0.213 -2.483,-2.203 -2.934,-4.067c-0.598,-2.472 -1.09,-5.673 -0.974,-8.281c0.452,-10.143 3.9,-11.138 10.973,-13.207c1.675,-0.49 4.728,-0.485 5.909,1.555Z" style="fill:#6ab873;"/><path d="M185.302,131.411c-0.4,1.751 -2.041,3.32 -3.57,4.936c-3.354,3.548 -5.518,5.317 -6.834,12.075c-0.989,5.076 -4.582,4.706 -4.709,1.063c-0.092,-2.666 -0.04,-5.518 0.076,-8.126c0.452,-10.142 3.938,-12.435 11.012,-14.504c2.747,-0.804 4.808,1.122 4.025,4.556Z" style="fill:#348a60;"/><path d="M185.302,131.411c0.783,-3.434 -1.278,-5.36 -4.025,-4.556c-7.074,2.069 -10.56,4.362 -11.012,14.504c-0.116,2.608 -0.168,5.46 -0.076,8.126c0.127,3.643 3.72,4.013 4.709,-1.063c1.316,-6.758 3.48,-8.527 6.834,-12.075c1.529,-1.616 3.17,-3.185 3.57,-4.936Zm-0.957,-0.218c-0.366,1.604 -1.925,3 -3.325,4.48c-3.487,3.688 -5.717,5.537 -7.085,12.561c-0.211,1.082 -0.543,1.88 -0.95,2.41c-0.272,0.353 -0.552,0.577 -0.846,0.601c-0.205,0.017 -0.385,-0.1 -0.531,-0.284c-0.266,-0.337 -0.416,-0.854 -0.438,-1.51c-0.092,-2.641 -0.04,-5.465 0.075,-8.048c0.213,-4.768 1.081,-7.708 2.785,-9.683c1.702,-1.971 4.202,-2.953 7.522,-3.924c0.961,-0.281 1.814,-0.148 2.346,0.419c0.583,0.621 0.747,1.662 0.447,2.978Z" style="fill:#2d7b53;"/></g><path d="M150,189.249c-0.108,0.002 -0.215,0.004 -0.322,0.005c-4.788,-0.405 -9.157,-3.885 -13.311,-8.94c-2.137,-2.6 -5.361,-4.37 -9.595,-4.434c-1.987,-0.03 -5.583,-0.123 -7.343,-0.147c-12.341,-0.17 -16.309,-6.137 -18.772,-17.354c-2.571,-9.191 -2.881,-17.737 -2.335,-26.038c0.306,-4.667 3.332,-9.939 8.343,-12.098c6.717,-2.893 16.321,-8.574 24.195,-11.513c2.215,-0.827 5.044,-2.233 8.343,-2.336l21.594,-0c3.299,0.103 6.128,1.509 8.343,2.336c7.874,2.939 17.478,8.62 24.195,11.513c5.011,2.159 8.037,7.431 8.343,12.098c0.546,8.301 0.236,16.847 -2.335,26.038c-2.463,11.217 -6.431,17.184 -18.772,17.354c-1.76,0.024 -5.356,0.117 -7.343,0.147c-4.234,0.064 -7.458,1.834 -9.595,4.434c-4.154,5.055 -8.523,8.535 -13.311,8.94c-0.107,-0.001 -0.214,-0.003 -0.322,-0.005Zm0.027,-1.5c0.081,0.002 0.161,0.003 0.246,0.004c4.411,-0.408 8.37,-3.729 12.202,-8.392c2.391,-2.909 5.991,-4.909 10.73,-4.981c1.988,-0.03 5.584,-0.123 7.345,-0.147c4.562,-0.063 7.898,-0.936 10.391,-2.68c3.775,-2.644 5.558,-7.214 6.937,-13.495c0.006,-0.028 0.013,-0.055 0.02,-0.083c2.522,-9.014 2.818,-17.395 2.283,-25.536c-0.274,-4.17 -2.962,-8.89 -7.439,-10.818c-6.698,-2.885 -16.274,-8.555 -24.127,-11.486c-2.086,-0.779 -4.739,-2.138 -7.844,-2.241c0,-0 -21.542,-0 -21.566,0c-3.095,0.11 -5.74,1.464 -7.82,2.241c-7.853,2.931 -17.429,8.601 -24.127,11.486c-4.477,1.928 -7.165,6.648 -7.439,10.818c-0.535,8.141 -0.239,16.522 2.283,25.536c0.007,0.028 0.014,0.055 0.02,0.083c1.379,6.281 3.162,10.851 6.937,13.495c2.493,1.744 5.829,2.617 10.391,2.68c1.761,0.024 5.357,0.117 7.345,0.147c4.739,0.072 8.339,2.072 10.73,4.981c3.833,4.664 7.793,7.986 12.207,8.392c0.08,-0.001 0.16,-0.002 0.241,-0.004c0.018,-0 0.036,-0 0.054,0Z" style="fill:#204a31;"/></g><path d="M202.441,32.295l9.777,2.933c-0.219,-5.121 0.755,-10.264 4.152,-13.995c1.259,13.043 12.162,16.615 17.52,31.183c1.991,-2.624 4.337,-5.07 6.884,-7.416c3.283,5.346 5.754,11.039 7.091,17.219l-7.809,31.012c-0.558,-5.628 -2.34,-9.576 -2.448,-15.852c-0.588,1.739 -2.242,3.403 -4.088,6.508c-2.453,-6.633 -4.917,-12.808 -4.422,-20.775c-5.028,-6.051 -10.351,-11.219 -16.269,-14.6c-0.788,2.184 -2.381,4.935 -4.505,6.674c-3.732,-5.284 -7.976,-9.928 -12.598,-14.1c-3.544,8.527 -7.798,16.534 -14.684,22.61l-3.588,-5.006c-1.381,6.328 -5.742,9.647 -9.01,16.77c-2.417,-2.978 -3.73,-6.728 -3.922,-11.263c-5.673,8.392 -10.852,17.995 -14.522,31.286c-3.67,-13.291 -8.849,-22.894 -14.522,-31.286c-0.192,4.535 -1.505,8.285 -3.922,11.263c-3.268,-7.123 -7.629,-10.442 -9.01,-16.77l-3.588,5.006c-6.886,-6.076 -11.14,-14.083 -14.684,-22.61c-4.622,4.172 -8.866,8.816 -12.598,14.1c-2.124,-1.739 -3.717,-4.49 -4.505,-6.674c-5.918,3.381 -11.241,8.549 -16.269,14.6c0.495,7.967 -1.969,14.142 -4.422,20.775c-1.846,-3.105 -3.5,-4.769 -4.088,-6.508c-0.108,6.276 -1.89,10.224 -2.448,15.852l-7.809,-31.012c1.337,-6.18 3.808,-11.873 7.091,-17.219c2.547,2.346 4.893,4.792 6.884,7.416c5.358,-14.568 16.261,-18.14 17.52,-31.183c3.397,3.731 4.371,8.874 4.152,13.995l9.777,-2.933l104.882,-0Z" style="fill:#c86934;"/><path d="M87.782,35.228c-0.066,1.535 -0.775,3.142 -1.521,4.985c0.304,-2.029 0.446,-3.246 0.522,-5.028c0.174,-4.069 -0.416,-8.162 -2.508,-11.461c-1.08,5.422 -3.872,9.222 -7.094,13.162c-3.492,4.269 -7.5,8.717 -10.133,15.875l-0.631,1.715l-1.104,-1.456c-1.72,-2.267 -3.71,-4.397 -5.867,-6.445c-2.871,4.876 -7.311,15.644 -7.311,15.644c1.337,-6.18 3.808,-11.873 7.091,-17.219c2.547,2.346 4.893,4.792 6.884,7.416c5.358,-14.568 16.261,-18.14 17.52,-31.183c3.397,3.731 4.371,8.874 4.152,13.995Zm125.648,3.527c-0.567,-0.621 -1.183,-2.849 -1.212,-3.527c-0.219,-5.121 0.755,-10.264 4.152,-13.995c1.259,13.043 12.162,16.615 17.52,31.183c1.991,-2.624 4.337,-5.07 6.884,-7.416c3.283,5.346 5.754,11.039 7.091,17.219c0.308,1.6 0.32,4.13 0.394,5.788c0.058,0.096 -0.995,-4.183 -1.421,-5.805c-1.452,-5.525 -3.413,-10.751 -6.284,-15.627c-2.157,2.048 -4.147,4.178 -5.867,6.445l-1.104,1.456l-0.631,-1.715c-2.633,-7.158 -6.641,-11.606 -10.133,-15.875c-3.222,-3.94 -6.014,-7.74 -7.094,-13.163c-2.092,3.3 -2.682,7.393 -2.508,11.462c0.06,1.404 -0.072,2.548 0.213,3.57Zm28.864,41.494l-2.238,12.982c-0.558,-5.628 -2.34,-9.576 -2.448,-15.852c-0.588,1.739 -2.242,3.403 -4.088,6.508c-2.453,-6.633 -4.917,-12.808 -4.422,-20.775c-5.028,-6.051 -10.351,-11.219 -16.269,-14.6c-0.788,2.184 -2.381,4.935 -4.505,6.674c-3.732,-5.284 -7.976,-9.928 -12.598,-14.1c-3.544,8.527 -7.798,16.534 -14.684,22.61l-3.588,-5.006c-1.381,6.328 -5.742,9.647 -9.01,16.77c-2.417,-2.978 -3.73,-6.728 -3.922,-11.263c-5.673,8.392 -10.852,17.995 -14.522,31.286c-3.67,-13.291 -8.849,-22.894 -14.522,-31.286c-0.192,4.535 -1.505,8.285 -3.922,11.263c-3.268,-7.123 -7.629,-10.442 -9.01,-16.77l-3.588,5.006c-6.886,-6.076 -11.14,-14.083 -14.684,-22.61c-4.622,4.172 -8.866,8.816 -12.598,14.1c-2.124,-1.739 -3.717,-4.49 -4.505,-6.674c-5.918,3.381 -11.241,8.549 -16.269,14.6c0.495,7.967 -1.969,14.142 -4.422,20.775c-1.846,-3.105 -3.5,-4.769 -4.088,-6.508c-0.108,6.276 -1.89,10.224 -2.448,15.852l-2.034,-8.077c0,0 1.821,3.137 1.821,3.137c0.716,-3.414 1.587,-6.62 1.661,-10.929l0.099,-5.766l1.848,5.462c0.453,1.338 1.568,2.621 2.903,4.594c2.153,-5.81 4.1,-11.425 3.662,-18.478l-0.025,-0.396l0.253,-0.305c5.111,-6.15 10.528,-11.393 16.543,-14.83l1.033,-0.59l0.403,1.119c0.635,1.759 1.821,3.916 3.407,5.518c3.614,-4.968 7.68,-9.369 12.086,-13.346l1.051,-0.948l0.543,1.306c3.341,8.041 7.31,15.621 13.601,21.499l4.244,-5.921l0.48,2.197c0.662,3.033 2.05,5.338 3.653,7.746c1.451,2.18 3.074,4.435 4.551,7.305c1.683,-2.59 2.597,-5.714 2.751,-9.373l0.128,-3.032l1.7,2.514c5.247,7.76 10.073,16.546 13.694,28.28c3.621,-11.734 8.448,-20.52 13.694,-28.28l1.7,-2.514l0.128,3.032c0.154,3.659 1.068,6.783 2.751,9.372c1.477,-2.869 3.1,-5.124 4.551,-7.304c1.603,-2.408 2.991,-4.713 3.653,-7.746l0.48,-2.197c-0,-0 4.244,5.921 4.244,5.921c6.291,-5.878 10.26,-13.458 13.601,-21.499l0.543,-1.306l1.051,0.948c4.406,3.977 8.472,8.378 12.086,13.346c1.586,-1.602 2.772,-3.759 3.407,-5.518l0.403,-1.119l1.033,0.59c6.015,3.437 11.432,8.68 16.543,14.83l0.253,0.305l-0.025,0.396c-0.438,7.052 1.509,12.668 3.662,18.478c1.335,-1.973 2.45,-3.256 2.903,-4.594l1.848,-5.462l0.099,5.766c0.074,4.309 0.945,7.515 1.661,10.93c-0,-0 0.895,-3.556 2.025,-8.043Z" style="fill:#631a36;"/><path d="M40.889,83.566c-15.81,-8.542 -13.933,-17.329 -12.53,-36.224c1.326,6.296 4.011,7.679 6.227,12.986c-1.297,-10.893 2.147,-14.309 1.063,-25.44c5.095,13.129 9.944,22.985 15.796,36.679c-5.256,-0.322 -8.629,-3.279 -11.847,-6.455c-0.49,5.507 -0.244,11.529 1.291,18.454Zm109.111,-8.43c-4.676,-9.218 -12.238,-14.084 -16.311,-20.428c-0.624,2.625 -1.629,4.945 -3.266,6.759c-5.699,-7.17 -7.053,-17.275 -10.631,-24.529c4.957,1.88 8.813,5.461 11.543,10.784c0.195,-3.292 1.171,-5.569 2.582,-7.442c3.453,9.219 13.253,11.473 16.083,34.856Zm3.585,-9.112c-0.219,-14.239 -2.424,-22.387 4.66,-36.251c1.29,-2.525 2.61,-5.322 3.162,-9.542c3.684,5.016 6.393,11.31 6.835,20.58c1.964,-4.892 4.997,-8.448 8.581,-11.315c0.097,3.009 0.383,5.876 1.291,8.278c4.545,-3.466 8.72,-7.673 12.454,-12.759c-1.056,11.408 -3.8,22.309 -10.935,31.892c-0.158,-2.838 -0.576,-5.284 -1.139,-7.515c-2.586,4.807 -5.666,9.218 -9.265,13.214c-0.419,-3.66 -1.277,-6.769 -2.506,-9.416c-2.134,4.016 -8.574,7.956 -13.138,12.834Zm-10.631,-30.377c-9.984,-11.406 -4.579,-15.577 -1.899,-25.364c1.313,1.755 2.155,4.319 2.05,8.505c0.61,-1.859 1.871,-2.899 2.506,-5.24c2.228,13.521 -1.771,13.596 -2.657,22.099Zm112.24,46.727c8.495,-10.228 10.063,-24.195 8.43,-39.892c4.478,5.198 7.648,11.407 7.67,20.048c1.402,-0.577 2.47,-1.713 3.265,-3.303c3.931,8.337 2.879,16.025 -2.506,23.147c0.098,-4.333 -0.426,-8.044 -1.747,-10.959c-4.456,6.675 -9.642,9.552 -15.112,10.959Zm21.051,28.573c6.595,-5.824 12.415,-13.49 17.39,-23.162c-0.293,16.132 -6.364,23.434 -17.39,23.162Zm-260.933,-5.24c-1.898,-0.575 -3.57,-1.753 -4.86,-3.949l-0.076,2.431c-3.56,-2.805 -5.048,-6.334 -4.557,-10.556c3.388,1.791 7.27,8.283 9.493,12.074Z" style="fill:#e3944a;"/><g><path d="M201.903,139.585c7.079,2.141 16.142,4.542 23.619,5.203c14.228,1.258 18.682,-3.537 21.305,-9.088c5.101,-10.795 0.834,-25.941 0.318,-30.846c-1.319,-12.533 6.308,-20.082 19.042,-20.275c0.082,-0.002 10.287,0.419 16.587,-5.457c7.193,-6.708 2.018,-14.899 1.266,-16.375c-7.653,-15.036 -10.352,-22.584 -0.181,-33.267c4.631,-4.863 8.738,-8.155 9.028,-15.88c0.005,-0.122 -0.056,-0.265 0.011,-0.368c0.287,-0.439 0.433,-0.31 0.721,-0.751c0.2,0.286 0.554,0.44 0.754,0.725c-0,0.001 0.061,0.907 0.043,1.884c-0.217,11.64 -10.396,15.665 -12.537,24.336c-1.49,6.035 2.399,12.237 8.305,21.782c9.487,15.333 -2.334,31.003 -22.774,33.015c-5.016,0.494 -8.4,1.77 -8.891,5.323c-0.524,3.789 1.788,7.605 3.4,17.541c0.713,4.389 3.146,19.595 -5.605,32.013c-12.228,17.352 -38.033,14.063 -57.354,10.068c0.14,-0.258 0.268,-0.521 0.383,-0.789c1.83,-6.543 2.514,-12.76 2.56,-18.794Z" style="fill:#3fa87a;"/><path d="M201.903,139.585c7.079,2.141 16.142,4.542 23.619,5.203c14.228,1.258 18.682,-3.537 21.305,-9.088c5.101,-10.795 0.834,-25.941 0.318,-30.846c-1.319,-12.533 6.308,-20.082 19.042,-20.275c0.082,-0.002 10.287,0.419 16.587,-5.457c7.193,-6.708 2.018,-14.899 1.266,-16.375c-7.653,-15.036 -10.352,-22.584 -0.181,-33.267c4.631,-4.863 8.738,-8.155 9.028,-15.88c0.005,-0.122 -0.056,-0.265 0.011,-0.368c0.287,-0.439 0.433,-0.31 0.721,-0.751c0.2,0.286 0.554,0.44 0.754,0.725c-0,0.001 0.061,0.907 0.043,1.884c-0.217,11.64 -10.396,15.665 -12.537,24.336c-1.49,6.035 2.399,12.237 8.305,21.782c9.487,15.333 -2.334,31.003 -22.774,33.015c-5.016,0.494 -8.4,1.77 -8.891,5.323c-0.524,3.789 1.788,7.605 3.4,17.541c0.713,4.389 3.146,19.595 -5.605,32.013c-12.228,17.352 -38.033,14.063 -57.354,10.068c0.14,-0.258 0.268,-0.521 0.383,-0.789c0.059,-0.209 0.116,-0.419 0.172,-0.628c8.75,1.804 18.816,3.447 28.31,3.039c10.846,-0.467 20.957,-3.606 27.263,-12.554c8.446,-11.985 6.038,-26.673 5.351,-30.909c-0.959,-5.905 -2.169,-9.628 -2.87,-12.473c-0.525,-2.131 -0.769,-3.826 -0.536,-5.514c0.578,-4.176 4.335,-6.029 10.23,-6.61c11.617,-1.144 20.362,-6.835 23.504,-14.43c2.041,-4.934 1.644,-10.641 -1.859,-16.303c-2.998,-4.845 -5.478,-8.845 -7.025,-12.397c-1.676,-3.845 -2.279,-7.216 -1.46,-10.534c0.977,-3.958 3.507,-7.02 6.111,-10.199c-0.519,0.535 -1.049,1.082 -1.588,1.648c-3.786,3.975 -5.706,7.457 -6.131,11.132c-0.658,5.697 2.147,11.745 6.562,20.42c0.834,1.637 6.4,10.71 -1.58,18.152c-6.689,6.238 -17.5,5.858 -17.587,5.859c-5.902,0.09 -10.641,1.825 -13.731,5.049c-3.06,3.193 -4.448,7.818 -3.842,13.57c0.312,2.964 1.976,9.642 2.154,16.858c0.123,5.007 -0.469,10.259 -2.608,14.786c-1.441,3.05 -3.408,5.87 -6.945,7.777c-3.403,1.834 -8.33,2.829 -15.848,2.164c-7.435,-0.657 -16.434,-3.023 -23.513,-5.153c0.014,-0.516 0.022,-1.03 0.026,-1.544Zm92.461,-126.275l0.003,0c-0.002,-0.019 -0.004,-0.038 -0.006,-0.057l0.003,0.057Z" style="fill:#204a31;"/><path d="M203.892,160.136c-1.681,-0.31 -3.329,-0.637 -4.932,-0.968c0.14,-0.258 0.268,-0.521 0.383,-0.789c1.83,-6.543 2.514,-12.76 2.56,-18.794c1.513,0.458 3.116,0.927 4.776,1.389c2.455,3.588 1.144,16.673 -2.787,19.162Z" style="fill:#316c52;fill-opacity:0.5;"/></g><g><path d="M98.097,139.585c-7.079,2.141 -16.142,4.542 -23.619,5.203c-14.228,1.258 -18.682,-3.537 -21.305,-9.088c-5.101,-10.795 -0.834,-25.941 -0.318,-30.846c1.319,-12.533 -6.308,-20.082 -19.042,-20.275c-0.082,-0.002 -10.287,0.419 -16.587,-5.457c-7.193,-6.708 -2.018,-14.899 -1.266,-16.375c7.653,-15.036 10.352,-22.584 0.181,-33.267c-4.631,-4.863 -8.738,-8.155 -9.028,-15.88c-0.005,-0.122 0.056,-0.265 -0.011,-0.368c-0.287,-0.439 -0.433,-0.31 -0.721,-0.751c-0.2,0.286 -0.554,0.44 -0.754,0.725c0,0.001 -0.061,0.907 -0.043,1.884c0.217,11.64 10.396,15.665 12.537,24.336c1.49,6.035 -2.399,12.237 -8.305,21.782c-9.487,15.333 2.334,31.003 22.774,33.015c5.016,0.494 8.4,1.77 8.891,5.323c0.524,3.789 -1.788,7.605 -3.4,17.541c-0.713,4.389 -3.146,19.595 5.605,32.013c12.228,17.352 38.033,14.063 57.354,10.068c-0.14,-0.258 -0.268,-0.521 -0.383,-0.789c-1.83,-6.543 -2.514,-12.76 -2.56,-18.794Z" style="fill:#3fa87a;"/><path d="M98.097,139.585c-7.079,2.141 -16.142,4.542 -23.619,5.203c-14.228,1.258 -18.682,-3.537 -21.305,-9.088c-5.101,-10.795 -0.834,-25.941 -0.318,-30.846c1.319,-12.533 -6.308,-20.082 -19.042,-20.275c-0.082,-0.002 -10.287,0.419 -16.587,-5.457c-7.193,-6.708 -2.018,-14.899 -1.266,-16.375c7.653,-15.036 10.352,-22.584 0.181,-33.267c-4.631,-4.863 -8.738,-8.155 -9.028,-15.88c-0.005,-0.122 0.056,-0.265 -0.011,-0.368c-0.287,-0.439 -0.433,-0.31 -0.721,-0.751c-0.2,0.286 -0.554,0.44 -0.754,0.725c0,0.001 -0.061,0.907 -0.043,1.884c0.217,11.64 10.396,15.665 12.537,24.336c1.49,6.035 -2.399,12.237 -8.305,21.782c-9.487,15.333 2.334,31.003 22.774,33.015c5.016,0.494 8.4,1.77 8.891,5.323c0.524,3.789 -1.788,7.605 -3.4,17.541c-0.713,4.389 -3.146,19.595 5.605,32.013c12.228,17.352 38.033,14.063 57.354,10.068c-0.14,-0.258 -0.268,-0.521 -0.383,-0.789c-0.059,-0.209 -0.116,-0.419 -0.172,-0.628c-8.75,1.804 -18.816,3.447 -28.31,3.039c-10.846,-0.467 -20.957,-3.606 -27.263,-12.554c-8.446,-11.985 -6.038,-26.673 -5.351,-30.909c0.959,-5.905 2.169,-9.628 2.87,-12.473c0.525,-2.131 0.769,-3.826 0.536,-5.514c-0.578,-4.176 -4.335,-6.029 -10.23,-6.61c-11.617,-1.144 -20.362,-6.835 -23.504,-14.43c-2.041,-4.934 -1.644,-10.641 1.859,-16.303c2.998,-4.845 5.478,-8.845 7.025,-12.397c1.676,-3.845 2.279,-7.216 1.46,-10.534c-0.977,-3.958 -3.507,-7.02 -6.111,-10.199c0.519,0.535 1.049,1.082 1.588,1.648c3.786,3.975 5.706,7.457 6.131,11.132c0.658,5.697 -2.147,11.745 -6.562,20.42c-0.834,1.637 -6.4,10.71 1.58,18.152c6.689,6.238 17.5,5.858 17.587,5.859c5.902,0.09 10.641,1.825 13.731,5.049c3.06,3.193 4.448,7.818 3.842,13.57c-0.312,2.964 -1.976,9.642 -2.154,16.858c-0.123,5.007 0.469,10.259 2.608,14.786c1.441,3.05 3.408,5.87 6.945,7.777c3.403,1.834 8.33,2.829 15.848,2.164c7.435,-0.657 16.434,-3.023 23.513,-5.153c-0.014,-0.516 -0.022,-1.03 -0.026,-1.544Zm-92.461,-126.275l-0.003,0c0.002,-0.019 0.004,-0.038 0.006,-0.057l-0.003,0.057Z" style="fill:#204a31;"/><path d="M96.108,160.136c1.681,-0.31 3.329,-0.637 4.932,-0.968c-0.14,-0.258 -0.268,-0.521 -0.383,-0.789c-1.83,-6.543 -2.514,-12.76 -2.56,-18.794c-1.513,0.458 -3.116,0.927 -4.776,1.389c-2.455,3.588 -1.144,16.673 2.787,19.162Z" style="fill:#316c52;fill-opacity:0.5;"/></g></g></g></svg>