<?xml version="1.0" encoding="UTF-8" standalone="no"?><!DOCTYPE svg PUBLIC "-//W3C//DTD SVG 1.1//EN" "http://www.w3.org/Graphics/SVG/1.1/DTD/svg11.dtd"><svg width="100%" height="100%" viewBox="0 0 300 345" version="1.1" xmlns="http://www.w3.org/2000/svg" xmlns:xlink="http://www.w3.org/1999/xlink" xml:space="preserve" xmlns:serif="http://www.serif.com/" style="fill-rule:evenodd;clip-rule:evenodd;stroke-linejoin:round;stroke-miterlimit:2;"><g id="Fish"><g id="Fish-Head" serif:id="Fish Head"><path d="M36.38,41.35c16.686,0 25.576,-2.949 38.472,-8.557c14.448,-5.277 30.904,-7.907 48.252,-8.702l53.792,0c17.348,0.795 33.804,3.425 48.252,8.702c12.896,5.608 21.786,8.557 38.472,8.557c20.079,0 36.38,13.346 36.38,40.03l0,184.073c0,20.078 -16.301,36.38 -36.38,36.38l-102.252,-0c-1.653,3.263 -6.547,4.86 -11.368,4.878c-8.778,0.035 -22.973,-4.878 -39.259,-4.878l-74.361,-0c-20.079,-0 -36.38,-16.302 -36.38,-36.38l0,-184.073c0,-27.445 16.301,-40.03 36.38,-40.03Zm249.334,173.443c-0.98,-5.33 -2.238,-10.352 -3.126,-14.673c-1.422,-6.92 -2.455,-13.23 -2.867,-22.347c-1.251,-27.644 -4.581,-52.731 -29.467,-55.571c-10.947,-1.249 -20.932,1.915 -28.972,7.119c-19.903,12.884 -47.573,22.051 -71.282,22.051c-23.709,-0 -51.379,-9.167 -71.282,-22.051c-8.04,-5.204 -18.025,-8.368 -28.972,-7.119c-24.886,2.84 -28.216,27.927 -29.467,55.571c-0.412,9.117 -1.445,15.427 -2.867,22.347c-0.964,4.69 -2.364,10.205 -3.371,16.044c-0.135,34.388 14.061,54.564 43.477,63.283c26.651,3.762 60.796,6.334 79.342,4.129c4.7,-0.559 9.206,-0.971 13.14,-0.956c6.819,0.027 11.924,1.34 13.36,5.405c0,0 48.186,-4.352 78.97,-8.602c29.751,-8.847 43.904,-29.438 43.384,-64.63Z" style="fill:#932a00;"/><path d="M0,262.01l0,-180.63c0,-20.079 16.301,-36.38 36.38,-36.38c16.686,0 25.576,-2.949 38.472,-8.557c14.448,-5.277 30.904,-7.908 48.252,-8.702l53.792,0c17.348,0.794 33.804,3.425 48.252,8.702c12.896,5.608 21.786,8.557 38.472,8.557c20.079,0 36.38,16.301 36.38,36.38l0,180.63c0,20.079 -16.301,36.38 -36.38,36.38l-102.252,0c-1.653,3.263 -6.547,4.86 -11.368,4.879c-8.778,0.034 -22.973,-4.879 -39.259,-4.879l-74.361,0c-20.079,0 -36.38,-16.301 -36.38,-36.38Zm287.213,-32.934c-0.023,-10.395 -2.968,-20.894 -4.625,-28.956c-1.422,-6.92 -2.455,-13.23 -2.867,-22.347c-1.636,-36.156 -1.541,-58.317 -29.973,-61.562c-10.947,-1.249 -20.933,1.916 -28.972,7.12c-19.904,12.883 -47.067,23.063 -70.776,23.063c-23.709,-0 -50.872,-10.18 -70.776,-23.063c-8.039,-5.204 -18.025,-8.369 -28.972,-7.12c-28.432,3.245 -28.337,25.406 -29.973,61.562c-0.412,9.117 -1.445,15.427 -2.867,22.347c-1.657,8.062 -4.602,18.561 -4.625,28.956c-0.003,1.46 0.051,2.918 0.175,4.367c0.334,3.9 0.838,7.471 1.497,10.74c4.591,22.797 16.659,30.907 30.244,33.262c27.42,4.753 70.462,8.71 92.157,6.131c4.7,-0.559 9.206,-0.971 13.14,-0.956c6.819,0.027 11.924,1.34 13.36,5.405c0,0 64.517,-5.827 91.937,-10.58c13.585,-2.355 25.653,-10.465 30.244,-33.262c0.659,-3.269 1.163,-6.84 1.497,-10.74c0.124,-1.449 0.178,-2.907 0.175,-4.367Z" style="fill:#fe6c18;"/><path d="M254.196,86.421c-6.762,-2.73 -6.697,-3.405 -14.278,-3.22c-3.39,0.083 -3.614,0.087 -5.882,-2.464c-3.018,-3.394 -1.492,-7.319 -8.667,-17.772c-5.774,-8.411 -8.634,-8.821 -8.39,-16.468c0.167,-5.219 7.531,-2.82 14.473,1.802c7.26,4.833 18.98,19.987 29.748,25.325c0.213,0.105 15.502,6.572 17.296,13.105c0.141,0.515 1.352,2.788 -3.18,3.832c-12.393,2.856 -16.397,-2.233 -21.12,-4.14Z" style="fill:#f9852c;"/><path d="M76.41,42.13c21.619,-8.577 22.918,-3.443 22.427,-1.711c-1.079,3.809 -18.201,6.277 -25.575,22.799c-4.533,10.156 4.825,21.917 -6.597,21.554c-5.313,-0.169 -9.462,-4.045 -19.863,-2.104c-2.966,0.553 -8.433,-0.414 -22.439,10.417c-0.512,0.396 -7.365,5.695 -8.081,0.421c-1.261,-9.285 25.592,-21.571 34.262,-29.376c6.083,-5.475 12.265,-16.604 25.866,-22Z" style="fill:#f9852c;"/><path d="M173.449,108.185c-3.815,-2.872 -8.622,-3.684 -5.307,-7.524c1.937,-2.244 3.606,0.006 8.741,5.709c1.834,2.037 0.942,5.108 -3.434,1.815Z" style="fill:#f9852c;"/><path d="M130.383,101.468c9.222,-4.794 22.139,-5.121 23.206,-4.196c2.736,2.373 -0.945,6.328 -3.383,6.831c-0.972,0.201 -20.901,1.197 -20.909,1.195c-2.681,-0.698 -1.239,-2.622 1.086,-3.83Z" style="fill:#f9852c;"/><path d="M153.662,57.108c0.007,0.072 0.014,0.145 0.021,0.217c0.041,0.412 -0.26,0.78 -0.672,0.821c-0.017,0.001 -0.034,0.002 -0.051,0.003c0.128,-0.166 0.252,-0.34 0.371,-0.525c0.108,-0.168 0.219,-0.34 0.331,-0.516Zm-3.46,3.113c0.501,7.685 0.135,16.807 -1.812,24.558c-0.913,0.082 -1.798,0.176 -2.658,0.283c2.085,-7.646 2.487,-16.841 1.989,-24.557c0.798,0.105 1.65,0.019 2.481,-0.284Zm11.718,31.339c0.137,0.469 0.267,0.936 0.39,1.401c0.105,0.401 -0.135,0.811 -0.535,0.917c-0.4,0.105 -0.811,-0.135 -0.916,-0.535c-0.128,-0.487 -0.265,-0.977 -0.411,-1.469c-0.054,-0.185 -0.034,-0.374 0.043,-0.535c0.484,0.067 0.96,0.14 1.429,0.221Zm-3.843,-0.496c4.317,14.318 1.599,26.717 -7.722,37.314c-0.607,0.002 -1.045,-0.012 -1.271,-0.021c-0.7,-0.025 -1.368,-0.062 -2.007,-0.107c10.036,-10.477 12.963,-22.892 8.322,-37.372c0.921,0.047 1.813,0.108 2.678,0.186Zm-5.13,37.21c-0.286,-0.278 -0.305,-0.734 -0.038,-1.035c0.34,-0.383 0.671,-0.768 0.992,-1.156c0.264,-0.319 0.738,-0.363 1.056,-0.098c0.319,0.264 0.363,0.737 0.099,1.056c-0.315,0.379 -0.637,0.755 -0.969,1.13c-0.396,0.042 -0.777,0.076 -1.14,0.103Zm-4.214,5.657c0.835,4.502 0.632,9.33 -0.634,14.487c-0.165,0.67 -0.842,1.081 -1.512,0.916c-0.67,-0.164 -1.081,-0.842 -0.916,-1.512c1.215,-4.949 1.389,-9.57 0.52,-13.867c0.845,0.031 1.693,0.023 2.542,-0.024Zm3.723,-73.124c-0.025,-0.413 0.29,-0.769 0.703,-0.794c0.413,-0.025 0.769,0.29 0.794,0.703c0.034,0.559 0.063,1.125 0.087,1.698c0.018,0.413 -0.304,0.763 -0.717,0.781c-0.414,0.018 -0.764,-0.304 -0.781,-0.717c-0.024,-0.564 -0.053,-1.121 -0.086,-1.671Zm0.169,5.016c-0.003,-0.414 0.33,-0.753 0.744,-0.756c0.414,-0.003 0.753,0.331 0.756,0.745c0.004,0.563 0.003,1.13 -0.003,1.7c-0.005,0.414 -0.344,0.746 -0.758,0.742c-0.414,-0.005 -0.747,-0.344 -0.742,-0.758c0.006,-0.561 0.007,-1.119 0.003,-1.673Zm-0.099,5.017c0.019,-0.414 0.371,-0.734 0.784,-0.714c0.414,0.02 0.733,0.371 0.714,0.785c-0.027,0.565 -0.059,1.131 -0.097,1.698c-0.027,0.413 -0.385,0.726 -0.798,0.698c-0.413,-0.027 -0.726,-0.385 -0.699,-0.798c0.038,-0.557 0.069,-1.113 0.096,-1.669Zm-0.386,4.998c0.045,-0.412 0.415,-0.709 0.827,-0.665c0.411,0.045 0.709,0.415 0.665,0.827c-0.062,0.566 -0.129,1.13 -0.203,1.691c-0.054,0.411 -0.431,0.7 -0.842,0.646c-0.41,-0.054 -0.699,-0.431 -0.645,-0.841c0.072,-0.551 0.138,-1.104 0.198,-1.658Zm-0.714,4.952c0.074,-0.407 0.465,-0.677 0.873,-0.602c0.407,0.074 0.677,0.465 0.602,0.873c-0.103,0.563 -0.214,1.122 -0.332,1.675c-0.086,0.405 -0.485,0.663 -0.889,0.577c-0.405,-0.086 -0.664,-0.485 -0.578,-0.89c0.115,-0.539 0.223,-1.084 0.324,-1.633Zm10.112,15.522c-0.079,-0.406 0.187,-0.8 0.594,-0.878c0.406,-0.079 0.8,0.187 0.879,0.593c0.1,0.52 0.191,1.037 0.272,1.551c0.064,0.409 -0.216,0.793 -0.625,0.857c-0.408,0.065 -0.793,-0.215 -0.857,-0.624c-0.078,-0.497 -0.166,-0.996 -0.263,-1.499Zm0.622,4.516c-0.033,-0.412 0.275,-0.774 0.688,-0.807c0.413,-0.033 0.775,0.275 0.808,0.687c0.042,0.528 0.073,1.054 0.094,1.576c0.017,0.413 -0.306,0.762 -0.72,0.779c-0.413,0.016 -0.762,-0.306 -0.779,-0.72c-0.02,-0.502 -0.05,-1.007 -0.091,-1.515Zm0.084,4.547c0.019,-0.414 0.37,-0.734 0.783,-0.715c0.414,0.018 0.734,0.369 0.715,0.783c-0.024,0.529 -0.06,1.055 -0.107,1.578c-0.037,0.412 -0.402,0.716 -0.814,0.679c-0.412,-0.037 -0.717,-0.402 -0.68,-0.814c0.045,-0.501 0.08,-1.005 0.103,-1.511Zm-0.512,4.509c0.075,-0.407 0.466,-0.677 0.873,-0.602c0.408,0.075 0.677,0.466 0.603,0.873c-0.096,0.52 -0.203,1.037 -0.322,1.55c-0.094,0.403 -0.497,0.655 -0.9,0.561c-0.404,-0.094 -0.655,-0.497 -0.561,-0.9c0.114,-0.491 0.216,-0.985 0.307,-1.482Zm-1.128,4.394c0.131,-0.393 0.556,-0.606 0.948,-0.475c0.393,0.131 0.606,0.556 0.475,0.948c-0.166,0.5 -0.344,0.997 -0.534,1.49c-0.149,0.386 -0.583,0.579 -0.969,0.431c-0.387,-0.149 -0.58,-0.583 -0.431,-0.97c0.181,-0.472 0.352,-0.946 0.511,-1.424Zm-1.725,4.198c0.183,-0.371 0.633,-0.524 1.004,-0.342c0.372,0.183 0.525,0.633 0.342,1.004c-0.231,0.471 -0.474,0.938 -0.727,1.403c-0.199,0.363 -0.655,0.497 -1.018,0.299c-0.363,-0.199 -0.497,-0.655 -0.299,-1.018c0.244,-0.446 0.476,-0.894 0.698,-1.346Zm-2.261,3.946c0.227,-0.346 0.693,-0.442 1.039,-0.215c0.345,0.228 0.441,0.693 0.214,1.039c-0.287,0.436 -0.584,0.87 -0.892,1.301c-0.241,0.336 -0.709,0.414 -1.046,0.174c-0.337,-0.241 -0.415,-0.71 -0.174,-1.046c0.296,-0.415 0.582,-0.833 0.859,-1.253Zm-5.445,13.028c-0.058,-0.41 0.228,-0.79 0.638,-0.848c0.409,-0.058 0.789,0.228 0.847,0.638c0.094,0.667 0.166,1.34 0.215,2.021c0.03,0.413 -0.281,0.772 -0.694,0.802c-0.413,0.03 -0.772,-0.281 -0.802,-0.694c-0.046,-0.646 -0.115,-1.286 -0.204,-1.919Zm0.231,5.784c0.023,-0.414 0.377,-0.731 0.791,-0.708c0.413,0.023 0.73,0.377 0.707,0.791c-0.037,0.666 -0.094,1.338 -0.172,2.017c-0.046,0.411 -0.418,0.707 -0.83,0.66c-0.411,-0.046 -0.707,-0.418 -0.66,-0.83c0.074,-0.649 0.129,-1.293 0.164,-1.93Zm-0.808,5.76c0.089,-0.404 0.49,-0.66 0.894,-0.571c0.404,0.089 0.66,0.49 0.57,0.894c-0.072,0.326 -0.148,0.654 -0.229,0.982c-0.098,0.402 -0.505,0.648 -0.907,0.55c-0.402,-0.099 -0.648,-0.505 -0.549,-0.907c0.078,-0.318 0.151,-0.633 0.221,-0.948Z" style="fill:#932d07;"/><g><path d="M123.24,28.587l-0.136,-0.846c-8.429,0.386 -16.648,1.206 -24.527,2.551c-0.742,-8.948 7.169,-12.359 14.905,-12.278c7.718,0.081 11.844,-4.097 16.106,-9.247c3.439,-4.155 6.861,-8.767 13.363,-8.767l7.049,-0c6.278,0.557 10.018,3.979 13.054,8.708c3.236,5.038 4.101,16.248 3.46,20.879c-0.904,6.546 -8.52,20.815 -13.183,28.037c-3.013,4.668 -9.111,3.312 -9.366,-1.014c-0.382,-6.474 0.037,-12.454 -0.954,-17.12c-1.544,-7.265 -5.635,-11.749 -11.991,-11.749l-7.78,0.846Z" style="fill:#f85d15;"/><path d="M143.634,44.959c-0.095,-1.966 -0.269,-3.802 -0.623,-5.469c-1.544,-7.265 -5.635,-11.749 -11.991,-11.749l-7.78,0.846l-0.136,-0.846c-5.101,0.234 -10.125,0.626 -15.043,1.198c3.038,-3.471 11.664,-6.06 15.608,-3.84c2.364,1.331 3.683,0.235 1.909,-1.909c-1.36,-1.644 0.928,-2.876 3.877,-2.506c1.972,0.248 4.051,1.818 6.204,3.52c1.899,1.5 3.676,0.379 3.281,-1.67c-0.607,-3.155 -2.026,-5 -3.161,-6.264c-1.77,-1.97 0.568,-3.946 3.4,-2.983c3.912,1.332 6.634,6.433 7.039,13.542c0.134,2.357 3.079,1.844 3.043,-0.537c-0.067,-4.424 -0.535,-8.186 -1.492,-11.334c-1.385,-4.56 0.5,-5.391 3.162,-0.895c5.162,8.718 5.634,18.788 0.418,26.665c-2.794,4.218 -5.321,5.073 -7.715,4.231Z" style="fill:#cf541d;"/><path d="M103.45,29.532c-1.638,0.232 -3.263,0.485 -4.873,0.76c-0.742,-8.948 7.169,-12.359 14.905,-12.278c7.718,0.081 11.844,-4.097 16.106,-9.247c3.439,-4.155 6.861,-8.767 13.363,-8.767l7.049,-0c6.278,0.557 10.018,3.979 13.054,8.708c3.236,5.038 4.101,16.248 3.46,20.879c-0.904,6.546 -8.52,20.815 -13.183,28.037c-3.013,4.668 -9.111,3.312 -9.366,-1.014c-0.382,-6.474 0.037,-12.454 -0.954,-17.12c-1.544,-7.265 -5.635,-11.749 -11.991,-11.749c6.741,-1.56 13.453,1.251 16.116,12.312c1.143,4.746 0.888,9.381 1.256,15.989c0.223,-0.044 0.605,-0.148 0.824,-0.364c0.135,-0.134 0.26,-0.29 0.374,-0.468c4.374,-6.776 9.871,-20.054 10.72,-26.195c0.547,-3.956 0.541,-12.871 -2.224,-17.176c-2.248,-3.501 -4.167,-4.559 -8.488,-6.394c-1.416,-0.601 -4.427,-0.993 -6.647,-0.993c-2.597,0 -4.42,1.187 -5.986,2.668c-1.438,1.361 -2.685,2.962 -3.947,4.486c-5.139,6.209 -10.277,10.957 -19.583,10.86c-3.157,-0.033 -6.56,0.55 -8.595,2.384c-1.369,1.233 -1.654,3.051 -1.39,4.682" style="fill:#932d07;"/></g><path d="M0.09,264.587c-0.06,-0.851 -0.09,-1.711 -0.09,-2.577l0,-11.157c5.083,-1.381 10.137,-2.536 15.168,-3.5c1.309,5.296 3.058,9.72 5.157,13.407c-6.862,0.752 -13.608,2.019 -20.235,3.827Zm22.171,-116.705c-0.525,3.965 -0.88,8.269 -1.162,12.897c-7.578,2.41 -14.459,5.954 -21.099,9.888l-0,-12.978c7.451,-3.695 14.886,-7.453 22.261,-9.807Zm277.649,116.705c-6.627,-1.808 -13.373,-3.075 -20.235,-3.827c2.099,-3.687 3.848,-8.111 5.157,-13.407c5.031,0.964 10.085,2.119 15.168,3.5l-0,11.157c-0,0.866 -0.03,1.726 -0.09,2.577Zm-22.171,-116.705c7.375,2.354 14.81,6.112 22.261,9.807l-0,12.978c-6.64,-3.934 -13.521,-7.478 -21.099,-9.888c-0.282,-4.628 -0.637,-8.932 -1.162,-12.897Z" style="fill:#71302a;"/><path d="M0,252.916l0,-48.115c6.338,-4.215 12.519,-7.698 18.38,-9.69c-0.297,1.667 -0.621,3.32 -0.968,5.009c-1.657,8.062 -4.602,18.561 -4.625,28.956c-0.003,1.46 0.051,2.918 0.175,4.367c0.334,3.9 0.838,7.471 1.497,10.74c0.413,2.053 0.887,3.986 1.417,5.808c-5.566,0.7 -10.737,1.797 -15.876,2.925Zm0,-87.411l0,-29.225c15.979,-18.075 44.946,-27.34 68.376,-18.174c-5.575,-1.837 -11.683,-2.63 -18.124,-1.895c-21.571,2.462 -26.722,15.812 -28.666,37.901c-7.512,1.78 -14.67,6.678 -21.586,11.393Zm57.1,-122.696c5.896,-1.438 11.327,-3.572 17.752,-6.366c-11.151,5.624 -17.569,12.835 -26.985,21.365c-5.153,4.669 -12.798,11.034 -23.063,14.767c-13.285,4.83 -24.804,15.298 -24.804,35.86l-0,-25.647c2.663,-10.175 10.981,-13.973 20.145,-16.128c6.099,-1.435 12.29,-2.711 17.396,-6.106c7.429,-4.94 13.809,-11.005 19.559,-17.745Zm242.9,210.107c-5.139,-1.128 -10.31,-2.225 -15.876,-2.925c0.53,-1.822 1.004,-3.755 1.417,-5.808c0.659,-3.269 1.163,-6.84 1.497,-10.74c0.124,-1.449 0.178,-2.907 0.175,-4.367c-0.023,-10.395 -2.968,-20.894 -4.625,-28.956c-0.347,-1.689 -0.671,-3.342 -0.968,-5.009c5.861,1.992 12.042,5.475 18.38,9.69l-0,48.115Zm-0,-87.411c-6.916,-4.715 -14.074,-9.613 -21.586,-11.393c-1.944,-22.089 -7.095,-35.439 -28.666,-37.901c-6.441,-0.735 -12.549,0.058 -18.124,1.895c23.43,-9.166 52.397,0.099 68.376,18.174l-0,29.225Zm-57.1,-122.696c5.75,6.74 12.13,12.805 19.559,17.745c5.106,3.395 11.297,4.671 17.396,6.106c9.164,2.155 17.482,5.953 20.145,16.128l-0,25.647c-0,-20.562 -11.519,-31.03 -24.804,-35.86c-10.265,-3.733 -17.91,-10.098 -23.063,-14.767c-9.416,-8.53 -15.834,-15.741 -26.985,-21.365c6.425,2.794 11.856,4.928 17.752,6.366Z" style="fill:#fbdbca;"/><path d="M62.506,41.268c3.962,-1.287 7.917,-2.899 12.346,-4.825c-11.151,5.624 -17.569,12.835 -26.985,21.365c-5.153,4.669 -12.798,11.034 -23.063,14.767c-13.285,4.83 -24.804,15.298 -24.804,35.86l-0,-15.727c5.552,-15.507 14.25,-18.181 25.943,-23.034c9.196,-3.816 19.06,-10.102 28.735,-20.639c2.609,-2.812 5.219,-5.428 7.828,-7.767Zm-62.506,199.073l0,-29.838c5.929,-3.169 11.639,-5.988 16.928,-8.113c-1.687,7.71 -4.12,17.241 -4.141,26.686c-0.003,1.46 0.051,2.918 0.175,4.367c0.078,0.911 0.165,1.804 0.262,2.68c-4.319,1.116 -8.73,2.534 -13.224,4.218Zm-0,-86.24l-0,-11.016c10.702,-8.495 20.668,-14.431 29.492,-16.604c-2.965,3.921 -4.854,8.878 -6.114,14.798c-8.791,2.768 -16.218,8.072 -23.378,12.822Z" style="fill:#ffe6d8;"/><path d="M168.862,287.516c3.15,4.808 0.011,10.874 0.011,10.874l-7.505,-0c3.272,-3.752 2.618,-8.76 1.992,-10.365c0,0 2.022,-0.182 5.502,-0.509Z" style="fill:#d0550e;"/><path d="M33.326,129.541c-0.076,-0.246 -0.147,-0.496 -0.211,-0.75c-1.007,-3.98 -0.389,-8.709 1.409,-11.588c3.477,-5.567 7.744,-10.955 11.874,-15.247c3.616,-3.757 7.852,-5.12 11.558,-4.453c3.767,0.679 7.244,3.448 9.079,8.691c2.026,5.791 3.533,12.026 4.173,18.846c0.01,0.105 0.019,0.211 0.026,0.317c-6.445,-2.707 -13.725,-4.041 -21.488,-3.155c-7.06,0.806 -12.385,3.402 -16.42,7.339Zm195.254,-4.106c0.011,-0.164 0.025,-0.328 0.041,-0.491c0.684,-6.816 2.23,-13.042 4.293,-18.819c1.869,-5.231 5.363,-7.979 9.134,-8.633c3.71,-0.644 7.938,0.746 11.53,4.526c4.102,4.318 8.335,9.733 11.776,15.322c1.78,2.89 2.368,7.623 1.336,11.597c-0.043,0.164 -0.088,0.327 -0.136,0.488c-4.021,-3.872 -9.31,-6.425 -16.3,-7.223c-7.838,-0.894 -15.183,0.474 -21.674,3.233Z" style="fill:#932a00;fill-opacity:0.35;"/><g><path d="M47.987,103.968c5.848,-5.358 12.922,-3.946 15.17,4.055c1.593,5.673 2.663,11.74 2.866,18.316c0.166,5.391 -3.441,11.388 -9.438,11.115c-7.232,-0.329 -14.051,-1.692 -19.644,-5.383c-3.964,-2.616 -3.923,-10.494 -1.328,-14.121c3.69,-5.157 8.131,-10.094 12.374,-13.982Z" style="fill:url(#_Linear1);"/><path d="M65.926,128.265c-0.623,4.796 -4.053,9.429 -9.341,9.189c-7.232,-0.329 -14.051,-1.692 -19.644,-5.383c-3.964,-2.616 -3.923,-10.494 -1.328,-14.121c0.739,-1.032 1.507,-2.056 2.299,-3.064c-1.469,11.664 1.484,14.72 9.585,7.748c-1.191,9.515 1.355,9.639 7.061,1.817c3.332,7.544 7.143,8.523 11.368,3.814Z" style="fill:#d1591e;"/><path d="M46.973,102.862c3.363,-3.081 7.11,-4.119 10.307,-3.333c3.226,0.793 6.017,3.447 7.321,8.088c1.625,5.784 2.715,11.971 2.921,18.676c0.191,6.202 -4.107,12.973 -11.005,12.659c-7.514,-0.341 -14.591,-1.794 -20.402,-5.629c-1.903,-1.256 -3.099,-3.486 -3.576,-6.032c-0.671,-3.589 0.098,-7.76 1.854,-10.214c3.752,-5.243 8.267,-10.263 12.58,-14.215Zm1.014,1.106c-4.243,3.888 -8.684,8.825 -12.374,13.982c-2.595,3.627 -2.636,11.505 1.328,14.121c5.593,3.691 12.412,5.054 19.644,5.383c5.997,0.273 9.604,-5.724 9.438,-11.115c-0.203,-6.576 -1.273,-12.643 -2.866,-18.316c-2.248,-8.001 -9.322,-9.413 -15.17,-4.055Z" style="fill:#932d07;"/></g><g><path d="M252.013,103.968c-5.848,-5.358 -12.922,-3.946 -15.17,4.055c-1.593,5.673 -2.663,11.74 -2.866,18.316c-0.166,5.391 3.441,11.388 9.438,11.115c7.232,-0.329 14.051,-1.692 19.644,-5.383c3.964,-2.616 3.923,-10.494 1.328,-14.121c-3.69,-5.157 -8.131,-10.094 -12.374,-13.982Z" style="fill:url(#_Linear2);"/><path d="M234.074,128.265c0.623,4.796 4.053,9.429 9.341,9.189c7.232,-0.329 14.051,-1.692 19.644,-5.383c3.964,-2.616 3.923,-10.494 1.328,-14.121c-0.739,-1.032 -1.507,-2.056 -2.299,-3.064c1.469,11.664 -1.484,14.72 -9.585,7.748c1.191,9.515 -1.355,9.639 -7.061,1.817c-3.332,7.544 -7.143,8.523 -11.368,3.814Z" style="fill:#d1591e;"/><path d="M253.027,102.862c-3.363,-3.081 -7.11,-4.119 -10.307,-3.333c-3.226,0.793 -6.017,3.447 -7.321,8.088c-1.625,5.784 -2.715,11.971 -2.921,18.676c-0.191,6.202 4.107,12.973 11.005,12.659c7.514,-0.341 14.591,-1.794 20.402,-5.629c1.903,-1.256 3.099,-3.486 3.576,-6.032c0.671,-3.589 -0.098,-7.76 -1.854,-10.214c-3.752,-5.243 -8.267,-10.263 -12.58,-14.215Zm-1.014,1.106c4.243,3.888 8.684,8.825 12.374,13.982c2.595,3.627 2.636,11.505 -1.328,14.121c-5.593,3.691 -12.412,5.054 -19.644,5.383c-5.997,0.273 -9.604,-5.724 -9.438,-11.115c0.203,-6.576 1.273,-12.643 2.866,-18.316c2.248,-8.001 9.322,-9.413 15.17,-4.055Z" style="fill:#932d07;"/></g><g><path d="M107.571,43.415c11.924,1.472 15.419,15.848 13.331,32.766c-2.087,16.918 -11.451,29.706 -20.897,28.541c-9.446,-1.166 -17.656,-16.463 -15.568,-33.381c2.423,-19.632 12.628,-29.222 23.134,-27.926Z" style="fill:#d44d1a;"/><path d="M106.841,49.329c9.446,1.166 15.583,14.523 13.697,29.809c-1.887,15.286 -11.087,26.749 -20.533,25.584c-9.446,-1.166 -15.583,-14.523 -13.696,-29.809c1.886,-15.286 11.087,-26.75 20.532,-25.584Z" style="fill:#fff;"/><path d="M103.855,60.285c1.521,-0.878 3.13,-1.271 4.747,-1.072c6.238,0.77 10.231,10.072 8.912,20.76c-1.319,10.687 -7.454,18.739 -13.691,17.969c-6.238,-0.77 -10.231,-10.072 -8.912,-20.759c0.255,-2.068 0.691,-4.036 1.272,-5.862c-0.049,2.704 0.886,4.874 2.631,5.516c2.636,0.971 6.126,-1.908 7.789,-6.424c1.663,-4.516 0.873,-8.97 -1.762,-9.941c-0.318,-0.117 -0.648,-0.178 -0.986,-0.187Zm4.043,17.598c-1.31,-0.137 -2.564,1.575 -2.798,3.82c-0.235,2.246 0.639,4.18 1.95,4.316c1.31,0.137 2.564,-1.575 2.798,-3.82c0.234,-2.246 -0.64,-4.18 -1.95,-4.316Z" style="fill:#842200;"/></g><g><path d="M192.429,43.415c-11.924,1.472 -15.419,15.848 -13.331,32.766c2.087,16.918 11.451,29.706 20.897,28.541c9.446,-1.166 17.656,-16.463 15.568,-33.381c-2.423,-19.632 -12.628,-29.222 -23.134,-27.926Z" style="fill:#d44d1a;"/><path d="M193.159,49.329c-9.446,1.166 -15.583,14.523 -13.697,29.809c1.887,15.286 11.087,26.749 20.533,25.584c9.446,-1.166 15.583,-14.523 13.696,-29.809c-1.886,-15.286 -11.087,-26.75 -20.532,-25.584Z" style="fill:#fff;"/><path d="M196.145,60.285c-1.521,-0.878 -3.13,-1.271 -4.747,-1.072c-6.238,0.77 -10.231,10.072 -8.912,20.76c1.319,10.687 7.454,18.739 13.691,17.969c6.238,-0.77 10.231,-10.072 8.912,-20.759c-0.255,-2.068 -0.691,-4.036 -1.272,-5.862c0.049,2.704 -0.886,4.874 -2.631,5.516c-2.636,0.971 -6.126,-1.908 -7.789,-6.424c-1.663,-4.516 -0.873,-8.97 1.762,-9.941c0.318,-0.117 0.648,-0.178 0.986,-0.187Zm-4.043,17.598c1.31,-0.137 2.564,1.575 2.798,3.82c0.235,2.246 -0.639,4.18 -1.95,4.316c-1.31,0.137 -2.564,-1.575 -2.798,-3.82c-0.234,-2.246 0.64,-4.18 1.95,-4.316Z" style="fill:#842200;"/></g><path d="M150,90.757c-12.564,0 -19.807,1.53 -28.185,8.622c-0.374,0.316 -2.704,2.2 -3.704,3.24c0.983,-2.323 1.862,-3.468 2.24,-3.958c0.001,-0.001 0.869,-1.001 1.801,-1.986c7.615,-8.047 15.009,-11.101 27.841,-12.026c0.002,0 0.005,-0 0.007,-0c0.002,-0 0.005,0 0.007,0c12.832,0.925 20.226,3.979 27.841,12.026c0.932,0.985 1.8,1.985 1.801,1.986c0.378,0.49 1.257,1.635 2.24,3.958c-1,-1.04 -3.33,-2.924 -3.704,-3.24c-8.378,-7.092 -15.621,-8.622 -28.185,-8.622Z" style="fill:#932d07;"/><path d="M124,116.2c-1.04,0.426 -1.81,1.023 -2.926,2.054c-0.114,0.105 -0.283,0.127 -0.421,0.054c-0.002,-0.001 -0.003,-0.002 -0.005,-0.002c-0.145,-0.078 -0.222,-0.242 -0.187,-0.403c0.184,-0.95 0.839,-3.763 3.281,-4.847c2.473,-1.098 5.415,0.58 6.438,1.202c0.141,0.084 0.209,0.253 0.165,0.413c-0.013,0.051 -0.028,0.104 -0.042,0.154c-0.041,0.151 -0.173,0.259 -0.329,0.269c-2.525,0.101 -3.051,0.203 -4.279,0.562c0.9,2.15 3.384,6.973 9.686,9.897c1.368,0.634 5.278,2.495 13.703,2.804c1.264,0.047 9.183,0.294 15.917,-3.37c1.665,-0.906 2.61,-1.638 2.616,-1.639c0.016,-0.004 0.032,-0.007 0.048,-0.009c-0.707,-0.897 -1.402,-1.353 -2.688,-2c-0.111,-0.056 -0.174,-0.177 -0.155,-0.3c-0,-0.001 0,-0.003 0,-0.004c0.02,-0.131 0.125,-0.233 0.258,-0.252c0.776,-0.126 3.103,-0.415 4.594,1.112c1.511,1.546 1.026,4.213 0.829,5.15c-0.026,0.13 -0.137,0.227 -0.271,0.239c-0.042,0.004 -0.087,0.008 -0.129,0.011c-0.126,0.011 -0.245,-0.058 -0.295,-0.172c-0.595,-1.452 -0.86,-1.993 -1.236,-2.55c-0.283,0.337 -1.158,1.341 -2.082,2.162c-7.121,6.33 -17.982,8.955 -26.992,6.072c-8.854,-2.832 -12.447,-8.45 -14.1,-12.033c-0.675,-1.463 -1.148,-3.345 -1.398,-4.574Z" style="fill:#932d07;"/><path d="M142.06,294.304l-0.211,-0.021l-0.327,-0.102l-0.295,-0.16l-0.256,-0.212l-0.212,-0.256l-0.16,-0.295l-0.101,-0.327l-0.036,-0.349l0.036,-0.35l0.101,-0.327l0.16,-0.295l0.212,-0.256l0.256,-0.212l0.295,-0.16l0.327,-0.101l0.214,-0.022c0.516,-3.922 3.875,-6.954 7.937,-6.954c4.062,-0 7.421,3.032 7.937,6.954l0.214,0.022l0.327,0.101l0.295,0.16l0.256,0.212l0.212,0.256l0.16,0.295l0.101,0.327l0.036,0.35l-0.036,0.349l-0.101,0.327l-0.16,0.295l-0.212,0.256l-0.256,0.212l-0.295,0.16l-0.327,0.102l-0.211,0.021c-0.507,3.932 -3.871,6.973 -7.94,6.973c-4.069,0 -7.433,-3.041 -7.94,-6.973Z" style="fill:#d0550e;"/><path d="M158.613,292.582c-0,0.447 -0.364,0.811 -0.812,0.811l-15.602,0c-0.448,0 -0.812,-0.364 -0.812,-0.811c0,-0.448 0.364,-0.812 0.812,-0.812l15.602,0c0.448,0 0.812,0.364 0.812,0.812Z" style="fill:#040200;"/><g><path d="M143.329,292.451l-0,-1.362l13.512,0l-0,1.362c-0,3.728 -3.028,6.755 -6.756,6.755c-3.729,0 -6.756,-3.027 -6.756,-6.755Z" style="fill:#2a1100;"/><circle cx="150.085" cy="291.089" r="6.756" style="fill:#6c3814;"/><path d="M149.272,289.027l2.96,2.96c0.321,0.321 0.321,0.843 -0,1.165c-0.322,0.321 -0.844,0.321 -1.165,-0l-2.96,-2.96c-0.321,-0.321 -0.321,-0.843 0,-1.165c0.322,-0.322 0.844,-0.322 1.165,0Z" style="fill:#d0550e;"/><path d="M152.232,290.192l-2.96,2.96c-0.321,0.321 -0.843,0.321 -1.165,-0c-0.321,-0.322 -0.321,-0.844 0,-1.165l2.96,-2.96c0.321,-0.322 0.843,-0.322 1.165,0c0.321,0.322 0.321,0.844 -0,1.165Z" style="fill:#f96c1b;"/><path d="M150.085,284.774c3.728,-0 6.756,3.027 6.756,6.756c-0,3.728 -3.028,6.755 -6.756,6.755c-3.729,0 -6.756,-3.027 -6.756,-6.755c-0,-3.729 3.027,-6.756 6.756,-6.756Zm-0,1.649c-2.818,0 -5.106,2.288 -5.106,5.107c-0,2.818 2.288,5.106 5.106,5.106c2.818,-0 5.106,-2.288 5.106,-5.106c-0,-2.819 -2.288,-5.107 -5.106,-5.107Z" style="fill:#2a1100;"/><path d="M150.085,284.334c3.728,-0 6.756,3.027 6.756,6.755c-0,3.729 -3.028,6.756 -6.756,6.756c-3.729,0 -6.756,-3.027 -6.756,-6.756c-0,-3.728 3.027,-6.755 6.756,-6.755Zm-0,1.649c-2.818,0 -5.106,2.288 -5.106,5.106c-0,2.819 2.288,5.107 5.106,5.107c2.818,-0 5.106,-2.288 5.106,-5.107c-0,-2.818 -2.288,-5.106 -5.106,-5.106Z" style="fill:#461d00;"/></g></g></g><defs><linearGradient id="_Linear1" x1="0" y1="0" x2="1" y2="0" gradientUnits="userSpaceOnUse" gradientTransform="matrix(7.85478,-32.6744,37.1866,8.93949,48.8235,133.451)"><stop offset="0" style="stop-color:#f86817;stop-opacity:1"/><stop offset="1" style="stop-color:#ec420e;stop-opacity:1"/></linearGradient><linearGradient id="_Linear2" x1="0" y1="0" x2="1" y2="0" gradientUnits="userSpaceOnUse" gradientTransform="matrix(-7.85478,-32.6744,-37.1866,8.93949,251.176,133.451)"><stop offset="0" style="stop-color:#f86817;stop-opacity:1"/><stop offset="1" style="stop-color:#ec420e;stop-opacity:1"/></linearGradient></defs></svg>