<?xml version="1.0" encoding="UTF-8" standalone="no"?><!DOCTYPE svg PUBLIC "-//W3C//DTD SVG 1.1//EN" "http://www.w3.org/Graphics/SVG/1.1/DTD/svg11.dtd"><svg width="100%" height="100%" viewBox="0 0 300 345" version="1.1" xmlns="http://www.w3.org/2000/svg" xmlns:xlink="http://www.w3.org/1999/xlink" xml:space="preserve" xmlns:serif="http://www.serif.com/" style="fill-rule:evenodd;clip-rule:evenodd;stroke-linejoin:round;stroke-miterlimit:2;"><g id="Honey"><g><path d="M0,157.269l0,-75.243c-0.286,-18.241 2.489,-29.959 11.278,-33.696c4.315,-1.834 6.599,-3.43 8.184,-6.857c2.813,-6.083 11.682,-7.702 15.852,-7.815c16.194,-0.441 25.7,5.125 44.386,6.046c10.682,0.526 18.576,-1.039 25.659,-4.424c13.739,-6.567 25.993,-5.471 37.013,2.286c3.98,2.802 6.321,3.381 12.018,3.391c10.512,0.019 21.55,-2.141 27.797,1.917c1.281,0.833 2.254,1.112 4.766,1.144c0.362,0.003 0.739,0.003 1.132,0l20.152,0c2.237,-5.349 8.425,-7.841 18.041,-7.853c11.784,-0.015 21.445,0.359 29.787,-2.138c12.092,-3.621 20.914,-5.48 27.945,-1.696c5.429,2.922 9.822,6.797 10.543,13.419c0.268,2.463 1.623,4.56 3.097,6.488c1.623,2.123 2.298,7.2 2.35,12.018l0,47.484c0,8.803 -4.728,12.013 -11.497,11.889c-5.291,-0.096 -8.474,-2.401 -9.924,-5.502c-1.714,-3.667 -1.093,-7.088 -1.781,-10.811c-0.716,-3.875 -4.311,-6.44 -9.585,-6.359c-3.998,0.061 -7.134,1.802 -7.926,4.424c-2.691,8.905 -13.344,14.483 -22.673,14.009c-3.965,-0.202 -8.068,0.018 -10.364,3.178c-2.186,3.007 -2.639,8.807 -3.46,14.425c-2.07,14.161 -13.795,20.083 -26.82,17.88c-12.031,-2.035 -15.163,-10.628 -14.285,-18.341c0.624,-5.488 -2.469,-7.997 -5.899,-7.281c-17.65,3.686 -25.443,-6.655 -27.557,-19.723c-0.86,-5.316 -4.784,-4.457 -8.018,-1.659c-6.54,5.658 -11.745,8.888 -26.451,6.544c-7.058,-1.125 -12.705,-0.397 -16.59,2.581c-5.714,4.379 -11.678,6.644 -16.313,5.253c-7.586,-2.277 -10.221,-6.631 -11.942,-11.244c-2.777,-7.446 -9.22,-11.22 -15.062,-10.23c-5.972,1.012 -8.502,3.614 -8.203,16.128c0.184,7.675 -3.805,12.326 -9.124,16.866c-4.384,3.742 -4.769,5.078 -4.7,11.429c0.072,6.664 0.554,14.618 -1.106,18.632c-4.305,10.411 -12.317,16.922 -19.447,16.943c-9.533,0.028 -11.273,-10.196 -11.273,-23.502Z" style="fill:#dc5402;fill-opacity:0.5;"/><path d="M7.827,73.041c0.442,-4.69 0.178,-9.387 5.603,-12.486c4.965,-2.835 5.549,-5.063 7.177,-8.061c5.237,-9.644 14.436,-11.107 23.397,-7.373c5.577,2.324 11.925,3.248 17.794,0.59c7.446,-3.373 12.075,0.121 19.17,2.949c8.795,3.506 19.385,2.963 26.74,-1.18c9.733,-5.481 19.279,-6.73 28.608,-1.081c7.719,4.674 16.792,6.083 27.33,6.095c6.057,0.007 11.168,1.125 12.386,6.193c0.793,3.297 0.957,6.562 0.885,9.143c-0.28,10.079 -12.309,11.106 -17.695,9.634c-9.014,-2.462 -15.86,-0.419 -23.693,7.865c-10.448,11.05 -22.631,9.962 -30.475,4.96c-4.702,-2.998 -7.853,-4.869 -11.306,-4.075c-10.329,2.376 -13.59,-0.915 -17.99,-5.899c-9.183,-10.401 -23.326,-9.309 -28.804,0.492c-2.959,5.293 -7.319,7.274 -11.994,10.814c-5.965,4.517 -6.914,5.158 -6.685,13.889c0.17,6.499 -2.57,9.495 -7.275,12.064c-3.75,2.048 -4.621,3.359 -5.21,6.095c-0.558,2.59 -0.628,4.61 -1.278,6.98c-2.537,9.251 -6.675,7.277 -7.078,0.197c-1.124,-19.725 -1.368,-39.13 0.393,-57.805Zm195.83,41.584c-5.127,12.9 -20.829,10.196 -20.94,-2.556c-0.035,-4.039 -0.84,-8.219 -2.654,-11.109c-2.035,-3.241 -1.27,-12.543 1.77,-14.844c5.02,-3.802 8.09,-6.56 8.552,-15.238c0.472,-8.84 4.493,-14.981 13.272,-15.336c2.727,-0.111 5.978,-0.386 8.553,-0.787c5.523,-0.859 8.067,-5.751 21.136,-6.586c9.596,-0.614 13.369,5.812 24.774,0.688c8.376,-3.764 20.002,-4.535 24.577,3.047c1.125,1.866 1.943,4.532 4.129,5.309c1.672,0.595 3.57,1.91 3.244,5.21c-0.158,1.601 1.213,3.355 3.441,4.424c1.885,0.905 3.128,3.114 2.261,6.882c-0.582,2.53 -0.775,5.767 -0.885,8.356c-0.231,5.441 -6.421,7.83 -12.78,4.522c-10.125,-5.267 -21.886,-7.266 -35.686,-3.146c-5.804,1.733 -8.461,5.495 -10.224,10.519c-2.303,6.565 -7.909,11.325 -17.204,12.485c-7.852,0.354 -12.741,1.631 -15.336,8.16Zm-191.869,43.479c-5.822,-1.568 -5.354,-13.117 0.053,-10.737c0.754,0.332 3.501,2.731 3.378,6.957c-0.11,3.755 -3.246,3.83 -3.431,3.78Zm161.792,-75.605c8.733,3.292 -0.57,20.155 -8.168,14.805c-1.111,-0.783 -2.361,-2.795 -2.369,-2.806c-1.915,-2.836 -9.428,-3.275 -6.76,-6.829c3.873,-5.156 14.669,-6.161 17.297,-5.17Zm16.593,-32.842c7.707,-0.019 5.927,6.232 -0.16,7.201c-1.998,0.318 -4.141,0.842 -10.282,-2.342c-4.821,-2.501 3.74,-4.843 10.442,-4.859Z" style="fill:#e56f04;fill-opacity:0.25;"/><path d="M126.152,73.559c3.797,-2.201 11.756,-6.945 11.9,0.87c0.07,3.855 -6.106,13.867 -21.818,13.322c-2.944,-0.102 -14.361,-5.324 -10.304,-10.241c3.593,-4.355 7.902,3.191 20.222,-3.951Zm162.011,5.247c1.446,-0.813 4.586,-3.925 4.944,-0.663c0.03,0.277 -0.602,8.927 -11.17,3.221c-3.342,-1.804 -9.778,-3.293 -6.883,-4.147c4.03,-1.19 9.512,3.612 13.109,1.589Zm-92.859,-1.777c0.868,-2.124 0.939,-3.537 1.737,-4.052c2.327,-1.5 9.128,11.764 -4.428,19.334c-5.104,2.85 -6.026,8.327 -7.93,5.797c-0.264,-0.35 -1.586,-4.169 0.126,-7.098c2.081,-3.558 6.167,-6.696 7.117,-7.797c2.529,-2.934 2.137,-3.152 3.378,-6.184Zm26.176,21.692c3.104,-0.529 7.881,-2.986 7.017,0.106c-0.286,1.024 -3.352,4.253 -10.889,4.766c-16.153,1.098 -14.846,4.69 -17.417,6.459c-2.323,1.599 -5.128,-2.31 1.899,-9.283c6.214,-6.167 15.282,-1.349 19.39,-2.048Zm-196.979,-2.68c-0.283,5.011 1.221,7.337 -3.338,14.118c-3.782,5.627 -7.011,4.263 -5.885,2.257c3.32,-5.921 4.293,-5.749 4.339,-12.555c0.068,-10.111 6.328,-13.238 8.042,-12.828c3.851,0.922 -2.786,2.407 -3.158,9.008Zm119.961,-28.706c1.324,-1.083 1.759,-1.088 5.359,-1.637c4.758,-0.726 4.905,4.56 1.528,5.797c-5.252,1.924 -9.776,-1.798 -6.887,-4.16Z" style="fill:#cd7402;fill-opacity:0.5;"/><path d="M300,88.694l0,23.046c0,8.803 -4.728,12.013 -11.497,11.889c-5.291,-0.096 -8.474,-2.401 -9.924,-5.502c-1.714,-3.667 -1.093,-7.088 -1.781,-10.811c-0.716,-3.875 -4.311,-6.44 -9.585,-6.359c-3.998,0.061 -7.134,1.802 -7.926,4.424c-2.691,8.905 -13.344,14.483 -22.673,14.009c-3.965,-0.202 -8.068,0.018 -10.364,3.178c-2.186,3.007 -2.639,8.807 -3.46,14.425c-2.07,14.161 -13.795,20.083 -26.82,17.88c-12.031,-2.035 -15.163,-10.628 -14.285,-18.341c0.624,-5.488 -2.469,-7.997 -5.899,-7.281c-17.65,3.686 -25.443,-6.655 -27.557,-19.723c-0.86,-5.316 -4.784,-4.457 -8.018,-1.659c-6.54,5.658 -11.745,8.888 -26.451,6.544c-7.058,-1.125 -12.705,-0.397 -16.59,2.581c-5.714,4.379 -11.678,6.644 -16.313,5.253c-7.586,-2.277 -10.221,-6.631 -11.942,-11.244c-2.777,-7.446 -9.22,-11.22 -15.062,-10.23c-5.972,1.012 -8.502,3.614 -8.203,16.128c0.184,7.675 -3.805,12.326 -9.124,16.866c-4.384,3.742 -4.769,5.078 -4.7,11.429c0.072,6.664 0.554,14.618 -1.106,18.632c-4.305,10.411 -12.317,16.922 -19.447,16.943c-9.533,0.028 -11.273,-10.196 -11.273,-23.502l-0,-24.51c2.371,16.216 2.907,33.69 10.244,34.341c5.661,0.503 8.798,-3.073 9.339,-11.109c0.444,-6.605 0.459,-13.448 0.688,-19.661c0.27,-7.308 2.374,-9.32 6.095,-11.109c8.147,-3.917 10.673,-8.948 10.126,-17.204c-0.692,-10.461 1.743,-12.273 14.255,-16.418c14.747,-4.885 19.325,-0.345 24.38,9.536c2.016,3.94 3.395,7.907 8.553,9.241c4.405,1.139 7.908,-1.323 11.502,-4.866c3.057,-3.014 7.752,-2.745 14.157,-2.507c3.882,0.145 8.623,0.319 13.37,0.295c3.539,-0.018 6.782,-1.521 9.535,-4.424c3.265,-3.442 6.85,-6.996 12.879,-6.587c7.385,0.502 12.072,3.427 13.763,10.519c1.89,7.925 4.956,14.434 11.305,15.73c6.105,1.246 12.395,2.627 17.401,7.275c3.348,3.107 4.981,8.585 6.685,14.058c0.682,2.19 2.688,3.702 6.488,3.342c5.323,-0.504 9.174,-1.805 10.126,-8.159c0.685,-4.568 1.128,-8.6 1.77,-13.862c0.772,-6.33 6.223,-10.774 13.664,-9.634c9.164,1.403 21.013,-1.714 23.791,-9.831c2.947,-8.609 8.625,-9.963 15.729,-9.438c3.539,0.262 7.251,0.636 12.387,1.77c4.544,1.004 8.051,3.477 8.357,9.634c0.203,4.116 -1.423,9.638 4.718,9.634c3.622,-0.002 4.884,-2.61 6.095,-8.749c1.032,-5.229 1.748,-10.84 2.598,-15.882Z" style="fill:#f68501;fill-opacity:0.5;"/><path d="M300,107.219l0,4.521c0,8.803 -4.728,12.013 -11.497,11.889c-5.291,-0.096 -8.474,-2.401 -9.924,-5.502c-1.714,-3.667 -1.093,-7.088 -1.781,-10.811c-0.716,-3.875 -4.311,-6.44 -9.585,-6.359c-3.998,0.061 -7.134,1.802 -7.926,4.424c-2.691,8.905 -13.344,14.483 -22.673,14.009c-3.965,-0.202 -8.068,0.018 -10.364,3.178c-2.186,3.007 -2.639,8.807 -3.46,14.425c-2.07,14.161 -13.795,20.083 -26.82,17.88c-12.031,-2.035 -15.163,-10.628 -14.285,-18.341c0.624,-5.488 -2.469,-7.997 -5.899,-7.281c-17.65,3.686 -25.443,-6.655 -27.557,-19.723c-0.86,-5.316 -4.784,-4.457 -8.018,-1.659c-6.54,5.658 -11.745,8.888 -26.451,6.544c-7.058,-1.125 -12.705,-0.397 -16.59,2.581c-5.714,4.379 -11.678,6.644 -16.313,5.253c-7.586,-2.277 -10.221,-6.631 -11.942,-11.244c-2.777,-7.446 -9.22,-11.22 -15.062,-10.23c-5.972,1.012 -8.502,3.614 -8.203,16.128c0.184,7.675 -3.805,12.326 -9.124,16.866c-4.384,3.742 -4.769,5.078 -4.7,11.429c0.072,6.664 0.554,14.618 -1.106,18.632c-4.305,10.411 -12.317,16.922 -19.447,16.943c-9.533,0.028 -11.273,-10.196 -11.273,-23.502c1.013,9.3 2.021,18.606 11.263,17.819c5.219,-0.445 10.271,-3.887 12.78,-9.635c2.464,-5.643 2.352,-9.31 2.36,-15.434c0.013,-10.194 1.018,-15.674 6.39,-19.465c7.67,-5.413 10.658,-11.607 10.027,-20.841c-0.615,-9.014 1.845,-13.079 8.062,-13.96c8.554,-1.212 15.64,-0.408 20.251,11.305c1.919,4.874 2.13,9.412 10.224,10.716c4.732,0.762 10.205,-0.822 17.204,-6.292c3.205,-2.505 8.893,-3.082 14.324,-1.671c8.027,2.913 21.071,2.072 26.081,-6.095c2.625,-4.28 12.034,-5.275 13.37,1.794c2.558,13.539 6.986,21.87 19.662,22.095c8.093,0.143 13.962,4.706 14.058,12.681c0.081,6.801 5.673,11.255 15.336,10.913c8.449,-0.3 14.899,-6.992 16.909,-16.123c2.326,-10.569 1.98,-18.9 14.943,-18.777c11.955,0.114 18.978,-3.906 22.709,-13.468c1.157,-2.966 4.131,-5.101 9.732,-5.604c1.877,-0.168 4.11,-0.078 6.489,0.099c5.668,0.421 8.187,5.131 8.718,8.184c1.247,7.167 -0.225,14.508 9.238,15.048c5.939,0.339 8.887,-3.395 9.87,-13.339Z" style="fill:#a22600;fill-opacity:0.5;"/></g><path d="M46.029,108.828l-2.615,-1.308l-2.16,-1.942l-1.637,-2.413l-1.055,-3.186c-0.105,-0.637 -1.494,-8.544 -1.494,-8.544c-2.93,-0.991 -6.809,-2.284 -8.811,-2.932l-2.942,-1.471l-2.16,-1.942l-1.637,-2.414l-1.055,-3.185c-0.105,-0.638 -3.213,-18.393 -3.339,-19.073l-0.089,-3.354l0.719,-2.826l1.373,-2.561l2.267,-2.383c1.662,-1.289 4.87,-3.822 7.289,-5.749c-0.078,-0.444 -0.125,-0.706 -0.125,-0.706c0.041,0.232 0.092,0.461 0.152,0.685l0.007,-0.006c-0.061,-0.227 -0.112,-0.459 -0.153,-0.695c-0.496,-2.841 -1.148,-6.558 -1.341,-7.624c2.986,-1.083 6.083,-1.486 8.091,-1.541c16.194,-0.441 25.7,5.125 44.386,6.046c10.682,0.526 18.576,-1.039 25.659,-4.424c1.241,-0.593 2.471,-1.124 3.688,-1.593c0.187,0.061 0.363,0.118 0.526,0.171l2.942,1.471l2.16,1.942l1.637,2.413l1.056,3.184c0.112,0.683 3.221,18.441 3.339,19.077l0.089,3.354l-0.72,2.825l-1.372,2.56l-2.267,2.383c-1.662,1.29 -4.872,3.823 -7.291,5.75l0.042,0.237c0.032,0.179 0.056,0.313 0.071,0.394l0.098,0.641l-0.059,-0.403c0.53,3.04 1.228,7.041 1.346,7.677l0.089,3.354l-0.72,2.826l-1.372,2.56l-2.267,2.383c-2.214,1.717 -7.175,5.642 -9.353,7.4l-2.717,1.61l-2.634,0.768l-2.74,0.172l-3.101,-0.59c-2.1,-0.725 -6.31,-2.138 -9.291,-3.122c-2.47,1.938 -5.95,4.697 -7.679,6.092l-0.012,0.007c-2.813,-7.326 -9.199,-11.032 -14.994,-10.05c-4.375,0.741 -6.902,2.336 -7.824,8.055Zm107.958,14.627c-0.228,-4.769 -0.463,-9.643 -0.483,-9.995l0.331,-3.34l1.068,-2.713l1.682,-2.369l2.547,-2.081c2.412,-1.427 7.825,-4.7 10.206,-6.171l2.897,-1.257l2.71,-0.432l2.739,0.172l3.004,0.974c2.511,1.238 8.211,3.979 10.748,5.17l2.734,1.828l1.9,2.197l1.322,2.598l0.649,3.292c0.026,0.691 0.888,18.699 0.925,19.345l-0.332,3.339l-1.068,2.713l-1.682,2.367l-2.547,2.081c-2.282,1.35 -7.251,4.354 -9.797,5.919c-1.807,-3.214 -2.262,-6.982 -1.855,-10.56c0.624,-5.488 -2.469,-7.997 -5.899,-7.281c-10.409,2.174 -17.39,-0.531 -21.799,-5.796Zm141.288,-75.048l-0.257,1.906c-0.198,0.663 -5.196,17.985 -5.369,18.608l-1.392,3.053l-1.886,2.223l-2.356,1.698l-3.083,1.147c-2.059,0.429 -6.055,1.298 -9.074,1.968l-0.067,0.231c-0.05,0.175 -0.087,0.307 -0.109,0.386l-0.192,0.619l0.123,-0.388c-0.858,2.964 -1.986,6.866 -2.158,7.489l-1.392,3.053l-1.887,2.223l-2.356,1.698l-3.083,1.147c-2.743,0.572 -8.922,1.923 -11.651,2.547l-3.148,0.254l-2.704,-0.465l-2.537,-1.047l-2.529,-1.892c-1.568,-1.572 -4.732,-4.689 -6.979,-6.882c-3.07,0.659 -7.407,1.611 -9.573,2.106l-3.147,0.255l-2.705,-0.466l-2.537,-1.047l-2.528,-1.892c-1.977,-1.981 -6.487,-6.416 -8.504,-8.362l-1.998,-2.613l-1.089,-2.693l-0.412,-2.887l0.449,-3.326c0.186,-0.619 5.183,-17.937 5.368,-18.603l1.391,-3.054l1.173,-1.383l1.16,0c0.288,-0.689 0.642,-1.332 1.061,-1.927l0.849,-0.612l3.083,-1.148c2.059,-0.429 6.054,-1.297 9.072,-1.967c0.125,-0.434 0.198,-0.689 0.198,-0.689c-0.064,0.226 -0.119,0.453 -0.163,0.681l0.008,-0.002c0.045,-0.231 0.101,-0.462 0.167,-0.691c0.128,-0.443 0.263,-0.909 0.4,-1.382c1.07,-0.076 2.193,-0.115 3.366,-0.116c11.784,-0.015 21.445,0.359 29.787,-2.138c12.092,-3.621 20.914,-5.48 27.945,-1.696c1.291,0.695 2.524,1.444 3.662,2.27c1.601,1.575 3.211,3.149 4.229,4.132c1.401,1.944 2.35,4.239 2.652,7.017c0.102,0.935 0.36,1.817 0.722,2.657Z" style="fill:#481c00;fill-opacity:0.15;"/><g><g><path d="M64.599,36.521l28.161,-4.93c0,0 1.786,10.269 1.983,11.326c0.208,1.122 -0.361,2.605 -1.309,3.34c-2.243,1.74 -7.267,5.716 -9.473,7.496c-0.895,0.723 -2.471,0.998 -3.558,0.623c-2.68,-0.925 -8.756,-2.958 -11.457,-3.832c-1.141,-0.37 -2.18,-1.571 -2.365,-2.697c-0.174,-1.062 -1.982,-11.326 -1.982,-11.326Z" style="fill:#a64202;"/><path d="M73.995,17.77c0.895,-0.722 2.47,-0.998 3.558,-0.623c2.68,0.926 8.756,2.958 11.456,3.833c1.141,0.369 2.181,1.57 2.366,2.696c0.174,1.062 1.786,10.269 1.982,11.327c0.209,1.121 -0.361,2.604 -1.308,3.339c-2.243,1.74 -7.267,5.716 -9.474,7.497c-0.895,0.722 -2.47,0.998 -3.557,0.622c-2.681,-0.925 -8.757,-2.957 -11.457,-3.832c-1.141,-0.369 -2.18,-1.571 -2.365,-2.697c-0.174,-1.061 -1.786,-10.268 -1.983,-11.326c-0.208,-1.122 0.361,-2.605 1.308,-3.34c2.243,-1.74 7.268,-5.715 9.474,-7.496Z" style="fill:#c34e03;"/><path id="path30851" d="M74.764,18.723c-2.211,1.784 -7.245,5.767 -9.492,7.511c-0.611,0.474 -0.989,1.425 -0.855,2.148c0.197,1.061 0.484,2.655 0.784,4.358c0.128,0.726 0.334,1.903 0.46,2.63c0.296,1.703 0.569,3.299 0.743,4.364c0.119,0.726 0.799,1.492 1.534,1.73c2.706,0.876 8.794,2.913 11.479,3.84c0.73,0.252 1.788,0.067 2.389,-0.418c2.211,-1.785 7.245,-5.768 9.492,-7.511c0.611,-0.474 0.99,-1.425 0.855,-2.149c-0.197,-1.06 -0.482,-2.654 -0.783,-4.357c-0.128,-0.726 -0.334,-1.903 -0.46,-2.63c-0.296,-1.703 -0.569,-3.3 -0.744,-4.364c-0.119,-0.726 -0.798,-1.492 -1.534,-1.731c-2.706,-0.876 -8.793,-2.912 -11.479,-3.839c-0.73,-0.252 -1.788,-0.067 -2.389,0.418Z" style="fill:#f28703;fill-rule:nonzero;"/><path id="path30853" d="M75.91,18.238c-0.431,0.075 -0.845,0.242 -1.146,0.485c-2.211,1.784 -7.244,5.767 -9.492,7.511c-0.61,0.474 -0.989,1.425 -0.855,2.149c0.198,1.06 0.484,2.654 0.784,4.357c0.128,0.726 0.334,1.903 0.46,2.63c0.296,1.703 0.569,3.299 0.743,4.363c0.12,0.726 0.799,1.493 1.535,1.731c2.705,0.876 8.793,2.913 11.478,3.84c0.365,0.126 0.812,0.142 1.243,0.067c-0.34,0.059 -0.694,0.042 -0.984,-0.067c-2.135,-0.804 -6.972,-2.571 -9.122,-3.332c-0.584,-0.207 -1.129,-0.857 -1.23,-1.469c-0.147,-0.896 -0.377,-2.241 -0.626,-3.676c-0.106,-0.612 -0.28,-1.604 -0.388,-2.215c-0.253,-1.435 -0.494,-2.779 -0.66,-3.672c-0.113,-0.609 0.179,-1.406 0.658,-1.799c1.763,-1.446 5.713,-4.751 7.447,-6.232c0.472,-0.403 1.308,-0.549 1.888,-0.33c2.134,0.803 6.971,2.57 9.121,3.331c0.585,0.207 1.129,0.857 1.23,1.469c0.148,0.896 0.378,2.242 0.628,3.677c0.106,0.612 0.279,1.604 0.387,2.215c0.253,1.435 0.494,2.778 0.659,3.671c0.113,0.61 -0.178,1.406 -0.658,1.799c-1.763,1.446 -5.713,4.751 -7.447,6.232c-0.236,0.201 -0.563,0.338 -0.903,0.398c0.431,-0.076 0.846,-0.242 1.146,-0.485c2.211,-1.784 7.245,-5.768 9.492,-7.511c0.611,-0.474 0.99,-1.426 0.856,-2.149c-0.197,-1.061 -0.483,-2.654 -0.784,-4.357c-0.128,-0.726 -0.334,-1.903 -0.46,-2.629c-0.296,-1.704 -0.568,-3.301 -0.743,-4.365c-0.12,-0.726 -0.8,-1.492 -1.535,-1.73c-2.706,-0.877 -8.793,-2.914 -11.479,-3.841c-0.365,-0.126 -0.812,-0.142 -1.243,-0.066l0,-0Z" style="fill:#e36a02;fill-rule:nonzero;"/><path id="_855" serif:id="855" d="M66.07,34.923c-0.159,0.082 -0.305,0.181 -0.436,0.289c0.008,0.046 0.02,0.114 0.027,0.158c0.296,1.703 0.569,3.299 0.743,4.363c0.12,0.726 0.799,1.493 1.535,1.731c2.705,0.876 8.793,2.913 11.478,3.84c0.73,0.252 1.788,0.067 2.389,-0.418c2.211,-1.784 7.245,-5.768 9.492,-7.511c0.611,-0.474 0.99,-1.426 0.856,-2.149c-0.197,-1.06 -0.483,-2.654 -0.784,-4.357c-0.001,-0.004 -0.002,-0.012 -0.003,-0.017c-0.222,-0.109 -0.48,-0.19 -0.751,-0.226c-3.53,6.186 -11.485,8.676 -13.974,3.997c-3.385,-6.363 -7.504,-1.595 -10.572,0.3Z" style="fill:#eb7803;fill-rule:nonzero;"/><path d="M89.239,37.967c-4.3,-0.773 -11.811,0.831 -18.841,4.304c2.993,0.99 6.979,2.329 9.019,3.033c0.73,0.252 1.788,0.067 2.389,-0.418c2.094,-1.69 6.65,-5.296 9.043,-7.16c-0.518,0.058 -1.057,0.139 -1.61,0.241l-0,0Z" style="fill:#e36a02;"/><path d="M71.031,34.52c-1.868,1.512 -4.272,1.544 -3.357,3.109c0.915,1.564 4.802,4.068 6.67,2.556c1.868,-1.512 2.132,-3.072 1.218,-4.637c-0.915,-1.564 -2.662,-2.54 -4.531,-1.028Z" style="fill:#e36a02;"/><path d="M85.39,40.257c-0.17,-0.972 -1.35,-1.578 -2.637,-1.353c-1.286,0.226 -4.344,0.695 -4.174,1.668c0.17,0.972 3.505,2.078 4.791,1.853c1.286,-0.225 2.191,-1.196 2.02,-2.168Z" style="fill:#eb7803;"/></g><g><path d="M36.437,41.451l28.161,-4.93c0,-0 1.787,10.268 1.983,11.326c0.209,1.122 -0.361,2.605 -1.308,3.34c-2.243,1.74 -7.268,5.715 -9.474,7.496c-0.895,0.722 -2.47,0.998 -3.558,0.623c-2.68,-0.925 -8.756,-2.958 -11.456,-3.832c-1.141,-0.37 -2.18,-1.571 -2.365,-2.697c-0.174,-1.062 -1.983,-11.326 -1.983,-11.326Z" style="fill:#a64202;"/><path d="M45.834,22.7c0.895,-0.723 2.47,-0.998 3.557,-0.623c2.68,0.925 8.756,2.958 11.457,3.832c1.141,0.37 2.18,1.571 2.365,2.697c0.174,1.062 1.786,10.269 1.983,11.326c0.208,1.122 -0.361,2.605 -1.309,3.34c-2.243,1.74 -7.267,5.716 -9.474,7.496c-0.895,0.723 -2.47,0.998 -3.557,0.623c-2.68,-0.925 -8.756,-2.958 -11.457,-3.832c-1.141,-0.37 -2.18,-1.571 -2.365,-2.697c-0.174,-1.062 -1.786,-10.268 -1.982,-11.326c-0.209,-1.122 0.36,-2.605 1.308,-3.34c2.243,-1.74 7.267,-5.716 9.474,-7.496Z" style="fill:#c34e03;"/><path id="path308511" serif:id="path30851" d="M46.603,23.653c-2.211,1.784 -7.245,5.767 -9.493,7.51c-0.61,0.474 -0.989,1.426 -0.854,2.149c0.197,1.06 0.483,2.655 0.783,4.358c0.129,0.726 0.335,1.903 0.461,2.63c0.296,1.703 0.568,3.299 0.743,4.363c0.119,0.726 0.798,1.493 1.534,1.731c2.705,0.876 8.793,2.912 11.479,3.84c0.73,0.252 1.787,0.067 2.388,-0.419c2.211,-1.784 7.245,-5.767 9.493,-7.51c0.61,-0.474 0.989,-1.426 0.855,-2.149c-0.197,-1.06 -0.483,-2.654 -0.783,-4.357c-0.129,-0.726 -0.335,-1.903 -0.461,-2.63c-0.296,-1.704 -0.569,-3.3 -0.743,-4.364c-0.12,-0.726 -0.799,-1.493 -1.535,-1.731c-2.705,-0.876 -8.793,-2.912 -11.479,-3.84c-0.73,-0.252 -1.787,-0.066 -2.388,0.419Z" style="fill:#f28703;fill-rule:nonzero;"/><path id="path308531" serif:id="path30853" d="M47.749,23.168c-0.431,0.075 -0.846,0.242 -1.147,0.484c-2.21,1.785 -7.244,5.768 -9.491,7.512c-0.611,0.473 -0.99,1.425 -0.855,2.148c0.197,1.061 0.483,2.655 0.783,4.358c0.129,0.726 0.335,1.903 0.461,2.629c0.296,1.704 0.568,3.3 0.743,4.364c0.119,0.726 0.798,1.492 1.534,1.731c2.706,0.876 8.793,2.913 11.479,3.84c0.365,0.126 0.812,0.142 1.242,0.067c-0.34,0.059 -0.694,0.042 -0.984,-0.068c-2.134,-0.803 -6.972,-2.57 -9.122,-3.331c-0.584,-0.207 -1.128,-0.857 -1.229,-1.469c-0.148,-0.896 -0.377,-2.241 -0.627,-3.676c-0.106,-0.612 -0.28,-1.604 -0.388,-2.216c-0.253,-1.434 -0.494,-2.778 -0.659,-3.671c-0.113,-0.61 0.178,-1.406 0.657,-1.799c1.764,-1.446 5.713,-4.751 7.448,-6.232c0.471,-0.403 1.307,-0.549 1.887,-0.331c2.134,0.804 6.972,2.571 9.122,3.332c0.584,0.207 1.128,0.857 1.229,1.468c0.148,0.897 0.378,2.242 0.628,3.678c0.106,0.612 0.28,1.603 0.388,2.215c0.253,1.435 0.493,2.778 0.658,3.671c0.113,0.609 -0.178,1.406 -0.657,1.799c-1.764,1.446 -5.713,4.751 -7.448,6.232c-0.235,0.201 -0.562,0.338 -0.903,0.398c0.431,-0.076 0.846,-0.243 1.147,-0.485c2.21,-1.785 7.244,-5.768 9.491,-7.511c0.611,-0.474 0.99,-1.426 0.856,-2.149c-0.197,-1.061 -0.483,-2.654 -0.783,-4.357c-0.129,-0.726 -0.335,-1.903 -0.461,-2.63c-0.296,-1.703 -0.568,-3.3 -0.743,-4.364c-0.119,-0.726 -0.799,-1.492 -1.535,-1.731c-2.706,-0.876 -8.793,-2.913 -11.479,-3.84c-0.365,-0.126 -0.812,-0.142 -1.242,-0.067l-0,0.001Z" style="fill:#e36a02;fill-rule:nonzero;"/><path id="_8551" serif:id="855" d="M37.908,39.853c-0.158,0.082 -0.305,0.181 -0.436,0.288c0.008,0.047 0.02,0.115 0.028,0.158c0.296,1.704 0.568,3.3 0.743,4.364c0.119,0.726 0.798,1.492 1.534,1.731c2.706,0.876 8.793,2.913 11.479,3.84c0.73,0.252 1.788,0.067 2.389,-0.418c2.21,-1.784 7.244,-5.768 9.491,-7.511c0.611,-0.474 0.99,-1.426 0.856,-2.149c-0.197,-1.061 -0.483,-2.654 -0.783,-4.357c-0.001,-0.005 -0.003,-0.013 -0.003,-0.017c-0.223,-0.11 -0.481,-0.19 -0.752,-0.226c-3.53,6.186 -11.484,8.676 -13.973,3.997c-3.385,-6.363 -7.505,-1.596 -10.573,0.3Z" style="fill:#eb7803;fill-rule:nonzero;"/><path d="M61.077,42.897c-4.299,-0.773 -11.81,0.831 -18.841,4.304c2.993,0.989 6.98,2.329 9.02,3.033c0.73,0.252 1.788,0.067 2.389,-0.418c2.093,-1.69 6.649,-5.296 9.042,-7.16c-0.518,0.058 -1.057,0.139 -1.61,0.241l-0,0Z" style="fill:#e36a02;"/><path d="M42.87,39.45c-1.868,1.512 -4.272,1.544 -3.358,3.108c0.915,1.565 4.802,4.069 6.67,2.557c1.868,-1.512 2.133,-3.073 1.218,-4.637c-0.915,-1.564 -2.662,-2.54 -4.53,-1.028Z" style="fill:#e36a02;"/><path d="M57.229,45.187c-0.17,-0.972 -1.351,-1.578 -2.637,-1.353c-1.286,0.225 -4.345,0.695 -4.175,1.667c0.171,0.973 3.505,2.079 4.791,1.854c1.286,-0.225 2.191,-1.196 2.021,-2.168Z" style="fill:#eb7803;"/></g><g><path d="M54.536,61.94l28.161,-4.93c0,-0 1.787,10.269 1.983,11.326c0.209,1.122 -0.361,2.605 -1.308,3.34c-2.243,1.74 -7.268,5.716 -9.474,7.496c-0.895,0.723 -2.47,0.998 -3.558,0.623c-2.68,-0.925 -8.756,-2.958 -11.456,-3.832c-1.141,-0.37 -2.18,-1.571 -2.365,-2.697c-0.174,-1.062 -1.983,-11.326 -1.983,-11.326Z" style="fill:#a64202;"/><path d="M63.932,43.189c0.896,-0.723 2.471,-0.998 3.558,-0.623c2.68,0.925 8.756,2.958 11.457,3.832c1.141,0.37 2.18,1.571 2.365,2.697c0.174,1.062 1.786,10.269 1.983,11.326c0.208,1.122 -0.361,2.605 -1.309,3.34c-2.243,1.74 -7.267,5.716 -9.474,7.497c-0.895,0.722 -2.47,0.998 -3.557,0.622c-2.68,-0.925 -8.756,-2.958 -11.457,-3.832c-1.141,-0.37 -2.18,-1.571 -2.365,-2.697c-0.174,-1.062 -1.786,-10.268 -1.982,-11.326c-0.209,-1.122 0.36,-2.605 1.308,-3.34c2.243,-1.74 7.267,-5.715 9.473,-7.496Z" style="fill:#c34e03;"/><path id="path308512" serif:id="path30851" d="M64.702,44.142c-2.211,1.784 -7.245,5.767 -9.493,7.511c-0.611,0.474 -0.989,1.425 -0.855,2.148c0.198,1.061 0.484,2.655 0.784,4.358c0.129,0.726 0.335,1.903 0.461,2.63c0.296,1.703 0.568,3.299 0.743,4.364c0.119,0.726 0.798,1.492 1.533,1.73c2.706,0.876 8.794,2.913 11.48,3.84c0.73,0.252 1.787,0.067 2.388,-0.418c2.211,-1.785 7.245,-5.768 9.493,-7.511c0.61,-0.474 0.989,-1.425 0.855,-2.149c-0.197,-1.06 -0.483,-2.654 -0.783,-4.357c-0.129,-0.726 -0.335,-1.903 -0.461,-2.63c-0.296,-1.703 -0.569,-3.3 -0.743,-4.364c-0.12,-0.726 -0.799,-1.492 -1.535,-1.731c-2.705,-0.876 -8.793,-2.912 -11.479,-3.839c-0.73,-0.252 -1.787,-0.067 -2.388,0.418Z" style="fill:#f28703;fill-rule:nonzero;"/><path id="path308532" serif:id="path30853" d="M65.848,43.657c-0.431,0.075 -0.846,0.242 -1.147,0.484c-2.21,1.785 -7.244,5.768 -9.491,7.512c-0.611,0.474 -0.99,1.425 -0.855,2.149c0.197,1.06 0.483,2.654 0.783,4.357c0.129,0.726 0.335,1.903 0.461,2.63c0.296,1.703 0.568,3.299 0.743,4.363c0.119,0.726 0.798,1.493 1.534,1.731c2.706,0.876 8.793,2.913 11.479,3.84c0.365,0.126 0.811,0.142 1.242,0.067c-0.34,0.059 -0.694,0.042 -0.984,-0.068c-2.134,-0.803 -6.972,-2.57 -9.122,-3.331c-0.584,-0.207 -1.128,-0.857 -1.229,-1.469c-0.148,-0.896 -0.377,-2.241 -0.627,-3.676c-0.106,-0.612 -0.28,-1.604 -0.388,-2.216c-0.253,-1.434 -0.494,-2.778 -0.659,-3.671c-0.113,-0.61 0.178,-1.406 0.657,-1.799c1.764,-1.446 5.713,-4.751 7.448,-6.232c0.471,-0.403 1.307,-0.549 1.887,-0.33c2.134,0.803 6.972,2.57 9.122,3.331c0.584,0.207 1.128,0.857 1.229,1.469c0.148,0.896 0.378,2.242 0.628,3.677c0.106,0.612 0.28,1.604 0.388,2.215c0.253,1.435 0.493,2.778 0.658,3.671c0.113,0.61 -0.178,1.406 -0.657,1.799c-1.764,1.446 -5.713,4.751 -7.448,6.232c-0.235,0.201 -0.562,0.338 -0.903,0.398c0.431,-0.076 0.846,-0.243 1.147,-0.485c2.21,-1.784 7.244,-5.768 9.491,-7.511c0.611,-0.474 0.99,-1.426 0.856,-2.149c-0.197,-1.061 -0.483,-2.654 -0.783,-4.357c-0.129,-0.726 -0.335,-1.903 -0.461,-2.63c-0.296,-1.703 -0.568,-3.3 -0.743,-4.364c-0.119,-0.726 -0.799,-1.492 -1.535,-1.73c-2.706,-0.877 -8.793,-2.914 -11.479,-3.841c-0.365,-0.126 -0.812,-0.142 -1.242,-0.066l-0,-0Z" style="fill:#e36a02;fill-rule:nonzero;"/><path id="_8552" serif:id="855" d="M56.007,60.342c-0.158,0.082 -0.305,0.181 -0.436,0.289c0.008,0.046 0.02,0.114 0.028,0.158c0.296,1.703 0.568,3.299 0.743,4.363c0.119,0.726 0.798,1.493 1.534,1.731c2.706,0.876 8.793,2.913 11.479,3.84c0.73,0.252 1.788,0.067 2.389,-0.418c2.21,-1.784 7.244,-5.768 9.491,-7.511c0.611,-0.474 0.99,-1.426 0.856,-2.149c-0.197,-1.061 -0.483,-2.654 -0.783,-4.357c-0.001,-0.005 -0.003,-0.012 -0.003,-0.017c-0.223,-0.109 -0.481,-0.19 -0.752,-0.226c-3.53,6.186 -11.484,8.676 -13.973,3.997c-3.385,-6.363 -7.505,-1.595 -10.573,0.3Z" style="fill:#eb7803;fill-rule:nonzero;"/><path d="M79.176,63.386c-4.299,-0.773 -11.81,0.831 -18.841,4.304c2.993,0.99 6.98,2.329 9.02,3.033c0.73,0.252 1.788,0.067 2.389,-0.418c2.093,-1.69 6.649,-5.296 9.042,-7.16c-0.518,0.058 -1.057,0.139 -1.61,0.241l-0,0Z" style="fill:#e36a02;"/><path d="M60.969,59.939c-1.868,1.512 -4.272,1.544 -3.358,3.108c0.915,1.565 4.802,4.069 6.67,2.557c1.868,-1.512 2.133,-3.072 1.218,-4.637c-0.915,-1.564 -2.662,-2.54 -4.53,-1.028Z" style="fill:#e36a02;"/><path d="M75.328,65.676c-0.17,-0.972 -1.351,-1.578 -2.637,-1.353c-1.286,0.226 -4.345,0.695 -4.175,1.667c0.171,0.973 3.505,2.079 4.791,1.854c1.286,-0.225 2.191,-1.196 2.021,-2.168Z" style="fill:#eb7803;"/></g><g><path d="M26.374,66.87l28.162,-4.93c-0,-0 1.786,10.268 1.982,11.326c0.209,1.122 -0.36,2.605 -1.308,3.34c-2.243,1.74 -7.267,5.715 -9.474,7.496c-0.895,0.722 -2.47,0.998 -3.557,0.623c-2.68,-0.926 -8.756,-2.958 -11.457,-3.833c-1.141,-0.369 -2.18,-1.57 -2.365,-2.697c-0.174,-1.061 -1.983,-11.325 -1.983,-11.325Z" style="fill:#a64202;"/><path d="M35.771,48.119c0.895,-0.723 2.47,-0.998 3.557,-0.623c2.681,0.925 8.757,2.958 11.457,3.832c1.141,0.37 2.18,1.571 2.365,2.697c0.175,1.062 1.786,10.269 1.983,11.326c0.209,1.122 -0.361,2.605 -1.309,3.34c-2.242,1.74 -7.267,5.716 -9.473,7.496c-0.895,0.723 -2.47,0.998 -3.558,0.623c-2.68,-0.925 -8.756,-2.958 -11.456,-3.832c-1.142,-0.37 -2.181,-1.571 -2.365,-2.697c-0.175,-1.062 -1.786,-10.268 -1.983,-11.326c-0.209,-1.122 0.36,-2.605 1.308,-3.34c2.243,-1.74 7.267,-5.716 9.474,-7.496Z" style="fill:#c34e03;"/><path id="path308513" serif:id="path30851" d="M36.54,49.072c-2.211,1.784 -7.245,5.767 -9.492,7.51c-0.611,0.474 -0.99,1.426 -0.855,2.149c0.197,1.06 0.483,2.655 0.784,4.358c0.128,0.726 0.334,1.903 0.46,2.63c0.296,1.703 0.568,3.299 0.743,4.363c0.119,0.726 0.798,1.493 1.534,1.731c2.706,0.876 8.793,2.912 11.479,3.84c0.73,0.252 1.788,0.066 2.389,-0.419c2.211,-1.784 7.245,-5.767 9.492,-7.51c0.611,-0.474 0.989,-1.426 0.855,-2.149c-0.197,-1.06 -0.483,-2.654 -0.783,-4.357c-0.128,-0.726 -0.334,-1.903 -0.461,-2.63c-0.295,-1.704 -0.568,-3.3 -0.743,-4.365c-0.119,-0.725 -0.799,-1.492 -1.534,-1.73c-2.706,-0.876 -8.794,-2.912 -11.479,-3.84c-0.73,-0.252 -1.788,-0.067 -2.389,0.419Z" style="fill:#f28703;fill-rule:nonzero;"/><path id="path308533" serif:id="path30853" d="M37.686,48.586c-0.431,0.076 -0.846,0.243 -1.146,0.485c-2.211,1.784 -7.245,5.768 -9.492,7.511c-0.611,0.474 -0.989,1.426 -0.855,2.149c0.197,1.061 0.483,2.655 0.784,4.358c0.128,0.726 0.334,1.903 0.46,2.629c0.296,1.704 0.569,3.3 0.743,4.364c0.119,0.726 0.799,1.492 1.534,1.731c2.706,0.876 8.793,2.913 11.479,3.84c0.365,0.126 0.812,0.142 1.243,0.066c-0.341,0.06 -0.695,0.042 -0.985,-0.067c-2.134,-0.803 -6.971,-2.57 -9.121,-3.331c-0.585,-0.207 -1.129,-0.857 -1.23,-1.469c-0.148,-0.896 -0.377,-2.241 -0.626,-3.676c-0.107,-0.612 -0.28,-1.604 -0.388,-2.216c-0.253,-1.435 -0.494,-2.778 -0.66,-3.671c-0.113,-0.61 0.178,-1.406 0.658,-1.799c1.763,-1.446 5.713,-4.752 7.447,-6.232c0.472,-0.403 1.307,-0.549 1.887,-0.331c2.135,0.804 6.972,2.571 9.122,3.332c0.584,0.207 1.129,0.857 1.23,1.468c0.147,0.897 0.378,2.242 0.627,3.678c0.107,0.612 0.28,1.603 0.388,2.215c0.253,1.435 0.493,2.778 0.659,3.671c0.113,0.609 -0.179,1.406 -0.658,1.799c-1.763,1.446 -5.713,4.751 -7.447,6.232c-0.236,0.201 -0.563,0.338 -0.903,0.397c0.43,-0.075 0.845,-0.242 1.146,-0.484c2.211,-1.785 7.244,-5.768 9.491,-7.512c0.611,-0.473 0.991,-1.425 0.856,-2.149c-0.197,-1.06 -0.483,-2.653 -0.783,-4.356c-0.128,-0.726 -0.334,-1.903 -0.46,-2.63c-0.296,-1.704 -0.569,-3.3 -0.744,-4.364c-0.119,-0.726 -0.799,-1.492 -1.535,-1.731c-2.705,-0.876 -8.793,-2.913 -11.478,-3.84c-0.365,-0.126 -0.812,-0.142 -1.243,-0.067l-0,0Z" style="fill:#e36a02;fill-rule:nonzero;"/><path id="_8553" serif:id="855" d="M27.846,65.272c-0.159,0.082 -0.306,0.18 -0.437,0.288c0.009,0.047 0.021,0.115 0.028,0.158c0.296,1.704 0.568,3.3 0.743,4.364c0.119,0.726 0.799,1.492 1.534,1.731c2.706,0.876 8.793,2.913 11.479,3.84c0.73,0.252 1.788,0.067 2.389,-0.418c2.211,-1.785 7.244,-5.768 9.491,-7.512c0.611,-0.473 0.991,-1.425 0.856,-2.149c-0.197,-1.06 -0.483,-2.653 -0.783,-4.356c-0.001,-0.005 -0.002,-0.013 -0.003,-0.017c-0.223,-0.11 -0.481,-0.19 -0.752,-0.226c-3.529,6.186 -11.484,8.676 -13.973,3.997c-3.385,-6.363 -7.504,-1.596 -10.572,0.3Z" style="fill:#eb7803;fill-rule:nonzero;"/><path d="M51.014,68.316c-4.299,-0.773 -11.81,0.831 -18.84,4.304c2.992,0.989 6.979,2.329 9.019,3.033c0.73,0.252 1.788,0.067 2.389,-0.418c2.094,-1.69 6.65,-5.296 9.043,-7.16c-0.518,0.058 -1.057,0.139 -1.611,0.241l0,-0Z" style="fill:#e36a02;"/><path d="M32.807,64.869c-1.868,1.512 -4.272,1.544 -3.357,3.108c0.914,1.565 4.801,4.069 6.67,2.557c1.868,-1.512 2.132,-3.073 1.217,-4.637c-0.914,-1.564 -2.662,-2.54 -4.53,-1.028Z" style="fill:#e36a02;"/><path d="M47.166,70.606c-0.17,-0.972 -1.351,-1.578 -2.637,-1.353c-1.286,0.225 -4.344,0.695 -4.174,1.667c0.17,0.972 3.504,2.079 4.79,1.854c1.287,-0.225 2.191,-1.196 2.021,-2.168Z" style="fill:#eb7803;"/></g><g><path d="M82.698,57.01l28.161,-4.93c0,0 1.786,10.269 1.983,11.326c0.208,1.122 -0.361,2.605 -1.309,3.34c-2.243,1.74 -7.267,5.716 -9.473,7.497c-0.896,0.722 -2.471,0.998 -3.558,0.622c-2.68,-0.925 -8.756,-2.958 -11.457,-3.832c-1.141,-0.37 -2.18,-1.571 -2.365,-2.697c-0.174,-1.062 -1.982,-11.326 -1.982,-11.326Z" style="fill:#a64202;"/><path d="M92.094,38.259c0.895,-0.722 2.47,-0.998 3.558,-0.623c2.68,0.926 8.756,2.958 11.456,3.833c1.141,0.369 2.181,1.57 2.366,2.696c0.174,1.062 1.786,10.269 1.982,11.327c0.209,1.122 -0.361,2.604 -1.308,3.34c-2.243,1.739 -7.267,5.715 -9.474,7.496c-0.895,0.722 -2.47,0.998 -3.557,0.623c-2.681,-0.926 -8.757,-2.958 -11.457,-3.833c-1.141,-0.369 -2.18,-1.571 -2.365,-2.697c-0.174,-1.061 -1.786,-10.268 -1.983,-11.326c-0.208,-1.122 0.361,-2.604 1.308,-3.34c2.243,-1.74 7.268,-5.715 9.474,-7.496Z" style="fill:#c34e03;"/><path id="path308514" serif:id="path30851" d="M92.863,39.212c-2.211,1.784 -7.245,5.768 -9.492,7.511c-0.611,0.474 -0.989,1.425 -0.855,2.148c0.197,1.061 0.484,2.655 0.784,4.358c0.128,0.726 0.334,1.904 0.46,2.63c0.296,1.704 0.569,3.3 0.743,4.364c0.119,0.726 0.799,1.492 1.534,1.73c2.706,0.876 8.794,2.913 11.479,3.84c0.73,0.252 1.788,0.067 2.389,-0.418c2.211,-1.784 7.245,-5.768 9.492,-7.511c0.611,-0.474 0.99,-1.425 0.855,-2.149c-0.197,-1.06 -0.482,-2.654 -0.783,-4.356c-0.128,-0.726 -0.334,-1.904 -0.46,-2.63c-0.296,-1.704 -0.569,-3.301 -0.744,-4.365c-0.119,-0.726 -0.798,-1.492 -1.534,-1.73c-2.706,-0.877 -8.794,-2.913 -11.479,-3.84c-0.73,-0.252 -1.788,-0.067 -2.389,0.418Z" style="fill:#f28703;fill-rule:nonzero;"/><path id="path308534" serif:id="path30853" d="M94.009,38.727c-0.431,0.075 -0.846,0.242 -1.146,0.485c-2.211,1.784 -7.244,5.768 -9.492,7.511c-0.61,0.474 -0.989,1.425 -0.855,2.149c0.198,1.06 0.484,2.654 0.784,4.357c0.128,0.726 0.334,1.903 0.46,2.63c0.296,1.703 0.569,3.299 0.743,4.363c0.12,0.726 0.799,1.493 1.534,1.731c2.706,0.876 8.794,2.913 11.479,3.84c0.365,0.126 0.812,0.142 1.243,0.067c-0.34,0.06 -0.694,0.042 -0.984,-0.067c-2.135,-0.804 -6.972,-2.571 -9.122,-3.332c-0.584,-0.207 -1.129,-0.857 -1.23,-1.468c-0.147,-0.897 -0.377,-2.242 -0.626,-3.677c-0.106,-0.612 -0.28,-1.604 -0.388,-2.215c-0.253,-1.435 -0.494,-2.778 -0.66,-3.672c-0.113,-0.609 0.179,-1.406 0.658,-1.799c1.763,-1.446 5.713,-4.751 7.447,-6.232c0.472,-0.402 1.308,-0.549 1.888,-0.33c2.134,0.803 6.971,2.57 9.121,3.331c0.585,0.207 1.129,0.857 1.23,1.469c0.148,0.897 0.378,2.242 0.628,3.677c0.106,0.612 0.279,1.604 0.387,2.216c0.253,1.434 0.494,2.777 0.659,3.67c0.113,0.61 -0.178,1.406 -0.658,1.799c-1.763,1.446 -5.713,4.752 -7.447,6.232c-0.236,0.202 -0.563,0.338 -0.903,0.398c0.431,-0.075 0.846,-0.242 1.146,-0.485c2.211,-1.784 7.245,-5.768 9.492,-7.511c0.611,-0.474 0.99,-1.426 0.856,-2.149c-0.197,-1.06 -0.483,-2.654 -0.784,-4.357c-0.128,-0.726 -0.334,-1.903 -0.46,-2.629c-0.296,-1.704 -0.568,-3.3 -0.743,-4.365c-0.12,-0.726 -0.8,-1.492 -1.535,-1.73c-2.706,-0.876 -8.793,-2.913 -11.479,-3.841c-0.365,-0.126 -0.812,-0.142 -1.243,-0.066l0,-0Z" style="fill:#e36a02;fill-rule:nonzero;"/><path id="_8554" serif:id="855" d="M84.169,55.412c-0.159,0.082 -0.305,0.181 -0.436,0.289c0.008,0.047 0.02,0.114 0.027,0.158c0.296,1.703 0.569,3.299 0.743,4.363c0.12,0.726 0.799,1.493 1.534,1.731c2.706,0.876 8.794,2.913 11.479,3.84c0.73,0.252 1.788,0.067 2.389,-0.418c2.211,-1.784 7.245,-5.768 9.492,-7.511c0.611,-0.474 0.99,-1.426 0.856,-2.149c-0.197,-1.06 -0.483,-2.654 -0.784,-4.356c-0.001,-0.005 -0.002,-0.013 -0.003,-0.018c-0.222,-0.109 -0.48,-0.19 -0.751,-0.225c-3.53,6.185 -11.485,8.675 -13.974,3.996c-3.385,-6.363 -7.504,-1.595 -10.572,0.3Z" style="fill:#eb7803;fill-rule:nonzero;"/><path d="M107.338,58.456c-4.3,-0.773 -11.811,0.831 -18.841,4.304c2.993,0.99 6.979,2.329 9.019,3.033c0.73,0.252 1.788,0.067 2.389,-0.418c2.094,-1.69 6.65,-5.296 9.043,-7.16c-0.518,0.058 -1.057,0.139 -1.61,0.241l-0,0Z" style="fill:#e36a02;"/><path d="M89.13,55.009c-1.868,1.512 -4.272,1.544 -3.357,3.109c0.915,1.564 4.802,4.068 6.67,2.556c1.868,-1.511 2.132,-3.072 1.218,-4.637c-0.915,-1.564 -2.662,-2.54 -4.531,-1.028Z" style="fill:#e36a02;"/><path d="M103.489,60.746c-0.17,-0.972 -1.35,-1.578 -2.637,-1.352c-1.286,0.225 -4.344,0.695 -4.174,1.667c0.17,0.972 3.505,2.078 4.791,1.853c1.286,-0.225 2.191,-1.196 2.02,-2.168Z" style="fill:#eb7803;"/></g><g><path d="M44.473,87.358l28.162,-4.93c-0,0 1.786,10.269 1.982,11.327c0.209,1.122 -0.361,2.604 -1.308,3.339c-2.243,1.74 -7.267,5.716 -9.474,7.497c-0.895,0.722 -2.47,0.998 -3.557,0.622c-2.681,-0.925 -8.757,-2.957 -11.457,-3.832c-1.141,-0.369 -2.18,-1.571 -2.365,-2.697c-0.174,-1.061 -1.983,-11.326 -1.983,-11.326Z" style="fill:#a64202;"/><path d="M53.87,68.607c0.895,-0.722 2.47,-0.998 3.557,-0.623c2.68,0.926 8.756,2.958 11.457,3.833c1.141,0.369 2.18,1.57 2.365,2.697c0.175,1.061 1.786,10.268 1.983,11.326c0.208,1.122 -0.361,2.605 -1.309,3.34c-2.243,1.74 -7.267,5.715 -9.473,7.496c-0.895,0.722 -2.471,0.998 -3.558,0.623c-2.68,-0.926 -8.756,-2.958 -11.457,-3.833c-1.141,-0.369 -2.18,-1.571 -2.364,-2.697c-0.175,-1.061 -1.786,-10.268 -1.983,-11.326c-0.209,-1.122 0.36,-2.604 1.308,-3.34c2.243,-1.739 7.267,-5.715 9.474,-7.496Z" style="fill:#c34e03;"/><path id="path308515" serif:id="path30851" d="M54.639,69.56c-2.211,1.784 -7.245,5.768 -9.492,7.511c-0.611,0.474 -0.99,1.425 -0.855,2.148c0.197,1.061 0.483,2.655 0.784,4.358c0.128,0.726 0.334,1.904 0.46,2.63c0.296,1.704 0.568,3.3 0.743,4.364c0.119,0.726 0.798,1.492 1.534,1.73c2.705,0.877 8.793,2.913 11.479,3.84c0.73,0.252 1.788,0.067 2.389,-0.418c2.21,-1.784 7.245,-5.768 9.492,-7.511c0.611,-0.474 0.989,-1.425 0.855,-2.148c-0.197,-1.061 -0.483,-2.655 -0.783,-4.357c-0.128,-0.726 -0.334,-1.904 -0.461,-2.63c-0.296,-1.704 -0.568,-3.301 -0.743,-4.365c-0.119,-0.726 -0.799,-1.492 -1.534,-1.73c-2.706,-0.876 -8.794,-2.913 -11.479,-3.84c-0.73,-0.252 -1.788,-0.067 -2.389,0.418Z" style="fill:#ce5c03;fill-rule:nonzero;"/><path id="path308535" serif:id="path30853" d="M55.785,69.075c-0.431,0.075 -0.846,0.242 -1.146,0.485c-2.211,1.784 -7.245,5.768 -9.492,7.511c-0.611,0.474 -0.99,1.426 -0.855,2.149c0.197,1.06 0.483,2.654 0.784,4.357c0.128,0.726 0.334,1.904 0.46,2.63c0.296,1.704 0.568,3.299 0.743,4.364c0.119,0.726 0.799,1.492 1.534,1.73c2.706,0.876 8.793,2.913 11.479,3.841c0.365,0.126 0.812,0.141 1.243,0.066c-0.341,0.06 -0.695,0.042 -0.985,-0.067c-2.134,-0.804 -6.972,-2.571 -9.121,-3.332c-0.585,-0.207 -1.129,-0.857 -1.23,-1.468c-0.148,-0.897 -0.377,-2.242 -0.627,-3.677c-0.106,-0.612 -0.279,-1.603 -0.387,-2.215c-0.253,-1.435 -0.494,-2.778 -0.66,-3.672c-0.113,-0.609 0.178,-1.406 0.658,-1.799c1.763,-1.446 5.713,-4.751 7.447,-6.232c0.471,-0.402 1.307,-0.549 1.887,-0.33c2.135,0.804 6.972,2.571 9.122,3.331c0.584,0.207 1.129,0.857 1.229,1.469c0.148,0.897 0.379,2.242 0.628,3.677c0.106,0.612 0.28,1.604 0.388,2.216c0.253,1.434 0.493,2.777 0.659,3.671c0.112,0.609 -0.179,1.405 -0.658,1.798c-1.764,1.446 -5.713,4.752 -7.447,6.232c-0.236,0.202 -0.563,0.338 -0.903,0.398c0.43,-0.075 0.845,-0.242 1.146,-0.485c2.211,-1.784 7.244,-5.768 9.491,-7.511c0.611,-0.474 0.991,-1.426 0.856,-2.149c-0.197,-1.06 -0.483,-2.654 -0.783,-4.356c-0.128,-0.727 -0.334,-1.904 -0.461,-2.63c-0.296,-1.704 -0.568,-3.3 -0.743,-4.365c-0.119,-0.726 -0.799,-1.492 -1.535,-1.73c-2.705,-0.876 -8.793,-2.913 -11.478,-3.84c-0.365,-0.126 -0.812,-0.142 -1.243,-0.067l-0,0Z" style="fill:#b24703;fill-rule:nonzero;"/><path id="_8555" serif:id="855" d="M45.945,85.76c-0.159,0.082 -0.306,0.181 -0.437,0.289c0.008,0.047 0.02,0.114 0.028,0.158c0.296,1.704 0.568,3.299 0.743,4.364c0.119,0.726 0.799,1.492 1.534,1.73c2.706,0.876 8.793,2.913 11.479,3.841c0.73,0.252 1.788,0.066 2.389,-0.419c2.211,-1.784 7.244,-5.768 9.491,-7.511c0.611,-0.474 0.991,-1.426 0.856,-2.149c-0.197,-1.06 -0.483,-2.654 -0.783,-4.356c-0.001,-0.005 -0.002,-0.013 -0.003,-0.018c-0.223,-0.109 -0.481,-0.19 -0.752,-0.225c-3.53,6.185 -11.484,8.675 -13.973,3.996c-3.385,-6.363 -7.504,-1.595 -10.572,0.3Z" style="fill:#be4a01;fill-rule:nonzero;"/><path d="M69.113,88.805c-4.299,-0.774 -11.81,0.83 -18.84,4.303c2.992,0.99 6.979,2.329 9.019,3.034c0.73,0.252 1.788,0.066 2.389,-0.419c2.094,-1.689 6.65,-5.296 9.042,-7.16c-0.517,0.058 -1.056,0.139 -1.61,0.242l0,-0Z" style="fill:#b24703;"/><path d="M50.906,85.357c-1.868,1.512 -4.272,1.544 -3.357,3.109c0.914,1.564 4.801,4.069 6.67,2.557c1.868,-1.512 2.132,-3.073 1.217,-4.637c-0.914,-1.565 -2.662,-2.541 -4.53,-1.029Z" style="fill:#b24703;"/><path d="M65.265,91.094c-0.17,-0.972 -1.351,-1.577 -2.637,-1.352c-1.286,0.225 -4.344,0.695 -4.174,1.667c0.17,0.972 3.504,2.079 4.79,1.853c1.286,-0.225 2.191,-1.195 2.021,-2.168Z" style="fill:#be4a01;"/></g><g><path d="M72.635,82.428l28.161,-4.929c0,-0 1.786,10.268 1.983,11.326c0.209,1.122 -0.361,2.605 -1.309,3.34c-2.242,1.74 -7.267,5.715 -9.473,7.496c-0.895,0.722 -2.47,0.998 -3.558,0.623c-2.68,-0.926 -8.756,-2.958 -11.456,-3.833c-1.141,-0.369 -2.181,-1.571 -2.365,-2.697c-0.175,-1.061 -1.983,-11.326 -1.983,-11.326Z" style="fill:#a64202;"/><path d="M82.031,63.677c0.895,-0.722 2.471,-0.998 3.558,-0.622c2.68,0.925 8.756,2.958 11.457,3.832c1.141,0.37 2.18,1.571 2.365,2.697c0.174,1.061 1.786,10.268 1.983,11.326c0.208,1.122 -0.361,2.605 -1.309,3.34c-2.243,1.74 -7.267,5.715 -9.474,7.496c-0.895,0.723 -2.47,0.998 -3.557,0.623c-2.68,-0.925 -8.756,-2.958 -11.457,-3.832c-1.141,-0.37 -2.18,-1.571 -2.365,-2.697c-0.174,-1.062 -1.786,-10.269 -1.983,-11.326c-0.208,-1.122 0.361,-2.605 1.309,-3.34c2.243,-1.74 7.267,-5.716 9.473,-7.497Z" style="fill:#c34e03;"/><path id="path308516" serif:id="path30851" d="M82.8,64.63c-2.21,1.785 -7.245,5.768 -9.492,7.511c-0.611,0.474 -0.989,1.425 -0.855,2.149c0.198,1.06 0.484,2.654 0.784,4.357c0.128,0.726 0.335,1.904 0.461,2.63c0.296,1.704 0.568,3.3 0.743,4.364c0.119,0.726 0.798,1.492 1.533,1.731c2.706,0.876 8.794,2.912 11.479,3.839c0.731,0.252 1.788,0.067 2.389,-0.418c2.211,-1.784 7.245,-5.767 9.492,-7.511c0.611,-0.474 0.99,-1.425 0.856,-2.148c-0.197,-1.06 -0.483,-2.654 -0.784,-4.357c-0.128,-0.726 -0.334,-1.904 -0.46,-2.63c-0.296,-1.704 -0.569,-3.3 -0.744,-4.365c-0.119,-0.726 -0.798,-1.492 -1.534,-1.73c-2.705,-0.876 -8.793,-2.913 -11.479,-3.84c-0.73,-0.252 -1.788,-0.067 -2.389,0.418Z" style="fill:#f28703;fill-rule:nonzero;"/><path id="path308536" serif:id="path30853" d="M83.946,64.145c-0.43,0.076 -0.845,0.243 -1.146,0.485c-2.211,1.784 -7.244,5.768 -9.491,7.511c-0.611,0.474 -0.99,1.426 -0.855,2.149c0.197,1.061 0.483,2.654 0.783,4.357c0.128,0.727 0.334,1.904 0.461,2.63c0.295,1.704 0.568,3.3 0.743,4.364c0.119,0.726 0.798,1.492 1.534,1.73c2.705,0.877 8.793,2.914 11.478,3.841c0.365,0.126 0.812,0.142 1.243,0.066c-0.34,0.06 -0.694,0.042 -0.984,-0.067c-2.134,-0.804 -6.972,-2.571 -9.122,-3.332c-0.584,-0.206 -1.129,-0.856 -1.229,-1.468c-0.148,-0.897 -0.378,-2.241 -0.627,-3.677c-0.106,-0.612 -0.28,-1.603 -0.388,-2.215c-0.253,-1.435 -0.494,-2.778 -0.659,-3.672c-0.113,-0.609 0.178,-1.405 0.657,-1.798c1.764,-1.446 5.713,-4.752 7.448,-6.232c0.471,-0.403 1.307,-0.549 1.887,-0.331c2.134,0.804 6.972,2.571 9.121,3.332c0.585,0.207 1.129,0.857 1.23,1.468c0.148,0.897 0.378,2.242 0.628,3.678c0.106,0.612 0.28,1.603 0.388,2.215c0.252,1.434 0.493,2.777 0.658,3.671c0.113,0.609 -0.178,1.406 -0.657,1.799c-1.764,1.446 -5.714,4.751 -7.448,6.232c-0.236,0.201 -0.562,0.338 -0.903,0.397c0.431,-0.075 0.846,-0.242 1.146,-0.484c2.211,-1.785 7.245,-5.768 9.492,-7.512c0.611,-0.474 0.99,-1.425 0.856,-2.149c-0.197,-1.06 -0.483,-2.653 -0.784,-4.356c-0.128,-0.726 -0.334,-1.904 -0.46,-2.63c-0.296,-1.704 -0.568,-3.3 -0.743,-4.364c-0.119,-0.726 -0.8,-1.493 -1.535,-1.731c-2.706,-0.876 -8.793,-2.913 -11.479,-3.84c-0.365,-0.126 -0.812,-0.142 -1.243,-0.067l0,0Z" style="fill:#e36a02;fill-rule:nonzero;"/><path id="_8556" serif:id="855" d="M74.106,80.831c-0.159,0.082 -0.305,0.18 -0.436,0.288c0.008,0.047 0.02,0.115 0.028,0.158c0.295,1.704 0.568,3.3 0.743,4.364c0.119,0.726 0.798,1.492 1.534,1.73c2.705,0.877 8.793,2.914 11.478,3.841c0.73,0.252 1.788,0.067 2.389,-0.418c2.211,-1.785 7.245,-5.768 9.492,-7.512c0.611,-0.474 0.99,-1.425 0.856,-2.149c-0.197,-1.06 -0.483,-2.653 -0.784,-4.356c-0,-0.005 -0.002,-0.013 -0.003,-0.018c-0.222,-0.109 -0.48,-0.19 -0.751,-0.225c-3.53,6.185 -11.484,8.675 -13.973,3.996c-3.385,-6.362 -7.505,-1.595 -10.573,0.301Z" style="fill:#eb7803;fill-rule:nonzero;"/><path d="M97.275,83.875c-4.299,-0.773 -11.81,0.831 -18.841,4.304c2.993,0.989 6.98,2.329 9.019,3.033c0.73,0.252 1.788,0.067 2.389,-0.418c2.094,-1.69 6.65,-5.297 9.043,-7.16c-0.518,0.058 -1.057,0.139 -1.61,0.241l-0,-0Z" style="fill:#e36a02;"/><path d="M79.068,80.428c-1.869,1.512 -4.273,1.544 -3.358,3.108c0.915,1.564 4.802,4.069 6.67,2.557c1.868,-1.512 2.133,-3.073 1.218,-4.637c-0.915,-1.565 -2.662,-2.54 -4.53,-1.028Z" style="fill:#e36a02;"/><path d="M93.427,86.165c-0.171,-0.973 -1.351,-1.578 -2.637,-1.353c-1.287,0.225 -4.345,0.695 -4.175,1.667c0.171,0.972 3.505,2.079 4.791,1.854c1.286,-0.226 2.191,-1.196 2.021,-2.168Z" style="fill:#eb7803;"/></g></g><g><g><path d="M230.189,39.884l27.469,7.926c0,-0 -2.9,10.011 -3.187,11.048c-0.305,1.099 -1.467,2.182 -2.641,2.427c-2.779,0.579 -9.038,1.947 -11.802,2.579c-1.122,0.257 -2.658,-0.186 -3.47,-1.001c-2.003,-2.007 -6.571,-6.499 -8.614,-8.47c-0.864,-0.833 -1.27,-2.368 -0.942,-3.461c0.309,-1.031 3.187,-11.048 3.187,-11.048Z" style="fill:#a64202;"/><path d="M246.86,27.157c1.121,-0.256 2.658,0.187 3.47,1.001c2.002,2.008 6.571,6.5 8.614,8.471c0.863,0.832 1.27,2.368 0.942,3.461c-0.309,1.03 -2.9,10.011 -3.188,11.047c-0.305,1.1 -1.467,2.183 -2.641,2.428c-2.779,0.579 -9.038,1.947 -11.802,2.579c-1.121,0.257 -2.658,-0.187 -3.47,-1.001c-2.003,-2.007 -6.571,-6.5 -8.614,-8.47c-0.863,-0.833 -1.27,-2.368 -0.942,-3.461c0.31,-1.031 2.901,-10.011 3.188,-11.048c0.305,-1.1 1.467,-2.182 2.641,-2.427c2.779,-0.58 9.038,-1.948 11.802,-2.58Z" style="fill:#c34e03;"/><path id="path308517" serif:id="path30851" d="M247.133,28.351c-2.77,0.633 -9.041,2.004 -11.825,2.584c-0.757,0.158 -1.515,0.847 -1.711,1.556c-0.288,1.04 -0.73,2.598 -1.207,4.26c-0.204,0.709 -0.535,1.857 -0.741,2.565c-0.481,1.661 -0.937,3.215 -1.247,4.248c-0.211,0.704 0.063,1.691 0.619,2.227c2.047,1.975 6.625,6.476 8.631,8.487c0.545,0.547 1.577,0.845 2.33,0.673c2.77,-0.634 9.041,-2.005 11.825,-2.585c0.757,-0.158 1.515,-0.847 1.711,-1.556c0.288,-1.039 0.731,-2.597 1.208,-4.258c0.203,-0.709 0.535,-1.858 0.74,-2.566c0.482,-1.661 0.937,-3.215 1.247,-4.248c0.211,-0.705 -0.063,-1.691 -0.619,-2.228c-2.047,-1.975 -6.625,-6.476 -8.631,-8.487c-0.545,-0.547 -1.577,-0.844 -2.33,-0.672Z" style="fill:#f28703;fill-rule:nonzero;"/><path id="path308537" serif:id="path30853" d="M248.376,28.418c-0.421,-0.122 -0.867,-0.154 -1.243,-0.068c-2.77,0.634 -9.041,2.005 -11.825,2.586c-0.757,0.158 -1.515,0.847 -1.711,1.556c-0.288,1.039 -0.73,2.597 -1.208,4.259c-0.203,0.709 -0.534,1.857 -0.74,2.565c-0.481,1.661 -0.936,3.214 -1.246,4.247c-0.212,0.705 0.062,1.692 0.619,2.228c2.047,1.975 6.623,6.476 8.63,8.488c0.273,0.273 0.667,0.483 1.087,0.605c-0.332,-0.096 -0.642,-0.267 -0.855,-0.493c-1.565,-1.658 -5.137,-5.368 -6.735,-6.995c-0.434,-0.443 -0.638,-1.266 -0.46,-1.86c0.26,-0.87 0.644,-2.179 1.05,-3.578c0.173,-0.597 0.452,-1.564 0.623,-2.161c0.402,-1.4 0.775,-2.713 1.018,-3.589c0.166,-0.597 0.777,-1.185 1.38,-1.328c2.22,-0.526 7.219,-1.763 9.427,-2.333c0.6,-0.155 1.415,0.081 1.841,0.532c1.565,1.658 5.137,5.368 6.735,6.995c0.434,0.443 0.638,1.266 0.461,1.859c-0.261,0.871 -0.644,2.181 -1.05,3.58c-0.173,0.597 -0.452,1.564 -0.623,2.161c-0.402,1.4 -0.776,2.712 -1.019,3.588c-0.166,0.597 -0.777,1.185 -1.38,1.328c-2.219,0.525 -7.219,1.763 -9.427,2.332c-0.3,0.078 -0.654,0.057 -0.986,-0.038c0.421,0.121 0.867,0.153 1.243,0.067c2.77,-0.633 9.041,-2.005 11.825,-2.585c0.757,-0.158 1.515,-0.847 1.712,-1.556c0.288,-1.039 0.73,-2.597 1.207,-4.259c0.204,-0.708 0.535,-1.857 0.74,-2.565c0.482,-1.661 0.937,-3.214 1.247,-4.248c0.212,-0.704 -0.063,-1.691 -0.62,-2.228c-2.047,-1.975 -6.623,-6.476 -8.63,-8.487c-0.273,-0.274 -0.667,-0.484 -1.087,-0.605l-0,-0Z" style="fill:#e36a02;fill-rule:nonzero;"/><path id="_8557" serif:id="855" d="M232.212,39.094c-0.178,0.004 -0.353,0.028 -0.518,0.068c-0.013,0.045 -0.032,0.112 -0.045,0.154c-0.481,1.661 -0.936,3.214 -1.246,4.247c-0.212,0.705 0.062,1.692 0.619,2.228c2.047,1.975 6.623,6.476 8.63,8.488c0.545,0.546 1.577,0.844 2.33,0.672c2.77,-0.633 9.041,-2.005 11.825,-2.585c0.757,-0.158 1.515,-0.847 1.712,-1.556c0.288,-1.039 0.73,-2.597 1.207,-4.259c0.001,-0.004 0.004,-0.012 0.005,-0.017c-0.152,-0.195 -0.348,-0.381 -0.576,-0.532c-5.886,4.01 -14.127,2.757 -14.31,-2.539c-0.251,-7.203 -6.044,-4.726 -9.633,-4.369Z" style="fill:#eb7803;fill-rule:nonzero;"/><path d="M251.696,51.995c-3.524,-2.581 -10.977,-4.435 -18.818,-4.399c2.255,2.202 5.25,5.155 6.774,6.683c0.545,0.546 1.577,0.844 2.33,0.672c2.623,-0.6 8.299,-1.842 11.267,-2.467c-0.491,-0.175 -1.01,-0.339 -1.553,-0.489l0,-0Z" style="fill:#e36a02;"/><path d="M236.848,40.909c-2.342,0.539 -4.517,-0.487 -4.381,1.32c0.135,1.807 2.53,5.763 4.872,5.224c2.342,-0.539 3.264,-1.826 3.129,-3.633c-0.136,-1.807 -1.278,-3.45 -3.62,-2.911Z" style="fill:#e36a02;"/><path d="M247.234,52.364c0.273,-0.948 -0.522,-2.011 -1.776,-2.373c-1.255,-0.362 -4.209,-1.281 -4.483,-0.333c-0.274,0.948 2.237,3.405 3.492,3.767c1.254,0.362 2.493,-0.113 2.767,-1.061Z" style="fill:#eb7803;"/></g><g><path d="M257.659,47.81l27.469,7.926c-0,-0 -2.9,10.011 -3.188,11.047c-0.305,1.1 -1.467,2.183 -2.641,2.428c-2.779,0.579 -9.038,1.947 -11.802,2.579c-1.121,0.257 -2.658,-0.187 -3.47,-1.001c-2.003,-2.007 -6.571,-6.5 -8.614,-8.47c-0.863,-0.833 -1.27,-2.368 -0.942,-3.462c0.309,-1.03 3.188,-11.047 3.188,-11.047Z" style="fill:#a64202;"/><path d="M274.329,35.083c1.121,-0.257 2.658,0.187 3.47,1.001c2.003,2.007 6.571,6.5 8.614,8.47c0.863,0.833 1.27,2.368 0.942,3.461c-0.309,1.031 -2.9,10.012 -3.187,11.048c-0.305,1.1 -1.468,2.183 -2.642,2.427c-2.778,0.58 -9.038,1.948 -11.802,2.58c-1.121,0.256 -2.657,-0.187 -3.47,-1.001c-2.002,-2.008 -6.57,-6.5 -8.613,-8.471c-0.864,-0.832 -1.27,-2.368 -0.942,-3.461c0.309,-1.03 2.9,-10.01 3.187,-11.047c0.305,-1.1 1.467,-2.183 2.641,-2.428c2.779,-0.579 9.038,-1.947 11.802,-2.579Z" style="fill:#c34e03;"/><path id="path308518" serif:id="path30851" d="M274.602,36.276c-2.769,0.634 -9.041,2.005 -11.825,2.585c-0.757,0.158 -1.514,0.847 -1.711,1.556c-0.288,1.039 -0.73,2.597 -1.207,4.26c-0.204,0.708 -0.535,1.857 -0.74,2.565c-0.482,1.661 -0.937,3.214 -1.247,4.247c-0.212,0.705 0.062,1.691 0.619,2.228c2.047,1.975 6.624,6.476 8.63,8.487c0.546,0.547 1.577,0.844 2.33,0.672c2.77,-0.633 9.041,-2.004 11.825,-2.584c0.757,-0.158 1.515,-0.847 1.712,-1.556c0.288,-1.039 0.73,-2.597 1.207,-4.259c0.204,-0.708 0.535,-1.857 0.741,-2.565c0.481,-1.661 0.936,-3.215 1.246,-4.248c0.212,-0.705 -0.063,-1.692 -0.619,-2.228c-2.047,-1.975 -6.624,-6.476 -8.631,-8.487c-0.545,-0.547 -1.577,-0.845 -2.33,-0.673Z" style="fill:#f28703;fill-rule:nonzero;"/><path id="path308538" serif:id="path30853" d="M275.845,36.343c-0.42,-0.121 -0.866,-0.153 -1.243,-0.067c-2.769,0.633 -9.04,2.005 -11.825,2.585c-0.756,0.158 -1.514,0.847 -1.711,1.556c-0.288,1.04 -0.73,2.598 -1.207,4.26c-0.204,0.708 -0.535,1.857 -0.74,2.565c-0.482,1.66 -0.937,3.214 -1.247,4.247c-0.212,0.705 0.063,1.691 0.619,2.228c2.047,1.975 6.624,6.476 8.63,8.487c0.273,0.274 0.667,0.484 1.088,0.605c-0.332,-0.095 -0.643,-0.267 -0.855,-0.492c-1.566,-1.658 -5.137,-5.369 -6.735,-6.996c-0.435,-0.442 -0.639,-1.265 -0.461,-1.859c0.26,-0.87 0.644,-2.179 1.05,-3.578c0.173,-0.597 0.452,-1.564 0.623,-2.161c0.403,-1.401 0.775,-2.714 1.018,-3.589c0.166,-0.597 0.777,-1.185 1.381,-1.328c2.219,-0.526 7.218,-1.763 9.426,-2.333c0.601,-0.155 1.416,0.08 1.841,0.531c1.565,1.659 5.137,5.369 6.735,6.996c0.435,0.442 0.639,1.265 0.461,1.859c-0.261,0.871 -0.644,2.181 -1.049,3.58c-0.173,0.597 -0.453,1.564 -0.624,2.161c-0.402,1.4 -0.775,2.712 -1.019,3.588c-0.166,0.597 -0.777,1.185 -1.38,1.328c-2.219,0.525 -7.218,1.763 -9.426,2.332c-0.301,0.078 -0.654,0.057 -0.986,-0.039c0.42,0.122 0.866,0.154 1.242,0.068c2.77,-0.634 9.041,-2.005 11.825,-2.586c0.757,-0.158 1.516,-0.846 1.712,-1.555c0.288,-1.04 0.73,-2.597 1.207,-4.259c0.204,-0.708 0.535,-1.857 0.741,-2.565c0.481,-1.661 0.937,-3.215 1.247,-4.248c0.211,-0.705 -0.064,-1.692 -0.621,-2.228c-2.046,-1.975 -6.623,-6.476 -8.629,-8.488c-0.273,-0.273 -0.668,-0.483 -1.088,-0.605l-0,0Z" style="fill:#e36a02;fill-rule:nonzero;"/><path id="_8558" serif:id="855" d="M259.682,47.02c-0.179,0.004 -0.354,0.028 -0.519,0.068c-0.013,0.045 -0.032,0.111 -0.044,0.154c-0.482,1.66 -0.937,3.214 -1.247,4.247c-0.212,0.705 0.063,1.691 0.619,2.228c2.047,1.975 6.624,6.476 8.63,8.487c0.546,0.547 1.577,0.845 2.33,0.673c2.77,-0.634 9.041,-2.005 11.825,-2.586c0.757,-0.157 1.516,-0.846 1.712,-1.555c0.288,-1.039 0.73,-2.597 1.207,-4.259c0.002,-0.004 0.004,-0.012 0.005,-0.017c-0.152,-0.196 -0.348,-0.381 -0.576,-0.532c-5.886,4.01 -14.126,2.757 -14.31,-2.539c-0.25,-7.203 -6.044,-4.726 -9.632,-4.369Z" style="fill:#eb7803;fill-rule:nonzero;"/><path d="M279.166,59.92c-3.524,-2.581 -10.978,-4.435 -18.819,-4.398c2.255,2.202 5.25,5.155 6.774,6.682c0.546,0.547 1.577,0.845 2.33,0.673c2.623,-0.6 8.3,-1.842 11.268,-2.467c-0.491,-0.175 -1.011,-0.339 -1.553,-0.49l-0,0Z" style="fill:#e36a02;"/><path d="M264.317,48.834c-2.342,0.539 -4.517,-0.487 -4.381,1.321c0.136,1.807 2.53,5.763 4.872,5.224c2.342,-0.539 3.265,-1.826 3.129,-3.633c-0.136,-1.807 -1.278,-3.451 -3.62,-2.912Z" style="fill:#e36a02;"/><path d="M274.703,60.29c0.274,-0.949 -0.522,-2.011 -1.776,-2.373c-1.255,-0.362 -4.209,-1.282 -4.483,-0.333c-0.273,0.948 2.238,3.405 3.492,3.767c1.255,0.362 2.493,-0.113 2.767,-1.061Z" style="fill:#eb7803;"/></g><g><path d="M209.995,58.311l27.469,7.925c-0,0 -2.9,10.011 -3.188,11.048c-0.305,1.1 -1.467,2.182 -2.641,2.427c-2.779,0.579 -9.038,1.948 -11.802,2.58c-1.121,0.256 -2.658,-0.187 -3.47,-1.001c-2.003,-2.008 -6.571,-6.5 -8.614,-8.471c-0.863,-0.833 -1.27,-2.368 -0.942,-3.461c0.309,-1.03 3.188,-11.047 3.188,-11.047Z" style="fill:#a64202;"/><path d="M226.665,45.583c1.122,-0.256 2.658,0.187 3.47,1.002c2.003,2.007 6.571,6.499 8.614,8.47c0.863,0.832 1.27,2.368 0.942,3.461c-0.309,1.03 -2.9,10.011 -3.187,11.048c-0.305,1.099 -1.467,2.182 -2.642,2.427c-2.778,0.579 -9.037,1.947 -11.802,2.58c-1.121,0.256 -2.657,-0.187 -3.47,-1.002c-2.002,-2.007 -6.57,-6.499 -8.613,-8.47c-0.864,-0.833 -1.27,-2.368 -0.942,-3.461c0.309,-1.03 2.9,-10.011 3.187,-11.048c0.305,-1.099 1.467,-2.182 2.641,-2.427c2.779,-0.579 9.038,-1.948 11.802,-2.58Z" style="fill:#c34e03;"/><path id="path308519" serif:id="path30851" d="M226.938,46.777c-2.769,0.633 -9.041,2.004 -11.825,2.585c-0.757,0.158 -1.514,0.846 -1.711,1.555c-0.288,1.04 -0.73,2.598 -1.207,4.26c-0.204,0.709 -0.535,1.857 -0.74,2.565c-0.482,1.661 -0.937,3.215 -1.247,4.248c-0.212,0.704 0.062,1.691 0.619,2.228c2.047,1.974 6.624,6.475 8.63,8.487c0.546,0.546 1.577,0.844 2.33,0.672c2.77,-0.634 9.041,-2.004 11.825,-2.585c0.757,-0.158 1.515,-0.846 1.712,-1.555c0.288,-1.04 0.73,-2.597 1.207,-4.259c0.204,-0.709 0.535,-1.857 0.741,-2.565c0.481,-1.661 0.937,-3.216 1.246,-4.249c0.212,-0.705 -0.063,-1.691 -0.619,-2.228c-2.047,-1.974 -6.624,-6.475 -8.631,-8.487c-0.545,-0.546 -1.577,-0.844 -2.33,-0.672Z" style="fill:#ce5c03;fill-rule:nonzero;"/><path id="path308539" serif:id="path30853" d="M228.181,46.844c-0.42,-0.121 -0.866,-0.153 -1.243,-0.067c-2.769,0.633 -9.04,2.004 -11.824,2.585c-0.757,0.158 -1.515,0.847 -1.712,1.556c-0.288,1.039 -0.73,2.597 -1.207,4.259c-0.204,0.709 -0.535,1.857 -0.74,2.565c-0.482,1.661 -0.937,3.215 -1.247,4.247c-0.212,0.705 0.063,1.692 0.619,2.229c2.047,1.974 6.624,6.475 8.63,8.487c0.273,0.273 0.667,0.484 1.088,0.605c-0.332,-0.096 -0.643,-0.267 -0.855,-0.492c-1.566,-1.659 -5.137,-5.369 -6.735,-6.996c-0.435,-0.442 -0.639,-1.266 -0.461,-1.859c0.261,-0.871 0.644,-2.18 1.05,-3.579c0.173,-0.597 0.452,-1.564 0.623,-2.161c0.403,-1.4 0.775,-2.713 1.019,-3.589c0.165,-0.597 0.776,-1.185 1.38,-1.328c2.219,-0.525 7.218,-1.763 9.426,-2.332c0.601,-0.155 1.416,0.08 1.841,0.531c1.566,1.658 5.137,5.369 6.735,6.996c0.435,0.442 0.639,1.265 0.461,1.859c-0.261,0.87 -0.644,2.18 -1.049,3.58c-0.173,0.596 -0.452,1.563 -0.624,2.16c-0.402,1.401 -0.775,2.713 -1.019,3.588c-0.166,0.597 -0.777,1.185 -1.38,1.328c-2.219,0.526 -7.218,1.763 -9.426,2.333c-0.301,0.077 -0.654,0.057 -0.986,-0.039c0.42,0.121 0.866,0.153 1.242,0.067c2.77,-0.633 9.041,-2.005 11.825,-2.585c0.757,-0.158 1.516,-0.847 1.712,-1.556c0.288,-1.039 0.73,-2.596 1.207,-4.258c0.204,-0.709 0.535,-1.857 0.741,-2.565c0.481,-1.661 0.937,-3.215 1.247,-4.248c0.211,-0.705 -0.064,-1.692 -0.62,-2.229c-2.047,-1.974 -6.624,-6.476 -8.63,-8.487c-0.273,-0.273 -0.668,-0.484 -1.088,-0.605l-0,-0Z" style="fill:#b24703;fill-rule:nonzero;"/><path id="_8559" serif:id="855" d="M212.018,57.52c-0.179,0.004 -0.354,0.029 -0.519,0.068c-0.013,0.046 -0.032,0.112 -0.044,0.154c-0.482,1.661 -0.937,3.215 -1.247,4.247c-0.212,0.705 0.063,1.692 0.619,2.229c2.047,1.974 6.624,6.475 8.63,8.487c0.546,0.547 1.578,0.844 2.33,0.672c2.77,-0.633 9.041,-2.005 11.825,-2.585c0.757,-0.158 1.516,-0.847 1.712,-1.556c0.288,-1.039 0.73,-2.596 1.207,-4.258c0.002,-0.005 0.004,-0.013 0.005,-0.017c-0.152,-0.196 -0.348,-0.382 -0.576,-0.533c-5.886,4.01 -14.126,2.758 -14.31,-2.539c-0.25,-7.203 -6.044,-4.726 -9.632,-4.369Z" style="fill:#be4a01;fill-rule:nonzero;"/><path d="M231.502,70.421c-3.524,-2.581 -10.977,-4.435 -18.819,-4.399c2.255,2.202 5.25,5.155 6.774,6.683c0.546,0.547 1.578,0.844 2.33,0.672c2.623,-0.6 8.3,-1.841 11.268,-2.466c-0.491,-0.175 -1.011,-0.339 -1.553,-0.49l-0,-0Z" style="fill:#b24703;"/><path d="M216.653,59.335c-2.342,0.539 -4.516,-0.487 -4.381,1.32c0.136,1.807 2.53,5.763 4.872,5.224c2.342,-0.539 3.265,-1.825 3.129,-3.633c-0.136,-1.807 -1.278,-3.45 -3.62,-2.911Z" style="fill:#b24703;"/><path d="M227.039,70.79c0.274,-0.948 -0.522,-2.01 -1.776,-2.372c-1.255,-0.362 -4.209,-1.282 -4.483,-0.334c-0.273,0.949 2.238,3.406 3.492,3.768c1.255,0.362 2.493,-0.114 2.767,-1.062Z" style="fill:#be4a01;"/></g><g><path d="M237.464,66.236l27.469,7.926c0,-0 -2.9,10.011 -3.188,11.048c-0.304,1.099 -1.467,2.182 -2.641,2.427c-2.779,0.579 -9.038,1.947 -11.802,2.58c-1.121,0.256 -2.657,-0.187 -3.47,-1.002c-2.002,-2.007 -6.571,-6.499 -8.614,-8.47c-0.863,-0.833 -1.27,-2.368 -0.941,-3.461c0.309,-1.031 3.187,-11.048 3.187,-11.048Z" style="fill:#a64202;"/><path d="M254.135,53.509c1.121,-0.256 2.657,0.187 3.47,1.001c2.002,2.008 6.57,6.5 8.613,8.471c0.864,0.832 1.27,2.368 0.943,3.461c-0.309,1.03 -2.901,10.011 -3.188,11.048c-0.305,1.099 -1.467,2.182 -2.641,2.427c-2.779,0.579 -9.038,1.947 -11.802,2.579c-1.122,0.257 -2.658,-0.187 -3.47,-1.001c-2.003,-2.007 -6.571,-6.5 -8.614,-8.47c-0.863,-0.833 -1.27,-2.368 -0.942,-3.461c0.309,-1.031 2.9,-10.011 3.188,-11.048c0.304,-1.1 1.466,-2.182 2.641,-2.427c2.778,-0.58 9.037,-1.948 11.802,-2.58Z" style="fill:#c34e03;"/><path id="path3085110" serif:id="path30851" d="M254.408,54.703c-2.77,0.633 -9.041,2.004 -11.825,2.585c-0.757,0.157 -1.515,0.846 -1.711,1.555c-0.288,1.04 -0.731,2.598 -1.208,4.26c-0.203,0.709 -0.535,1.857 -0.74,2.565c-0.482,1.661 -0.937,3.215 -1.247,4.248c-0.212,0.704 0.063,1.691 0.619,2.227c2.047,1.975 6.624,6.476 8.631,8.487c0.545,0.547 1.577,0.845 2.33,0.673c2.769,-0.634 9.041,-2.005 11.825,-2.585c0.757,-0.158 1.514,-0.847 1.711,-1.556c0.288,-1.039 0.731,-2.596 1.208,-4.258c0.203,-0.709 0.535,-1.858 0.74,-2.566c0.481,-1.661 0.937,-3.215 1.247,-4.248c0.211,-0.705 -0.063,-1.691 -0.62,-2.228c-2.047,-1.975 -6.624,-6.476 -8.63,-8.487c-0.546,-0.547 -1.578,-0.844 -2.33,-0.672Z" style="fill:#f28703;fill-rule:nonzero;"/><path id="path3085310" serif:id="path30853" d="M255.65,54.77c-0.42,-0.122 -0.866,-0.154 -1.242,-0.068c-2.77,0.634 -9.041,2.005 -11.825,2.586c-0.757,0.158 -1.515,0.847 -1.711,1.556c-0.288,1.039 -0.731,2.597 -1.208,4.259c-0.203,0.709 -0.535,1.857 -0.74,2.565c-0.482,1.661 -0.937,3.214 -1.247,4.247c-0.211,0.705 0.063,1.692 0.619,2.228c2.047,1.975 6.624,6.476 8.63,8.488c0.273,0.273 0.668,0.483 1.088,0.605c-0.332,-0.096 -0.642,-0.267 -0.855,-0.493c-1.565,-1.658 -5.137,-5.368 -6.735,-6.995c-0.434,-0.443 -0.638,-1.266 -0.461,-1.86c0.261,-0.87 0.645,-2.179 1.05,-3.578c0.173,-0.597 0.452,-1.564 0.624,-2.161c0.402,-1.4 0.775,-2.713 1.018,-3.589c0.166,-0.597 0.777,-1.185 1.38,-1.328c2.219,-0.526 7.218,-1.763 9.427,-2.333c0.6,-0.154 1.415,0.081 1.841,0.532c1.565,1.658 5.137,5.368 6.735,6.995c0.434,0.443 0.638,1.266 0.46,1.86c-0.261,0.87 -0.644,2.18 -1.049,3.579c-0.173,0.597 -0.452,1.564 -0.624,2.161c-0.402,1.4 -0.775,2.713 -1.018,3.588c-0.166,0.597 -0.777,1.185 -1.381,1.328c-2.219,0.526 -7.218,1.763 -9.426,2.333c-0.3,0.077 -0.654,0.056 -0.986,-0.039c0.42,0.121 0.866,0.153 1.243,0.067c2.769,-0.633 9.04,-2.005 11.824,-2.585c0.757,-0.158 1.516,-0.847 1.712,-1.556c0.289,-1.039 0.731,-2.597 1.208,-4.258c0.203,-0.709 0.535,-1.857 0.74,-2.566c0.481,-1.66 0.937,-3.214 1.247,-4.248c0.211,-0.704 -0.064,-1.691 -0.62,-2.228c-2.047,-1.975 -6.624,-6.476 -8.63,-8.487c-0.273,-0.274 -0.667,-0.484 -1.088,-0.605l0,-0Z" style="fill:#e36a02;fill-rule:nonzero;"/><path id="_85510" serif:id="855" d="M239.487,65.446c-0.179,0.004 -0.353,0.028 -0.519,0.068c-0.013,0.046 -0.032,0.112 -0.044,0.154c-0.482,1.661 -0.937,3.214 -1.247,4.247c-0.211,0.705 0.063,1.692 0.619,2.228c2.047,1.975 6.624,6.476 8.63,8.488c0.546,0.546 1.578,0.844 2.331,0.672c2.769,-0.633 9.04,-2.005 11.824,-2.585c0.757,-0.158 1.516,-0.847 1.712,-1.556c0.289,-1.039 0.731,-2.597 1.208,-4.258c0.001,-0.005 0.003,-0.013 0.005,-0.017c-0.152,-0.196 -0.349,-0.382 -0.577,-0.533c-5.885,4.01 -14.126,2.757 -14.31,-2.539c-0.25,-7.203 -6.043,-4.726 -9.632,-4.369Z" style="fill:#eb7803;fill-rule:nonzero;"/><path d="M258.971,78.347c-3.524,-2.581 -10.977,-4.435 -18.818,-4.399c2.255,2.202 5.249,5.155 6.773,6.683c0.546,0.546 1.578,0.844 2.331,0.672c2.623,-0.6 8.299,-1.842 11.267,-2.467c-0.491,-0.175 -1.011,-0.338 -1.553,-0.489l0,-0Z" style="fill:#e36a02;"/><path d="M244.122,67.261c-2.342,0.539 -4.516,-0.487 -4.381,1.32c0.136,1.807 2.53,5.763 4.872,5.224c2.343,-0.539 3.265,-1.826 3.129,-3.633c-0.135,-1.807 -1.278,-3.45 -3.62,-2.911Z" style="fill:#e36a02;"/><path d="M254.508,78.716c0.274,-0.948 -0.521,-2.011 -1.776,-2.373c-1.254,-0.362 -4.209,-1.281 -4.482,-0.333c-0.274,0.948 2.237,3.406 3.491,3.768c1.255,0.362 2.494,-0.114 2.767,-1.062Z" style="fill:#eb7803;"/></g></g><g><path d="M161.874,121.018l28.557,-1.365c-0,-0 0.486,10.411 0.549,11.485c0.066,1.139 -0.684,2.539 -1.717,3.15c-2.443,1.445 -7.925,4.761 -10.337,6.251c-0.979,0.605 -2.576,0.681 -3.608,0.173c-2.543,-1.254 -8.317,-4.031 -10.887,-5.237c-1.085,-0.509 -1.966,-1.831 -2.008,-2.972c-0.04,-1.075 -0.549,-11.485 -0.549,-11.485Z" style="fill:#a64202;"/><path d="M173.544,103.591c0.978,-0.604 2.575,-0.681 3.607,-0.172c2.543,1.253 8.317,4.03 10.887,5.236c1.086,0.51 1.966,1.831 2.009,2.972c0.04,1.075 0.486,10.411 0.549,11.485c0.066,1.139 -0.684,2.539 -1.716,3.15c-2.443,1.445 -7.926,4.761 -10.338,6.251c-0.978,0.605 -2.576,0.681 -3.607,0.173c-2.544,-1.254 -8.318,-4.031 -10.887,-5.237c-1.086,-0.509 -1.967,-1.831 -2.009,-2.972c-0.04,-1.075 -0.486,-10.411 -0.549,-11.485c-0.067,-1.139 0.684,-2.539 1.716,-3.15c2.443,-1.445 7.925,-4.76 10.338,-6.251Z" style="fill:#c34e03;"/><path id="path3085111" serif:id="path30851" d="M174.187,104.633c-2.417,1.493 -7.91,4.815 -10.357,6.263c-0.666,0.394 -1.161,1.29 -1.118,2.025c0.063,1.077 0.148,2.694 0.233,4.421c0.036,0.737 0.093,1.931 0.127,2.667c0.08,1.727 0.151,3.345 0.191,4.423c0.027,0.735 0.605,1.58 1.305,1.909c2.575,1.208 8.36,3.99 10.908,5.246c0.693,0.342 1.765,0.29 2.422,-0.116c2.417,-1.493 7.91,-4.815 10.358,-6.263c0.665,-0.394 1.16,-1.29 1.118,-2.025c-0.063,-1.076 -0.147,-2.693 -0.232,-4.42c-0.036,-0.736 -0.093,-1.931 -0.128,-2.667c-0.08,-1.727 -0.151,-3.346 -0.191,-4.423c-0.027,-0.736 -0.605,-1.581 -1.305,-1.909c-2.575,-1.208 -8.36,-3.991 -10.908,-5.247c-0.693,-0.341 -1.766,-0.29 -2.423,0.116Z" style="fill:#f28703;fill-rule:nonzero;"/><path id="path3085311" serif:id="path30853" d="M175.385,104.295c-0.437,0.021 -0.869,0.135 -1.198,0.338c-2.417,1.493 -7.909,4.815 -10.357,6.263c-0.666,0.394 -1.16,1.291 -1.117,2.025c0.063,1.077 0.147,2.694 0.232,4.421c0.036,0.737 0.093,1.931 0.127,2.667c0.08,1.727 0.151,3.345 0.191,4.422c0.027,0.736 0.605,1.581 1.305,1.909c2.575,1.209 8.36,3.992 10.908,5.248c0.346,0.17 0.788,0.242 1.225,0.221c-0.346,0.017 -0.695,-0.045 -0.969,-0.19c-2.017,-1.064 -6.595,-3.423 -8.632,-4.447c-0.554,-0.278 -1.013,-0.992 -1.036,-1.611c-0.035,-0.908 -0.094,-2.271 -0.162,-3.726c-0.029,-0.62 -0.077,-1.626 -0.107,-2.246c-0.072,-1.456 -0.143,-2.819 -0.195,-3.726c-0.036,-0.619 0.353,-1.372 0.878,-1.702c1.93,-1.214 6.263,-3.999 8.169,-5.251c0.518,-0.34 1.365,-0.381 1.913,-0.091c2.017,1.064 6.596,3.423 8.633,4.447c0.554,0.278 1.013,0.992 1.036,1.611c0.034,0.908 0.095,2.272 0.163,3.727c0.028,0.62 0.077,1.626 0.107,2.246c0.071,1.455 0.142,2.818 0.194,3.725c0.036,0.619 -0.353,1.372 -0.878,1.702c-1.93,1.214 -6.263,3.999 -8.169,5.251c-0.259,0.17 -0.6,0.265 -0.946,0.281c0.437,-0.021 0.87,-0.134 1.198,-0.337c2.417,-1.494 7.91,-4.816 10.358,-6.264c0.665,-0.394 1.161,-1.291 1.118,-2.025c-0.063,-1.077 -0.147,-2.693 -0.232,-4.42c-0.036,-0.737 -0.093,-1.93 -0.128,-2.667c-0.08,-1.727 -0.15,-3.345 -0.19,-4.423c-0.028,-0.735 -0.607,-1.581 -1.307,-1.909c-2.574,-1.208 -8.359,-3.991 -10.907,-5.247c-0.347,-0.171 -0.788,-0.243 -1.225,-0.222l0,0Z" style="fill:#e36a02;fill-rule:nonzero;"/><path id="_85511" serif:id="855" d="M163.533,119.617c-0.168,0.062 -0.325,0.141 -0.469,0.232c0.003,0.047 0.006,0.116 0.008,0.16c0.08,1.727 0.151,3.345 0.191,4.422c0.027,0.736 0.605,1.581 1.305,1.909c2.575,1.209 8.36,3.992 10.908,5.248c0.693,0.341 1.765,0.29 2.422,-0.116c2.417,-1.494 7.91,-4.816 10.358,-6.264c0.665,-0.394 1.161,-1.291 1.118,-2.025c-0.063,-1.077 -0.147,-2.693 -0.232,-4.42c-0,-0.005 -0.001,-0.013 -0.001,-0.018c-0.207,-0.136 -0.453,-0.249 -0.717,-0.318c-4.277,5.695 -12.48,7.17 -14.364,2.216c-2.562,-6.737 -7.245,-2.522 -10.527,-1.026Z" style="fill:#eb7803;fill-rule:nonzero;"/><path d="M186.138,125.538c-4.168,-1.305 -11.821,-0.654 -19.231,1.911c2.846,1.357 6.633,3.185 8.569,4.139c0.693,0.341 1.765,0.29 2.422,-0.116c2.289,-1.415 7.261,-4.422 9.868,-5.972c-0.521,-0.007 -1.066,0.006 -1.628,0.038l0,0Z" style="fill:#e36a02;"/><path d="M168.506,119.838c-2.043,1.267 -4.432,0.998 -3.72,2.664c0.712,1.667 4.255,4.638 6.297,3.372c2.043,-1.266 2.501,-2.782 1.789,-4.448c-0.712,-1.667 -2.323,-2.854 -4.366,-1.588Z" style="fill:#e36a02;"/><path d="M182.034,127.328c-0.047,-0.986 -1.143,-1.734 -2.447,-1.672c-1.304,0.062 -4.397,0.145 -4.35,1.131c0.047,0.986 3.216,2.501 4.521,2.439c1.304,-0.062 2.323,-0.912 2.276,-1.898Z" style="fill:#eb7803;"/></g></g></svg>