<?xml version="1.0" encoding="UTF-8" standalone="no"?>
<!DOCTYPE svg PUBLIC "-//W3C//DTD SVG 1.1//EN" "http://www.w3.org/Graphics/SVG/1.1/DTD/svg11.dtd">
<svg width="100%" height="100%" viewBox="0 0 280 62" version="1.1" xmlns="http://www.w3.org/2000/svg" xmlns:xlink="http://www.w3.org/1999/xlink" xml:space="preserve" xmlns:serif="http://www.serif.com/" style="fill-rule:evenodd;clip-rule:evenodd;stroke-linejoin:round;stroke-miterlimit:2;">
    <g id="banner_43" transform="matrix(1,0,0,1,0,-8.7)">
        <path d="M280,47.751L-0,47.751L-0,65.286C-0,67.888 2.112,70 4.714,70L275.286,70C277.888,70 280,67.888 280,65.286L280,47.751Z" style="fill:#c5c5c5;"/>
        <g transform="matrix(-0.893232,-1.09389e-16,8.74808e-17,-0.714335,285.834,65.8968)">
            <path d="M320,8.028C320,5.159 318.138,2.83 315.844,2.83L10.688,2.83C8.394,2.83 6.532,5.159 6.532,8.028L6.532,74.803C6.532,77.671 8.394,80 10.688,80L315.844,80C318.138,80 320,77.671 320,74.803L320,8.028Z" style="fill:#eaeaea;"/>
        </g>
        <g transform="matrix(1,0,0,0.906501,0,4.62702)">
            <rect x="0" y="39.984" width="280" height="15.497" style="fill:#ffe800;"/>
        </g>
        <path d="M280,60.171L0,60.171L0,57.58L280,57.58L280,60.171ZM280,37.325L0,37.325L0,34.733L280,34.733L280,37.325Z" style="fill:#ffe800;"/>
        <g transform="matrix(0.227603,-0.021441,0.0178169,0.233561,205.063,11.1548)">
            <g transform="matrix(4.36228,0.400459,-0.33277,4.25099,-890.83,-129.538)">
                <path d="M249.081,70L233.555,70L233.8,55.201C233.542,51.818 236.009,48.818 239.306,48.508L245.759,47.9L249.081,70Z" style="fill:#542800;"/>
            </g>
            <g transform="matrix(4.36228,0.400459,-0.33277,4.25099,-890.83,-129.538)">
                <path d="M236.897,70L236.627,54.935C236.369,51.551 238.836,48.552 242.133,48.241L245.515,47.923C248.813,47.612 251.699,50.107 251.957,53.491L254.191,70L236.897,70Z" style="fill:#6c3503;"/>
            </g>
            <g>
                <g transform="matrix(4.36228,0.400459,-0.33277,4.25099,-890.83,-129.538)">
                    <path d="M240.049,70L243.139,70L242.602,52.52C242.576,51.665 241.864,51.035 241.014,51.115C240.163,51.195 239.494,51.955 239.521,52.81L240.049,70Z" style="fill:#542800;"/>
                </g>
                <g transform="matrix(4.36228,0.400459,-0.33277,4.25099,-890.83,-129.538)">
                    <path d="M240.049,70L242.42,70L241.874,52.227C241.853,51.571 241.307,51.088 240.655,51.149C240.003,51.211 239.489,51.793 239.509,52.45L240.049,70Z" style="fill:#823e00;"/>
                </g>
            </g>
            <g>
                <g transform="matrix(4.36228,0.400459,-0.33277,4.25099,-890.83,-129.538)">
                    <path d="M248.261,70L251.374,70L249.411,51.879C249.319,51.029 248.554,50.405 247.704,50.485C246.853,50.565 246.237,51.32 246.329,52.169L248.261,70Z" style="fill:#542800;"/>
                </g>
                <g transform="matrix(4.36228,0.400459,-0.33277,4.25099,-890.83,-129.538)">
                    <path d="M248.261,70L250.649,70L248.655,51.588C248.584,50.936 247.997,50.457 247.345,50.519C246.692,50.58 246.22,51.159 246.291,51.811L248.261,70Z" style="fill:#823e00;"/>
                </g>
            </g>
        </g>
        <g>
            <g transform="matrix(-1,-1.22465e-16,8.92019e-17,-0.728389,531.729,113.89)">
                <path d="M275.644,71.418L256.085,71.418L257.332,60.257L274.397,60.257L275.644,71.418Z" style="fill:#f6af4b;"/>
            </g>
            <path d="M257.973,70L257.408,69.265L257.507,70L256.875,70L255.776,61.918C255.762,61.828 255.788,61.736 255.848,61.667C255.907,61.598 255.994,61.558 256.085,61.558L275.644,61.558C275.735,61.558 275.821,61.598 275.881,61.667C275.94,61.736 275.966,61.828 275.953,61.918L274.713,70L274.081,70L274.131,69.673L273.88,70L273.091,70L274.162,68.606L273.517,67.82L272.398,69.277L272.953,70L272.165,70L272.004,69.79L271.843,70L271.055,70L271.61,69.277L270.484,67.812L269.359,69.277L269.914,70L269.126,70L268.965,69.79L268.804,70L268.016,70L268.571,69.277L267.446,67.812L266.32,69.277L266.875,70L266.087,70L265.926,69.79L265.765,70L264.977,70L265.532,69.277L264.407,67.812L263.281,69.277L263.836,70L263.048,70L262.887,69.79L262.726,70L261.938,70L262.493,69.277L261.368,67.812L260.243,69.277L260.798,70L260.01,70L259.848,69.79L259.687,70L258.899,70L259.454,69.277L258.335,67.82L257.69,68.606L258.761,70L257.973,70ZM264.801,67.299L265.926,68.764L267.051,67.299L265.926,65.834L264.801,67.299ZM258.742,67.324L259.848,68.764L260.974,67.299L259.905,65.907L258.742,67.324ZM270.878,67.299L272.004,68.764L273.11,67.324L271.947,65.907L270.878,67.299ZM261.762,67.299L262.887,68.764L264.013,67.299L262.887,65.834L261.762,67.299ZM267.84,67.299L268.965,68.764L270.09,67.299L268.965,65.834L267.84,67.299ZM257.02,66.399L257.257,68.149L257.944,67.311L257.136,66.259L257.02,66.399ZM273.908,67.311L274.401,67.912L274.639,66.359L273.908,67.311ZM272.338,65.398L273.501,66.815L274.307,65.765L273.139,64.356L272.338,65.398ZM257.545,65.765L258.351,66.815L259.514,65.398L258.713,64.356L257.545,65.765ZM263.281,65.321L264.407,66.786L265.532,65.321L264.407,63.856L263.281,65.321ZM260.312,65.411L261.368,66.786L262.493,65.321L261.474,63.994L260.312,65.411ZM269.359,65.321L270.484,66.786L271.54,65.411L270.378,63.994L269.359,65.321ZM266.32,65.321L267.446,66.786L268.571,65.321L267.446,63.856L266.32,65.321ZM272.149,62.183L273.12,63.355L273.837,62.422C273.942,62.285 274.138,62.259 274.275,62.364C274.412,62.469 274.437,62.666 274.332,62.803L273.529,63.848L274.698,65.257L274.836,65.077L275.28,62.183L272.149,62.183ZM256.82,64.921C256.882,64.939 256.938,64.976 256.981,65.031L257.155,65.257L258.323,63.848L257.52,62.803C257.415,62.666 257.441,62.469 257.577,62.364C257.714,62.259 257.91,62.285 258.016,62.422L258.732,63.355L259.703,62.183L256.449,62.183L256.82,64.921ZM260.422,62.183C260.422,62.253 260.398,62.324 260.35,62.382L259.122,63.863L259.921,64.902L261.083,63.486L260.559,62.803C260.454,62.666 260.479,62.469 260.616,62.364C260.753,62.259 260.949,62.285 261.054,62.422L261.49,62.989L261.963,62.414C262.072,62.281 262.269,62.261 262.402,62.371C262.536,62.48 262.555,62.677 262.446,62.81L261.881,63.498L262.887,64.808L264.013,63.343L263.598,62.803C263.492,62.666 263.518,62.469 263.655,62.364C263.792,62.259 263.988,62.285 264.093,62.422L264.407,62.83L264.72,62.422C264.825,62.285 265.022,62.259 265.158,62.364C265.295,62.469 265.321,62.666 265.216,62.803L264.801,63.343L265.926,64.808L267.051,63.343L266.636,62.803C266.531,62.666 266.557,62.469 266.694,62.364C266.831,62.259 267.027,62.285 267.132,62.422L267.446,62.83L267.759,62.422C267.864,62.285 268.06,62.259 268.197,62.364C268.334,62.469 268.36,62.666 268.255,62.803L267.84,63.343L268.965,64.808L269.971,63.498L269.406,62.81C269.297,62.677 269.316,62.48 269.45,62.371C269.583,62.261 269.78,62.281 269.89,62.414L270.362,62.989L270.798,62.422C270.903,62.285 271.099,62.259 271.236,62.364C271.373,62.469 271.399,62.666 271.294,62.803L270.769,63.486L271.931,64.902L272.73,63.863L271.502,62.382C271.454,62.324 271.43,62.253 271.431,62.183L260.422,62.183Z" style="fill:#de8250;"/>
            <path d="M255.776,61.918C255.762,61.828 255.788,61.736 255.848,61.667C255.907,61.598 255.994,61.558 256.085,61.558L275.644,61.558C275.735,61.558 275.821,61.598 275.881,61.667C275.94,61.736 275.966,61.828 275.953,61.918L275.539,64.611L256.142,64.611L255.776,61.918Z" style="fill:#c76f3f;fill-opacity:0.5;"/>
            <g transform="matrix(1,0,0,1,0.0752961,0)">
                <path d="M276.605,60.988C276.605,60.584 276.277,60.257 275.874,60.257L255.704,60.257C255.301,60.257 254.973,60.584 254.973,60.988L254.973,62.449C254.973,62.853 255.301,63.18 255.704,63.18L275.874,63.18C276.277,63.18 276.605,62.853 276.605,62.449L276.605,60.988Z" style="fill:#de8250;"/>
            </g>
            <path d="M275.803,60.257L275.949,60.257C276.2,60.257 276.421,60.383 276.553,60.575C276.066,60.881 275.49,61.058 274.873,61.058C274.873,61.058 272.681,61.058 272.682,61.057C271.782,62.01 270.506,62.605 269.093,62.605C267.726,62.605 266.487,62.048 265.593,61.149C264.695,62.38 263.242,63.18 261.602,63.18C259.923,63.18 258.438,62.34 257.546,61.057L256.561,61.058C256.036,61.058 255.542,60.93 255.106,60.703C255.202,60.477 255.408,60.309 255.657,60.267C255.938,60.374 256.243,60.433 256.561,60.433L257.713,60.433C257.819,60.433 257.918,60.487 257.976,60.576C258.744,61.766 260.082,62.555 261.602,62.555C263.123,62.555 264.291,61.637 265.229,60.576C265.321,60.472 265.311,60.438 265.494,60.433C265.506,60.432 265.57,60.43 265.61,60.433C265.826,60.45 265.818,60.473 265.875,60.537C266.665,61.422 267.814,61.98 269.093,61.98C270.372,61.98 271.521,61.422 272.311,60.537C272.37,60.471 272.455,60.433 272.544,60.433C272.544,60.433 274.873,60.433 274.873,60.433C275.201,60.433 275.515,60.37 275.803,60.257Z" style="fill:#bf693a;"/>
            <path d="M257.713,60.171L256.561,60.171C254.987,60.171 253.71,58.894 253.71,57.321C253.71,56.051 254.542,54.974 255.689,54.606C254.736,52.963 254.191,51.056 254.191,49.023C254.191,42.87 259.186,37.874 265.339,37.874C271.493,37.874 276.488,42.87 276.488,49.023C276.488,51.003 275.971,52.863 275.064,54.476C276.548,54.574 277.724,55.811 277.724,57.321C277.724,58.894 276.447,60.171 274.873,60.171L272.544,60.171C271.697,61.12 270.464,61.719 269.093,61.719C267.722,61.719 266.489,61.12 265.642,60.171L265.492,60.171C264.668,61.448 263.233,62.294 261.602,62.294C259.972,62.294 258.537,61.448 257.713,60.171Z" style="fill:#9cff74;"/>
            <path d="M258.878,39.939C258.613,40.217 258.364,40.517 258.133,40.84C257.535,41.676 256.995,42.587 256.704,43.578C256.02,45.905 256.419,48.622 257.121,50.901C257.541,52.262 258.071,54.721 258.071,54.721C258.071,54.721 255.12,54.864 256.05,57.088C256.489,58.137 258.178,58.178 258.96,56.906C258.698,58.783 260.26,60.328 261.948,60.423C264.413,60.561 265.707,59.164 265.707,59.164C265.707,59.164 267.353,60.912 269.32,60.95C270.552,60.974 271.903,60.021 272.201,59.58C272.201,59.58 272.93,59.849 273.023,59.882C273.404,60.021 273.607,60.051 273.863,60.171L272.544,60.171C271.697,61.12 270.464,61.719 269.093,61.719C267.722,61.719 266.489,61.12 265.642,60.171L265.492,60.171C264.668,61.448 263.233,62.294 261.602,62.294C259.972,62.294 258.537,61.448 257.713,60.171L256.561,60.171C254.987,60.171 253.71,58.894 253.71,57.321C253.71,56.051 254.542,54.974 255.689,54.606C254.736,52.963 254.191,51.056 254.191,49.023C254.191,45.277 256.042,41.961 258.878,39.939Z" style="fill:#6fce49;fill-opacity:0.5;"/>
            <path d="M265.593,60.575C266.487,61.474 267.726,62.031 269.093,62.031C270.506,62.031 271.782,61.436 272.682,60.483C272.681,60.484 274.873,60.484 274.873,60.484C276.619,60.484 278.037,59.066 278.037,57.321C278.037,55.807 276.971,54.541 275.551,54.23C276.35,52.667 276.801,50.897 276.801,49.023C276.801,42.697 271.665,37.562 265.339,37.562C259.014,37.562 253.878,42.697 253.878,49.023C253.878,50.984 254.372,52.83 255.242,54.445C254.154,54.946 253.398,56.046 253.398,57.321C253.398,59.066 254.815,60.484 256.561,60.484L257.546,60.484C258.438,61.766 259.923,62.607 261.602,62.607C263.242,62.607 264.695,61.806 265.593,60.575ZM265.875,59.963C265.818,59.9 265.826,59.876 265.61,59.859C265.57,59.856 265.506,59.859 265.494,59.859C265.311,59.865 265.321,59.898 265.229,60.002C264.291,61.063 263.123,61.982 261.602,61.982C260.082,61.982 258.744,61.193 257.976,60.002C257.918,59.913 257.819,59.859 257.713,59.859L256.561,59.859C255.16,59.859 254.023,58.722 254.023,57.321C254.023,56.19 254.763,55.232 255.785,54.903C255.875,54.874 255.947,54.806 255.981,54.718C256.015,54.63 256.007,54.531 255.96,54.449C255.034,52.853 254.503,50.999 254.503,49.023C254.503,43.042 259.359,38.187 265.339,38.187C271.32,38.187 276.176,43.042 276.176,49.023C276.176,50.947 275.673,52.755 274.791,54.323C274.739,54.416 274.738,54.531 274.789,54.625C274.84,54.719 274.936,54.781 275.043,54.788C276.365,54.875 277.412,55.977 277.412,57.321C277.412,58.722 276.274,59.859 274.873,59.859C274.873,59.859 272.544,59.859 272.544,59.859C272.455,59.859 272.37,59.897 272.311,59.963C271.521,60.848 270.372,61.406 269.093,61.406C267.814,61.406 266.665,60.848 265.875,59.963Z" style="fill:#6fce49;"/>
            <path d="M268.509,56.654C269.484,56.76 270.761,56.909 271.42,57.746C272.404,58.998 270.576,60.128 269.459,60.013C268.437,59.909 267.269,59.593 266.696,58.664C266.013,57.556 267.306,56.524 268.509,56.654ZM275.071,55.882C275.783,55.841 276.083,56.577 276.01,57.196C275.952,57.683 275.57,58.646 274.952,58.573C273.768,58.434 274.11,55.938 275.071,55.882ZM268.222,54.293C267.056,54.238 265.435,54.317 264.496,53.385C263.449,52.348 263.721,50.426 263.317,49.115C263.153,48.586 262.89,48.097 262.659,47.595C261.87,45.883 260.826,44.308 261.573,42.441C261.768,41.953 262.306,41.157 262.72,40.816C264.992,38.946 268.789,39.789 270.119,40.511C272.631,41.875 274.38,44.398 275.109,47.257C275.252,47.817 275.428,49.507 275.395,50.084C275.193,53.593 273.625,54.265 272.793,54.683C272.276,54.943 271.628,54.907 271.069,54.85C270.163,54.758 269.104,54.334 268.222,54.293Z" style="fill:#d4ffc2;fill-opacity:0.25;"/>
        </g>
        <g transform="matrix(0.840061,0,0,0.865765,-0.614877,6.21957)">
            <g transform="matrix(1.19039,0,0,1.15505,0.731943,-7.18391)">
                <path d="M41.055,21.113C41.055,18.443 38.887,16.275 36.216,16.275L9.095,16.275C6.425,16.275 4.257,18.443 4.257,21.113L4.257,56.696C4.257,59.366 6.425,61.534 9.095,61.534L36.216,61.534C38.887,61.534 41.055,59.366 41.055,56.696L41.055,21.113Z" style="fill:#79dcff;"/>
            </g>
            <g transform="matrix(1.19039,0,0,1.15505,0.731943,-7.18391)">
                <path d="M42.055,21.113C42.055,17.891 39.439,15.275 36.216,15.275L9.095,15.275C5.873,15.275 3.257,17.891 3.257,21.113C3.257,21.113 3.257,56.696 3.257,56.696C3.257,59.918 5.873,62.534 9.095,62.534C9.095,62.534 36.216,62.534 36.216,62.534C39.439,62.534 42.055,59.918 42.055,56.696L42.055,21.113ZM41.055,21.113C41.055,18.443 38.887,16.275 36.216,16.275L9.095,16.275C6.425,16.275 4.257,18.443 4.257,21.113L4.257,56.696C4.257,59.366 6.425,61.534 9.095,61.534L36.216,61.534C38.887,61.534 41.055,59.366 41.055,56.696L41.055,21.113Z" style="fill:#0bb7f4;"/>
            </g>
            <g transform="matrix(1.45028,0,0,1.40722,-5.15606,-13.4713)">
                <circle cx="16.27" cy="26.81" r="6.386" style="fill:#fff;"/>
            </g>
            <g transform="matrix(1.17407,-0.190593,0.196425,1.13922,-6.05456,-6.00759)">
                <path d="M13.728,34.239C13.478,34.239 13.283,34.169 13.143,34.03C13.004,33.89 12.934,33.7 12.934,33.46C12.934,33.209 13.004,33.022 13.143,32.896C13.283,32.771 13.478,32.709 13.728,32.709L15.345,32.709L15.345,25.62L16.24,25.62L14.118,26.905C13.935,27.011 13.764,27.051 13.605,27.027C13.446,27.003 13.312,26.936 13.201,26.825C13.09,26.715 13.016,26.582 12.977,26.428C12.939,26.274 12.951,26.118 13.013,25.959C13.076,25.8 13.199,25.668 13.381,25.562L15.374,24.364C15.566,24.248 15.759,24.149 15.951,24.068C16.144,23.986 16.322,23.945 16.486,23.945C16.688,23.945 16.856,24 16.991,24.111C17.126,24.222 17.193,24.402 17.193,24.652L17.193,32.709L18.666,32.709C18.916,32.709 19.111,32.771 19.251,32.896C19.39,33.022 19.46,33.209 19.46,33.46C19.46,33.71 19.39,33.902 19.251,34.037C19.111,34.172 18.916,34.239 18.666,34.239L13.728,34.239Z" style="fill-rule:nonzero;"/>
            </g>
            <g transform="matrix(1.45028,0,0,1.40722,14.5577,13.4559)">
                <circle cx="16.27" cy="26.81" r="6.386" style="fill:#fff;"/>
            </g>
            <g transform="matrix(1.16403,0.24174,-0.249137,1.12947,27.2771,14.2483)">
                <path d="M13.396,34.239C13.088,34.239 12.864,34.169 12.725,34.03C12.585,33.89 12.515,33.686 12.515,33.416C12.515,33.253 12.558,33.094 12.645,32.94C12.732,32.786 12.857,32.622 13.021,32.449L15.923,29.359C16.365,28.897 16.683,28.476 16.875,28.096C17.068,27.716 17.164,27.333 17.164,26.948C17.164,26.467 17.013,26.101 16.709,25.851C16.406,25.6 15.966,25.475 15.388,25.475C15.061,25.475 14.734,25.521 14.407,25.612C14.079,25.704 13.747,25.86 13.41,26.082C13.237,26.197 13.076,26.245 12.927,26.226C12.777,26.207 12.648,26.144 12.537,26.038C12.426,25.932 12.352,25.803 12.313,25.649C12.275,25.495 12.282,25.338 12.335,25.179C12.388,25.02 12.501,24.883 12.674,24.768C13.088,24.489 13.552,24.277 14.067,24.133C14.582,23.988 15.1,23.916 15.619,23.916C16.351,23.916 16.967,24.027 17.467,24.248C17.968,24.469 18.348,24.792 18.608,25.215C18.868,25.639 18.998,26.154 18.998,26.76C18.998,27.165 18.933,27.559 18.803,27.944C18.673,28.329 18.476,28.719 18.211,29.114C17.946,29.508 17.602,29.927 17.179,30.37L14.464,33.2L14.464,32.709L18.709,32.709C18.969,32.709 19.166,32.771 19.301,32.896C19.436,33.022 19.503,33.209 19.503,33.46C19.503,33.71 19.436,33.902 19.301,34.037C19.166,34.172 18.969,34.239 18.709,34.239L13.396,34.239Z" style="fill-rule:nonzero;"/>
            </g>
            <g id="avatar_item_28" transform="matrix(0.14754,-0.0481873,0.0481873,0.14754,-15.9126,19.114)">
                <g transform="matrix(1,0,0,1,-2.20496,0)">
                    <g transform="matrix(1.08443,0,0,1,-14.8965,3.39636)">
                        <path d="M166.164,276.256C166.164,269.203 160.754,263.477 154.091,263.477C147.428,263.477 142.018,269.203 142.018,276.256L142.018,318.479C142.018,325.533 147.428,331.259 154.091,331.259C160.754,331.259 166.164,325.533 166.164,318.479L166.164,276.256Z" style="fill:#f4c179;"/>
                    </g>
                    <g transform="matrix(1,0,0,1,-0.866679,1.39636)">
                        <path d="M166.164,275.261C166.164,268.757 160.754,263.477 154.091,263.477C147.428,263.477 142.018,268.757 142.018,275.261L142.018,319.474C142.018,325.978 147.428,331.259 154.091,331.259C160.754,331.259 166.164,325.978 166.164,319.474L166.164,275.261Z" style="fill:#f9e1bf;"/>
                    </g>
                    <g transform="matrix(1.04738,0,0,1,-7.83101,0)">
                        <path d="M141.152,302.773L165.297,302.773L165.297,276.946C165.297,270.283 159.887,264.873 153.224,264.873C146.561,264.873 141.152,270.283 141.152,276.946L141.152,302.773Z" style="fill:#f4c179;"/>
                    </g>
                </g>
                <g>
                    <g transform="matrix(1,0,0,1,-12.0727,-1.1439)">
                        <path d="M119.82,297.226C115.392,297.299 113.476,295.062 114.132,290.458L122.773,199.893C122.773,185.406 134.534,173.644 149.022,173.644L177.37,173.644L186.628,297.226L119.82,297.226Z" style="fill:#542800;"/>
                    </g>
                    <g transform="matrix(1,0,0,1,3.57469,0)">
                        <path d="M119.82,296.08C115.392,296.154 113.476,293.916 114.132,289.313L119.545,198.749C119.545,184.262 131.307,172.5 145.795,172.5L160.654,172.5C175.141,172.5 186.903,184.262 186.903,198.749L192.317,289.313C192.973,293.916 191.056,296.154 186.628,296.08L119.82,296.08Z" style="fill:#6c3503;"/>
                    </g>
                    <g transform="matrix(-1.16274,1.42395e-16,-1.46282e-16,-1.19449,379.062,656.283)">
                        <path d="M180.313,303.014C180.548,302.305 180.668,301.546 180.668,300.781C180.668,297.519 178.524,294.87 175.883,294.87C173.243,294.87 171.099,297.519 171.099,300.781C171.099,301.546 171.219,302.305 171.453,303.014L180.313,303.014Z" style="fill:#6c3503;"/>
                    </g>
                    <g transform="matrix(-0.58137,7.11973e-17,-9.87987e-17,-0.806752,284.234,537.088)">
                        <path d="M180.533,299.385C180.011,296.735 178.09,294.87 175.883,294.87C173.243,294.87 171.099,297.519 171.099,300.781C171.099,301.251 171.144,301.72 171.234,302.177L180.533,299.385Z" style="fill:#6c3503;"/>
                    </g>
                    <g transform="matrix(0.58137,7.11973e-17,9.87987e-17,-0.806752,23.2634,537.088)">
                        <path d="M180.533,299.385C180.011,296.735 178.09,294.87 175.883,294.87C173.243,294.87 171.099,297.519 171.099,300.781C171.099,301.251 171.144,301.72 171.234,302.177L180.533,299.385Z" style="fill:#6c3503;"/>
                    </g>
                    <g transform="matrix(0.471815,5.77807e-17,9.63714e-17,-0.786932,27.3646,529.719)">
                        <path d="M180.533,299.385C180.011,296.735 178.09,294.87 175.883,294.87C173.243,294.87 171.099,297.519 171.099,300.781C171.099,301.251 171.144,301.72 171.234,302.177L180.533,299.385Z" style="fill:#542800;"/>
                    </g>
                    <g>
                        <g transform="matrix(1,0,-0.0517329,1.10993,9.56216,-24.0837)">
                            <path d="M150.447,193.67C150.447,190.384 147.414,187.716 143.678,187.716C139.941,187.716 136.908,190.384 136.908,193.67L136.908,273.612C136.908,276.898 139.941,279.566 143.678,279.566C147.414,279.566 150.447,276.898 150.447,273.612L150.447,193.67Z" style="fill:#542800;"/>
                        </g>
                        <g transform="matrix(0.767178,0,-0.0517329,1.10993,41.4373,-24.0837)">
                            <path d="M150.447,192.284C150.447,189.763 147.414,187.716 143.678,187.716C139.941,187.716 136.908,189.763 136.908,192.284L136.908,274.998C136.908,277.519 139.941,279.566 143.678,279.566C147.414,279.566 150.447,277.519 150.447,274.998L150.447,192.284Z" style="fill:#823e00;"/>
                        </g>
                    </g>
                    <g>
                        <g transform="matrix(1,0,0.0361263,1.10993,22.4625,-24.0837)">
                            <path d="M150.447,193.67C150.447,190.384 147.414,187.716 143.678,187.716C139.941,187.716 136.908,190.384 136.908,193.67L136.908,273.612C136.908,276.898 139.941,279.566 143.678,279.566C147.414,279.566 150.447,276.898 150.447,273.612L150.447,193.67Z" style="fill:#542800;"/>
                        </g>
                        <g transform="matrix(0.767178,0,0.0361263,1.10993,54.3376,-24.0837)">
                            <path d="M150.447,192.284C150.447,189.763 147.414,187.716 143.678,187.716C139.941,187.716 136.908,189.763 136.908,192.284L136.908,274.998C136.908,277.519 139.941,279.566 143.678,279.566C147.414,279.566 150.447,277.519 150.447,274.998L150.447,192.284Z" style="fill:#823e00;"/>
                        </g>
                    </g>
                </g>
            </g>
            <g id="avatar_item_281" serif:id="avatar_item_28" transform="matrix(0.162393,0.0255177,-0.0243288,0.154826,19.4333,-15.5937)">
                <g transform="matrix(1,0,0,1,-2.20496,0)">
                    <g transform="matrix(1.08443,0,0,1,-14.8965,3.39636)">
                        <path d="M166.164,276.821C166.164,269.456 160.754,263.477 154.091,263.477C147.428,263.477 142.018,269.456 142.018,276.821L142.018,317.915C142.018,325.279 147.428,331.259 154.091,331.259C160.754,331.259 166.164,325.279 166.164,317.915L166.164,276.821Z" style="fill:#f4c179;"/>
                    </g>
                    <g transform="matrix(1,0,0,1,-0.866679,1.39636)">
                        <path d="M166.164,275.782C166.164,268.991 160.754,263.477 154.091,263.477C147.428,263.477 142.018,268.991 142.018,275.782L142.018,318.954C142.018,325.745 147.428,331.259 154.091,331.259C160.754,331.259 166.164,325.745 166.164,318.954L166.164,275.782Z" style="fill:#f9e1bf;"/>
                    </g>
                    <g transform="matrix(1.04738,0,0,1,-7.83101,0)">
                        <path d="M141.152,302.773L165.297,302.773L165.297,276.946C165.297,270.283 159.887,264.873 153.224,264.873C146.561,264.873 141.152,270.283 141.152,276.946L141.152,302.773Z" style="fill:#f4c179;"/>
                    </g>
                </g>
                <g>
                    <g transform="matrix(1,0,0,1,-12.0727,-1.1439)">
                        <path d="M119.82,297.226C115.392,297.299 113.476,295.062 114.132,290.458L122.773,199.893C122.773,185.406 134.534,173.644 149.022,173.644L177.37,173.644L186.628,297.226L119.82,297.226Z" style="fill:#ff96a0;"/>
                    </g>
                    <g transform="matrix(1,0,0,1,3.57469,0)">
                        <path d="M119.82,296.08C115.392,296.154 113.476,293.916 114.132,289.313L119.545,198.749C119.545,184.262 131.307,172.5 145.795,172.5L160.654,172.5C175.141,172.5 186.903,184.262 186.903,198.749L192.317,289.313C192.973,293.916 191.056,296.154 186.628,296.08L119.82,296.08Z" style="fill:#ffa9b1;"/>
                    </g>
                    <g transform="matrix(-1.16274,1.42395e-16,-1.46282e-16,-1.19449,379.062,656.283)">
                        <path d="M180.313,303.014C180.548,302.305 180.668,301.546 180.668,300.781C180.668,297.519 178.524,294.87 175.883,294.87C173.243,294.87 171.099,297.519 171.099,300.781C171.099,301.546 171.219,302.305 171.453,303.014L180.313,303.014Z" style="fill:#ffa9b1;"/>
                    </g>
                    <g transform="matrix(-0.58137,7.11973e-17,-9.87987e-17,-0.806752,284.234,537.088)">
                        <path d="M180.533,299.385C180.011,296.735 178.09,294.87 175.883,294.87C173.243,294.87 171.099,297.519 171.099,300.781C171.099,301.251 171.144,301.72 171.234,302.177L180.533,299.385Z" style="fill:#ffa9b1;"/>
                    </g>
                    <g transform="matrix(0.58137,7.11973e-17,9.87987e-17,-0.806752,23.2634,537.088)">
                        <path d="M180.533,299.385C180.011,296.735 178.09,294.87 175.883,294.87C173.243,294.87 171.099,297.519 171.099,300.781C171.099,301.251 171.144,301.72 171.234,302.177L180.533,299.385Z" style="fill:#ffa9b1;"/>
                    </g>
                    <g transform="matrix(0.471815,5.77807e-17,9.63714e-17,-0.786932,27.3646,529.719)">
                        <path d="M180.533,299.385C180.011,296.735 178.09,294.87 175.883,294.87C173.243,294.87 171.099,297.519 171.099,300.781C171.099,301.251 171.144,301.72 171.234,302.177L180.533,299.385Z" style="fill:#ff96a0;"/>
                    </g>
                    <g>
                        <g transform="matrix(1,0,-0.0517329,1.10993,9.56216,-24.0837)">
                            <path d="M150.447,193.933C150.447,190.502 147.414,187.716 143.678,187.716C139.941,187.716 136.908,190.502 136.908,193.933L136.908,273.349C136.908,276.78 139.941,279.566 143.678,279.566C147.414,279.566 150.447,276.78 150.447,273.349L150.447,193.933Z" style="fill:#ff96a0;"/>
                        </g>
                        <g transform="matrix(0.767178,0,-0.0517329,1.10993,41.4373,-24.0837)">
                            <path d="M150.447,192.485C150.447,189.853 147.414,187.716 143.678,187.716C139.941,187.716 136.908,189.853 136.908,192.485L136.908,274.797C136.908,277.429 139.941,279.566 143.678,279.566C147.414,279.566 150.447,277.429 150.447,274.797L150.447,192.485Z" style="fill:#ffb5bc;"/>
                        </g>
                    </g>
                    <g>
                        <g transform="matrix(1,0,0.0361263,1.10993,22.4625,-24.0837)">
                            <path d="M150.447,193.933C150.447,190.502 147.414,187.716 143.678,187.716C139.941,187.716 136.908,190.502 136.908,193.933L136.908,273.349C136.908,276.78 139.941,279.566 143.678,279.566C147.414,279.566 150.447,276.78 150.447,273.349L150.447,193.933Z" style="fill:#ff96a0;"/>
                        </g>
                        <g transform="matrix(0.767178,0,0.0361263,1.10993,54.3376,-24.0837)">
                            <path d="M150.447,192.485C150.447,189.853 147.414,187.716 143.678,187.716C139.941,187.716 136.908,189.853 136.908,192.485L136.908,274.797C136.908,277.429 139.941,279.566 143.678,279.566C147.414,279.566 150.447,277.429 150.447,274.797L150.447,192.485Z" style="fill:#ffb5bc;"/>
                        </g>
                    </g>
                </g>
            </g>
        </g>
        <g transform="matrix(1,0,0,1,0,3.04314)">
            <path d="M271.872,11.833L271.872,11.772C271.872,16.533 275.411,20.474 280,21.104L280,12.463C280,10.414 278.336,8.75 276.287,8.75L3.713,8.75C1.664,8.75 -0,10.414 -0,12.463L-0,21.104C4.589,20.474 8.128,16.533 8.128,11.772C8.128,16.971 12.349,21.192 17.548,21.192C22.598,21.192 26.724,17.211 26.958,12.219C27.191,17.211 31.318,21.192 36.368,21.192C41.546,21.192 45.755,17.004 45.788,11.833L45.788,11.772C45.788,16.971 50.009,21.192 55.208,21.192C60.407,21.192 64.628,16.971 64.628,11.772C64.628,16.971 68.849,21.192 74.048,21.192C79.227,21.192 83.436,17.004 83.468,11.833L83.468,11.772C83.468,16.971 87.689,21.192 92.889,21.192C98.088,21.192 102.309,16.971 102.309,11.772C102.309,16.971 106.53,21.192 111.729,21.192C116.908,21.192 121.116,17.004 121.149,11.833L121.149,11.772C121.149,16.971 125.37,21.192 130.569,21.192C135.768,21.192 139.99,16.971 139.99,11.772C139.99,16.971 144.211,21.192 149.41,21.192C154.589,21.192 158.797,17.004 158.83,11.833L158.83,11.772C158.83,16.971 163.051,21.192 168.25,21.192C173.449,21.192 177.67,16.971 177.67,11.772C177.67,16.971 181.891,21.192 187.09,21.192C192.269,21.192 196.478,17.004 196.51,11.833L196.511,11.772C196.511,16.971 200.732,21.192 205.931,21.192C211.13,21.192 215.351,16.971 215.351,11.772C215.351,16.971 219.572,21.192 224.771,21.192C229.95,21.192 234.158,17.004 234.191,11.833L234.191,11.772C234.191,16.971 238.412,21.192 243.611,21.192C248.811,21.192 253.032,16.971 253.032,11.772C253.032,16.971 257.253,21.192 262.452,21.192C267.631,21.192 271.839,17.004 271.872,11.833Z" style="fill:#5b5b5b;fill-opacity:0.25;"/>
        </g>
        <g transform="matrix(1,0,0,1,-9.02946,-1.53842)">
            <path d="M258.59,10.879L57.963,10.879C56.123,10.879 54.629,12.372 54.629,14.212L54.629,58.865C54.629,60.704 56.123,62.198 57.963,62.198L217.391,62.198C218.43,62.198 220.085,61.722 221.723,60.975L258.59,43.317L258.627,43.3C259.404,42.958 261.923,41.709 261.923,39.984L261.923,14.212C261.923,12.372 260.43,10.879 258.59,10.879Z" style="fill:#0c0c0c;"/>
            <path d="M258.627,43.3L221.723,60.975C220.085,61.722 218.43,62.198 217.391,62.198L57.963,62.198C56.123,62.198 54.629,60.704 54.629,58.865L54.629,14.212C54.629,12.372 56.123,10.879 57.963,10.879L258.59,10.879C260.43,10.879 261.923,12.372 261.923,14.212L261.923,39.984C261.923,41.709 259.404,42.958 258.627,43.3ZM257.788,41.393L220.842,59.087C219.531,59.683 218.223,60.115 217.391,60.115C217.391,60.115 57.963,60.115 57.963,60.115C57.273,60.115 56.713,59.555 56.713,58.865L56.713,14.212C56.713,13.522 57.273,12.962 57.963,12.962L258.59,12.962C259.28,12.962 259.84,13.522 259.84,14.212L259.84,39.93C259.82,39.963 259.771,40.046 259.735,40.09C259.607,40.25 259.446,40.392 259.28,40.522C258.721,40.96 258.086,41.262 257.788,41.393Z" style="fill:#1d1d1d;"/>
            <path d="M81.446,14.629L58.379,14.629L58.379,58.448L81.446,58.448L81.446,14.629ZM218.633,14.629L218.633,58.187C219.102,58.029 219.618,57.813 220.138,57.576L256.97,39.935L257.117,39.87L257.116,39.868C257.329,39.774 257.769,39.57 258.173,39.27L258.173,14.629L218.633,14.629Z" style="fill:#aed7ff;"/>
            <path d="M81.446,26.796L66.076,58.448L58.379,58.448L58.379,44.933L73.095,14.629L81.446,14.629L81.446,26.796ZM81.446,46.86L75.819,58.448L69.697,58.448L81.446,34.253L81.446,46.86ZM218.633,38.084L218.633,58.187C219.102,58.029 219.618,57.813 220.138,57.576L224.425,55.523L244.283,14.629L230.023,14.629L218.633,38.084ZM237.121,49.442L229.143,53.263L247.904,14.629L254.026,14.629L237.121,49.442Z" style="fill:#fff;fill-opacity:0.5;"/>
            <path d="M258.173,23.209L258.173,14.629L218.633,14.629L218.633,21.959C220.282,23.378 222.427,24.236 224.771,24.236C229.95,24.236 234.158,20.047 234.191,14.876L234.191,14.815C234.191,20.014 238.412,24.236 243.611,24.236C248.811,24.236 253.032,20.014 253.032,14.815C253.032,18.475 255.122,21.649 258.173,23.209ZM81.446,20.645L81.446,14.629L58.379,14.629L58.379,23.688C62.02,22.384 64.628,18.902 64.628,14.815C64.628,20.014 68.849,24.236 74.048,24.236C77.047,24.236 79.721,22.831 81.446,20.645Z" style="fill:#75bbff;"/>
            <path d="M82.488,14.629C82.488,14.053 82.022,13.587 81.446,13.587L58.379,13.587C57.804,13.587 57.338,14.053 57.338,14.629L57.338,58.448C57.338,59.023 57.804,59.49 58.379,59.49L81.446,59.49C82.022,59.49 82.488,59.023 82.488,58.448L82.488,14.629ZM257.119,40.909L257.536,40.821C257.79,40.71 258.313,40.464 258.795,40.106C259.059,39.91 259.215,39.6 259.215,39.27L259.215,14.629C259.215,14.053 258.748,13.587 258.173,13.587L218.633,13.587C218.058,13.587 217.592,14.053 217.592,14.629L217.592,58.187C217.592,58.522 217.753,58.837 218.026,59.033C218.298,59.229 218.648,59.281 218.966,59.174C219.465,59.006 220.015,58.776 220.569,58.525C220.575,58.522 220.582,58.519 220.588,58.516L257.42,40.875C257.279,40.942 257.126,40.977 256.97,40.977L257.538,40.822L257.117,40.911L257.119,40.909ZM80.405,15.67L80.405,57.406C80.405,57.406 59.421,57.406 59.421,57.406C59.421,57.406 59.421,15.67 59.421,15.67L80.405,15.67ZM256.642,38.941L256.548,38.983L256.55,38.994C256.193,39.224 256.007,39.655 256.097,40.082L256.097,40.082L256.097,40.082L256.097,40.082C256.187,40.51 256.532,40.83 256.953,40.897L256.97,40.977C256.483,40.977 256.062,40.64 255.954,40.166C255.846,39.692 256.081,39.206 256.52,38.996L219.698,56.632C219.691,56.635 219.683,56.639 219.675,56.643L219.675,15.67L257.132,15.67C257.132,15.67 257.132,38.702 257.132,38.702C256.953,38.8 256.795,38.871 256.697,38.915C256.678,38.923 256.66,38.932 256.642,38.941Z" style="fill:#75bbff;"/>
            <path d="M220.842,59.087L257.788,41.393C258.086,41.262 258.721,40.96 259.28,40.522C259.446,40.392 259.607,40.25 259.735,40.09C259.771,40.046 259.82,39.963 259.84,39.93L259.84,14.212C259.84,13.522 259.28,12.962 258.59,12.962L57.963,12.962C57.273,12.962 56.713,13.522 56.713,14.212L56.713,58.865C56.713,59.555 57.273,60.115 57.963,60.115C57.963,60.115 217.391,60.115 217.391,60.115C218.223,60.115 219.531,59.683 220.842,59.087ZM81.446,14.629L58.379,14.629L58.379,58.448L81.446,58.448L81.446,14.629ZM83.75,14.629L83.75,58.448L216.33,58.448L216.33,14.629L83.75,14.629ZM218.633,14.629L218.633,58.187C219.102,58.029 219.618,57.813 220.138,57.576L256.97,39.935L257.117,39.87L257.116,39.868C257.329,39.774 257.769,39.57 258.173,39.27L258.173,14.629L218.633,14.629Z" style="fill:#b4b4b4;"/>
        </g>
        <g transform="matrix(1,0,0,1,-5.41386,0)">
            <g transform="matrix(1,0,0,1,5.41386,0)">
                <path d="M26.947,8.75L26.947,11.772C26.947,16.971 31.168,21.192 36.368,21.192C41.567,21.192 45.788,16.971 45.788,11.772L45.788,8.75L26.947,8.75ZM64.628,8.75L64.628,11.772C64.628,16.971 68.849,21.192 74.048,21.192C79.247,21.192 83.468,16.971 83.468,11.772L83.468,8.75L64.628,8.75ZM102.309,8.75L102.309,11.772C102.309,16.971 106.53,21.192 111.729,21.192C116.928,21.192 121.149,16.971 121.149,11.772L121.149,8.75L102.309,8.75ZM139.99,8.75L139.99,11.772C139.99,16.971 144.211,21.192 149.41,21.192C154.609,21.192 158.83,16.971 158.83,11.772L158.83,8.75L139.99,8.75ZM177.67,8.75L177.67,11.772C177.67,16.971 181.891,21.192 187.09,21.192C192.29,21.192 196.511,16.971 196.511,11.772L196.511,8.75L177.67,8.75ZM215.351,8.75L215.351,11.772C215.351,16.971 219.572,21.192 224.771,21.192C229.97,21.192 234.191,16.971 234.191,11.772L234.191,8.75L215.351,8.75ZM253.032,8.75L253.032,11.772C253.032,16.971 257.253,21.192 262.452,21.192C267.651,21.192 271.872,16.971 271.872,11.772L271.872,8.75L253.032,8.75ZM8.128,8.75L3.713,8.75C1.664,8.75 -0,10.414 -0,12.463L-0,21.104C4.589,20.474 8.128,16.533 8.128,11.772L8.128,8.75Z" style="fill:#00076e;"/>
            </g>
            <g transform="matrix(1,0,0,1,5.41386,0)">
                <path d="M-0,13.007L8.048,13.007C8.101,12.603 8.128,12.191 8.128,11.772L8.128,8.75L3.713,8.75C1.664,8.75 -0,10.414 -0,12.463L-0,13.007ZM27.028,13.007L45.707,13.007C45.76,12.603 45.788,12.191 45.788,11.772L45.788,8.75L26.947,8.75L26.947,11.772C26.947,12.191 26.975,12.603 27.028,13.007ZM64.709,13.007L83.388,13.007C83.441,12.603 83.468,12.191 83.468,11.772L83.468,8.75L64.628,8.75L64.628,11.772C64.628,12.191 64.655,12.603 64.709,13.007ZM102.389,13.007L121.069,13.007C121.122,12.603 121.149,12.191 121.149,11.772L121.149,8.75L102.309,8.75L102.309,11.772C102.309,12.191 102.336,12.603 102.389,13.007ZM140.07,13.007L158.749,13.007C158.803,12.603 158.83,12.191 158.83,11.772L158.83,8.75L139.99,8.75L139.99,11.772C139.99,12.191 140.017,12.603 140.07,13.007ZM177.751,13.007L196.43,13.007C196.483,12.603 196.511,12.191 196.511,11.772L196.511,8.75L177.67,8.75L177.67,11.772C177.67,12.191 177.698,12.603 177.751,13.007ZM215.431,13.007L234.111,13.007C234.164,12.603 234.191,12.191 234.191,11.772L234.191,8.75L215.351,8.75L215.351,11.772C215.351,12.191 215.378,12.603 215.431,13.007ZM253.112,13.007L271.792,13.007C271.845,12.603 271.872,12.191 271.872,11.772L271.872,8.75L253.032,8.75L253.032,11.772C253.032,12.191 253.059,12.603 253.112,13.007Z" style="fill:#000556;"/>
            </g>
            <g transform="matrix(1,0,0,1,5.41386,0)">
                <path d="M64.628,8.75L45.788,8.75L45.788,11.772C45.788,16.971 50.009,21.192 55.208,21.192C60.407,21.192 64.628,16.971 64.628,11.772L64.628,8.75ZM83.468,8.75L83.468,11.772C83.468,16.971 87.689,21.192 92.889,21.192C98.088,21.192 102.309,16.971 102.309,11.772L102.309,8.75L83.468,8.75ZM121.149,8.75L121.149,11.772C121.149,16.971 125.37,21.192 130.569,21.192C135.768,21.192 139.99,16.971 139.99,11.772L139.99,8.75L121.149,8.75ZM26.968,8.75L8.128,8.75L8.128,11.772C8.128,16.971 12.349,21.192 17.548,21.192C22.747,21.192 26.968,16.971 26.968,11.772L26.968,8.75ZM158.83,8.75L158.83,11.772C158.83,16.971 163.051,21.192 168.25,21.192C173.449,21.192 177.67,16.971 177.67,11.772L177.67,8.75L158.83,8.75ZM196.511,8.75L196.511,11.772C196.511,16.971 200.732,21.192 205.931,21.192C211.13,21.192 215.351,16.971 215.351,11.772L215.351,8.75L196.511,8.75ZM234.191,8.75L234.191,11.772C234.191,16.971 238.412,21.192 243.611,21.192C248.811,21.192 253.032,16.971 253.032,11.772L253.032,8.75L234.191,8.75ZM271.872,8.75L271.872,11.772C271.872,16.533 275.411,20.474 280,21.104L280,12.463C280,10.414 278.336,8.75 276.287,8.75L271.872,8.75Z" style="fill:#0080e0;"/>
            </g>
            <g transform="matrix(1,0,0,1,5.41386,0)">
                <path d="M271.952,13.007L280,13.007L280,12.463C280,10.414 278.336,8.75 276.287,8.75L271.872,8.75L271.872,11.772C271.872,12.191 271.899,12.603 271.952,13.007ZM8.208,13.007L26.888,13.007C26.941,12.603 26.968,12.191 26.968,11.772L26.968,8.75L8.128,8.75L8.128,11.772C8.128,12.191 8.155,12.603 8.208,13.007ZM45.868,13.007L64.548,13.007C64.601,12.603 64.628,12.191 64.628,11.772L64.628,8.75L45.788,8.75L45.788,11.772C45.788,12.191 45.815,12.603 45.868,13.007ZM83.549,13.007L102.228,13.007C102.281,12.603 102.309,12.191 102.309,11.772L102.309,8.75L83.468,8.75L83.468,11.772C83.468,12.191 83.496,12.603 83.549,13.007ZM121.23,13.007L139.909,13.007C139.962,12.603 139.99,12.191 139.99,11.772L139.99,8.75L121.149,8.75L121.149,11.772C121.149,12.191 121.177,12.603 121.23,13.007ZM158.91,13.007L177.59,13.007C177.643,12.603 177.67,12.191 177.67,11.772L177.67,8.75L158.83,8.75L158.83,11.772C158.83,12.191 158.857,12.603 158.91,13.007ZM196.591,13.007L215.27,13.007C215.324,12.603 215.351,12.191 215.351,11.772L215.351,8.75L196.511,8.75L196.511,11.772C196.511,12.191 196.538,12.603 196.591,13.007ZM234.272,13.007L252.951,13.007C253.004,12.603 253.032,12.191 253.032,11.772L253.032,8.75L234.191,8.75L234.191,11.772C234.191,12.191 234.219,12.603 234.272,13.007Z" style="fill:#0066b2;"/>
            </g>
        </g>
    </g>
</svg>
