<?xml version="1.0" encoding="UTF-8" standalone="no"?>
<!DOCTYPE svg PUBLIC "-//W3C//DTD SVG 1.1//EN" "http://www.w3.org/Graphics/SVG/1.1/DTD/svg11.dtd">
<svg width="100%" height="100%" viewBox="0 0 280 62" version="1.1" xmlns="http://www.w3.org/2000/svg" xmlns:xlink="http://www.w3.org/1999/xlink" xml:space="preserve" xmlns:serif="http://www.serif.com/" style="fill-rule:evenodd;clip-rule:evenodd;stroke-linejoin:round;stroke-miterlimit:2;">
    <g id="banner_65_1" transform="matrix(1,0,0,1,0,-8.75)">
        <path d="M280,47.751L-0,47.751L-0,65.286C-0,67.888 2.112,70 4.714,70L275.286,70C277.888,70 280,67.888 280,65.286L280,47.751Z" style="fill:#4e3118;"/>
        <g transform="matrix(1,0,0,1,0,8.75)">
            <path d="M3.713,55.125L276.287,55.125C278.336,55.125 280,53.461 280,51.412L280,3.713C280,1.664 278.336,0 276.287,0L3.713,0C1.664,0 -0,1.664 -0,3.713L-0,51.412C-0,53.461 1.664,55.125 3.713,55.125Z" style="fill:#773e1b;"/>
        </g>
        <g transform="matrix(1,0,0,1,0,8.75)">
            <path d="M-0,46.788L280,46.788L280,3.713C280,1.664 278.336,0 276.287,0L3.713,0C1.664,0 -0,1.664 -0,3.713L-0,46.788Z" style="fill:#4e3118;fill-opacity:0.5;"/>
        </g>
        <g transform="matrix(1,0,0,1,0,8.75)">
            <path d="M276.697,31.284L2.833,31.284L2.833,48.505C2.833,50.554 4.497,52.218 6.546,52.218L272.984,52.218C275.033,52.218 276.697,50.554 276.697,48.505L276.697,31.284Z" style="fill:#dac589;"/>
        </g>
        <g transform="matrix(1,0,0,1,0,8.75)">
            <rect x="2.833" y="31.284" width="273.864" height="15.504" style="fill:#baa874;"/>
        </g>
        <g transform="matrix(-0.893232,-1.09389e-16,8.74808e-17,-0.714335,285.834,65.8968)">
            <path d="M320,25.402C320,22.534 318.138,20.205 315.844,20.205L10.688,20.205C8.394,20.205 6.532,22.534 6.532,25.402L6.532,74.803C6.532,77.671 8.394,80 10.688,80L315.844,80C318.138,80 320,77.671 320,74.803L320,25.402Z" style="fill:#4e3118;"/>
        </g>
        <g transform="matrix(-0.893232,-1.09389e-16,8.74808e-17,-0.714335,285.834,65.8968)">
            <path d="M320,30.489C320,27.621 318.138,25.292 315.844,25.292L10.688,25.292C8.394,25.292 6.532,27.621 6.532,30.489L6.532,74.803C6.532,77.671 8.394,80 10.688,80L315.844,80C318.138,80 320,77.671 320,74.803L320,30.489Z" style="fill:#773e1b;"/>
        </g>
        <g transform="matrix(1,0,0,1,-1.73488,0)">
            <g transform="matrix(1,0,0,1,5.55459,-0.723207)">
                <g transform="matrix(1,0,0,1,0,8.5817)">
                    <circle cx="269.268" cy="31.542" r="3.097" style="fill:#4e3118;"/>
                </g>
                <g transform="matrix(1,0,0,1,1.73488,8.75)">
                    <path d="M265.397,33.615C265.322,33.391 265.281,33.151 265.281,32.901C265.281,31.659 266.29,30.65 267.533,30.65C268.775,30.65 269.784,31.659 269.784,32.901C269.784,33.151 269.743,33.391 269.668,33.615C269.112,34.145 268.36,34.47 267.533,34.47C266.705,34.47 265.953,34.145 265.397,33.615Z" style="fill:#baa874;"/>
                </g>
            </g>
            <g transform="matrix(1,0,0,1,5.55459,-12.3875)">
                <g transform="matrix(1,0,0,1,0,8.5817)">
                    <circle cx="269.268" cy="31.542" r="3.097" style="fill:#4e3118;"/>
                </g>
                <g transform="matrix(1,0,0,1,1.73488,8.75)">
                    <path d="M265.397,33.615C265.322,33.391 265.281,33.151 265.281,32.901C265.281,31.659 266.29,30.65 267.533,30.65C268.775,30.65 269.784,31.659 269.784,32.901C269.784,33.151 269.743,33.391 269.668,33.615C269.112,34.145 268.36,34.47 267.533,34.47C266.705,34.47 265.953,34.145 265.397,33.615Z" style="fill:#baa874;"/>
                </g>
            </g>
            <g transform="matrix(1,0,0,1,5.55459,-24.8474)">
                <g transform="matrix(1,0,0,1,0,8.5817)">
                    <circle cx="269.268" cy="31.542" r="3.097" style="fill:#4e3118;"/>
                </g>
                <g transform="matrix(1,0,0,1,1.73488,8.75)">
                    <path d="M265.397,33.615C265.322,33.391 265.281,33.151 265.281,32.901C265.281,31.659 266.29,30.65 267.533,30.65C268.775,30.65 269.784,31.659 269.784,32.901C269.784,33.151 269.743,33.391 269.668,33.615C269.112,34.145 268.36,34.47 267.533,34.47C266.705,34.47 265.953,34.145 265.397,33.615Z" style="fill:#baa874;"/>
                </g>
            </g>
            <g transform="matrix(1,0,0,1,-11.3481,-19.562)">
                <g transform="matrix(1,0,0,1,0,8.5817)">
                    <circle cx="269.268" cy="31.542" r="3.097" style="fill:#4e3118;"/>
                </g>
                <g transform="matrix(1,0,0,1,1.73488,8.75)">
                    <path d="M265.397,33.615C265.322,33.391 265.281,33.151 265.281,32.901C265.281,31.659 266.29,30.65 267.533,30.65C268.775,30.65 269.784,31.659 269.784,32.901C269.784,33.151 269.743,33.391 269.668,33.615C269.112,34.145 268.36,34.47 267.533,34.47C266.705,34.47 265.953,34.145 265.397,33.615Z" style="fill:#baa874;"/>
                </g>
            </g>
            <g transform="matrix(1,0,0,1,-11.3481,-5.22555)">
                <g transform="matrix(1,0,0,1,0,8.5817)">
                    <circle cx="269.268" cy="31.542" r="3.097" style="fill:#4e3118;"/>
                </g>
                <g transform="matrix(1,0,0,1,1.73488,8.75)">
                    <path d="M265.397,33.615C265.322,33.391 265.281,33.151 265.281,32.901C265.281,31.659 266.29,30.65 267.533,30.65C268.775,30.65 269.784,31.659 269.784,32.901C269.784,33.151 269.743,33.391 269.668,33.615C269.112,34.145 268.36,34.47 267.533,34.47C266.705,34.47 265.953,34.145 265.397,33.615Z" style="fill:#baa874;"/>
                </g>
            </g>
            <g transform="matrix(1,0,0,1,-30.1321,-0.723207)">
                <g transform="matrix(1,0,0,1,0,8.5817)">
                    <circle cx="269.268" cy="31.542" r="3.097" style="fill:#4e3118;"/>
                </g>
                <g transform="matrix(1,0,0,1,1.73488,8.75)">
                    <path d="M265.397,33.615C265.322,33.391 265.281,33.151 265.281,32.901C265.281,31.659 266.29,30.65 267.533,30.65C268.775,30.65 269.784,31.659 269.784,32.901C269.784,33.151 269.743,33.391 269.668,33.615C269.112,34.145 268.36,34.47 267.533,34.47C266.705,34.47 265.953,34.145 265.397,33.615Z" style="fill:#baa874;"/>
                </g>
            </g>
            <g transform="matrix(1,0,0,1,-30.1321,-12.3875)">
                <g transform="matrix(1,0,0,1,0,8.5817)">
                    <circle cx="269.268" cy="31.542" r="3.097" style="fill:#4e3118;"/>
                </g>
                <g transform="matrix(1,0,0,1,1.73488,8.75)">
                    <path d="M265.397,33.615C265.322,33.391 265.281,33.151 265.281,32.901C265.281,31.659 266.29,30.65 267.533,30.65C268.775,30.65 269.784,31.659 269.784,32.901C269.784,33.151 269.743,33.391 269.668,33.615C269.112,34.145 268.36,34.47 267.533,34.47C266.705,34.47 265.953,34.145 265.397,33.615Z" style="fill:#baa874;"/>
                </g>
            </g>
            <g transform="matrix(1,0,0,1,-30.1321,-24.8474)">
                <g transform="matrix(1,0,0,1,0,8.5817)">
                    <circle cx="269.268" cy="31.542" r="3.097" style="fill:#4e3118;"/>
                </g>
                <g transform="matrix(1,0,0,1,1.73488,8.75)">
                    <path d="M265.397,33.615C265.322,33.391 265.281,33.151 265.281,32.901C265.281,31.659 266.29,30.65 267.533,30.65C268.775,30.65 269.784,31.659 269.784,32.901C269.784,33.151 269.743,33.391 269.668,33.615C269.112,34.145 268.36,34.47 267.533,34.47C266.705,34.47 265.953,34.145 265.397,33.615Z" style="fill:#baa874;"/>
                </g>
            </g>
            <g transform="matrix(1,0,0,1,-47.0348,-19.562)">
                <g transform="matrix(1,0,0,1,0,8.5817)">
                    <circle cx="269.268" cy="31.542" r="3.097" style="fill:#4e3118;"/>
                </g>
                <g transform="matrix(1,0,0,1,1.73488,8.75)">
                    <path d="M265.397,33.615C265.322,33.391 265.281,33.151 265.281,32.901C265.281,31.659 266.29,30.65 267.533,30.65C268.775,30.65 269.784,31.659 269.784,32.901C269.784,33.151 269.743,33.391 269.668,33.615C269.112,34.145 268.36,34.47 267.533,34.47C266.705,34.47 265.953,34.145 265.397,33.615Z" style="fill:#baa874;"/>
                </g>
            </g>
            <g transform="matrix(1,0,0,1,-47.0348,-5.22555)">
                <g transform="matrix(1,0,0,1,0,8.5817)">
                    <circle cx="269.268" cy="31.542" r="3.097" style="fill:#4e3118;"/>
                </g>
                <g transform="matrix(1,0,0,1,1.73488,8.75)">
                    <path d="M265.397,33.615C265.322,33.391 265.281,33.151 265.281,32.901C265.281,31.659 266.29,30.65 267.533,30.65C268.775,30.65 269.784,31.659 269.784,32.901C269.784,33.151 269.743,33.391 269.668,33.615C269.112,34.145 268.36,34.47 267.533,34.47C266.705,34.47 265.953,34.145 265.397,33.615Z" style="fill:#baa874;"/>
                </g>
            </g>
            <g transform="matrix(1,0,0,1,-65.0123,-0.723207)">
                <g transform="matrix(1,0,0,1,0,8.5817)">
                    <circle cx="269.268" cy="31.542" r="3.097" style="fill:#4e3118;"/>
                </g>
                <g transform="matrix(1,0,0,1,1.73488,8.75)">
                    <path d="M265.397,33.615C265.322,33.391 265.281,33.151 265.281,32.901C265.281,31.659 266.29,30.65 267.533,30.65C268.775,30.65 269.784,31.659 269.784,32.901C269.784,33.151 269.743,33.391 269.668,33.615C269.112,34.145 268.36,34.47 267.533,34.47C266.705,34.47 265.953,34.145 265.397,33.615Z" style="fill:#baa874;"/>
                </g>
            </g>
            <g transform="matrix(1,0,0,1,-65.0123,-12.3875)">
                <g transform="matrix(1,0,0,1,0,8.5817)">
                    <circle cx="269.268" cy="31.542" r="3.097" style="fill:#4e3118;"/>
                </g>
                <g transform="matrix(1,0,0,1,1.73488,8.75)">
                    <path d="M265.397,33.615C265.322,33.391 265.281,33.151 265.281,32.901C265.281,31.659 266.29,30.65 267.533,30.65C268.775,30.65 269.784,31.659 269.784,32.901C269.784,33.151 269.743,33.391 269.668,33.615C269.112,34.145 268.36,34.47 267.533,34.47C266.705,34.47 265.953,34.145 265.397,33.615Z" style="fill:#baa874;"/>
                </g>
            </g>
            <g transform="matrix(1,0,0,1,-65.0123,-24.8474)">
                <g transform="matrix(1,0,0,1,0,8.5817)">
                    <circle cx="269.268" cy="31.542" r="3.097" style="fill:#4e3118;"/>
                </g>
                <g transform="matrix(1,0,0,1,1.73488,8.75)">
                    <path d="M265.397,33.615C265.322,33.391 265.281,33.151 265.281,32.901C265.281,31.659 266.29,30.65 267.533,30.65C268.775,30.65 269.784,31.659 269.784,32.901C269.784,33.151 269.743,33.391 269.668,33.615C269.112,34.145 268.36,34.47 267.533,34.47C266.705,34.47 265.953,34.145 265.397,33.615Z" style="fill:#baa874;"/>
                </g>
            </g>
            <g transform="matrix(1,0,0,1,-81.9151,-19.562)">
                <g transform="matrix(1,0,0,1,0,8.5817)">
                    <circle cx="269.268" cy="31.542" r="3.097" style="fill:#4e3118;"/>
                </g>
                <g transform="matrix(1,0,0,1,1.73488,8.75)">
                    <path d="M265.397,33.615C265.322,33.391 265.281,33.151 265.281,32.901C265.281,31.659 266.29,30.65 267.533,30.65C268.775,30.65 269.784,31.659 269.784,32.901C269.784,33.151 269.743,33.391 269.668,33.615C269.112,34.145 268.36,34.47 267.533,34.47C266.705,34.47 265.953,34.145 265.397,33.615Z" style="fill:#baa874;"/>
                </g>
            </g>
            <g transform="matrix(1,0,0,1,-81.9151,-5.22555)">
                <g transform="matrix(1,0,0,1,0,8.5817)">
                    <circle cx="269.268" cy="31.542" r="3.097" style="fill:#4e3118;"/>
                </g>
                <g transform="matrix(1,0,0,1,1.73488,8.75)">
                    <path d="M265.397,33.615C265.322,33.391 265.281,33.151 265.281,32.901C265.281,31.659 266.29,30.65 267.533,30.65C268.775,30.65 269.784,31.659 269.784,32.901C269.784,33.151 269.743,33.391 269.668,33.615C269.112,34.145 268.36,34.47 267.533,34.47C266.705,34.47 265.953,34.145 265.397,33.615Z" style="fill:#baa874;"/>
                </g>
            </g>
            <g transform="matrix(1,0,0,1,-101.978,-0.723207)">
                <g transform="matrix(1,0,0,1,0,8.5817)">
                    <circle cx="269.268" cy="31.542" r="3.097" style="fill:#4e3118;"/>
                </g>
                <g transform="matrix(1,0,0,1,1.73488,8.75)">
                    <path d="M265.397,33.615C265.322,33.391 265.281,33.151 265.281,32.901C265.281,31.659 266.29,30.65 267.533,30.65C268.775,30.65 269.784,31.659 269.784,32.901C269.784,33.151 269.743,33.391 269.668,33.615C269.112,34.145 268.36,34.47 267.533,34.47C266.705,34.47 265.953,34.145 265.397,33.615Z" style="fill:#baa874;"/>
                </g>
            </g>
            <g transform="matrix(1,0,0,1,-101.978,-12.3875)">
                <g transform="matrix(1,0,0,1,0,8.5817)">
                    <circle cx="269.268" cy="31.542" r="3.097" style="fill:#4e3118;"/>
                </g>
                <g transform="matrix(1,0,0,1,1.73488,8.75)">
                    <path d="M265.397,33.615C265.322,33.391 265.281,33.151 265.281,32.901C265.281,31.659 266.29,30.65 267.533,30.65C268.775,30.65 269.784,31.659 269.784,32.901C269.784,33.151 269.743,33.391 269.668,33.615C269.112,34.145 268.36,34.47 267.533,34.47C266.705,34.47 265.953,34.145 265.397,33.615Z" style="fill:#baa874;"/>
                </g>
            </g>
            <g transform="matrix(1,0,0,1,-101.978,-24.8474)">
                <g transform="matrix(1,0,0,1,0,8.5817)">
                    <circle cx="269.268" cy="31.542" r="3.097" style="fill:#4e3118;"/>
                </g>
                <g transform="matrix(1,0,0,1,1.73488,8.75)">
                    <path d="M265.397,33.615C265.322,33.391 265.281,33.151 265.281,32.901C265.281,31.659 266.29,30.65 267.533,30.65C268.775,30.65 269.784,31.659 269.784,32.901C269.784,33.151 269.743,33.391 269.668,33.615C269.112,34.145 268.36,34.47 267.533,34.47C266.705,34.47 265.953,34.145 265.397,33.615Z" style="fill:#baa874;"/>
                </g>
            </g>
            <g transform="matrix(1,0,0,1,-118.881,-19.562)">
                <g transform="matrix(1,0,0,1,0,8.5817)">
                    <circle cx="269.268" cy="31.542" r="3.097" style="fill:#4e3118;"/>
                </g>
                <g transform="matrix(1,0,0,1,1.73488,8.75)">
                    <path d="M265.397,33.615C265.322,33.391 265.281,33.151 265.281,32.901C265.281,31.659 266.29,30.65 267.533,30.65C268.775,30.65 269.784,31.659 269.784,32.901C269.784,33.151 269.743,33.391 269.668,33.615C269.112,34.145 268.36,34.47 267.533,34.47C266.705,34.47 265.953,34.145 265.397,33.615Z" style="fill:#baa874;"/>
                </g>
            </g>
            <g transform="matrix(1,0,0,1,-118.881,-5.22555)">
                <g transform="matrix(1,0,0,1,0,8.5817)">
                    <circle cx="269.268" cy="31.542" r="3.097" style="fill:#4e3118;"/>
                </g>
                <g transform="matrix(1,0,0,1,1.73488,8.75)">
                    <path d="M265.397,33.615C265.322,33.391 265.281,33.151 265.281,32.901C265.281,31.659 266.29,30.65 267.533,30.65C268.775,30.65 269.784,31.659 269.784,32.901C269.784,33.151 269.743,33.391 269.668,33.615C269.112,34.145 268.36,34.47 267.533,34.47C266.705,34.47 265.953,34.145 265.397,33.615Z" style="fill:#baa874;"/>
                </g>
            </g>
            <g transform="matrix(1,0,0,1,-137.464,-0.723207)">
                <g transform="matrix(1,0,0,1,0,8.5817)">
                    <circle cx="269.268" cy="31.542" r="3.097" style="fill:#4e3118;"/>
                </g>
                <g transform="matrix(1,0,0,1,1.73488,8.75)">
                    <path d="M265.397,33.615C265.322,33.391 265.281,33.151 265.281,32.901C265.281,31.659 266.29,30.65 267.533,30.65C268.775,30.65 269.784,31.659 269.784,32.901C269.784,33.151 269.743,33.391 269.668,33.615C269.112,34.145 268.36,34.47 267.533,34.47C266.705,34.47 265.953,34.145 265.397,33.615Z" style="fill:#baa874;"/>
                </g>
            </g>
            <g transform="matrix(1,0,0,1,-137.464,-12.3875)">
                <g transform="matrix(1,0,0,1,0,8.5817)">
                    <circle cx="269.268" cy="31.542" r="3.097" style="fill:#4e3118;"/>
                </g>
                <g transform="matrix(1,0,0,1,1.73488,8.75)">
                    <path d="M265.397,33.615C265.322,33.391 265.281,33.151 265.281,32.901C265.281,31.659 266.29,30.65 267.533,30.65C268.775,30.65 269.784,31.659 269.784,32.901C269.784,33.151 269.743,33.391 269.668,33.615C269.112,34.145 268.36,34.47 267.533,34.47C266.705,34.47 265.953,34.145 265.397,33.615Z" style="fill:#baa874;"/>
                </g>
            </g>
            <g transform="matrix(1,0,0,1,-137.464,-24.8474)">
                <g transform="matrix(1,0,0,1,0,8.5817)">
                    <circle cx="269.268" cy="31.542" r="3.097" style="fill:#4e3118;"/>
                </g>
                <g transform="matrix(1,0,0,1,1.73488,8.75)">
                    <path d="M265.397,33.615C265.322,33.391 265.281,33.151 265.281,32.901C265.281,31.659 266.29,30.65 267.533,30.65C268.775,30.65 269.784,31.659 269.784,32.901C269.784,33.151 269.743,33.391 269.668,33.615C269.112,34.145 268.36,34.47 267.533,34.47C266.705,34.47 265.953,34.145 265.397,33.615Z" style="fill:#baa874;"/>
                </g>
            </g>
            <g transform="matrix(1,0,0,1,-154.366,-19.562)">
                <g transform="matrix(1,0,0,1,0,8.5817)">
                    <circle cx="269.268" cy="31.542" r="3.097" style="fill:#4e3118;"/>
                </g>
                <g transform="matrix(1,0,0,1,1.73488,8.75)">
                    <path d="M265.397,33.615C265.322,33.391 265.281,33.151 265.281,32.901C265.281,31.659 266.29,30.65 267.533,30.65C268.775,30.65 269.784,31.659 269.784,32.901C269.784,33.151 269.743,33.391 269.668,33.615C269.112,34.145 268.36,34.47 267.533,34.47C266.705,34.47 265.953,34.145 265.397,33.615Z" style="fill:#baa874;"/>
                </g>
            </g>
            <g transform="matrix(1,0,0,1,-154.366,-5.22555)">
                <g transform="matrix(1,0,0,1,0,8.5817)">
                    <circle cx="269.268" cy="31.542" r="3.097" style="fill:#4e3118;"/>
                </g>
                <g transform="matrix(1,0,0,1,1.73488,8.75)">
                    <path d="M265.397,33.615C265.322,33.391 265.281,33.151 265.281,32.901C265.281,31.659 266.29,30.65 267.533,30.65C268.775,30.65 269.784,31.659 269.784,32.901C269.784,33.151 269.743,33.391 269.668,33.615C269.112,34.145 268.36,34.47 267.533,34.47C266.705,34.47 265.953,34.145 265.397,33.615Z" style="fill:#baa874;"/>
                </g>
            </g>
            <g transform="matrix(1,0,0,1,-171.941,-0.723207)">
                <g transform="matrix(1,0,0,1,0,8.5817)">
                    <circle cx="269.268" cy="31.542" r="3.097" style="fill:#4e3118;"/>
                </g>
                <g transform="matrix(1,0,0,1,1.73488,8.75)">
                    <path d="M265.397,33.615C265.322,33.391 265.281,33.151 265.281,32.901C265.281,31.659 266.29,30.65 267.533,30.65C268.775,30.65 269.784,31.659 269.784,32.901C269.784,33.151 269.743,33.391 269.668,33.615C269.112,34.145 268.36,34.47 267.533,34.47C266.705,34.47 265.953,34.145 265.397,33.615Z" style="fill:#baa874;"/>
                </g>
            </g>
            <g transform="matrix(1,0,0,1,-171.941,-12.3875)">
                <g transform="matrix(1,0,0,1,0,8.5817)">
                    <circle cx="269.268" cy="31.542" r="3.097" style="fill:#4e3118;"/>
                </g>
                <g transform="matrix(1,0,0,1,1.73488,8.75)">
                    <path d="M265.397,33.615C265.322,33.391 265.281,33.151 265.281,32.901C265.281,31.659 266.29,30.65 267.533,30.65C268.775,30.65 269.784,31.659 269.784,32.901C269.784,33.151 269.743,33.391 269.668,33.615C269.112,34.145 268.36,34.47 267.533,34.47C266.705,34.47 265.953,34.145 265.397,33.615Z" style="fill:#baa874;"/>
                </g>
            </g>
            <g transform="matrix(1,0,0,1,-171.941,-24.8474)">
                <g transform="matrix(1,0,0,1,0,8.5817)">
                    <circle cx="269.268" cy="31.542" r="3.097" style="fill:#4e3118;"/>
                </g>
                <g transform="matrix(1,0,0,1,1.73488,8.75)">
                    <path d="M265.397,33.615C265.322,33.391 265.281,33.151 265.281,32.901C265.281,31.659 266.29,30.65 267.533,30.65C268.775,30.65 269.784,31.659 269.784,32.901C269.784,33.151 269.743,33.391 269.668,33.615C269.112,34.145 268.36,34.47 267.533,34.47C266.705,34.47 265.953,34.145 265.397,33.615Z" style="fill:#baa874;"/>
                </g>
            </g>
            <g transform="matrix(1,0,0,1,-188.843,-19.562)">
                <g transform="matrix(1,0,0,1,0,8.5817)">
                    <circle cx="269.268" cy="31.542" r="3.097" style="fill:#4e3118;"/>
                </g>
                <g transform="matrix(1,0,0,1,1.73488,8.75)">
                    <path d="M265.397,33.615C265.322,33.391 265.281,33.151 265.281,32.901C265.281,31.659 266.29,30.65 267.533,30.65C268.775,30.65 269.784,31.659 269.784,32.901C269.784,33.151 269.743,33.391 269.668,33.615C269.112,34.145 268.36,34.47 267.533,34.47C266.705,34.47 265.953,34.145 265.397,33.615Z" style="fill:#baa874;"/>
                </g>
            </g>
            <g transform="matrix(1,0,0,1,-188.843,-5.22555)">
                <g transform="matrix(1,0,0,1,0,8.5817)">
                    <circle cx="269.268" cy="31.542" r="3.097" style="fill:#4e3118;"/>
                </g>
                <g transform="matrix(1,0,0,1,1.73488,8.75)">
                    <path d="M265.397,33.615C265.322,33.391 265.281,33.151 265.281,32.901C265.281,31.659 266.29,30.65 267.533,30.65C268.775,30.65 269.784,31.659 269.784,32.901C269.784,33.151 269.743,33.391 269.668,33.615C269.112,34.145 268.36,34.47 267.533,34.47C266.705,34.47 265.953,34.145 265.397,33.615Z" style="fill:#baa874;"/>
                </g>
            </g>
            <g transform="matrix(1,0,0,1,-207.627,-0.723207)">
                <g transform="matrix(1,0,0,1,0,8.5817)">
                    <circle cx="269.268" cy="31.542" r="3.097" style="fill:#4e3118;"/>
                </g>
                <g transform="matrix(1,0,0,1,1.73488,8.75)">
                    <path d="M265.397,33.615C265.322,33.391 265.281,33.151 265.281,32.901C265.281,31.659 266.29,30.65 267.533,30.65C268.775,30.65 269.784,31.659 269.784,32.901C269.784,33.151 269.743,33.391 269.668,33.615C269.112,34.145 268.36,34.47 267.533,34.47C266.705,34.47 265.953,34.145 265.397,33.615Z" style="fill:#baa874;"/>
                </g>
            </g>
            <g transform="matrix(1,0,0,1,-207.627,-12.3875)">
                <g transform="matrix(1,0,0,1,0,8.5817)">
                    <circle cx="269.268" cy="31.542" r="3.097" style="fill:#4e3118;"/>
                </g>
                <g transform="matrix(1,0,0,1,1.73488,8.75)">
                    <path d="M265.397,33.615C265.322,33.391 265.281,33.151 265.281,32.901C265.281,31.659 266.29,30.65 267.533,30.65C268.775,30.65 269.784,31.659 269.784,32.901C269.784,33.151 269.743,33.391 269.668,33.615C269.112,34.145 268.36,34.47 267.533,34.47C266.705,34.47 265.953,34.145 265.397,33.615Z" style="fill:#baa874;"/>
                </g>
            </g>
            <g transform="matrix(1,0,0,1,-207.627,-24.8474)">
                <g transform="matrix(1,0,0,1,0,8.5817)">
                    <circle cx="269.268" cy="31.542" r="3.097" style="fill:#4e3118;"/>
                </g>
                <g transform="matrix(1,0,0,1,1.73488,8.75)">
                    <path d="M265.397,33.615C265.322,33.391 265.281,33.151 265.281,32.901C265.281,31.659 266.29,30.65 267.533,30.65C268.775,30.65 269.784,31.659 269.784,32.901C269.784,33.151 269.743,33.391 269.668,33.615C269.112,34.145 268.36,34.47 267.533,34.47C266.705,34.47 265.953,34.145 265.397,33.615Z" style="fill:#baa874;"/>
                </g>
            </g>
            <g transform="matrix(1,0,0,1,-224.53,-19.562)">
                <g transform="matrix(1,0,0,1,0,8.5817)">
                    <circle cx="269.268" cy="31.542" r="3.097" style="fill:#4e3118;"/>
                </g>
                <g transform="matrix(1,0,0,1,1.73488,8.75)">
                    <path d="M265.397,33.615C265.322,33.391 265.281,33.151 265.281,32.901C265.281,31.659 266.29,30.65 267.533,30.65C268.775,30.65 269.784,31.659 269.784,32.901C269.784,33.151 269.743,33.391 269.668,33.615C269.112,34.145 268.36,34.47 267.533,34.47C266.705,34.47 265.953,34.145 265.397,33.615Z" style="fill:#baa874;"/>
                </g>
            </g>
            <g transform="matrix(1,0,0,1,-224.53,-5.22555)">
                <g transform="matrix(1,0,0,1,0,8.5817)">
                    <circle cx="269.268" cy="31.542" r="3.097" style="fill:#4e3118;"/>
                </g>
                <g transform="matrix(1,0,0,1,1.73488,8.75)">
                    <path d="M265.397,33.615C265.322,33.391 265.281,33.151 265.281,32.901C265.281,31.659 266.29,30.65 267.533,30.65C268.775,30.65 269.784,31.659 269.784,32.901C269.784,33.151 269.743,33.391 269.668,33.615C269.112,34.145 268.36,34.47 267.533,34.47C266.705,34.47 265.953,34.145 265.397,33.615Z" style="fill:#baa874;"/>
                </g>
            </g>
            <g transform="matrix(1,0,0,1,-243.717,-0.723207)">
                <g transform="matrix(1,0,0,1,0,8.5817)">
                    <circle cx="269.268" cy="31.542" r="3.097" style="fill:#4e3118;"/>
                </g>
                <g transform="matrix(1,0,0,1,1.73488,8.75)">
                    <path d="M265.397,33.615C265.322,33.391 265.281,33.151 265.281,32.901C265.281,31.659 266.29,30.65 267.533,30.65C268.775,30.65 269.784,31.659 269.784,32.901C269.784,33.151 269.743,33.391 269.668,33.615C269.112,34.145 268.36,34.47 267.533,34.47C266.705,34.47 265.953,34.145 265.397,33.615Z" style="fill:#baa874;"/>
                </g>
            </g>
            <g transform="matrix(1,0,0,1,-243.717,-12.3875)">
                <g transform="matrix(1,0,0,1,0,8.5817)">
                    <circle cx="269.268" cy="31.542" r="3.097" style="fill:#4e3118;"/>
                </g>
                <g transform="matrix(1,0,0,1,1.73488,8.75)">
                    <path d="M265.397,33.615C265.322,33.391 265.281,33.151 265.281,32.901C265.281,31.659 266.29,30.65 267.533,30.65C268.775,30.65 269.784,31.659 269.784,32.901C269.784,33.151 269.743,33.391 269.668,33.615C269.112,34.145 268.36,34.47 267.533,34.47C266.705,34.47 265.953,34.145 265.397,33.615Z" style="fill:#baa874;"/>
                </g>
            </g>
            <g transform="matrix(1,0,0,1,-243.717,-24.8474)">
                <g transform="matrix(1,0,0,1,0,8.5817)">
                    <circle cx="269.268" cy="31.542" r="3.097" style="fill:#4e3118;"/>
                </g>
                <g transform="matrix(1,0,0,1,1.73488,8.75)">
                    <path d="M265.397,33.615C265.322,33.391 265.281,33.151 265.281,32.901C265.281,31.659 266.29,30.65 267.533,30.65C268.775,30.65 269.784,31.659 269.784,32.901C269.784,33.151 269.743,33.391 269.668,33.615C269.112,34.145 268.36,34.47 267.533,34.47C266.705,34.47 265.953,34.145 265.397,33.615Z" style="fill:#baa874;"/>
                </g>
            </g>
            <g transform="matrix(1,0,0,1,-260.62,-19.562)">
                <g transform="matrix(1,0,0,1,0,8.5817)">
                    <circle cx="269.268" cy="31.542" r="3.097" style="fill:#4e3118;"/>
                </g>
                <g transform="matrix(1,0,0,1,1.73488,8.75)">
                    <path d="M265.397,33.615C265.322,33.391 265.281,33.151 265.281,32.901C265.281,31.659 266.29,30.65 267.533,30.65C268.775,30.65 269.784,31.659 269.784,32.901C269.784,33.151 269.743,33.391 269.668,33.615C269.112,34.145 268.36,34.47 267.533,34.47C266.705,34.47 265.953,34.145 265.397,33.615Z" style="fill:#baa874;"/>
                </g>
            </g>
            <g transform="matrix(1,0,0,1,-260.62,-5.22555)">
                <g transform="matrix(1,0,0,1,0,8.5817)">
                    <circle cx="269.268" cy="31.542" r="3.097" style="fill:#4e3118;"/>
                </g>
                <g transform="matrix(1,0,0,1,1.73488,8.75)">
                    <path d="M265.397,33.615C265.322,33.391 265.281,33.151 265.281,32.901C265.281,31.659 266.29,30.65 267.533,30.65C268.775,30.65 269.784,31.659 269.784,32.901C269.784,33.151 269.743,33.391 269.668,33.615C269.112,34.145 268.36,34.47 267.533,34.47C266.705,34.47 265.953,34.145 265.397,33.615Z" style="fill:#baa874;"/>
                </g>
            </g>
        </g>
    </g>
</svg>
