<svg id="Layer_1" data-name="Layer 1" xmlns="http://www.w3.org/2000/svg" xmlns:xlink="http://www.w3.org/1999/xlink" viewBox="0 0 300 345"><defs><style>.cls-1{fill:#15141a;}.cls-2{fill:#2f2c38;}.cls-3{fill:url(#linear-gradient);}.cls-4{fill:#423f4f;}.cls-5{fill:#383544;}.cls-6{fill:#4b495b;}.cls-7{fill:#fff;}.cls-8{fill:#f7941d;}</style><linearGradient id="linear-gradient" x1="150" y1="356.11" x2="150" y2="161.16" gradientUnits="userSpaceOnUse"><stop offset="0" stop-color="#2f2c38"/><stop offset="0.69" stop-color="#15141a"/></linearGradient></defs><title>blook_panther</title><g id="tropical"><path class="cls-1" d="M202.13,47.35c15-5,21.62-14.9,27.29-23.36C236.33,13.66,241.79,5.5,260.58,5.5a23.11,23.11,0,0,1,17.77,7.78c15.2,16.35,16.37,52.68,16.12,68.33Z"/><path class="cls-2" d="M260.58,11a17.66,17.66,0,0,1,13.73,6c11.18,12,14.27,38.26,14.68,56.7l-72.9-27c8.64-5.79,13.68-13.3,17.9-19.61,6.7-10,10.74-16,26.59-16m0-11C215,0,234.92,45,180,45l119.7,44.41S306.17,0,260.58,0Z"/><path class="cls-1" d="M5.54,81.61c-.25-15.66.93-52,16.12-68.34A23.11,23.11,0,0,1,39.42,5.5C58.21,5.5,63.67,13.66,70.58,24c5.67,8.46,12.32,18.4,27.29,23.36Z"/><path class="cls-2" d="M39.42,11C55.27,11,59.31,17,66,27.05c4.22,6.31,9.26,13.82,17.9,19.61l-72.86,27c.09-4.31.33-9.28.83-14.53,1.9-19.65,6.8-34.62,13.8-42.15a17.66,17.66,0,0,1,13.74-6m0-11C-6.17,0,.32,89.41.32,89.41L120,45C65.08,45,85,0,39.42,0Z"/><path class="cls-3" d="M263.62,345H36.38A36.38,36.38,0,0,1,0,308.62V259.14H300v49.48A36.38,36.38,0,0,1,263.62,345Z"/><rect class="cls-2" y="45" width="300" height="253.39" rx="36.38"/><ellipse class="cls-4" cx="148.63" cy="270.36" rx="44.84" ry="38.63"/><path class="cls-5" d="M172,237.37c-9.74,2.23-17.13,6.91-21.95,13.1-5.13-6.59-13.17-11.48-23.87-13.52-13.35,6.69-22.34,19.14-22.34,33.41s5.71,26.86,19.26,33.52a47.72,47.72,0,0,0,16.18-4.65,23.06,23.06,0,0,1,21.21-.17,46.13,46.13,0,0,0,14.38,4.52c13.11-6.73,18.65-19.08,18.65-33.22C193.47,256.39,184.86,244.15,172,237.37Z"/><ellipse class="cls-4" cx="114.45" cy="259.14" rx="42.13" ry="34.24"/><ellipse class="cls-4" cx="185.55" cy="259.14" rx="42.13" ry="34.24"/><ellipse class="cls-6" cx="108.65" cy="251.96" rx="28.19" ry="19.65"/><ellipse class="cls-6" cx="191.35" cy="251.96" rx="28.19" ry="19.65"/><path class="cls-1" d="M108.61,293.38c1.94-.34,3.88-.67,5.8-.95s3.82-.72,5.72-1.07a95.2,95.2,0,0,0,11-2.9,47.11,47.11,0,0,0,9.74-4.65l1.08-.69c.35-.24.65-.52,1-.76a17.94,17.94,0,0,0,1.85-1.59,12.55,12.55,0,0,0,1.44-1.79,8.56,8.56,0,0,0,.52-.92l.18-.43.06-.18,0-.08s0,0,0,.06l5.92-.18a.06.06,0,0,0,0,0l0,.08.06.19.2.45c.18.3.34.62.56.93a8.59,8.59,0,0,0,.7.92l.8.88a19.76,19.76,0,0,0,1.92,1.56l1,.73c.37.22.74.44,1.1.67a53.2,53.2,0,0,0,9.68,4.66c.86.35,1.77.58,2.66.87s1.79.61,2.71.81c1.85.42,3.68,1,5.56,1.34s3.78.79,5.69,1.11,3.84.62,5.78,1q-2.91.39-5.85.68c-2,.21-3.94.17-5.92.26-1,.05-2,0-3-.06l-3-.15c-1,0-2-.23-3-.34s-2-.22-3-.44l-3-.67c-1-.2-2-.59-3-.88-.5-.15-1-.3-1.49-.49l-1.46-.64-1.44-.68c-.48-.25-.92-.56-1.39-.84s-.92-.57-1.36-.88l-1.29-1a27.74,27.74,0,0,1-2.43-2.31l-1.09-1.33c-.36-.45-.67-1-1-1.44s-.6-1.05-.89-1.59a9.72,9.72,0,0,1-.76-2l5.92-.18a10.78,10.78,0,0,1-.66,2.14,16.1,16.1,0,0,1-.84,1.66,18.92,18.92,0,0,1-2.07,2.87,20,20,0,0,1-2.46,2.34c-.44.35-.87.72-1.32,1l-1.39.87a37.76,37.76,0,0,1-11.83,4.12c-1,.17-2,.28-3,.42s-2,.3-3,.33l-3,.15-1.49.07-1.49,0c-2-.08-4,0-5.94-.25S110.55,293.63,108.61,293.38Z"/><path class="cls-1" d="M155,233.41c.31,3.9.38,7.81.38,11.71,0,1.95,0,3.91-.09,5.86s-.11,3.9-.21,5.85c-.14,3.91-.47,7.81-.86,11.72a108,108,0,0,1-1.88,11.71,2.4,2.4,0,0,1-4.68,0,108,108,0,0,1-1.88-11.71c-.39-3.91-.72-7.81-.86-11.72-.1-1.95-.18-3.9-.21-5.85s-.09-3.91-.09-5.86c0-3.9.07-7.81.38-11.71a5,5,0,0,1,10,0Z"/><path class="cls-1" d="M120.86,224.1c0,12.37,16.92,24,29.14,24s29.14-13.13,29.14-24S120.86,211.73,120.86,224.1Z"/><ellipse class="cls-1" cx="180.4" cy="278.9" rx="3.56" ry="4.12" transform="matrix(0.2, -0.98, 0.98, 0.2, -129.4, 398.71)"/><circle class="cls-1" cx="169.05" cy="277.03" r="2.48"/><ellipse class="cls-1" cx="192.44" cy="279.85" rx="3.56" ry="4.12" transform="matrix(0.02, -1, 1, 0.02, -91.04, 466.9)"/><ellipse class="cls-1" cx="205.02" cy="279.13" rx="4.12" ry="3.56" transform="translate(-39.01 33.37) rotate(-8.5)"/><ellipse class="cls-1" cx="181.58" cy="263.87" rx="3.56" ry="4.12" transform="translate(-93.13 428.58) rotate(-86.41)"/><circle class="cls-1" cx="170.08" cy="263.62" r="2.48"/><ellipse class="cls-1" cx="193.63" cy="263.09" rx="4.12" ry="3.56" transform="translate(-30.91 25.84) rotate(-7.07)"/><ellipse class="cls-1" cx="205.98" cy="260.59" rx="4.12" ry="3.56" transform="translate(-66.09 70.03) rotate(-16.67)"/><ellipse class="cls-1" cx="179.15" cy="249.1" rx="4.12" ry="3.56" transform="translate(-39.58 33.92) rotate(-9.75)"/><circle class="cls-1" cx="167.9" cy="251.51" r="2.48"/><ellipse class="cls-1" cx="190.7" cy="245.57" rx="4.12" ry="3.56" transform="matrix(0.94, -0.35, 0.35, 0.94, -73.65, 81.89)"/><ellipse class="cls-1" cx="202.14" cy="240.28" rx="4.12" ry="3.56" transform="translate(-93.06 133.26) rotate(-30)"/><ellipse class="cls-1" cx="119.6" cy="278.9" rx="4.12" ry="3.56" transform="translate(-54.3 30.21) rotate(-11.75)"/><circle class="cls-1" cx="130.95" cy="277.03" r="2.48"/><ellipse class="cls-1" cx="107.56" cy="279.85" rx="4.12" ry="3.56" transform="translate(-5.33 2.11) rotate(-1.1)"/><ellipse class="cls-1" cx="94.98" cy="279.13" rx="3.56" ry="4.12" transform="translate(-195.12 331.8) rotate(-81.5)"/><ellipse class="cls-1" cx="118.42" cy="263.87" rx="4.12" ry="3.56" transform="translate(-16.27 7.92) rotate(-3.59)"/><circle class="cls-1" cx="129.92" cy="263.62" r="2.48"/><ellipse class="cls-1" cx="106.37" cy="263.09" rx="3.56" ry="4.12" transform="translate(-167.81 336.27) rotate(-82.93)"/><ellipse class="cls-1" cx="94.02" cy="260.59" rx="3.56" ry="4.12" transform="translate(-182.59 275.92) rotate(-73.33)"/><ellipse class="cls-1" cx="120.85" cy="249.1" rx="3.56" ry="4.12" transform="translate(-145.11 326.03) rotate(-80.25)"/><circle class="cls-1" cx="132.1" cy="251.51" r="2.48"/><ellipse class="cls-1" cx="109.3" cy="245.57" rx="3.56" ry="4.12" transform="translate(-158.96 262.4) rotate(-69.6)"/><ellipse class="cls-1" cx="97.86" cy="240.28" rx="3.56" ry="4.12" transform="translate(-159.16 204.89) rotate(-60)"/><path class="cls-1" d="M104.14,191.2l.08.9,0,.75,0,1.42c0,.95,0,1.83-.06,2.75s-.14,1.78-.22,2.68-.22,1.76-.36,2.63a64.22,64.22,0,0,1-2.49,10.19A84.92,84.92,0,0,1,92.29,231c-.92,1.43-1.89,2.82-2.84,4.22s-2.06,2.68-3.09,4a90.31,90.31,0,0,1-6.72,7.5c-1.13,1.23-2.43,2.3-3.67,3.43s-2.52,2.19-3.79,3.25c-2.69,2-5.39,4-8.26,5.69,1.43-3.08,3.09-5.89,4.64-8.74q1.13-2.18,2.27-4.29c.77-1.41,1.59-2.77,2.28-4.2,1.41-2.86,3-5.56,4.28-8.42.69-1.39,1.41-2.77,2.07-4.17s1.25-2.83,1.91-4.21a173.79,173.79,0,0,0,6.54-16.92c.9-2.83,1.77-5.68,2.46-8.51.39-1.42.67-2.83,1-4.23.14-.68.31-1.41.41-2.07l.2-1,.08-.46c0-.07,0-.17,0-.21l0-.1Z"/><path class="cls-1" d="M207.85,191.62l0,.1s0,.14.05.21l.08.46.2,1c.1.66.27,1.39.41,2.07.33,1.4.61,2.81,1,4.23.69,2.83,1.56,5.68,2.46,8.51a173.79,173.79,0,0,0,6.54,16.92c.66,1.38,1.27,2.8,1.91,4.21s1.38,2.78,2.07,4.17c1.28,2.86,2.87,5.56,4.28,8.42.69,1.43,1.51,2.79,2.28,4.2s1.52,2.84,2.27,4.29c1.55,2.85,3.21,5.66,4.64,8.74-2.87-1.73-5.57-3.68-8.26-5.69-1.27-1.06-2.54-2.15-3.79-3.25s-2.54-2.2-3.67-3.43a90.31,90.31,0,0,1-6.72-7.5c-1-1.34-2.13-2.63-3.09-4s-1.92-2.79-2.84-4.22a84.92,84.92,0,0,1-8.9-18.51,64.22,64.22,0,0,1-2.49-10.19c-.14-.87-.29-1.73-.36-2.63s-.2-1.77-.22-2.68-.09-1.8-.06-2.75l0-1.42.05-.75.08-.9Z"/><path class="cls-1" d="M284.53,186.15a44.58,44.58,0,0,1-88.34,12.07c-3.33-24.4,15.95-30.68,40.35-34S281.19,161.75,284.53,186.15Z"/><path class="cls-7" d="M277,188.36c3,18.59-10.63,36.28-30.5,39.51s-38.43-9.21-41.46-27.8,12.56-24.43,32.43-27.66S274,169.77,277,188.36Z"/><path class="cls-8" d="M221.48,195.09c0,1-.08,1.94-.08,2.93,0,12.55,4.37,22.72,15.77,22.72S253,210.57,253,198s-4.19-22.72-15.78-22.72h-.41a13.18,13.18,0,0,1-10.95,20.52A13,13,0,0,1,221.48,195.09Zm14.9,12.44a5.45,5.45,0,1,1,5.45,5.46A5.45,5.45,0,0,1,236.38,207.53Z"/><path class="cls-1" d="M15.47,186.15a44.58,44.58,0,0,0,88.34,12.07c3.33-24.4-16-30.68-40.35-34S18.81,161.75,15.47,186.15Z"/><path class="cls-7" d="M23,188.36C20,207,33.63,224.64,53.5,227.87s38.43-9.21,41.46-27.8S82.4,175.64,62.53,172.41,26,169.77,23,188.36Z"/><path class="cls-8" d="M74.19,195.83a13.18,13.18,0,0,1-10.95-20.52h-.41c-11.59,0-15.78,10.17-15.78,22.72s4.38,22.72,15.78,22.72S78.6,210.57,78.6,198c0-1,0-2-.08-2.93A13,13,0,0,1,74.19,195.83ZM58.17,213a5.46,5.46,0,1,1,5.45-5.46A5.45,5.45,0,0,1,58.17,213Z"/><ellipse class="cls-1" cx="90.08" cy="158.37" rx="12.66" ry="18.85" transform="translate(-90.96 178.9) rotate(-66.84)"/><ellipse class="cls-1" cx="209.92" cy="158.47" rx="18.85" ry="12.66" transform="translate(-45.41 95.34) rotate(-23.16)"/><ellipse class="cls-1" cx="137.75" cy="192.11" rx="5.86" ry="5.07" transform="translate(-95.69 229.4) rotate(-63.43)"/><ellipse class="cls-1" cx="162.25" cy="192.11" rx="5.07" ry="5.86" transform="translate(-68.79 92.85) rotate(-26.57)"/><ellipse class="cls-1" cx="116.12" cy="207.54" rx="5.86" ry="5.07" transform="translate(-121.43 218.57) rotate(-63.43)"/><ellipse class="cls-1" cx="183.88" cy="207.54" rx="5.07" ry="5.86" transform="translate(-73.41 104.16) rotate(-26.57)"/><ellipse class="cls-1" cx="120.93" cy="156.14" rx="7.92" ry="6.84" transform="translate(-72.81 194.47) rotate(-63.43)"/><ellipse class="cls-1" cx="179.07" cy="156.14" rx="6.84" ry="7.92" transform="translate(-50.93 96.58) rotate(-26.57)"/><ellipse class="cls-1" cx="131.88" cy="178.45" rx="4.94" ry="4.26" transform="translate(-86.71 216.59) rotate(-63.43)"/><ellipse class="cls-1" cx="168.12" cy="178.45" rx="4.26" ry="4.94" transform="translate(-62.06 94.04) rotate(-26.57)"/><ellipse class="cls-1" cx="150" cy="161.18" rx="6.51" ry="7.54"/><ellipse class="cls-1" cx="138.33" cy="131.15" rx="6.6" ry="8.43" transform="translate(-27.91 37.87) rotate(-14.18)"/><ellipse class="cls-1" cx="161.67" cy="131.15" rx="8.43" ry="6.6" transform="translate(-5.08 255.79) rotate(-75.82)"/><ellipse class="cls-1" cx="141.48" cy="102.98" rx="5.84" ry="5.05" transform="translate(-13.91 183.46) rotate(-63.43)"/><ellipse class="cls-1" cx="158.52" cy="102.98" rx="5.05" ry="5.84" transform="translate(-29.32 81.77) rotate(-26.57)"/><ellipse class="cls-1" cx="200.98" cy="124.51" rx="8.39" ry="7.25" transform="translate(-0.27 248.58) rotate(-63.43)"/><ellipse class="cls-1" cx="99.02" cy="124.51" rx="7.25" ry="8.39" transform="translate(-45.23 57.44) rotate(-26.57)"/><ellipse class="cls-1" cx="115.24" cy="115.05" rx="4.53" ry="5.78" transform="translate(-24.66 31.73) rotate(-14.18)"/><ellipse class="cls-1" cx="184.76" cy="115.05" rx="5.78" ry="4.53" transform="translate(27.97 266) rotate(-75.82)"/><ellipse class="cls-1" cx="256.04" cy="253.54" rx="6.84" ry="7.92" transform="matrix(0.61, -0.79, 0.79, 0.61, -101.28, 300.06)"/><ellipse class="cls-1" cx="251.33" cy="278.9" rx="7.59" ry="8.78" transform="translate(-105.78 163.03) rotate(-30)"/><ellipse class="cls-1" cx="275.75" cy="245.62" rx="4.99" ry="5.77" transform="translate(-79.23 347.39) rotate(-57.69)"/><ellipse class="cls-1" cx="277.41" cy="267.64" rx="6.13" ry="7.09" transform="translate(-97.07 359.03) rotate(-57.69)"/><ellipse class="cls-1" cx="43.96" cy="253.54" rx="7.92" ry="6.84" transform="translate(-146.37 80.36) rotate(-37.86)"/><ellipse class="cls-1" cx="48.67" cy="278.9" rx="8.78" ry="7.59" transform="translate(-217.2 181.6) rotate(-60)"/><ellipse class="cls-1" cx="24.25" cy="245.62" rx="5.77" ry="4.99" transform="translate(-127.54 50.99) rotate(-32.31)"/><ellipse class="cls-1" cx="22.59" cy="267.64" rx="7.09" ry="6.13" transform="translate(-139.56 53.52) rotate(-32.31)"/><path class="cls-5" d="M34.7,90.7A9.78,9.78,0,0,0,40.59,83c.68-5.74-.58-18.44-10.14-18.43S17,67.29,14.33,77s2.85,14.1,10.14,15.5S34.7,90.7,34.7,90.7Z"/><path class="cls-1" d="M20.94,93.1c.1,3.48,2.21,4.57,4.76,4.49,2-.06,3.63-.8,4.24-2.74,1.36,2.14,3.72,2.3,6.23,1.5,3-.95,5-2.9,3.92-6.4s-3.91-3.91-6.9-3a6,6,0,0,0-3.87,2.89,4.42,4.42,0,0,0-3.89-1.54C22.87,88.42,20.84,89.63,20.94,93.1Z"/><path class="cls-1" d="M35.37,75.74A11.08,11.08,0,0,0,36.06,79a6.73,6.73,0,0,0-.43,1.38c-.51,2.51.21,4.76,3.62,5.45s4.94-1.11,5.45-3.62a5.56,5.56,0,0,0-.07-2.76A9.56,9.56,0,0,0,45.15,75c-.29-3.71-1.77-6.62-5.43-6.33S35.07,72,35.37,75.74Z"/><circle class="cls-1" cx="30.26" cy="66" r="4.63"/><path class="cls-1" d="M12.92,68.77a5.9,5.9,0,0,0,0,2.4,9.06,9.06,0,0,0-1.73,2.61,8.1,8.1,0,0,0-.9,3.61,11,11,0,0,0,.25,4.17c.8,3.56,2.46,6.21,5.55,5.52s3.45-3.8,2.65-7.35a13.1,13.1,0,0,0-.42-1.53c.16-.29.32-.58.46-.89A8.59,8.59,0,0,0,19.64,74,4.41,4.41,0,0,0,22,70.59c.51-2.5-.22-4.76-3.62-5.44S13.43,66.26,12.92,68.77Z"/><path class="cls-5" d="M219,68.77a9.78,9.78,0,0,0-3.49-9c-4.53-3.58-16-9.14-21-1S189.76,71.61,196.63,79s13.51,4.94,18.51-.55S219,68.77,219,68.77Z"/><path class="cls-1" d="M213.81,81.76c3,1.73,5,.5,6.31-1.71,1-1.72,1.21-3.52-.12-5,2.54,0,3.91-2,4.53-4.53.75-3,.16-5.81-3.41-6.69s-5.37,1.3-6.12,4.34a6,6,0,0,0,.44,4.81,4.41,4.41,0,0,0-3.34,2.52C210.83,77.66,210.8,80,213.81,81.76Z"/><path class="cls-1" d="M206.54,60.38a11.38,11.38,0,0,0,3.13,1.12,6.89,6.89,0,0,0,1,1.08c1.87,1.74,4.17,2.31,6.54-.24s1.63-4.79-.25-6.53a5.35,5.35,0,0,0-2.38-1.38,9.64,9.64,0,0,0-3.56-2.8c-3.32-1.69-6.57-2-8.23,1.33S203.22,58.7,206.54,60.38Z"/><circle class="cls-1" cx="195.57" cy="59.66" r="4.63"/><path class="cls-1" d="M188.87,75.88a5.67,5.67,0,0,0,2,1.28A8.79,8.79,0,0,0,192.22,80a8.22,8.22,0,0,0,2.62,2.66,10.85,10.85,0,0,0,3.68,2c3.45,1.18,6.58,1.15,7.6-1.84s-1.43-4.93-4.88-6.11c-.52-.18-1-.32-1.52-.44-.16-.28-.33-.57-.52-.85a8.62,8.62,0,0,0-2.34-2.48,4.43,4.43,0,0,0-1.69-3.8c-1.88-1.74-4.18-2.29-6.54.24S187,74.14,188.87,75.88Z"/><path class="cls-5" d="M258.62,66a11.55,11.55,0,0,0-2.82,11.07c1.91,6.53,9.16,19.71,19.52,15.29S288.61,83.18,287,71.41s-9.61-14-18.16-12.12S258.62,66,258.62,66Z"/><path class="cls-1" d="M272.43,57c-1.72-3.72-4.5-3.93-7.24-2.67-2.11,1-3.56,2.56-3.33,4.93-2.46-1.69-5.1-.76-7.44,1.27-2.8,2.41-4.12,5.47-1.29,8.75s6.05,2.42,8.85,0c1.67-1.45,2.81-3.12,2.86-4.93a5.21,5.21,0,0,0,4.93-.13C272.5,63,274.15,60.73,272.43,57Z"/><path class="cls-1" d="M264.82,82.51a13.84,13.84,0,0,0-2.25-3.21,7.63,7.63,0,0,0-.17-1.69c-.62-3-2.44-5.07-6.45-4.24s-4.84,3.5-4.23,6.45a6.42,6.42,0,0,0,1.35,3,11.28,11.28,0,0,0,1.51,5.11c2,3.89,5,6.36,8.82,4.35S266.86,86.4,264.82,82.51Z"/><circle class="cls-1" cx="274.86" cy="90.7" r="5.45"/><path class="cls-1" d="M292.38,79.69a7,7,0,0,0-1.08-2.63,10.56,10.56,0,0,0,.67-3.62,9.52,9.52,0,0,0-.7-4.34,12.68,12.68,0,0,0-2.2-4.4c-2.5-3.49-5.54-5.59-8.56-3.42s-2,5.72.52,9.2a17.78,17.78,0,0,0,1.17,1.46c0,.39-.08.78-.09,1.18a10.08,10.08,0,0,0,.55,4,5.23,5.23,0,0,0-1,4.81c.62,2.95,2.45,5.06,6.45,4.23S293,82.63,292.38,79.69Z"/><path class="cls-5" d="M83.45,86.76a11.55,11.55,0,0,0,11.42-.15c5.81-3.55,16.66-14,9.7-22.82S92.28,53.33,81.32,57.9s-11,12.91-7,20.68S83.45,86.76,83.45,86.76Z"/><path class="cls-1" d="M71.2,75.75c-3.15,2.62-2.62,5.37-.7,7.68,1.49,1.78,3.4,2.78,5.63,1.93-1,2.82.59,5.13,3.15,6.87,3.06,2.07,6.36,2.55,8.79-1s.77-6.47-2.29-8.55c-1.83-1.24-3.74-1.9-5.5-1.48a5.19,5.19,0,0,0-1.4-4.73C77,74.13,74.34,73.12,71.2,75.75Z"/><path class="cls-1" d="M97.8,78.43a13.21,13.21,0,0,0-2.51,3,7.49,7.49,0,0,0-1.6.61c-2.68,1.35-4.25,3.66-2.41,7.32s4.63,3.77,7.32,2.41a6.41,6.41,0,0,0,2.51-2.07,11.37,11.37,0,0,0,4.55-2.78c3.22-3,4.85-6.47,1.91-9.65S101,75.45,97.8,78.43Z"/><circle class="cls-1" cx="103.1" cy="64.65" r="5.45"/><path class="cls-1" d="M87.92,50.59a6.72,6.72,0,0,0-2.25,1.73,10.55,10.55,0,0,0-3.68.29,9.66,9.66,0,0,0-4,1.8,12.84,12.84,0,0,0-3.69,3.27c-2.71,3.33-4,6.8-1.08,9.15s6,.44,8.76-2.89q.6-.75,1.11-1.5c.38-.06.76-.13,1.15-.22a10.09,10.09,0,0,0,3.7-1.57,5.22,5.22,0,0,0,4.89-.32C95.52,59,97.08,56.65,95.24,53S90.61,49.24,87.92,50.59Z"/><path class="cls-5" d="M157.66,62a8.9,8.9,0,0,0-8.74-1.1c-4.83,2.1-14.22,8.91-9.84,16.42s8.29,9.3,17.16,7,9.78-8.71,7.53-15.08S157.66,62,157.66,62Z"/><path class="cls-1" d="M165.86,71.68c2.69-1.67,2.58-3.82,1.35-5.8-1-1.52-2.3-2.48-4.1-2.07,1.06-2.05.1-4-1.68-5.58-2.12-1.92-4.59-2.63-6.83-.15s-1.27,4.87.85,6.78a5.48,5.48,0,0,0,4,1.72,4,4,0,0,0,.58,3.76C161.3,72.31,163.18,73.36,165.86,71.68Z"/><path class="cls-1" d="M145.81,66.81a10.55,10.55,0,0,0,2.24-2,6.08,6.08,0,0,0,1.28-.3c2.2-.75,3.64-2.35,2.62-5.34s-3.14-3.37-5.34-2.62a5,5,0,0,0-2.14,1.32,8.72,8.72,0,0,0-3.77,1.65c-2.78,1.93-4.39,4.43-2.48,7.17S143,68.75,145.81,66.81Z"/><circle class="cls-1" cx="140.29" cy="76.79" r="4.21"/><path class="cls-1" d="M150.41,89.14a5.22,5.22,0,0,0,1.91-1.07,8.2,8.2,0,0,0,2.84.16,7.45,7.45,0,0,0,3.25-1,10.06,10.06,0,0,0,3.17-2.11c2.42-2.26,3.75-4.78,1.79-6.89s-4.57-1-7,1.29c-.36.34-.7.68-1,1-.29,0-.6,0-.9.05a7.77,7.77,0,0,0-3,.8,4,4,0,0,0-3.78-.27c-2.2.75-3.64,2.36-2.62,5.34S148.21,89.9,150.41,89.14Z"/><path class="cls-5" d="M234.17,124.55a11,11,0,0,0,10.25-3.64c4.16-5,10.74-17.71,1.74-23.56s-14.3-5.66-22.78,1.83-6,15,.05,20.8S234.17,124.55,234.17,124.55Z"/><path class="cls-1" d="M219.74,118.38c-2,3.34-.72,5.65,1.73,7.14,1.89,1.16,3.91,1.47,5.67,0,0,2.85,2.1,4.44,5,5.22,3.4.94,6.52.36,7.61-3.62s-1.29-6.07-4.69-7a6.8,6.8,0,0,0-5.42.35,4.94,4.94,0,0,0-2.72-3.83C224.43,115.16,221.77,115.05,219.74,118.38Z"/><path class="cls-1" d="M244,110.87a12.6,12.6,0,0,0-1.35,3.48,8,8,0,0,0-1.25,1c-2,2-2.71,4.61.07,7.35s5.34,2,7.35-.07A6.14,6.14,0,0,0,250.4,120a10.8,10.8,0,0,0,3.25-3.91c2-3.68,2.39-7.32-1.24-9.29S246,107.19,244,110.87Z"/><circle class="cls-1" cx="245.11" cy="98.58" r="5.19"/><path class="cls-1" d="M227.09,90.56a6.53,6.53,0,0,0-1.5,2.25,9.92,9.92,0,0,0-3.22,1.39,9.21,9.21,0,0,0-3.06,2.85,12.34,12.34,0,0,0-2.32,4.08c-1.43,3.84-1.49,7.35,1.84,8.59s5.58-1.46,7-5.29a15.8,15.8,0,0,0,.54-1.7c.33-.17.65-.36,1-.56a9.89,9.89,0,0,0,2.85-2.54,5,5,0,0,0,4.31-1.8c2-2,2.7-4.62-.07-7.34S229.1,88.51,227.09,90.56Z"/><path class="cls-5" d="M49.56,122a8.39,8.39,0,0,0,6.72,4.89c4.95.47,15.82-.87,15.63-9.08s-2.61-11.46-11-13.58-12,2.73-13.11,9S49.56,122,49.56,122Z"/><path class="cls-1" d="M47.21,110.19c-3,.15-3.87,2-3.75,4.17.09,1.7.76,3.1,2.43,3.59-1.81,1.21-1.89,3.24-1.15,5.38.88,2.55,2.59,4.27,5.58,3.24s3.27-3.44,2.39-6a5.21,5.21,0,0,0-2.56-3.27,3.78,3.78,0,0,0,1.24-3.37C51.28,111.75,50.2,110,47.21,110.19Z"/><path class="cls-1" d="M62.42,122.22a10,10,0,0,0-2.78.66,5.57,5.57,0,0,0-1.2-.34c-2.16-.38-4.08.28-4.6,3.22s1.06,4.22,3.22,4.6a4.69,4.69,0,0,0,2.37-.11,8.29,8.29,0,0,0,3.87.36c3.18-.33,5.65-1.66,5.32-4.8S65.6,121.89,62.42,122.22Z"/><circle class="cls-1" cx="70.68" cy="117.64" r="3.97"/><path class="cls-1" d="M68,102.81a4.91,4.91,0,0,0-2.06,0,7.86,7.86,0,0,0-2.28-1.43,6.94,6.94,0,0,0-3.12-.7,9.29,9.29,0,0,0-3.58.3c-3,.75-5.28,2.24-4.62,4.87s3.33,2.89,6.37,2.13a12.33,12.33,0,0,0,1.3-.39c.25.13.51.26.77.37a7.17,7.17,0,0,0,2.84.7,3.82,3.82,0,0,0,3,1.95c2.16.38,4.08-.29,4.6-3.22S70.11,103.19,68,102.81Z"/><path class="cls-5" d="M19.71,149.16A7.18,7.18,0,0,0,26.47,147c2.8-3.18,7.31-11.39,1.52-15.36s-9.24-3.93-14.91.82-4.14,9.71-.31,13.59S19.71,149.16,19.71,149.16Z"/><path class="cls-1" d="M10.39,144.9c-1.39,2.14-.56,3.67,1,4.69a3,3,0,0,0,3.7.1c-.06,1.86,1.3,2.94,3.15,3.5,2.2.66,4.25.34,5-2.25s-.74-4-3-4.65a4.39,4.39,0,0,0-3.54.14,3.24,3.24,0,0,0-1.71-2.55C13.5,142.87,11.77,142.75,10.39,144.9Z"/><path class="cls-1" d="M26.33,140.39a8.37,8.37,0,0,0-.94,2.25,5,5,0,0,0-.83.66c-1.35,1.3-1.85,3-.07,4.8s3.45,1.38,4.79.07a4,4,0,0,0,1.11-1.69,7.25,7.25,0,0,0,2.19-2.5c1.36-2.37,1.68-4.74-.66-6.09S27.69,138,26.33,140.39Z"/><circle class="cls-1" cx="27.28" cy="132.38" r="3.39"/><path class="cls-1" d="M15.65,126.85a4.33,4.33,0,0,0-1,1.44,6.77,6.77,0,0,0-2.13.85,6,6,0,0,0-2,1.82,7.91,7.91,0,0,0-1.58,2.62c-1,2.48-1.09,4.78,1.06,5.64s3.66-.86,4.66-3.34a10.27,10.27,0,0,0,.38-1.1c.21-.1.43-.22.65-.35a6.39,6.39,0,0,0,1.9-1.61,3.28,3.28,0,0,0,2.85-1.1c1.34-1.31,1.84-3,.07-4.8S17,125.54,15.65,126.85Z"/><path class="cls-5" d="M289.69,145.91a7.21,7.21,0,0,0,1.91-6.85c-1.1-4.09-5.42-12.4-11.93-9.79s-8.4,5.51-7.6,12.85,5.79,8.84,11.14,7.81S289.69,145.91,289.69,145.91Z"/><path class="cls-1" d="M281,151.3c1,2.34,2.75,2.51,4.47,1.76a3,3,0,0,0,2.14-3c1.51,1.09,3.16.55,4.65-.68,1.78-1.47,2.65-3.35.93-5.43s-3.73-1.6-5.51-.13a4.42,4.42,0,0,0-1.85,3,3.24,3.24,0,0,0-3.07,0C281,147.58,280,149,281,151.3Z"/><path class="cls-1" d="M286.06,135.53a8.09,8.09,0,0,0,1.36,2,5.53,5.53,0,0,0,.08,1.06c.34,1.85,1.44,3.19,3.95,2.73s3.07-2.11,2.73-3.95a3.94,3.94,0,0,0-.8-1.86,7,7,0,0,0-.87-3.21c-1.21-2.45-3-4-5.42-2.83S284.85,133.09,286.06,135.53Z"/><circle class="cls-1" cx="279.93" cy="130.29" r="3.39"/><path class="cls-1" d="M268.87,136.9a4.3,4.3,0,0,0,.63,1.65,6.65,6.65,0,0,0-.46,2.24,5.94,5.94,0,0,0,.37,2.71,7.88,7.88,0,0,0,1.31,2.77c1.51,2.21,3.36,3.56,5.27,2.25s1.32-3.53-.19-5.73a11.29,11.29,0,0,0-.7-.93c0-.23,0-.48.07-.73a6.3,6.3,0,0,0-.29-2.48,3.26,3.26,0,0,0,.67-3c-.34-1.84-1.46-3.18-3.95-2.72S268.53,135.05,268.87,136.9Z"/></g></svg>