<?xml version="1.0" encoding="UTF-8" standalone="no"?>
<!-- Created with Inkscape (http://www.inkscape.org/) -->

<svg
   width="50"
   height="50"
   viewBox="0 0 13.229167 13.229167"
   version="1.1"
   id="svg5"
   inkscape:version="1.2 (dc2aedaf03, 2022-05-15)"
   sodipodi:docname="Total Cash.svg"
   xml:space="preserve"
   xmlns:inkscape="http://www.inkscape.org/namespaces/inkscape"
   xmlns:sodipodi="http://sodipodi.sourceforge.net/DTD/sodipodi-0.dtd"
   xmlns:xlink="http://www.w3.org/1999/xlink"
   xmlns="http://www.w3.org/2000/svg"
   xmlns:svg="http://www.w3.org/2000/svg"><sodipodi:namedview
     id="namedview7"
     pagecolor="#505050"
     bordercolor="#ffffff"
     borderopacity="1"
     inkscape:showpageshadow="0"
     inkscape:pageopacity="0"
     inkscape:pagecheckerboard="1"
     inkscape:deskcolor="#505050"
     inkscape:document-units="mm"
     showgrid="false"
     inkscape:zoom="2.7775506"
     inkscape:cx="38.52315"
     inkscape:cy="29.162385"
     inkscape:window-width="1366"
     inkscape:window-height="705"
     inkscape:window-x="-8"
     inkscape:window-y="-8"
     inkscape:window-maximized="1"
     inkscape:current-layer="layer1" /><defs
     id="defs2"><linearGradient
       inkscape:collect="always"
       id="linearGradient12557"><stop
         style="stop-color:#a8c5bb;stop-opacity:1;"
         offset="0"
         id="stop12553" /><stop
         style="stop-color:#abd4cb;stop-opacity:1;"
         offset="1"
         id="stop12555" /></linearGradient><linearGradient
       inkscape:collect="always"
       id="linearGradient1860"><stop
         style="stop-color:#fff900;stop-opacity:1;"
         offset="0"
         id="stop1856" /><stop
         style="stop-color:#fbc500;stop-opacity:1;"
         offset="1"
         id="stop1858" /></linearGradient><linearGradient
       inkscape:collect="always"
       xlink:href="#linearGradient1860"
       id="linearGradient2777"
       gradientUnits="userSpaceOnUse"
       x1="92.905212"
       y1="44.110912"
       x2="154.17389"
       y2="102.69566" /><clipPath
       clipPathUnits="userSpaceOnUse"
       id="clipPath9932"><rect
         style="opacity:1;fill:#7f8a86;fill-opacity:1;stroke:none;stroke-width:6.46499;stroke-linecap:round;stroke-linejoin:round;stroke-miterlimit:9.4;stroke-dasharray:none;stroke-opacity:1;paint-order:stroke fill markers"
         id="rect9934"
         width="8.0692787"
         height="0.94690514"
         x="3.0879233"
         y="5.4755816"
         ry="0.37033436" /></clipPath><clipPath
       clipPathUnits="userSpaceOnUse"
       id="clipPath10860"><path
         id="path10862"
         style="opacity:1;fill:#a8c5bb;fill-opacity:1;stroke:none;stroke-width:5.10955;stroke-linecap:round;stroke-linejoin:round;stroke-miterlimit:9.4;stroke-dasharray:none;stroke-opacity:1;paint-order:stroke fill markers"
         d="m 6.5871947,6.792867 c -1.8725943,0 -3.4327253,1.2894328 -3.8452433,3.0323732 V 13.229167 H 11.503174 V 9.8273071 C 11.091401,8.0833174 9.5307491,6.792867 7.6574137,6.792867 Z" /></clipPath><clipPath
       clipPathUnits="userSpaceOnUse"
       id="clipPath11026"><circle
         style="fill:#ffffff;fill-opacity:1;fill-rule:evenodd;stroke-width:0.134781"
         id="circle11028"
         cx="7.122304"
         cy="10.011017"
         r="2.2859762" /></clipPath><filter
       style="color-interpolation-filters:sRGB;"
       inkscape:label="Drop Shadow"
       id="filter11620"
       x="0"
       y="0"
       width="1"
       height="1.0806321"><feFlood
         flood-opacity="0.6"
         flood-color="rgb(0,0,0)"
         result="flood"
         id="feFlood11610" /><feComposite
         in="flood"
         in2="SourceGraphic"
         operator="in"
         result="composite1"
         id="feComposite11612" /><feGaussianBlur
         in="composite1"
         stdDeviation="0"
         result="blur"
         id="feGaussianBlur11614" /><feOffset
         dx="-2.77556e-17"
         dy="0.1"
         result="offset"
         id="feOffset11616" /><feComposite
         in="SourceGraphic"
         in2="offset"
         operator="over"
         result="composite2"
         id="feComposite11618" /></filter><clipPath
       clipPathUnits="userSpaceOnUse"
       id="clipPath12180"><path
         id="path12182"
         style="opacity:1;fill:#a8c5bb;fill-opacity:1;stroke:none;stroke-width:5.10955;stroke-linecap:round;stroke-linejoin:round;stroke-miterlimit:9.4;stroke-dasharray:none;stroke-opacity:1;paint-order:stroke fill markers"
         d="m 6.5871947,6.792867 c -1.8725943,0 -3.4327253,1.2894328 -3.8452433,3.0323732 V 13.229167 H 11.503174 V 9.8273071 C 11.091401,8.0833174 9.5307491,6.792867 7.6574137,6.792867 Z" /></clipPath><clipPath
       clipPathUnits="userSpaceOnUse"
       id="clipPath13026"><path
         id="path13028"
         style="opacity:1;fill:url(#linearGradient13030);fill-opacity:1;stroke:none;stroke-width:5.10955;stroke-linecap:round;stroke-linejoin:round;stroke-miterlimit:9.4;stroke-dasharray:none;stroke-opacity:1;paint-order:stroke fill markers"
         d="M -1.7545932,9.2981492 C -2.8338676,7.7678628 -4.786779,7.2360897 -6.4488677,7.9035275 l -2.7816931,1.9618616 5.0495523,7.1596819 2.780004,-1.960671 c 1.18786414,-1.341654 1.3429362,-3.360775 0.2632347,-4.891667 z" /></clipPath><linearGradient
       inkscape:collect="always"
       xlink:href="#linearGradient12557"
       id="linearGradient13030"
       gradientUnits="userSpaceOnUse"
       x1="7.2023153"
       y1="6.7671156"
       x2="4.3564544"
       y2="8.3890667"
       gradientTransform="rotate(54.805598)" /><clipPath
       clipPathUnits="userSpaceOnUse"
       id="clipPath13034"><path
         id="path13036"
         style="opacity:1;fill:url(#linearGradient13038);fill-opacity:1;stroke:none;stroke-width:5.10955;stroke-linecap:round;stroke-linejoin:round;stroke-miterlimit:9.4;stroke-dasharray:none;stroke-opacity:1;paint-order:stroke fill markers"
         d="M -1.8929553,9.2709706 C -2.9493062,7.7247713 -4.8940765,7.1639558 -6.5659265,7.8065518 l -2.810619,1.9201922 4.9423012,7.234133 2.8089123,-1.919026 c 1.207725,-1.323804 1.39286789,-3.34039 0.3360989,-4.887202 z" /></clipPath><linearGradient
       inkscape:collect="always"
       xlink:href="#linearGradient12557"
       id="linearGradient13038"
       gradientUnits="userSpaceOnUse"
       x1="7.2023153"
       y1="6.7671156"
       x2="4.3564544"
       y2="8.3890667"
       gradientTransform="rotate(55.659426)" /><filter
       style="color-interpolation-filters:sRGB;"
       inkscape:label="Drop Shadow"
       id="filter21612"
       x="-0.029991898"
       y="0"
       width="1.0299919"
       height="1.0185991"><feFlood
         flood-opacity="0.313725"
         flood-color="rgb(0,0,0)"
         result="flood"
         id="feFlood21602" /><feComposite
         in="flood"
         in2="SourceGraphic"
         operator="in"
         result="composite1"
         id="feComposite21604" /><feGaussianBlur
         in="composite1"
         stdDeviation="0"
         result="blur"
         id="feGaussianBlur21606" /><feOffset
         dx="-0.2"
         dy="0.1"
         result="offset"
         id="feOffset21608" /><feComposite
         in="SourceGraphic"
         in2="offset"
         operator="over"
         result="composite2"
         id="feComposite21610" /></filter><clipPath
       clipPathUnits="userSpaceOnUse"
       id="clipPath22004"><g
         id="g22028"
         transform="rotate(47.743766,-17.469624,16.465692)"
         style="display:inline;fill:#1fecaf;fill-opacity:1"><path
           id="path22006"
           style="opacity:1;fill:#1fecaf;fill-opacity:1;stroke-width:4.4434;stroke-linecap:round;stroke-linejoin:round;stroke-miterlimit:9.4;paint-order:stroke fill markers"
           inkscape:transform-center-x="-0.018439462"
           inkscape:transform-center-y="0.080644416"
           d="m -10.631387,-3.8690675 c 0.09763,0.039497 1.1923523,-0.7333718 1.2753752,-0.7981728 0.083023,-0.064802 1.0986046,-0.9390659 1.0839968,-1.0433659 -0.014607,-0.1043013 -0.8440816,-0.5771847 -1.3289256,-0.7054211 -0.6725134,-0.1778688 -2.0030024,-0.1256047 -2.0860264,-0.060804 -0.08302,0.064803 0.679389,1.0430111 0.693997,1.1473113 0.0146,0.1043022 0.263955,1.4209519 0.361551,1.4604602 z"
           sodipodi:nodetypes="sssasss" /><path
           id="path22008"
           style="opacity:1;fill:#cc1f41;fill-opacity:1;stroke-width:6.46499;stroke-linecap:round;stroke-linejoin:round;stroke-miterlimit:9.4;paint-order:stroke fill markers"
           d="m -17.247009,-6.7024333 0.03824,1.585433 c 2.47704,3.5735296 8.0655171,6.0087552 11.5925743,0.874882 0.1753492,-0.2552327 0.1058856,-0.623284 -0.1503784,-0.7968506 -6.1340659,-4.1545799 -7.4934889,4.8346715 -11.4804359,-1.6634644 z m 9.0092689,2.4298259 c 0.2216124,1.464e-4 0.4011481,0.1799135 0.4010091,0.4015259 -1.463e-4,0.2214106 -0.1795985,0.4008628 -0.4010091,0.4010091 -0.2216124,1.39e-4 -0.4013795,-0.1793967 -0.4015259,-0.4010091 -1.391e-4,-0.2218142 0.1797117,-0.401665 0.4015259,-0.4015259 z"
           sodipodi:nodetypes="ccsscccccc" /><path
           id="path22010"
           style="display:none;opacity:1;fill:#1fecaf;fill-opacity:1;stroke-width:6.46499;stroke-linecap:round;stroke-linejoin:round;stroke-miterlimit:9.4;paint-order:stroke fill markers"
           inkscape:transform-center-x="-0.21299527"
           inkscape:transform-center-y="0.17577549"
           transform="matrix(-0.62877231,-0.2775428,0.2775428,-0.62877231,-21.193785,-9.0970997)"
           d="m -16.588137,-2.4015921 c -0.07662,0.1327047 -2.024101,0.2262752 -2.177335,0.2262752 -0.153235,0 -2.100718,-0.093571 -2.177335,-0.2262752 -0.07662,-0.1327048 0.451414,-1.4176422 0.892707,-1.9987651 0.612104,-0.8060582 2.184905,-1.9371914 2.33814,-1.9371914 0.153234,0 0.154498,1.8044866 0.231115,1.9371914 0.07662,0.1327048 0.969325,1.8660603 0.892708,1.9987651 z"
           sodipodi:nodetypes="sssasss" /><path
           id="path22012"
           style="opacity:1;fill:#1fecaf;fill-opacity:1;stroke-width:5.43909;stroke-linecap:round;stroke-linejoin:round;stroke-miterlimit:9.4;paint-order:stroke fill markers"
           inkscape:transform-center-x="0.5270122"
           inkscape:transform-center-y="0.31081448"
           d="m -14.995006,-7.4894512 c 0.09837,0.083339 -0.116349,1.709562 -0.139336,1.8364134 -0.02299,0.1268544 -0.392621,1.7250038 -0.513972,1.7685199 -0.121356,0.043525 -1.194676,-0.5187111 -1.520712,-1.0388746 -0.419607,-0.6694491 -0.373229,-2.2173808 -0.350243,-2.3442315 0.02299,-0.1268546 0.903275,1.3588022 1.024627,1.3152861 0.121356,-0.043525 1.401269,-1.6204408 1.499622,-1.5371485 z"
           sodipodi:nodetypes="sssassss" /><ellipse
           style="fill:#ffffff;fill-opacity:1;fill-rule:evenodd;stroke-width:0.264583"
           id="ellipse22014"
           cx="-8.3501587"
           cy="-3.9118292"
           rx="0.90621078"
           ry="0.8769781" /><g
           id="g22020"
           transform="rotate(6.1344487,-13.053407,-3.4715317)"><path
             style="fill:none;fill-rule:evenodd;stroke:#1fecaf;stroke-width:0.228;stroke-dasharray:none;stroke-opacity:1"
             id="path22016"
             sodipodi:type="arc"
             sodipodi:cx="-10.437599"
             sodipodi:cy="-4.6137857"
             sodipodi:rx="0.78002316"
             sodipodi:ry="0.58745313"
             sodipodi:start="1.8390349"
             sodipodi:end="4.2338898"
             sodipodi:arc-type="arc"
             d="m -10.644331,-4.0473404 a 0.78002316,0.58745313 0 0 1 -0.568985,-0.5047999 0.78002316,0.58745313 0 0 1 0.416557,-0.5831199"
             sodipodi:open="true" /><path
             style="fill:none;fill-rule:evenodd;stroke:#1fecaf;stroke-width:0.228;stroke-dasharray:none;stroke-opacity:1"
             id="path22018"
             sodipodi:type="arc"
             sodipodi:cx="-10.252806"
             sodipodi:cy="-3.5554254"
             sodipodi:rx="0.78002316"
             sodipodi:ry="0.58745313"
             sodipodi:start="1.8390349"
             sodipodi:end="4.2338898"
             sodipodi:arc-type="arc"
             d="m -10.459538,-2.9889801 a 0.78002316,0.58745313 0 0 1 -0.568984,-0.5047999 0.78002316,0.58745313 0 0 1 0.416557,-0.5831199"
             sodipodi:open="true" /></g><g
           id="g22026"
           transform="matrix(0.88238608,0.09483649,-0.09483649,0.88238608,-2.8528951,0.84303844)"><path
             style="fill:none;fill-rule:evenodd;stroke:#1fecaf;stroke-width:0.228;stroke-dasharray:none;stroke-opacity:1"
             id="path22022"
             sodipodi:type="arc"
             sodipodi:cx="-10.437599"
             sodipodi:cy="-4.6137857"
             sodipodi:rx="0.78002316"
             sodipodi:ry="0.58745313"
             sodipodi:start="1.8390349"
             sodipodi:end="4.2338898"
             sodipodi:arc-type="arc"
             d="m -10.644331,-4.0473404 a 0.78002316,0.58745313 0 0 1 -0.568985,-0.5047999 0.78002316,0.58745313 0 0 1 0.416557,-0.5831199"
             sodipodi:open="true" /><path
             style="fill:none;fill-rule:evenodd;stroke:#1fecaf;stroke-width:0.228;stroke-dasharray:none;stroke-opacity:1"
             id="path22024"
             sodipodi:type="arc"
             sodipodi:cx="-10.252806"
             sodipodi:cy="-3.5554254"
             sodipodi:rx="0.78002316"
             sodipodi:ry="0.58745313"
             sodipodi:start="1.8390349"
             sodipodi:end="4.2338898"
             sodipodi:arc-type="arc"
             d="m -10.459538,-2.9889801 a 0.78002316,0.58745313 0 0 1 -0.568984,-0.5047999 0.78002316,0.58745313 0 0 1 0.416557,-0.5831199"
             sodipodi:open="true" /></g></g></clipPath><clipPath
       clipPathUnits="userSpaceOnUse"
       id="clipPath22057"><g
         id="g22081"
         transform="translate(17.909221,7.5366729)"
         style="display:inline;fill:#1fecaf;fill-opacity:1"><path
           id="path22059"
           style="opacity:1;fill:#1fecaf;fill-opacity:1;stroke-width:4.4434;stroke-linecap:round;stroke-linejoin:round;stroke-miterlimit:9.4;paint-order:stroke fill markers"
           inkscape:transform-center-x="-0.018439462"
           inkscape:transform-center-y="0.080644416"
           d="m -10.631387,-3.8690675 c 0.09763,0.039497 1.1923523,-0.7333718 1.2753752,-0.7981728 0.083023,-0.064802 1.0986046,-0.9390659 1.0839968,-1.0433659 -0.014607,-0.1043013 -0.8440816,-0.5771847 -1.3289256,-0.7054211 -0.6725134,-0.1778688 -2.0030024,-0.1256047 -2.0860264,-0.060804 -0.08302,0.064803 0.679389,1.0430111 0.693997,1.1473113 0.0146,0.1043022 0.263955,1.4209519 0.361551,1.4604602 z"
           sodipodi:nodetypes="sssasss" /><path
           id="path22061"
           style="opacity:1;fill:#cc1f41;fill-opacity:1;stroke-width:6.46499;stroke-linecap:round;stroke-linejoin:round;stroke-miterlimit:9.4;paint-order:stroke fill markers"
           d="m -17.247009,-6.7024333 0.03824,1.585433 c 2.47704,3.5735296 8.0655171,6.0087552 11.5925743,0.874882 0.1753492,-0.2552327 0.1058856,-0.623284 -0.1503784,-0.7968506 -6.1340659,-4.1545799 -7.4934889,4.8346715 -11.4804359,-1.6634644 z m 9.0092689,2.4298259 c 0.2216124,1.464e-4 0.4011481,0.1799135 0.4010091,0.4015259 -1.463e-4,0.2214106 -0.1795985,0.4008628 -0.4010091,0.4010091 -0.2216124,1.39e-4 -0.4013795,-0.1793967 -0.4015259,-0.4010091 -1.391e-4,-0.2218142 0.1797117,-0.401665 0.4015259,-0.4015259 z"
           sodipodi:nodetypes="ccsscccccc" /><path
           id="path22063"
           style="display:none;opacity:1;fill:#1fecaf;fill-opacity:1;stroke-width:6.46499;stroke-linecap:round;stroke-linejoin:round;stroke-miterlimit:9.4;paint-order:stroke fill markers"
           inkscape:transform-center-x="-0.21299527"
           inkscape:transform-center-y="0.17577549"
           transform="matrix(-0.62877231,-0.2775428,0.2775428,-0.62877231,-21.193785,-9.0970997)"
           d="m -16.588137,-2.4015921 c -0.07662,0.1327047 -2.024101,0.2262752 -2.177335,0.2262752 -0.153235,0 -2.100718,-0.093571 -2.177335,-0.2262752 -0.07662,-0.1327048 0.451414,-1.4176422 0.892707,-1.9987651 0.612104,-0.8060582 2.184905,-1.9371914 2.33814,-1.9371914 0.153234,0 0.154498,1.8044866 0.231115,1.9371914 0.07662,0.1327048 0.969325,1.8660603 0.892708,1.9987651 z"
           sodipodi:nodetypes="sssasss" /><path
           id="path22065"
           style="opacity:1;fill:#1fecaf;fill-opacity:1;stroke-width:5.43909;stroke-linecap:round;stroke-linejoin:round;stroke-miterlimit:9.4;paint-order:stroke fill markers"
           inkscape:transform-center-x="0.5270122"
           inkscape:transform-center-y="0.31081448"
           d="m -14.995006,-7.4894512 c 0.09837,0.083339 -0.116349,1.709562 -0.139336,1.8364134 -0.02299,0.1268544 -0.392621,1.7250038 -0.513972,1.7685199 -0.121356,0.043525 -1.194676,-0.5187111 -1.520712,-1.0388746 -0.419607,-0.6694491 -0.373229,-2.2173808 -0.350243,-2.3442315 0.02299,-0.1268546 0.903275,1.3588022 1.024627,1.3152861 0.121356,-0.043525 1.401269,-1.6204408 1.499622,-1.5371485 z"
           sodipodi:nodetypes="sssassss" /><ellipse
           style="fill:#ffffff;fill-opacity:1;fill-rule:evenodd;stroke-width:0.264583"
           id="ellipse22067"
           cx="-8.3501587"
           cy="-3.9118292"
           rx="0.90621078"
           ry="0.8769781" /><g
           id="g22073"
           transform="rotate(6.1344487,-13.053407,-3.4715317)"><path
             style="fill:none;fill-rule:evenodd;stroke:#1fecaf;stroke-width:0.228;stroke-dasharray:none;stroke-opacity:1"
             id="path22069"
             sodipodi:type="arc"
             sodipodi:cx="-10.437599"
             sodipodi:cy="-4.6137857"
             sodipodi:rx="0.78002316"
             sodipodi:ry="0.58745313"
             sodipodi:start="1.8390349"
             sodipodi:end="4.2338898"
             sodipodi:arc-type="arc"
             d="m -10.644331,-4.0473404 a 0.78002316,0.58745313 0 0 1 -0.568985,-0.5047999 0.78002316,0.58745313 0 0 1 0.416557,-0.5831199"
             sodipodi:open="true" /><path
             style="fill:none;fill-rule:evenodd;stroke:#1fecaf;stroke-width:0.228;stroke-dasharray:none;stroke-opacity:1"
             id="path22071"
             sodipodi:type="arc"
             sodipodi:cx="-10.252806"
             sodipodi:cy="-3.5554254"
             sodipodi:rx="0.78002316"
             sodipodi:ry="0.58745313"
             sodipodi:start="1.8390349"
             sodipodi:end="4.2338898"
             sodipodi:arc-type="arc"
             d="m -10.459538,-2.9889801 a 0.78002316,0.58745313 0 0 1 -0.568984,-0.5047999 0.78002316,0.58745313 0 0 1 0.416557,-0.5831199"
             sodipodi:open="true" /></g><g
           id="g22079"
           transform="matrix(0.88238608,0.09483649,-0.09483649,0.88238608,-2.8528951,0.84303844)"><path
             style="fill:none;fill-rule:evenodd;stroke:#1fecaf;stroke-width:0.228;stroke-dasharray:none;stroke-opacity:1"
             id="path22075"
             sodipodi:type="arc"
             sodipodi:cx="-10.437599"
             sodipodi:cy="-4.6137857"
             sodipodi:rx="0.78002316"
             sodipodi:ry="0.58745313"
             sodipodi:start="1.8390349"
             sodipodi:end="4.2338898"
             sodipodi:arc-type="arc"
             d="m -10.644331,-4.0473404 a 0.78002316,0.58745313 0 0 1 -0.568985,-0.5047999 0.78002316,0.58745313 0 0 1 0.416557,-0.5831199"
             sodipodi:open="true" /><path
             style="fill:none;fill-rule:evenodd;stroke:#1fecaf;stroke-width:0.228;stroke-dasharray:none;stroke-opacity:1"
             id="path22077"
             sodipodi:type="arc"
             sodipodi:cx="-10.252806"
             sodipodi:cy="-3.5554254"
             sodipodi:rx="0.78002316"
             sodipodi:ry="0.58745313"
             sodipodi:start="1.8390349"
             sodipodi:end="4.2338898"
             sodipodi:arc-type="arc"
             d="m -10.459538,-2.9889801 a 0.78002316,0.58745313 0 0 1 -0.568984,-0.5047999 0.78002316,0.58745313 0 0 1 0.416557,-0.5831199"
             sodipodi:open="true" /></g></g></clipPath><clipPath
       clipPathUnits="userSpaceOnUse"
       id="clipPath609"><path
         id="path611"
         style="display:inline;opacity:1;fill:#1fecaf;fill-opacity:1;stroke-width:6.46499;stroke-linecap:round;stroke-linejoin:round;stroke-miterlimit:9.4;paint-order:stroke fill markers"
         d="M 0.662212,0.83423961 0.700452,2.4196726 C 3.1774921,5.9932022 8.7659692,8.4284278 12.293026,3.2945546 12.468376,3.0393219 12.398912,2.6712706 12.142648,2.497704 6.0085819,-1.6568759 4.6491591,7.3323754 0.662212,0.83423961 Z M 9.671481,3.2640656 C 9.8930934,3.2642119 10.072629,3.4439791 10.07249,3.6655915 10.072344,3.887002 9.8928915,4.0664543 9.671481,4.0666006 9.4498684,4.0667395 9.2701015,3.8872038 9.2699549,3.6655915 9.269816,3.4437772 9.4496668,3.2639265 9.671481,3.2640656 Z"
         sodipodi:nodetypes="ccsscccccc"
         inkscape:label="clipto" /></clipPath><clipPath
       clipPathUnits="userSpaceOnUse"
       id="clipPath944"><path
         id="path946"
         style="display:inline;opacity:1;fill:#cc1f41;fill-opacity:1;stroke-width:6.46499;stroke-linecap:round;stroke-linejoin:round;stroke-miterlimit:9.4;paint-order:stroke fill markers"
         d="m -17.247009,-6.7024333 0.03824,1.585433 c 2.47704,3.5735296 8.0655172,6.00875516 11.5925744,0.874882 0.1753491,-0.2552327 0.1058854,-0.623284 -0.1503786,-0.7968506 -6.1340658,-4.1545799 -7.4934888,4.83467143 -11.4804358,-1.6634644 z m 9.009269,2.429826 c 0.2216124,1.463e-4 0.401148,0.1799135 0.4010091,0.4015259 -1.463e-4,0.2214105 -0.1795986,0.4008628 -0.4010091,0.4010091 -0.2216126,1.389e-4 -0.4013795,-0.1793968 -0.4015261,-0.4010091 -1.389e-4,-0.2218143 0.1797119,-0.401665 0.4015261,-0.4015259 z"
         sodipodi:nodetypes="ccsscccccc" /></clipPath><clipPath
       clipPathUnits="userSpaceOnUse"
       id="clipPath1106"><path
         id="path1108"
         style="display:inline;opacity:1;fill:#cc1f41;fill-opacity:1;stroke-width:6.46499;stroke-linecap:round;stroke-linejoin:round;stroke-miterlimit:9.4;paint-order:stroke fill markers"
         d="M 0.662212,0.83423961 0.700452,2.4196726 C 3.1774921,5.9932022 8.7659692,8.4284278 12.293026,3.2945546 12.468376,3.0393219 12.398912,2.6712706 12.142648,2.497704 6.0085819,-1.6568759 4.6491591,7.3323754 0.662212,0.83423961 Z M 9.671481,3.2640656 C 9.8930934,3.2642119 10.072629,3.4439791 10.07249,3.6655915 10.072344,3.887002 9.8928915,4.0664543 9.671481,4.0666006 9.4498684,4.0667395 9.2701015,3.8872038 9.2699549,3.6655915 9.269816,3.4437772 9.4496668,3.2639265 9.671481,3.2640656 Z"
         sodipodi:nodetypes="ccsscccccc" /></clipPath><clipPath
       clipPathUnits="userSpaceOnUse"
       id="clipPath1257"><path
         id="path1259"
         style="display:inline;opacity:1;fill:#cc1f41;fill-opacity:1;stroke-width:6.46499;stroke-linecap:round;stroke-linejoin:round;stroke-miterlimit:9.4;paint-order:stroke fill markers"
         d="M 0.662212,0.83423961 0.700452,2.4196726 C 3.1774921,5.9932022 8.7659692,8.4284278 12.293026,3.2945546 12.468376,3.0393219 12.398912,2.6712706 12.142648,2.497704 6.0085819,-1.6568759 4.6491591,7.3323754 0.662212,0.83423961 Z M 9.671481,3.2640656 C 9.8930934,3.2642119 10.072629,3.4439791 10.07249,3.6655915 10.072344,3.887002 9.8928915,4.0664543 9.671481,4.0666006 9.4498684,4.0667395 9.2701015,3.8872038 9.2699549,3.6655915 9.269816,3.4437772 9.4496668,3.2639265 9.671481,3.2640656 Z"
         sodipodi:nodetypes="ccsscccccc" /></clipPath><linearGradient
       inkscape:collect="always"
       id="linearGradient1829"><stop
         style="stop-color:#d49106;stop-opacity:1;"
         offset="0"
         id="stop1825" /><stop
         style="stop-color:#bc7702;stop-opacity:1;"
         offset="1"
         id="stop1827" /></linearGradient><linearGradient
       inkscape:collect="always"
       xlink:href="#linearGradient1829"
       id="linearGradient1831"
       x1="144.64513"
       y1="103.66506"
       x2="49.071823"
       y2="15.068904"
       gradientUnits="userSpaceOnUse" /><clipPath
       clipPathUnits="userSpaceOnUse"
       id="clipPath1921"><circle
         style="fill:#c97900;fill-opacity:1;fill-rule:evenodd;stroke-width:0.264583"
         id="circle1923"
         cx="125.14539"
         cy="70.148575"
         r="57.137142" /></clipPath><clipPath
       clipPathUnits="userSpaceOnUse"
       id="clipPath2346"><circle
         style="fill:#c97900;fill-opacity:1;fill-rule:evenodd;stroke-width:0.264583"
         id="circle2348"
         cx="125.14539"
         cy="70.148575"
         r="57.137142" /></clipPath><clipPath
       clipPathUnits="userSpaceOnUse"
       id="clipPath2773"><circle
         style="fill:url(#linearGradient2777);fill-opacity:1;fill-rule:evenodd;stroke-width:0.264583"
         id="circle2775"
         cx="114.56209"
         cy="70.148575"
         r="57.137142" /></clipPath><clipPath
       clipPathUnits="userSpaceOnUse"
       id="clipPath5396"><g
         id="g5424"
         transform="rotate(34.397657)"><circle
           style="fill:#c97900;fill-opacity:1;fill-rule:evenodd;stroke-width:0.264583"
           id="circle5398"
           cx="125.14539"
           cy="70.148575"
           r="57.137142" /><path
           id="path5400"
           style="fill:#b56c00;stroke-width:7.85847;stroke-linecap:round;stroke-linejoin:round;stroke-miterlimit:9.4;paint-order:stroke fill markers"
           d="m 120.67455,79.831461 c 26.5843,2.202057 49.98468,17.600644 81.34678,0 v 63.091229 h -81.34678 z"
           sodipodi:nodetypes="ccccc"
           clip-path="url(#clipPath1921)" /><path
           id="path5402"
           style="fill:#e69800;stroke-width:6.79052;stroke-linecap:round;stroke-linejoin:round;stroke-miterlimit:9.4;paint-order:stroke fill markers"
           d="m 103.1492,-4.5065179 h 82.11877 V 29.54273 c -49.13748,-17.182544 -47.08668,9.34095 -73.60646,10.014486 z"
           sodipodi:nodetypes="ccccc"
           clip-path="url(#clipPath2346)" /><circle
           style="fill:url(#linearGradient2777);fill-opacity:1;fill-rule:evenodd;stroke-width:0.264583"
           id="circle5404"
           cx="114.56209"
           cy="70.148575"
           r="57.137142" /><g
           aria-label="₿"
           transform="rotate(19.535339)"
           id="g5408"
           style="font-weight:bold;font-size:61.736px;font-family:'Titan One';-inkscape-font-specification:'Titan One Bold';fill:#d49106;stroke-width:1.223;stroke-linecap:round;stroke-linejoin:round;stroke-miterlimit:9.4;paint-order:stroke fill markers"><path
             d="m 134.74453,56.356541 0.45569,-7.550149 c -1.26607,0.02009 -2.68287,0.03014 -4.25038,0.03014 h -2.11012 l 0.0931,7.817675 -7.09606,-0.359737 0.28076,-7.457938 h -6.20977 l -3.17549,-43.7052603 5.94174,-0.2003254 -0.21565,-6.6075707 10.3814,0.2923717 v 6.0289063 l 4.03016,0.1015542 c 0.56252,0.014175 -2.18614,-0.062018 -1.66363,-0.041921 l 0.18368,-6.558389 10.53252,0.4698501 v 6.5715078 c 1.50723,0.3215417 2.86373,0.8942878 4.06951,1.7182383 1.36655,0.9244323 2.502,2.1603581 3.40633,3.707778 0.90434,1.527322 1.35651,3.24556 1.35651,5.154715 0,2.069924 -0.5627,3.969029 -1.6881,5.697316 -1.1053,1.728286 -2.61253,3.024501 -4.52168,3.888644 2.69291,0.783758 4.76284,2.120165 6.20978,4.009223 1.44693,1.889057 2.1704,4.109704 2.1704,6.661942 0,2.009635 -0.47226,3.969029 -1.41679,5.878182 -0.92443,1.889058 -2.20055,3.406332 -3.82835,4.551824 -1.56752,1.1053 -3.48672,1.798625 -5.75761,2.079973 l 0.29903,8.144517 z m -9.91403,-26.78236 v 11.816656 h 8.2596 c 3.21542,0 5.2552,-0.09043 6.11934,-0.271301 1.32636,-0.241156 2.40152,-0.82395 3.22547,-1.748382 0.84405,-0.944529 1.26607,-2.200551 1.26607,-3.768067 0,-1.326359 -0.32154,-2.451755 -0.96463,-3.376187 -0.64308,-0.924433 -1.57756,-1.597661 -2.80344,-2.019684 -1.20578,-0.422023 -3.8384,-0.633035 -7.89787,-0.633035 z m 0,-17.574262 v 10.218996 h 5.84804 c 3.47667,0 5.63702,-0.05024 6.48107,-0.150722 1.52733,-0.180867 2.72306,-0.703373 3.5872,-1.567516 0.88424,-0.884239 1.32636,-2.03978 1.32636,-3.466621 0,-1.366552 -0.38183,-2.471852 -1.14549,-3.315899 -0.74357,-0.864143 -1.85891,-1.386648 -3.34604,-1.567515 -0.88424,-0.100482 -3.42643,-0.150723 -7.62657,-0.150723 z"
             id="path5406"
             sodipodi:nodetypes="ccsccccccccccsccccccsccsscccccccsccsscscccscssccsc"
             style="display:inline" /></g><text
           xml:space="preserve"
           style="font-weight:bold;font-size:61.736px;font-family:'Titan One';-inkscape-font-specification:'Titan One Bold';fill:#fffe6f;fill-opacity:1;stroke:#d49106;stroke-width:1.223;stroke-linecap:round;stroke-linejoin:round;stroke-miterlimit:9.4;stroke-opacity:1;paint-order:stroke fill markers"
           x="108.39381"
           y="49.898228"
           id="text5412"
           transform="rotate(19.535339)"><tspan
             sodipodi:role="line"
             id="tspan5410"
             x="108.39381"
             y="49.898228"
             style="fill:#fffe6f;fill-opacity:1;stroke:#d49106;stroke-width:1.223;stroke-opacity:1">₿</tspan></text><path
           style="fill:none;fill-rule:evenodd;stroke:#fffc87;stroke-width:6.465;stroke-dasharray:none;stroke-opacity:1"
           id="path5414"
           sodipodi:type="arc"
           sodipodi:cx="118.17094"
           sodipodi:cy="71.102844"
           sodipodi:rx="45.065182"
           sodipodi:ry="45.065182"
           sodipodi:start="2.9123607"
           sodipodi:end="4.6917733"
           sodipodi:arc-type="arc"
           d="M 74.284606,81.342989 A 45.065182,45.065182 0 0 1 82.582903,43.455738 45.065182,45.065182 0 0 1 117.24195,26.047239"
           sodipodi:open="true" /><path
           style="fill:none;fill-rule:evenodd;stroke:#fff900;stroke-width:6.465;stroke-dasharray:none;stroke-opacity:1"
           id="path5416"
           sodipodi:type="arc"
           sodipodi:cx="-112.07322"
           sodipodi:cy="-68.84079"
           sodipodi:rx="45.065182"
           sodipodi:ry="45.065182"
           sodipodi:start="3.3460233"
           sodipodi:end="4.9276622"
           sodipodi:arc-type="arc"
           d="m -156.2,-77.989459 a 45.065182,45.065182 0 0 1 19.59811,-28.656291 45.065182,45.065182 0 0 1 34.15524,-6.22003"
           sodipodi:open="true"
           transform="scale(-1)" /><circle
           style="fill:none;fill-opacity:1;fill-rule:evenodd;stroke:url(#linearGradient1831);stroke-width:6.274;stroke-dasharray:none;stroke-opacity:1"
           id="circle5418"
           cx="114.56209"
           cy="70.148575"
           r="45.037144" /><path
           style="fill:none;fill-rule:evenodd;stroke:#fffc87;stroke-width:8.18793;stroke-dasharray:none;stroke-opacity:1"
           id="path5420"
           sodipodi:type="arc"
           sodipodi:cx="115.01922"
           sodipodi:cy="69.953712"
           sodipodi:rx="57.075089"
           sodipodi:ry="57.075089"
           sodipodi:start="2.9123607"
           sodipodi:end="5.0600571"
           sodipodi:arc-type="arc"
           d="M 59.437145,82.922864 A 57.075089,57.075089 0 0 1 77.120317,27.277736 57.075089,57.075089 0 0 1 134.46506,16.293441"
           sodipodi:open="true"
           clip-path="url(#clipPath2773)" /><path
           style="fill:none;fill-rule:evenodd;stroke:#fff900;stroke-width:8.18793;stroke-dasharray:none;stroke-opacity:1"
           id="path5422"
           sodipodi:type="arc"
           sodipodi:cx="115.01922"
           sodipodi:cy="69.953712"
           sodipodi:rx="57.075089"
           sodipodi:ry="57.075089"
           sodipodi:start="2.9123607"
           sodipodi:end="5.0600571"
           sodipodi:arc-type="arc"
           d="M 59.437145,82.922864 A 57.075089,57.075089 0 0 1 77.120317,27.277736 57.075089,57.075089 0 0 1 134.46506,16.293441"
           sodipodi:open="true"
           clip-path="url(#clipPath2773)"
           transform="rotate(180,114.56209,70.148575)" /></g></clipPath><clipPath
       clipPathUnits="userSpaceOnUse"
       id="clipPath5458"><g
         id="g5486"
         transform="rotate(34.542676)"><circle
           style="fill:#c97900;fill-opacity:1;fill-rule:evenodd;stroke-width:0.264583"
           id="circle5460"
           cx="125.14539"
           cy="70.148575"
           r="57.137142" /><path
           id="path5462"
           style="fill:#b56c00;stroke-width:7.85847;stroke-linecap:round;stroke-linejoin:round;stroke-miterlimit:9.4;paint-order:stroke fill markers"
           d="m 120.67455,79.831461 c 26.5843,2.202057 49.98468,17.600644 81.34678,0 v 63.091229 h -81.34678 z"
           sodipodi:nodetypes="ccccc"
           clip-path="url(#clipPath1921)" /><path
           id="path5464"
           style="fill:#e69800;stroke-width:6.79052;stroke-linecap:round;stroke-linejoin:round;stroke-miterlimit:9.4;paint-order:stroke fill markers"
           d="m 103.1492,-4.5065179 h 82.11877 V 29.54273 c -49.13748,-17.182544 -47.08668,9.34095 -73.60646,10.014486 z"
           sodipodi:nodetypes="ccccc"
           clip-path="url(#clipPath2346)" /><circle
           style="fill:url(#linearGradient2777);fill-opacity:1;fill-rule:evenodd;stroke-width:0.264583"
           id="circle5466"
           cx="114.56209"
           cy="70.148575"
           r="57.137142" /><g
           aria-label="₿"
           transform="rotate(19.535339)"
           id="g5470"
           style="font-weight:bold;font-size:61.736px;font-family:'Titan One';-inkscape-font-specification:'Titan One Bold';fill:#d49106;stroke-width:1.223;stroke-linecap:round;stroke-linejoin:round;stroke-miterlimit:9.4;paint-order:stroke fill markers"><path
             d="m 134.74453,56.356541 0.45569,-7.550149 c -1.26607,0.02009 -2.68287,0.03014 -4.25038,0.03014 h -2.11012 l 0.0931,7.817675 -7.09606,-0.359737 0.28076,-7.457938 h -6.20977 l -3.17549,-43.7052603 5.94174,-0.2003254 -0.21565,-6.6075707 10.3814,0.2923717 v 6.0289063 l 4.03016,0.1015542 c 0.56252,0.014175 -2.18614,-0.062018 -1.66363,-0.041921 l 0.18368,-6.558389 10.53252,0.4698501 v 6.5715078 c 1.50723,0.3215417 2.86373,0.8942878 4.06951,1.7182383 1.36655,0.9244323 2.502,2.1603581 3.40633,3.707778 0.90434,1.527322 1.35651,3.24556 1.35651,5.154715 0,2.069924 -0.5627,3.969029 -1.6881,5.697316 -1.1053,1.728286 -2.61253,3.024501 -4.52168,3.888644 2.69291,0.783758 4.76284,2.120165 6.20978,4.009223 1.44693,1.889057 2.1704,4.109704 2.1704,6.661942 0,2.009635 -0.47226,3.969029 -1.41679,5.878182 -0.92443,1.889058 -2.20055,3.406332 -3.82835,4.551824 -1.56752,1.1053 -3.48672,1.798625 -5.75761,2.079973 l 0.29903,8.144517 z m -9.91403,-26.78236 v 11.816656 h 8.2596 c 3.21542,0 5.2552,-0.09043 6.11934,-0.271301 1.32636,-0.241156 2.40152,-0.82395 3.22547,-1.748382 0.84405,-0.944529 1.26607,-2.200551 1.26607,-3.768067 0,-1.326359 -0.32154,-2.451755 -0.96463,-3.376187 -0.64308,-0.924433 -1.57756,-1.597661 -2.80344,-2.019684 -1.20578,-0.422023 -3.8384,-0.633035 -7.89787,-0.633035 z m 0,-17.574262 v 10.218996 h 5.84804 c 3.47667,0 5.63702,-0.05024 6.48107,-0.150722 1.52733,-0.180867 2.72306,-0.703373 3.5872,-1.567516 0.88424,-0.884239 1.32636,-2.03978 1.32636,-3.466621 0,-1.366552 -0.38183,-2.471852 -1.14549,-3.315899 -0.74357,-0.864143 -1.85891,-1.386648 -3.34604,-1.567515 -0.88424,-0.100482 -3.42643,-0.150723 -7.62657,-0.150723 z"
             id="path5468"
             sodipodi:nodetypes="ccsccccccccccsccccccsccsscccccccsccsscscccscssccsc"
             style="display:inline" /></g><text
           xml:space="preserve"
           style="font-weight:bold;font-size:61.736px;font-family:'Titan One';-inkscape-font-specification:'Titan One Bold';fill:#fffe6f;fill-opacity:1;stroke:#d49106;stroke-width:1.223;stroke-linecap:round;stroke-linejoin:round;stroke-miterlimit:9.4;stroke-opacity:1;paint-order:stroke fill markers"
           x="108.39381"
           y="49.898228"
           id="text5474"
           transform="rotate(19.535339)"><tspan
             sodipodi:role="line"
             id="tspan5472"
             x="108.39381"
             y="49.898228"
             style="fill:#fffe6f;fill-opacity:1;stroke:#d49106;stroke-width:1.223;stroke-opacity:1">₿</tspan></text><path
           style="fill:none;fill-rule:evenodd;stroke:#fffc87;stroke-width:6.465;stroke-dasharray:none;stroke-opacity:1"
           id="path5476"
           sodipodi:type="arc"
           sodipodi:cx="118.17094"
           sodipodi:cy="71.102844"
           sodipodi:rx="45.065182"
           sodipodi:ry="45.065182"
           sodipodi:start="2.9123607"
           sodipodi:end="4.6917733"
           sodipodi:arc-type="arc"
           d="M 74.284606,81.342989 A 45.065182,45.065182 0 0 1 82.582903,43.455738 45.065182,45.065182 0 0 1 117.24195,26.047239"
           sodipodi:open="true" /><path
           style="fill:none;fill-rule:evenodd;stroke:#fff900;stroke-width:6.465;stroke-dasharray:none;stroke-opacity:1"
           id="path5478"
           sodipodi:type="arc"
           sodipodi:cx="-112.07322"
           sodipodi:cy="-68.84079"
           sodipodi:rx="45.065182"
           sodipodi:ry="45.065182"
           sodipodi:start="3.3460233"
           sodipodi:end="4.9276622"
           sodipodi:arc-type="arc"
           d="m -156.2,-77.989459 a 45.065182,45.065182 0 0 1 19.59811,-28.656291 45.065182,45.065182 0 0 1 34.15524,-6.22003"
           sodipodi:open="true"
           transform="scale(-1)" /><circle
           style="fill:none;fill-opacity:1;fill-rule:evenodd;stroke:url(#linearGradient1831);stroke-width:6.274;stroke-dasharray:none;stroke-opacity:1"
           id="circle5480"
           cx="114.56209"
           cy="70.148575"
           r="45.037144" /><path
           style="fill:none;fill-rule:evenodd;stroke:#fffc87;stroke-width:8.18793;stroke-dasharray:none;stroke-opacity:1"
           id="path5482"
           sodipodi:type="arc"
           sodipodi:cx="115.01922"
           sodipodi:cy="69.953712"
           sodipodi:rx="57.075089"
           sodipodi:ry="57.075089"
           sodipodi:start="2.9123607"
           sodipodi:end="5.0600571"
           sodipodi:arc-type="arc"
           d="M 59.437145,82.922864 A 57.075089,57.075089 0 0 1 77.120317,27.277736 57.075089,57.075089 0 0 1 134.46506,16.293441"
           sodipodi:open="true"
           clip-path="url(#clipPath2773)" /><path
           style="fill:none;fill-rule:evenodd;stroke:#fff900;stroke-width:8.18793;stroke-dasharray:none;stroke-opacity:1"
           id="path5484"
           sodipodi:type="arc"
           sodipodi:cx="115.01922"
           sodipodi:cy="69.953712"
           sodipodi:rx="57.075089"
           sodipodi:ry="57.075089"
           sodipodi:start="2.9123607"
           sodipodi:end="5.0600571"
           sodipodi:arc-type="arc"
           d="M 59.437145,82.922864 A 57.075089,57.075089 0 0 1 77.120317,27.277736 57.075089,57.075089 0 0 1 134.46506,16.293441"
           sodipodi:open="true"
           clip-path="url(#clipPath2773)"
           transform="rotate(180,114.56209,70.148575)" /></g></clipPath><clipPath
       clipPathUnits="userSpaceOnUse"
       id="clipPath6280"><text
         xml:space="preserve"
         style="font-weight:bold;font-size:61.736px;font-family:'Titan One';-inkscape-font-specification:'Titan One Bold';fill:#ffffd4;fill-opacity:1;stroke:#d49106;stroke-width:1.223;stroke-linecap:round;stroke-linejoin:round;stroke-miterlimit:9.4;stroke-opacity:1;paint-order:stroke fill markers"
         x="108.39381"
         y="49.898228"
         id="text6284"
         transform="rotate(55.419369)"><tspan
           sodipodi:role="line"
           id="tspan6282"
           x="108.39381"
           y="49.898228"
           style="fill:#ffffd4;fill-opacity:1;stroke:#d49106;stroke-width:1.223;stroke-opacity:1">₿</tspan></text></clipPath><clipPath
       clipPathUnits="userSpaceOnUse"
       id="clipPath22025"><path
         id="path22027"
         style="fill:#3ab827;fill-opacity:1;stroke:#11732c;stroke-width:3.4;stroke-linecap:round;stroke-linejoin:miter;stroke-miterlimit:9.4;stroke-dasharray:none;stroke-opacity:1;paint-order:stroke fill markers"
         d="m -34.904389,-0.29132313 c 11.276403,-7.52539697 21.507926,6.76571323 31.3227636,0 V 17.13367 c -11.3775796,7.688736 -21.7870946,-7.573682 -31.3227636,0 z"
         sodipodi:nodetypes="ccccc" /></clipPath></defs><g
     inkscape:label="Layer 1"
     inkscape:groupmode="layer"
     id="layer1"><g
       id="g25195"
       transform="matrix(0.33072304,0,0,0.33072304,12.978689,3.8180452)"><path
         id="rect16506"
         style="fill:#3ab827;fill-opacity:1;stroke:#11732c;stroke-width:3.4;stroke-linecap:round;stroke-linejoin:miter;stroke-miterlimit:9.4;stroke-dasharray:none;stroke-opacity:1;paint-order:stroke fill markers"
         d="m -34.904389,-0.29132313 c 11.276403,-7.52539707 21.507926,6.76571323 31.3227636,0 V 17.13367 c -11.3775796,7.688736 -21.7870946,-7.5736821 -31.3227636,0 z"
         sodipodi:nodetypes="ccccc" /><ellipse
         style="fill:#11732c;fill-opacity:1;fill-rule:evenodd;stroke-width:0.287131"
         id="path18798"
         cx="-20.061401"
         cy="10.46218"
         rx="6.1449394"
         ry="6.1200991"
         transform="matrix(0.99376792,0.11146893,0.0662739,0.99780147,0,0)" /><g
         aria-label="$"
         id="text19061"
         style="font-weight:bold;font-size:9.87778px;font-family:'Titan One';-inkscape-font-specification:'Titan One Bold';fill:#3ab827;stroke-width:10.612;stroke-linecap:round;stroke-linejoin:round;stroke-miterlimit:9.4;paint-order:stroke fill markers"
         transform="matrix(1,0.11216797,0.06641993,1,-0.54483975,2.1584489)"><path
           d="m -20.201152,4.6370776 q 0,-0.227189 0.375356,-0.4247446 0.375355,-0.2074333 0.987778,-0.2074333 0.474133,0 0.612422,0.1975556 0.09878,0.1382889 0.09878,0.2568222 v 0.2963334 q 1.116189,0.1185334 1.550811,0.4148668 0.1778,0.1185333 0.1778,0.2271889 0,0.5136446 -0.246944,1.1063114 -0.237067,0.5926668 -0.464256,0.5926668 -0.03951,0 -0.256822,-0.0889 -0.651934,-0.2864557 -1.086556,-0.2864557 -0.424745,0 -0.582789,0.079022 -0.148167,0.079022 -0.148167,0.2469445 0,0.1580445 0.217311,0.2469445 0.217312,0.0889 0.5334,0.1580445 0.325967,0.059267 0.701323,0.2074333 0.385233,0.1481667 0.7112,0.3556001 0.325967,0.2074334 0.543278,0.6223002 0.217311,0.4049889 0.217311,0.8297335 0,0.4247445 -0.07902,0.7013223 -0.07902,0.276578 -0.276578,0.572912 -0.187678,0.296333 -0.582789,0.5334 -0.385233,0.227189 -0.928511,0.335844 v 0.158045 q 0,0.227189 -0.375356,0.424744 -0.375356,0.207434 -0.987778,0.207434 -0.474133,0 -0.612422,-0.197556 -0.09878,-0.138289 -0.09878,-0.256822 v -0.296334 q -0.642056,-0.05927 -1.116189,-0.187677 -0.908756,-0.246945 -0.908756,-0.533401 0,-0.553155 0.158044,-1.1458224 0.158045,-0.6025445 0.375356,-0.6025445 0.03951,0 0.819856,0.2667 0.780344,0.2667001 1.175456,0.2667001 0.395111,0 0.513644,-0.079022 0.118534,-0.0889 0.118534,-0.2469445 0,-0.1580444 -0.217312,-0.2667 -0.217311,-0.1185334 -0.543277,-0.1876778 -0.325967,-0.069145 -0.711201,-0.2173112 -0.375355,-0.1481667 -0.701322,-0.3457223 -0.325967,-0.1975556 -0.543278,-0.582789 -0.217311,-0.3852334 -0.217311,-0.898878 0,-1.8175115 1.797756,-2.1237227 z"
           id="path19113" /></g><path
         id="rect20946"
         style="fill:#158e2a;fill-opacity:1;stroke-width:4.02645;stroke-linecap:round;stroke-miterlimit:9.4;paint-order:stroke fill markers"
         d="m -3.581625,-2.248905 1.6999996,-1.2669658 V 18.035074 l -1.7,-0.901404 z"
         sodipodi:nodetypes="ccccc" /><path
         id="rect21675"
         style="opacity:0.134731;mix-blend-mode:multiply;fill:#0c511f;stroke-width:3.53115;stroke-linecap:round;stroke-miterlimit:9.4;paint-order:stroke fill markers"
         d="M -19.831156,-7.1494293 H -3.581625 V 26.555023 h -16.249531 c 1.548303,-12.773387 3.890954,-24.6152292 0,-33.7044523 z"
         sodipodi:nodetypes="ccccc"
         clip-path="url(#clipPath22025)" /><path
         id="rect23152"
         style="opacity:1;fill:#0e5c23;stroke-width:3.4;stroke-linecap:round;stroke-miterlimit:9.4;paint-order:stroke fill markers"
         d="m -18.62441,17.650288 c 5.126092,1.950392 10.234998,2.769759 15.0427846,-0.516618 l 1.7,0.901404 c -5.2384056,3.983285 -11.0234166,3.7992 -17.0059626,1.438329 z"
         sodipodi:nodetypes="ccccc" /><path
         id="rect24741"
         style="opacity:1;fill:#1ea335;fill-opacity:1;stroke-width:3.4;stroke-linecap:round;stroke-miterlimit:9.4;paint-order:stroke fill markers"
         d="m -36.604389,-1.3435285 c 6.100593,-4.3455833 13.029921,-3.1306293 19.531134,-0.5447623 l -1.044354,1.51100821 c -6.321144,-1.92611841 -10.820337,-3.31568791 -16.78678,0.0859595 z"
         sodipodi:nodetypes="ccccc" /><path
         id="rect24934"
         style="opacity:1;fill:#158e2a;fill-opacity:1;stroke-width:3.4;stroke-linecap:round;stroke-miterlimit:9.4;paint-order:stroke fill markers"
         d="m -36.604385,-1.3435284 1.699996,1.05220531 V 17.13367 l -1.7,3.506637 z"
         sodipodi:nodetypes="ccccc" /></g></g></svg>
